<svg width="24" height="24" viewBox="0 0 24 24" fill="none" xmlns="http://www.w3.org/2000/svg">
<g id="search 1">
<g id="layer1">
<path id="circle2017" d="M10.9395 1.9314C5.98074 1.9314 1.94141 5.97072 1.94141 10.9295C1.94141 15.8882 5.98074 19.9354 10.9395 19.9354C13.0575 19.9354 15.0054 19.1931 16.5449 17.9607L20.293 21.7068C20.4821 21.8881 20.7347 21.9881 20.9967 21.9855C21.2587 21.9828 21.5093 21.8776 21.6947 21.6925C21.8801 21.5073 21.9856 21.257 21.9886 20.995C21.9917 20.733 21.892 20.4802 21.7109 20.2908L17.9629 16.5428C19.1963 15.0009 19.9395 13.0499 19.9395 10.9295C19.9395 5.97072 15.8982 1.9314 10.9395 1.9314ZM10.9395 3.93143C14.8173 3.93143 17.9375 7.05163 17.9375 10.9295C17.9375 14.8073 14.8173 17.9353 10.9395 17.9353C7.06162 17.9353 3.94141 14.8073 3.94141 10.9295C3.94141 7.05163 7.06162 3.93143 10.9395 3.93143Z" fill="#A7AEC1"/>
</g>
</g>
</svg>
