<svg width="24" height="24" viewBox="0 0 24 24" fill="none" xmlns="http://www.w3.org/2000/svg">
<g id="star (2) 1" clip-path="url(#clip0_1362_4683)">
<path id="Vector" d="M5.37171 23.5146C5.10876 23.5146 4.84765 23.4326 4.6248 23.2715C4.20969 22.9706 4.01578 22.4535 4.12876 21.9545L5.67274 15.1533L0.436525 10.5612C0.0516272 10.2252 -0.0954102 9.69311 0.0626139 9.20622C0.220638 8.72024 0.650581 8.37618 1.15963 8.32912L8.08778 7.70014L10.8269 1.29C11.0289 0.819039 11.4889 0.514893 11.9999 0.514893C12.511 0.514893 12.971 0.819039 13.1729 1.2889L15.9121 7.70014L22.8391 8.32912C23.3493 8.37508 23.7792 8.72024 23.9373 9.20622C24.0953 9.69219 23.9492 10.2252 23.5643 10.5612L18.328 15.1524L19.872 21.9534C19.9852 22.4535 19.7911 22.9706 19.3762 23.2705C18.9621 23.5705 18.4101 23.5935 17.9741 23.3315L11.9999 19.7614L6.02578 23.3335C5.82381 23.4535 5.59877 23.5146 5.37171 23.5146ZM11.9999 18.2235C12.227 18.2235 12.4518 18.2845 12.654 18.4044L18.2921 21.7765L16.835 15.3573C16.731 14.9004 16.886 14.4234 17.2391 14.1143L22.1832 9.77825L15.642 9.18424C15.171 9.14121 14.766 8.84512 14.582 8.41115L11.9999 2.36192L9.41478 8.41207C9.23277 8.84311 8.82773 9.1392 8.35787 9.18223L1.81571 9.77624L6.75969 14.1123C7.11382 14.4223 7.26873 14.8984 7.16381 15.3563L5.70772 21.7754L11.3459 18.4044C11.5478 18.2845 11.7729 18.2235 11.9999 18.2235ZM8.03486 7.8241C8.03486 7.8241 8.03486 7.8252 8.03377 7.82612L8.03486 7.8241ZM15.963 7.82117L15.9641 7.82319C15.9641 7.82209 15.9641 7.82209 15.963 7.82117Z" fill="#A7AEC1"/>
</g>
<defs>
<clipPath id="clip0_1362_4683">
<rect width="24" height="24" fill="white"/>
</clipPath>
</defs>
</svg>
