<svg width="24" height="24" viewBox="0 0 24 24" fill="none" xmlns="http://www.w3.org/2000/svg">
<g id="task 1">
<g id="Layer_17">
<path id="Vector" d="M14.8801 9.95259C14.8801 9.57984 14.5779 9.27759 14.2051 9.27759H5.85762C5.48487 9.27759 5.18262 9.57984 5.18262 9.95259C5.18262 10.3253 5.48487 10.6276 5.85762 10.6276H14.2051C14.5779 10.6276 14.8801 10.3253 14.8801 9.95259Z" fill="#A7AEC1"/>
<path id="Vector_2" d="M10.8903 13.9499C10.8903 13.5772 10.588 13.2749 10.2153 13.2749H5.85029C5.47754 13.2749 5.17529 13.5772 5.17529 13.9499C5.17529 14.3227 5.47754 14.6249 5.85029 14.6249H10.2153C10.588 14.6249 10.8903 14.3227 10.8903 13.9499Z" fill="#A7AEC1"/>
<path id="Vector_3" d="M5.85029 17.28C5.47754 17.28 5.17529 17.5823 5.17529 17.955C5.17529 18.3278 5.47754 18.63 5.85029 18.63H8.94779C9.32054 18.63 9.62279 18.3278 9.62279 17.955C9.62279 17.5823 9.32054 17.28 8.94779 17.28H5.85029Z" fill="#A7AEC1"/>
<path id="Vector_4" d="M20.3626 16.8067C19.9898 16.8067 19.6876 17.109 19.6876 17.4817V20.2792C19.6876 21.1312 18.9946 21.8242 18.1426 21.8242H4.4326C3.5806 21.8242 2.8876 21.1312 2.8876 20.2792V5.67747C2.8876 4.82547 3.5806 4.13247 4.4326 4.13247H6.2776V4.30122C6.2776 5.28597 7.07785 6.08622 8.0626 6.08622H14.5126C15.4973 6.08622 16.2976 5.28597 16.2976 4.30122V4.13322H18.1426C18.9946 4.13322 19.6876 4.82622 19.6876 5.67822V6.23247C19.6876 6.60522 19.9898 6.90747 20.3626 6.90747C20.7353 6.90747 21.0376 6.60522 21.0376 6.23247V5.67747C21.0376 4.08147 19.7393 2.78247 18.1426 2.78247H16.2976V2.60997C16.2976 1.62522 15.4973 0.824219 14.5126 0.824219H8.0626C7.07785 0.824219 6.2776 1.62522 6.2776 2.60997V2.78247H4.4326C2.8366 2.78247 1.5376 4.08147 1.5376 5.67747V20.28C1.5376 21.876 2.83585 23.175 4.4326 23.175H18.1426C19.7386 23.175 21.0376 21.876 21.0376 20.28V17.4825C21.0376 17.1097 20.7353 16.8067 20.3626 16.8067ZM7.6276 2.60997C7.6276 2.36997 7.8226 2.17497 8.0626 2.17497H14.5126C14.7526 2.17497 14.9476 2.36997 14.9476 2.60997V4.30122C14.9476 4.54047 14.7526 4.73547 14.5126 4.73547H8.0626C7.8226 4.73547 7.6276 4.54047 7.6276 4.30122V2.60997Z" fill="#A7AEC1"/>
<path id="Vector_5" d="M21.7263 9.27376C20.7468 8.29351 19.1515 8.29351 18.1727 9.27376L11.9672 15.4793C11.77 15.6758 11.6417 15.9248 11.5952 16.2L11.2555 18.2123C11.1835 18.6353 11.3222 19.0703 11.626 19.374C11.8772 19.626 12.2185 19.7648 12.568 19.7648C12.6415 19.7648 12.715 19.7588 12.7877 19.7468L14.8007 19.407C15.073 19.3605 15.3212 19.233 15.5192 19.0358L21.7255 12.8295C22.7065 11.8485 22.7065 10.254 21.7263 9.27376ZM14.5765 18.075L12.5867 18.4365L12.9213 16.4355L17.3875 11.9693L19.033 13.6148L14.5765 18.075ZM20.7723 11.8733L19.987 12.6593L18.3422 11.0145L19.1275 10.2293C19.354 10.002 19.6525 9.88876 19.9503 9.88876C20.248 9.88876 20.5458 10.002 20.773 10.2293C21.2253 10.6823 21.2252 11.4203 20.7723 11.8733Z" fill="#A7AEC1"/>
</g>
</g>
</svg>
