<svg width="24" height="24" viewBox="0 0 24 24" fill="none" xmlns="http://www.w3.org/2000/svg">
<path fill-rule="evenodd" clip-rule="evenodd" d="M12 4.5C7.8579 4.5 4.5 7.8579 4.5 12C4.5 16.1421 7.8579 19.5 12 19.5C16.1421 19.5 19.5 16.1421 19.5 12C19.5 7.8579 16.1421 4.5 12 4.5ZM3 12C3 7.02944 7.02944 3 12 3C16.9705 3 21 7.02944 21 12C21 16.9705 16.9705 21 12 21C7.02944 21 3 16.9705 3 12Z" fill="#A7AEC1"/>
<path fill-rule="evenodd" clip-rule="evenodd" d="M12 1.125C12.4142 1.125 12.75 1.46079 12.75 1.875V5.625C12.75 6.03921 12.4142 6.375 12 6.375C11.5858 6.375 11.25 6.03921 11.25 5.625V1.875C11.25 1.46079 11.5858 1.125 12 1.125Z" fill="#A7AEC1"/>
<path fill-rule="evenodd" clip-rule="evenodd" d="M1.125 12C1.125 11.5858 1.46079 11.25 1.875 11.25H5.625C6.03921 11.25 6.375 11.5858 6.375 12C6.375 12.4142 6.03921 12.75 5.625 12.75H1.875C1.46079 12.75 1.125 12.4142 1.125 12Z" fill="#A7AEC1"/>
<path fill-rule="evenodd" clip-rule="evenodd" d="M12 17.625C12.4142 17.625 12.75 17.9608 12.75 18.375V22.125C12.75 22.5392 12.4142 22.875 12 22.875C11.5858 22.875 11.25 22.5392 11.25 22.125V18.375C11.25 17.9608 11.5858 17.625 12 17.625Z" fill="#A7AEC1"/>
<path fill-rule="evenodd" clip-rule="evenodd" d="M17.625 12C17.625 11.5858 17.9608 11.25 18.375 11.25H22.125C22.5392 11.25 22.875 11.5858 22.875 12C22.875 12.4142 22.5392 12.75 22.125 12.75H18.375C17.9608 12.75 17.625 12.4142 17.625 12Z" fill="#A7AEC1"/>
<path fill-rule="evenodd" clip-rule="evenodd" d="M12 9.75C10.7573 9.75 9.75 10.7573 9.75 12C9.75 13.2427 10.7573 14.25 12 14.25C13.2427 14.25 14.25 13.2427 14.25 12C14.25 10.7573 13.2427 9.75 12 9.75ZM8.25 12C8.25 9.92895 9.92895 8.25 12 8.25C14.0711 8.25 15.75 9.92895 15.75 12C15.75 14.0711 14.0711 15.75 12 15.75C9.92895 15.75 8.25 14.0711 8.25 12Z" fill="#A7AEC1"/>
</svg>
