<svg width="20" height="20" viewBox="0 0 20 20" fill="none" xmlns="http://www.w3.org/2000/svg">
<g id="akar-icons:location">
<g id="Group">
<path id="Vector" d="M10 10.8359C11.3807 10.8359 12.5 9.71665 12.5 8.33594C12.5 6.95523 11.3807 5.83594 10 5.83594C8.61929 5.83594 7.5 6.95523 7.5 8.33594C7.5 9.71665 8.61929 10.8359 10 10.8359Z" stroke="#667F99" stroke-width="2" stroke-linecap="round" stroke-linejoin="round"/>
<path id="Vector_2" d="M10.0007 1.66797C8.23254 1.66797 6.53685 2.37035 5.28661 3.62059C4.03636 4.87083 3.33398 6.56652 3.33398 8.33463C3.33398 9.9113 3.66898 10.943 4.58398 12.0846L10.0007 18.3346L15.4173 12.0846C16.3323 10.943 16.6673 9.9113 16.6673 8.33463C16.6673 6.56652 15.9649 4.87083 14.7147 3.62059C13.4645 2.37035 11.7688 1.66797 10.0007 1.66797Z" stroke="#667F99" stroke-width="2" stroke-linecap="round" stroke-linejoin="round"/>
</g>
</g>
</svg>
