<svg width="190" height="106" viewBox="0 0 190 106" fill="none" xmlns="http://www.w3.org/2000/svg">
<path d="M186.832 105.986C187.377 106.078 187.893 105.712 187.986 105.168L189.496 96.2954C189.589 95.751 189.223 95.2345 188.678 95.1418C188.134 95.0491 187.617 95.4154 187.524 95.9598L186.182 103.846L178.295 102.504C177.751 102.411 177.234 102.777 177.142 103.322C177.049 103.866 177.415 104.383 177.96 104.476L186.832 105.986ZM12.2215 4.73954C12.7559 4.87903 13.3022 4.55891 13.4417 4.02453C13.5812 3.49015 13.2611 2.94387 12.7267 2.80438L12.2215 4.73954ZM31.7647 8.28708C31.2377 8.12199 30.6766 8.4154 30.5115 8.94243C30.3464 9.46946 30.6398 10.0305 31.1668 10.1956L31.7647 8.28708ZM53.5265 17.8265C54.0446 18.0178 54.6197 17.7529 54.811 17.2348C55.0023 16.7167 54.7374 16.1416 54.2193 15.9503L53.5265 17.8265ZM72.6265 23.1844C72.1169 22.9716 71.5312 23.2123 71.3185 23.7219C71.1057 24.2316 71.3464 24.8172 71.856 25.03L72.6265 23.1844ZM93.4198 34.7113C93.9173 34.9513 94.515 34.7426 94.755 34.2452C94.995 33.7478 94.7863 33.15 94.2889 32.91L93.4198 34.7113ZM111.891 41.9485C111.406 41.6836 110.798 41.8616 110.534 42.3462C110.269 42.8308 110.447 43.4384 110.931 43.7033L111.891 41.9485ZM131.243 55.7441C131.707 56.0432 132.326 55.9092 132.625 55.4449C132.924 54.9806 132.79 54.3617 132.326 54.0627L131.243 55.7441ZM148.592 65.3669C148.151 65.035 147.524 65.1237 147.192 65.5651C146.86 66.0066 146.949 66.6335 147.39 66.9654L148.592 65.3669ZM165.462 82.0944C165.864 82.4724 166.497 82.4525 166.875 82.0499C167.253 81.6473 167.233 81.0144 166.831 80.6364L165.462 82.0944ZM180.514 95.0059C180.158 94.5837 179.527 94.53 179.105 94.8861C178.682 95.2421 178.629 95.873 178.985 96.2952L180.514 95.0059ZM0.785203 1.97666C4.27202 2.74352 8.10243 3.66431 12.2215 4.73954L12.7267 2.80438C8.58476 1.7232 4.72908 0.796239 1.2148 0.0233413L0.785203 1.97666ZM31.1668 10.1956C38.2274 12.4073 45.7383 14.9506 53.5265 17.8265L54.2193 15.9503C46.3988 13.0625 38.8563 10.5085 31.7647 8.28708L31.1668 10.1956ZM71.856 25.03C78.9724 28.0008 86.1992 31.2278 93.4198 34.7113L94.2889 32.91C87.0334 29.4096 79.7736 26.168 72.6265 23.1844L71.856 25.03ZM110.931 43.7033C117.832 47.4769 124.638 51.4903 131.243 55.7441L132.326 54.0627C125.677 49.7805 118.83 45.7427 111.891 41.9485L110.931 43.7033ZM147.39 66.9654C153.76 71.7553 159.821 76.7982 165.462 82.0944L166.831 80.6364C161.132 75.2848 155.013 70.1954 148.592 65.3669L147.39 66.9654ZM178.985 96.2952C181.535 99.3196 183.94 102.414 186.184 105.578L187.816 104.422C185.538 101.209 183.098 98.0704 180.514 95.0059L178.985 96.2952Z" fill="#B0B0B0"/>
</svg>
