<svg width="44" height="86" viewBox="0 0 44 86" fill="none" xmlns="http://www.w3.org/2000/svg">
<path d="M35.2151 85.4284C35.584 85.8394 36.2163 85.8734 36.6272 85.5045L43.3244 79.4922C43.7354 79.1232 43.7695 78.491 43.4005 78.08C43.0316 77.669 42.3993 77.635 41.9883 78.0039L36.0353 83.3482L30.691 77.3952C30.3221 76.9842 29.6898 76.9501 29.2789 77.3191C28.8679 77.688 28.8338 78.3202 29.2028 78.7312L35.2151 85.4284ZM8.15764 11.6563C8.47016 12.1117 9.09265 12.2275 9.548 11.9149C10.0034 11.6024 10.1191 10.9799 9.80663 10.5246L8.15764 11.6563ZM20.8016 28.5049C20.5386 28.0193 19.9317 27.8388 19.446 28.1017C18.9604 28.3647 18.7799 28.9716 19.0429 29.4573L20.8016 28.5049ZM29.3172 52.2396C29.5018 52.7601 30.0735 53.0323 30.594 52.8477C31.1145 52.663 31.3867 52.0914 31.2021 51.5709L29.3172 52.2396ZM36.3684 72.0749C36.2938 71.5277 35.7897 71.1446 35.2424 71.2192C34.6952 71.2939 34.3121 71.798 34.3868 72.3452L36.3684 72.0749ZM0.709559 1.63219C2.88143 4.29406 5.43664 7.69173 8.15764 11.6563L9.80663 10.5246C7.05816 6.51996 4.47 3.07741 2.25919 0.367813L0.709559 1.63219ZM19.0429 29.4573C22.8854 36.5535 26.4993 44.2966 29.3172 52.2396L31.2021 51.5709C28.3425 43.5103 24.6822 35.6715 20.8016 28.5049L19.0429 29.4573ZM34.3868 72.3452C34.9596 76.5441 35.1773 80.6858 34.9607 84.7065L36.9578 84.8142C37.1822 80.649 36.9556 76.3796 36.3684 72.0749L34.3868 72.3452Z" fill="#B0B0B0"/>
</svg>
