<svg width="32" height="32" viewBox="0 0 32 32" fill="none" xmlns="http://www.w3.org/2000/svg">
<path d="M13.2805 11.792H18.7188V25.0442H13.2805V11.792Z" fill="#BDBDBD"/>
<path opacity="0.2" d="M17.6884 12.8224V24.0424H14.2823V12.8224H17.6884ZM18.7188 11.792H13.2805V25.0442H18.7188V11.792Z" fill="#424242"/>
<path d="M9.87451 25.99C9.87451 24.7306 10.9049 23.7002 12.1643 23.7002H19.7779C21.0373 23.7002 22.0677 24.7306 22.0677 25.99C22.0677 26.219 21.896 26.3907 21.667 26.3907H10.2752C10.0749 26.3907 9.87451 26.219 9.87451 25.99Z" fill="#BDBDBD"/>
<path opacity="0.2" d="M19.8067 24.3585C20.6081 24.3585 21.2665 24.931 21.4096 25.7038H10.5903C10.7334 24.931 11.3917 24.3585 12.1931 24.3585H19.8067ZM19.8067 23.7002H12.1931C10.9337 23.7002 9.90332 24.7306 9.90332 25.99C9.90332 26.219 10.0751 26.3907 10.304 26.3907H21.6958C21.9248 26.3907 22.0965 26.219 22.0965 25.99C22.0965 24.7306 21.0661 23.7002 19.8067 23.7002Z" fill="#424242"/>
<path d="M29.6813 20.9803H2.28956C1.03017 20.9803 -0.000244141 19.9499 -0.000244141 18.6905V2.2898C-0.000244141 1.03041 1.03017 0 2.28956 0H29.6813C30.9407 0 31.9711 1.03041 31.9711 2.2898V18.6905C31.9425 19.9499 30.9407 20.9803 29.6813 20.9803Z" fill="url(#paint0_linear_498_18025)"/>
<path opacity="0.2" d="M29.6813 1.03041C30.3683 1.03041 30.9407 1.60286 30.9407 2.2898V18.6905C30.9407 19.3775 30.3683 19.9499 29.6813 19.9499H2.28956C1.60262 19.9499 1.03017 19.3775 1.03017 18.6905V2.2898C1.03017 1.60286 1.60262 1.03041 2.28956 1.03041H29.6813ZM29.6813 0H2.28956C1.03017 0 -0.000244141 1.03041 -0.000244141 2.2898V18.6905C-0.000244141 19.9499 1.03017 20.9803 2.28956 20.9803H29.6813C30.9407 20.9803 31.9711 19.9499 31.9711 18.6905V2.2898C31.9425 1.03041 30.9407 0 29.6813 0Z" fill="#424242"/>
<path d="M28.6224 17.2881H3.34867C2.89071 17.2881 2.48999 16.916 2.48999 16.4294V3.34891C2.48999 2.89095 2.86208 2.49023 3.34867 2.49023H28.6224C29.109 2.49023 29.481 2.86233 29.481 3.34891V16.458C29.481 16.916 29.109 17.2881 28.6224 17.2881Z" fill="#757575"/>
<path d="M25.3879 27.335H6.58285C6.32525 27.335 6.06765 27.4781 5.92453 27.7071L3.89233 31.1704H28.107L26.0462 27.6784C25.9031 27.4781 25.6455 27.335 25.3879 27.335Z" fill="url(#paint1_linear_498_18025)"/>
<path opacity="0.2" d="M25.3879 27.7643C25.5024 27.7643 25.6168 27.8215 25.6741 27.936L27.3628 30.7983H4.57927L6.26801 27.936C6.32525 27.8215 6.43974 27.7643 6.55423 27.7643H25.3879ZM25.3879 27.335H6.58285C6.32525 27.335 6.06765 27.4781 5.92453 27.7071L3.89233 31.1704H28.107L26.0462 27.6784C25.9031 27.4781 25.6455 27.335 25.3879 27.335Z" fill="#424242"/>
<path d="M8.47185 28.5932H7.18384L7.35557 28.2783H8.64359L8.47185 28.5932Z" fill="#F5F5F5"/>
<path d="M10.5041 28.5932H9.21606L9.35918 28.2783H10.7044L10.5041 28.5932Z" fill="#F5F5F5"/>
<path d="M12.4504 28.5932H11.1338L11.3341 28.2783H12.6222L12.4504 28.5932Z" fill="#F5F5F5"/>
<path d="M14.3683 28.5932H13.0803L13.2807 28.2783H14.5114L14.3683 28.5932Z" fill="#F5F5F5"/>
<path d="M16.2859 28.5932H14.9692L15.0837 28.2783H16.1714L16.2859 28.5932Z" fill="#F5F5F5"/>
<path d="M18.2036 28.5932H16.9156L16.7725 28.2783H18.0032L18.2036 28.5932Z" fill="#F5F5F5"/>
<path d="M20.207 28.5932H18.8904L18.6614 28.2783H19.9494L20.207 28.5932Z" fill="#F5F5F5"/>
<path d="M22.1247 28.5932H20.8081L20.5791 28.2783H21.8957L22.1247 28.5932Z" fill="#F5F5F5"/>
<path d="M24.7296 28.5932H22.7546L22.5256 28.2783H24.5292L24.7296 28.5932Z" fill="#F5F5F5"/>
<path d="M23.7276 29.1081H25.0156L24.7866 28.7646H23.47L23.7276 29.1081Z" fill="#F5F5F5"/>
<path d="M21.6097 29.1081H22.8977L22.6401 28.7646H21.3521L21.6097 29.1081Z" fill="#F5F5F5"/>
<path d="M19.6633 29.1081H20.9513L20.751 28.7646H19.4343L19.6633 29.1081Z" fill="#F5F5F5"/>
<path d="M17.5736 29.1081H18.8616L18.6326 28.7646H17.4019L17.5736 29.1081Z" fill="#F5F5F5"/>
<path d="M15.7134 29.1081H17.0014L16.8583 28.7646H15.7706L15.7134 29.1081Z" fill="#F5F5F5"/>
<path d="M13.8528 29.1081H15.1408L15.2267 28.7646H13.9673L13.8528 29.1081Z" fill="#F5F5F5"/>
<path d="M11.8208 29.1081H13.1088L13.2806 28.7646H12.0212L11.8208 29.1081Z" fill="#F5F5F5"/>
<path d="M9.53076 29.1081H10.8474L11.0478 28.7646H9.73112L9.53076 29.1081Z" fill="#F5F5F5"/>
<path d="M6.89746 29.1081H8.84379L9.04415 28.7646H7.0692L6.89746 29.1081Z" fill="#F5F5F5"/>
<path d="M19.2051 29.6237H20.5217L20.2927 29.2803H18.9761L19.2051 29.6237Z" fill="#F5F5F5"/>
<path d="M17.1445 29.6237H18.4325L18.2608 29.2803H17.03L17.1445 29.6237Z" fill="#F5F5F5"/>
<path d="M14.6829 29.6237H15.9995L15.9709 29.2803H14.7974L14.6829 29.6237Z" fill="#F5F5F5"/>
<path d="M12.3645 29.6237H13.6811L13.7956 29.2803H12.5362L12.3645 29.6237Z" fill="#F5F5F5"/>
<path d="M9.9314 29.6237H11.2194L11.4198 29.2803H10.1318L9.9314 29.6237Z" fill="#F5F5F5"/>
<path d="M6.63989 29.6237H9.24454L9.4449 29.2803H6.84025L6.63989 29.6237Z" fill="#F5F5F5"/>
<path d="M21.4092 29.6237H25.3018L25.0728 29.2803H21.1802L21.4092 29.6237Z" fill="#F5F5F5"/>
<path d="M24.3575 30.1384H25.6741L25.4165 29.7949H24.0999L24.3575 30.1384Z" fill="#F5F5F5"/>
<path d="M21.9532 30.1384H23.2412L22.9836 29.7949H21.6956L21.9532 30.1384Z" fill="#F5F5F5"/>
<path d="M11.563 30.1384H20.4074L20.207 29.7949H11.7633L11.563 30.1384Z" fill="#F5F5F5"/>
<path d="M8.78662 30.1384H10.1033L10.2464 29.7949H8.98698L8.78662 30.1384Z" fill="#F5F5F5"/>
<path d="M6.3252 30.1384H7.61321L7.75632 29.7949H6.49693L6.3252 30.1384Z" fill="#F5F5F5"/>
<path d="M27.6777 31.9997H4.32167C4.09269 31.9997 3.89233 31.7993 3.89233 31.5703V31.1982H28.107V31.5703C28.107 31.7993 27.9066 31.9997 27.6777 31.9997Z" fill="#9E9E9E"/>
<path opacity="0.2" d="M27.9066 31.3986V31.5703C27.9066 31.6848 27.7922 31.7993 27.6777 31.7993H4.32167C4.20718 31.7993 4.09269 31.6848 4.09269 31.5703V31.3986H27.9066ZM28.107 31.1982H3.89233V31.5703C3.89233 31.7993 4.09269 31.9997 4.32167 31.9997H27.6777C27.9066 31.9997 28.107 31.7993 28.107 31.5703V31.1982Z" fill="#424242"/>
<defs>
<linearGradient id="paint0_linear_498_18025" x1="15.9854" y1="0.0650304" x2="15.9854" y2="20.8372" gradientUnits="userSpaceOnUse">
<stop offset="0.0040657" stop-color="#EEEEEE"/>
<stop offset="1" stop-color="#BDBDBD"/>
</linearGradient>
<linearGradient id="paint1_linear_498_18025" x1="15.9997" y1="31.1858" x2="15.9997" y2="27.3736" gradientUnits="userSpaceOnUse">
<stop stop-color="#9E9E9E"/>
<stop offset="1" stop-color="#E0E0E0"/>
</linearGradient>
</defs>
</svg>
