<svg width="33" height="32" viewBox="0 0 33 32" fill="none" xmlns="http://www.w3.org/2000/svg">
<path d="M2.03785 6.39551C1.44852 6.39551 0.971191 6.87284 0.971191 7.46217V8.52882C0.971191 9.03015 1.32052 9.44882 1.78718 9.56348C1.86718 9.58215 1.95252 9.59548 2.03785 9.59548H3.10717C3.10717 9.67015 5.63782 22.622 5.63782 22.622C5.73382 23.1127 6.13115 23.4647 6.59248 23.4647H23.387L26.107 9.59548H27.299V9.56348L27.635 8.52882V6.39551H2.03785Z" fill="url(#paint0_linear_498_18116)"/>
<path d="M0.971191 8.52734C0.971191 9.02867 1.32052 9.44734 1.78718 9.562H27.3016L27.6376 8.52734H0.971191Z" fill="#F57C00"/>
<path d="M5.38178 11.8453L7.27776 20.3812C7.3311 20.6265 7.54709 20.7999 7.79776 20.7999H8.97108C9.26441 20.7999 9.50441 20.5599 9.50441 20.2665V11.7306C9.50441 11.4373 9.26441 11.1973 8.97108 11.1973H5.90177C5.56044 11.1973 5.30711 11.5119 5.38178 11.8453Z" fill="#F57C00"/>
<path d="M22.1604 11.8453L20.2644 20.3812C20.211 20.6265 19.995 20.7999 19.7444 20.7999H18.571C18.2777 20.7999 18.0377 20.5599 18.0377 20.2665V11.7306C18.0377 11.4373 18.2777 11.1973 18.571 11.1973H21.6404C21.979 11.1973 22.235 11.5119 22.1604 11.8453Z" fill="#F57C00"/>
<path d="M12.2325 11.1973H15.3072C15.6245 11.1973 15.8725 11.4746 15.8378 11.7893L14.8912 20.3225C14.8618 20.5919 14.6325 20.7972 14.3605 20.7972H13.1818C12.9098 20.7972 12.6805 20.5919 12.6512 20.3225L11.7018 11.7866C11.6672 11.4719 11.9152 11.1973 12.2325 11.1973Z" fill="#F57C00"/>
<path opacity="0.2" d="M26.8376 7.1955V8.40349L26.7096 8.79816H26.1097C25.7283 8.79816 25.3977 9.07015 25.3257 9.44348L22.731 22.6674H6.59248C6.52848 22.6674 6.44581 22.5927 6.42181 22.47C5.74449 19.0061 3.98183 9.97948 3.8965 9.48882C3.84317 9.09682 3.50984 8.79816 3.10451 8.79816H2.03785C2.03252 8.79816 2.01385 8.79816 1.97652 8.78749C1.87785 8.76349 1.77118 8.67282 1.77118 8.52882V7.46217C1.77118 7.3155 1.89118 7.1955 2.03785 7.1955H26.8376ZM27.6376 6.39551H2.03785C1.44852 6.39551 0.971191 6.87284 0.971191 7.46217V8.52882C0.971191 9.03015 1.32052 9.44882 1.78718 9.56348C1.86718 9.58215 1.95252 9.59548 2.03785 9.59548H3.10717C3.10717 9.67015 5.63782 22.622 5.63782 22.622C5.73382 23.1127 6.13115 23.4647 6.59248 23.4647H23.387L26.1097 9.59548H27.3016V9.56348L27.6376 8.52882V6.39551Z" fill="#424242"/>
<path opacity="0.2" d="M8.97108 11.7306V20.2665H7.79776L5.90177 11.7306H8.97108ZM8.97108 11.1973H5.90177C5.56044 11.1973 5.30711 11.5146 5.38178 11.8453L7.27776 20.3812C7.3311 20.6265 7.54709 20.7999 7.79776 20.7999H8.97108C9.26441 20.7999 9.50441 20.5599 9.50441 20.2665V11.7306C9.50441 11.4346 9.26441 11.1973 8.97108 11.1973Z" fill="#424242"/>
<path opacity="0.2" d="M21.6404 11.7306L19.7444 20.2665H18.571V11.7306H21.6404ZM21.6404 11.1973H18.571C18.2777 11.1973 18.0377 11.4373 18.0377 11.7306V20.2665C18.0377 20.5599 18.2777 20.7999 18.571 20.7999H19.7444C19.995 20.7999 20.211 20.6265 20.2644 20.3812L22.1604 11.8453C22.235 11.5119 21.979 11.1973 21.6404 11.1973Z" fill="#424242"/>
<path opacity="0.2" d="M15.3072 11.7306L14.3578 20.2665H13.1792L12.2298 11.7306H15.3072ZM15.3072 11.1973H12.2325C11.9152 11.1973 11.6672 11.4746 11.7018 11.7893L12.6512 20.3252C12.6805 20.5945 12.9098 20.7999 13.1818 20.7999H14.3605C14.6325 20.7999 14.8618 20.5945 14.8912 20.3252L15.8405 11.7893C15.8725 11.4719 15.6271 11.1973 15.3072 11.1973Z" fill="#424242"/>
<path d="M28.8455 0.957745C28.2162 1.16841 27.7282 1.67241 27.5389 2.30707L21.2829 23.1602C21.2056 23.4216 21.2296 23.7016 21.3496 23.9442L22.3256 25.8962C22.5042 26.2509 22.2456 26.6695 21.8482 26.6695H3.1044C2.48041 26.6695 1.98174 27.2055 2.04308 27.8402C2.09641 28.3949 2.5924 28.8029 3.14973 28.8029H24.3976C24.6562 28.8029 24.9176 28.7255 25.1176 28.5602C25.5122 28.2295 25.6082 27.6909 25.3922 27.2589L23.8856 24.2482C23.6029 23.6856 23.5469 23.0349 23.7282 22.4322L29.4855 3.23506C29.5255 3.09639 29.6215 2.98706 29.7469 2.9204L28.8615 0.955078L28.8455 0.957745Z" fill="url(#paint1_linear_498_18116)"/>
<path d="M32.8243 0.520161C32.571 0.077498 32.0244 -0.103834 31.5417 0.0588314L28.8644 0.952158L29.7497 2.91747C29.7764 2.90414 29.8004 2.88814 29.8297 2.88014L32.2404 2.07482C32.8697 1.86415 33.1737 1.12816 32.8243 0.520161Z" fill="#F57C00"/>
<path opacity="0.2" d="M31.8962 0.533329C32.0935 0.533329 32.2722 0.629328 32.3602 0.783994C32.4748 0.983992 32.4348 1.15999 32.4002 1.25066C32.3415 1.39999 32.2215 1.51732 32.0695 1.56799L29.6589 2.37331C29.5895 2.39731 29.5389 2.42398 29.4962 2.44798C29.2402 2.58398 29.0562 2.80798 28.9735 3.07998L23.2189 22.2745C22.9976 23.0105 23.0669 23.7945 23.4082 24.4825L24.9149 27.4931C25.0269 27.7144 24.9682 27.9838 24.7736 28.1464C24.6829 28.2238 24.5469 28.2664 24.3976 28.2664H3.14973C2.85107 28.2664 2.59774 28.0558 2.57374 27.7864C2.55774 27.6318 2.6084 27.4851 2.70974 27.3731C2.81107 27.2611 2.9524 27.1998 3.1044 27.1998H21.8482C22.2216 27.1998 22.5602 27.0104 22.7549 26.6931C22.9496 26.3758 22.9682 25.9891 22.8029 25.6558L21.8269 23.7038C21.7656 23.5811 21.7549 23.4425 21.7922 23.3118L28.0482 2.45865C28.1895 1.98932 28.5495 1.61865 29.0135 1.46399L29.0295 1.45865L31.7068 0.565329C31.7708 0.543996 31.8322 0.533329 31.8962 0.533329ZM31.8962 0C31.7762 0 31.6562 0.0186665 31.5388 0.0586661L28.8615 0.951992L28.8455 0.957326C28.2162 1.16799 27.7282 1.67199 27.5389 2.30665L21.2829 23.1598C21.2056 23.4211 21.2296 23.7011 21.3496 23.9438L22.3256 25.8958C22.5042 26.2505 22.2456 26.6691 21.8482 26.6691H3.1044C2.48041 26.6691 1.98174 27.2051 2.04308 27.8398C2.09641 28.3944 2.5924 28.8024 3.14973 28.8024H24.3976C24.6562 28.8024 24.9176 28.7251 25.1176 28.5598C25.5122 28.2291 25.6082 27.6904 25.3922 27.2584L23.8856 24.2478C23.6029 23.6851 23.5469 23.0345 23.7282 22.4318L29.4855 3.23464C29.5255 3.09597 29.6215 2.98664 29.7469 2.91998C29.7735 2.90664 29.7975 2.89064 29.8268 2.88264L32.2375 2.07732C32.8642 1.86665 33.1682 1.13066 32.8215 0.522662C32.6322 0.183999 32.2722 0 31.8962 0Z" fill="#424242"/>
<path d="M7.37111 32C8.54931 32 9.50443 31.0449 9.50443 29.8667C9.50443 28.6885 8.54931 27.7334 7.37111 27.7334C6.19291 27.7334 5.23779 28.6885 5.23779 29.8667C5.23779 31.0449 6.19291 32 7.37111 32Z" fill="#37474F"/>
<path d="M21.2377 32C22.4159 32 23.371 31.0449 23.371 29.8667C23.371 28.6885 22.4159 27.7334 21.2377 27.7334C20.0595 27.7334 19.1044 28.6885 19.1044 29.8667C19.1044 31.0449 20.0595 32 21.2377 32Z" fill="#37474F"/>
<path d="M7.90443 30.9334H6.83777C6.54444 30.9334 6.30444 30.6934 6.30444 30.4V27.7334H8.43776V30.4C8.43776 30.6934 8.19776 30.9334 7.90443 30.9334Z" fill="#B0BEC5"/>
<path d="M7.3711 29.8665C7.66565 29.8665 7.90443 29.6277 7.90443 29.3331C7.90443 29.0386 7.66565 28.7998 7.3711 28.7998C7.07655 28.7998 6.83777 29.0386 6.83777 29.3331C6.83777 29.6277 7.07655 29.8665 7.3711 29.8665Z" fill="#FAFAFA" stroke="#757575" stroke-width="2.19831" stroke-miterlimit="10"/>
<path d="M21.771 30.9334H20.7043C20.411 30.9334 20.171 30.6934 20.171 30.4V27.7334H22.3043V30.4C22.3043 30.6934 22.0643 30.9334 21.771 30.9334Z" fill="#B0BEC5"/>
<path d="M21.2377 29.8665C21.5322 29.8665 21.771 29.6277 21.771 29.3331C21.771 29.0386 21.5322 28.7998 21.2377 28.7998C20.9431 28.7998 20.7043 29.0386 20.7043 29.3331C20.7043 29.6277 20.9431 29.8665 21.2377 29.8665Z" fill="#FAFAFA" stroke="#757575" stroke-width="2.19831" stroke-miterlimit="10"/>
<defs>
<linearGradient id="paint0_linear_498_18116" x1="14.3041" y1="5.96378" x2="14.3041" y2="24.9532" gradientUnits="userSpaceOnUse">
<stop stop-color="#FFA726"/>
<stop offset="1" stop-color="#FB8C00"/>
</linearGradient>
<linearGradient id="paint1_linear_498_18116" x1="15.8931" y1="-4.10835" x2="15.8931" y2="33.3468" gradientUnits="userSpaceOnUse">
<stop stop-color="#90A4AE"/>
<stop offset="1" stop-color="#607D8B"/>
</linearGradient>
</defs>
</svg>
