<svg width="33" height="32" viewBox="0 0 33 32" fill="none" xmlns="http://www.w3.org/2000/svg">
<path d="M16.4661 32.001C25.3026 32.001 32.4661 24.8375 32.4661 16.001C32.4661 7.16442 25.3026 0.000976562 16.4661 0.000976562C7.62951 0.000976562 0.466064 7.16442 0.466064 16.001C0.466064 24.8375 7.62951 32.001 16.4661 32.001Z" fill="url(#paint0_radial_498_19001)"/>
<mask id="mask0_498_19001" style="mask-type:luminance" maskUnits="userSpaceOnUse" x="0" y="0" width="33" height="33">
<path d="M16.4661 32.001C25.3026 32.001 32.4661 24.8375 32.4661 16.001C32.4661 7.16442 25.3026 0.000976562 16.4661 0.000976562C7.62951 0.000976562 0.466064 7.16442 0.466064 16.001C0.466064 24.8375 7.62951 32.001 16.4661 32.001Z" fill="white"/>
</mask>
<g mask="url(#mask0_498_19001)">
<g opacity="0.2">
<path d="M8.90869 -3.34062C9.07136 -3.34062 9.23669 -3.29796 9.38603 -3.20729L10.498 -2.53529C11.338 -2.02863 12.298 -1.76462 13.2687 -1.76462C13.5647 -1.76462 13.8607 -1.78863 14.154 -1.83929L17.4847 -2.39662C17.5407 -2.40729 17.5967 -2.40996 17.6527 -2.40996C18.1674 -2.40996 18.6154 -2.01262 18.658 -1.48196L18.77 -0.111291C18.8207 0.526042 18.3807 1.09671 17.7514 1.20604L17.394 1.27004C16.5914 1.41138 15.914 1.94738 15.5914 2.69404C15.4554 3.00604 15.5247 3.37138 15.7647 3.61404L17.8474 5.72071C17.938 5.81404 18.0634 5.86471 18.1914 5.86471C18.2154 5.86471 18.242 5.86204 18.266 5.85938C18.4847 5.82471 18.65 5.64871 18.6714 5.42738L18.9034 3.03538C18.954 2.51271 19.394 2.11271 19.9194 2.11271H19.994C20.3887 2.11271 20.7487 2.34204 20.9167 2.69938L21.386 3.70204C21.466 3.87271 21.634 3.96871 21.8074 3.96871C21.8927 3.96871 21.9807 3.94471 22.058 3.89404C22.1354 3.84338 22.2234 3.81938 22.3087 3.81938C22.4874 3.81938 22.658 3.92071 22.7354 4.09938L23.9514 6.90471C24.2127 7.50737 23.9327 8.20604 23.3274 8.45938L22.3434 8.87271C20.6714 9.57404 19.1967 10.6674 18.0394 12.0647L18.0154 12.094C17.9567 12.166 17.9274 12.2567 17.9327 12.3474L17.9994 13.3874C18.0127 13.5767 17.874 13.7447 17.6847 13.7687C17.65 13.774 17.618 13.7767 17.5834 13.7767C17.2554 13.7767 16.9594 13.5634 16.8607 13.2434L16.858 13.23C16.7567 12.902 16.4554 12.6834 16.1194 12.6834C16.082 12.6834 16.042 12.686 16.002 12.6914L15.3354 12.7927C14.834 12.87 14.4074 13.2007 14.2154 13.67L14.0207 14.142C13.9514 14.3074 13.9647 14.494 14.0527 14.6487L14.074 14.6834C14.1834 14.8727 14.378 14.974 14.5754 14.974C14.7114 14.974 14.85 14.926 14.962 14.8247C15.0687 14.7287 15.2074 14.6754 15.3514 14.6754H15.3834L15.794 14.6994C16.034 14.7127 16.194 14.9527 16.114 15.1794L16.0554 15.3474C15.9407 15.6754 16.1834 16.0194 16.5327 16.0194C16.7914 16.0194 17.0074 16.214 17.034 16.47L17.1007 17.0807C17.1274 17.3127 17.3087 17.4967 17.5407 17.526L17.5967 17.534C17.618 17.5367 17.6394 17.5367 17.6607 17.5367C17.8367 17.5367 17.9994 17.446 18.0927 17.294C18.3487 16.87 18.8074 16.6167 19.2954 16.6167C19.3567 16.6167 19.4207 16.622 19.482 16.63L20.834 16.8114C21.5754 16.91 22.282 17.1954 22.8847 17.638L23.8474 18.3474C24.138 18.5607 24.3514 18.862 24.4607 19.2034C24.602 19.6514 24.922 20.0194 25.3434 20.222L27.226 21.1287C27.778 21.3954 27.9914 22.0674 27.6954 22.6034L26.402 24.95C26.2554 25.2167 25.9994 25.4087 25.7034 25.4754L24.9434 25.646C24.482 25.75 24.1407 26.1447 24.1034 26.6167L24.0954 26.734C24.058 27.2114 23.858 27.6594 23.5274 28.006L19.546 32.182C19.074 32.6754 19.026 33.438 19.4287 33.9874L19.7114 34.374C19.922 34.662 19.7087 35.0514 19.3727 35.0514C19.3514 35.0514 19.3274 35.0487 19.3034 35.046L18.5674 34.934C18.0927 34.862 17.698 34.5287 17.5434 34.0754L17.2287 33.1447C17.0687 32.6754 17.058 32.1687 17.194 31.6914L18.8554 25.8354C19.0394 25.1927 18.85 24.4994 18.37 24.0354L18.0234 23.702C17.6207 23.3154 17.3434 22.8167 17.2287 22.2727L16.874 20.614C16.7594 20.078 16.8607 19.5207 17.154 19.0567L17.2154 18.9607C17.402 18.6647 17.242 18.2727 16.9007 18.1954L16.7807 18.1687C16.6634 18.142 16.5594 18.0754 16.4874 17.9767L15.53 16.6914C15.4874 16.6354 15.4314 16.5927 15.3674 16.5687L13.026 15.6914C12.4287 15.4674 11.9274 15.046 11.6047 14.494L9.33803 10.6167C9.02869 10.0887 8.85269 9.49404 8.82069 8.88338L8.76469 7.74738C8.72736 6.98204 8.48469 6.23804 8.06603 5.59538L7.48736 4.71004C6.97003 3.91537 6.27669 3.25138 5.46069 2.76604L5.28736 2.66738C4.99403 2.49404 4.66603 2.40604 4.34069 2.40604C4.27936 2.40604 4.22069 2.40871 4.15936 2.41404C3.99936 2.43004 3.83936 2.43804 3.67936 2.43804C3.11136 2.43804 2.54603 2.33404 2.02603 2.09404L0.0926935 1.20604C-0.0566399 1.13671 -0.12064 0.939375 -0.0166398 0.811375L-0.0139731 0.808709L0.476694 0.224708C0.65536 0.011375 0.538027 -0.313958 0.266027 -0.364625C0.0446935 -0.404625 -0.0859731 -0.636625 -0.00597316 -0.847292L0.17536 -1.32463C0.226027 -1.45796 0.35136 -1.54862 0.492694 -1.55662C0.780694 -1.57529 6.25003 -1.72462 7.73536 -2.96463C7.94869 -3.14062 8.26069 -3.12729 8.50869 -3.24729C8.63403 -3.30863 8.77003 -3.34062 8.90869 -3.34062ZM8.90869 -4.14062C8.65003 -4.14062 8.39403 -4.08196 8.16203 -3.96996C8.13536 -3.95929 8.05536 -3.93796 7.99669 -3.92463C7.78336 -3.87396 7.49269 -3.80463 7.22069 -3.58063C6.65003 -3.10329 4.60469 -2.53262 0.578027 -2.36196C0.508694 -2.35929 0.46336 -2.35662 0.442027 -2.35396C-0.0113064 -2.32463 -0.40864 -2.03396 -0.571306 -1.60996L-0.75264 -1.13262C-0.875306 -0.809958 -0.851307 -0.452625 -0.68064 -0.151291C-0.62464 -0.0499582 -0.555306 0.0380416 -0.475306 0.118042L-0.627306 0.296709C-0.627306 0.299375 -0.63264 0.304708 -0.635306 0.307375C-0.837973 0.555375 -0.91264 0.880709 -0.84064 1.19804C-0.765973 1.52071 -0.541973 1.79804 -0.24064 1.93404L1.69269 2.82204C2.29269 3.09671 2.96203 3.23804 3.67936 3.23804C3.86336 3.23804 4.05003 3.23004 4.23936 3.21138C4.27403 3.20871 4.30869 3.20604 4.34336 3.20604C4.53269 3.20604 4.71936 3.25671 4.88203 3.35538L5.05269 3.45671C5.75936 3.87537 6.36736 4.46204 6.81803 5.15004L7.39669 6.03538C7.73803 6.55804 7.93536 7.16604 7.96736 7.79004L8.02336 8.92604C8.06069 9.66204 8.27669 10.3874 8.64736 11.022L10.914 14.8994C11.3274 15.606 11.978 16.1527 12.7434 16.4407L14.9647 17.2727L15.8447 18.454C15.9754 18.63 16.1487 18.7687 16.3434 18.8594C16.0394 19.4487 15.9487 20.1207 16.09 20.7794L16.4447 22.438C16.594 23.142 16.9487 23.7794 17.4687 24.278L17.8154 24.6114C18.0847 24.87 18.1887 25.2567 18.0874 25.6167L16.426 31.4727C16.2447 32.1074 16.2634 32.774 16.474 33.4007L16.7887 34.3314C17.0394 35.0727 17.674 35.606 18.4474 35.726L19.1834 35.838C19.2474 35.8487 19.3114 35.8514 19.3727 35.8514C19.834 35.8514 20.2527 35.5927 20.4634 35.1794C20.674 34.766 20.634 34.2754 20.3594 33.902L20.0767 33.5154C19.9007 33.2754 19.9247 32.9474 20.1274 32.734L24.1087 28.558C24.5647 28.0807 24.842 27.4567 24.8954 26.798L24.9034 26.6807C24.914 26.558 25.002 26.4567 25.122 26.4274L25.882 26.2567C26.402 26.1394 26.8474 25.8034 27.106 25.3367L28.3994 22.99C28.6447 22.542 28.698 22.0087 28.5434 21.5207C28.3887 21.0354 28.0367 20.6274 27.5754 20.406L25.6927 19.4994C25.4687 19.3927 25.3007 19.1954 25.226 18.9607C25.066 18.4514 24.754 18.0167 24.3247 17.6994L23.362 16.99C22.6527 16.4674 21.8154 16.1314 20.9434 16.014L19.5914 15.8327C19.4954 15.8194 19.3967 15.814 19.298 15.814C18.754 15.814 18.2314 16.0194 17.8314 16.374C17.77 15.846 17.402 15.4247 16.9167 15.2754C16.9754 14.9767 16.914 14.6727 16.7407 14.414C16.5354 14.1074 16.2074 13.9207 15.8394 13.8994L15.4287 13.8754C15.402 13.8727 15.3754 13.8727 15.3514 13.8727C15.2234 13.8727 15.098 13.8914 14.978 13.9234C15.0714 13.742 15.25 13.6114 15.4554 13.582L16.1007 13.4834C16.306 14.134 16.9007 14.5714 17.586 14.5714C17.6554 14.5714 17.7247 14.566 17.7914 14.558C18.394 14.478 18.8367 13.9394 18.7967 13.3314L18.7407 12.4674C19.7967 11.2247 21.146 10.238 22.65 9.60604L23.634 9.19271C24.1247 8.98738 24.506 8.60071 24.7034 8.10738C24.9007 7.61404 24.8954 7.07271 24.682 6.58204L23.466 3.77671C23.266 3.31537 22.81 3.01671 22.306 3.01671C22.1914 3.01671 22.0794 3.03271 21.97 3.06204L21.6394 2.35538C21.3407 1.71804 20.6954 1.30738 19.9914 1.30738H19.9167C18.9754 1.30738 18.1967 2.01404 18.106 2.95271L17.9407 4.67271L16.3354 3.04604C16.3247 3.03538 16.322 3.01938 16.3274 3.00604C16.546 2.50471 16.9967 2.14738 17.5354 2.05137L17.8927 1.98738C18.9327 1.80338 19.6554 0.870042 19.57 -0.183291L19.4554 -1.54596C19.3807 -2.47929 18.5887 -3.20996 17.6527 -3.20996C17.5514 -3.20996 17.45 -3.20196 17.3514 -3.18596L14.0207 -2.62596C13.7727 -2.58329 13.5194 -2.56196 13.266 -2.56196C12.434 -2.56196 11.6207 -2.78862 10.9087 -3.21796L9.79936 -3.89263C9.53003 -4.05263 9.22336 -4.14062 8.90869 -4.14062Z" fill="#424242"/>
<path d="M19.5221 14.2082C19.6847 14.2082 19.8447 14.2322 20.0021 14.2775C20.5861 14.4509 21.6181 14.7549 22.1141 14.9015C22.2527 14.9415 22.3141 15.1069 22.2341 15.2295L22.1114 15.4109C22.0474 15.5095 21.9381 15.5655 21.8234 15.5655C21.8047 15.5655 21.7861 15.5629 21.7701 15.5602L19.5994 15.2162C19.4981 15.2002 19.3967 15.1922 19.2981 15.1922C19.2021 15.1922 19.1061 15.2002 19.0101 15.2135L18.6154 15.2722C18.5621 15.2802 18.5061 15.2855 18.4527 15.2855C18.1621 15.2855 17.8821 15.1682 17.6767 14.9575L17.5887 14.8669C17.5061 14.7815 17.5461 14.6402 17.6607 14.6135C18.0234 14.5229 18.6847 14.3602 19.1301 14.2535C19.2581 14.2242 19.3914 14.2082 19.5221 14.2082ZM19.5221 13.4082C19.3247 13.4082 19.1301 13.4322 18.9381 13.4775C18.4927 13.5842 17.8261 13.7495 17.4634 13.8375C17.1327 13.9202 16.8687 14.1735 16.7754 14.5015C16.6821 14.8295 16.7727 15.1842 17.0101 15.4269L17.0981 15.5175C17.4501 15.8802 17.9434 16.0855 18.4474 16.0855C18.5407 16.0855 18.6367 16.0775 18.7274 16.0642L19.1221 16.0055C19.1781 15.9975 19.2341 15.9922 19.2901 15.9922C19.3487 15.9922 19.4101 15.9975 19.4687 16.0055L21.6394 16.3495C21.6981 16.3602 21.7594 16.3629 21.8181 16.3629C22.2021 16.3629 22.5594 16.1709 22.7727 15.8509L22.8954 15.6695C23.0741 15.4029 23.1141 15.0615 23.0047 14.7602C22.8954 14.4589 22.6447 14.2242 22.3381 14.1309L20.8714 13.6989L20.2261 13.5095C19.9994 13.4429 19.7621 13.4082 19.5221 13.4082Z" fill="#424242"/>
<path d="M23.274 15.177C23.2926 15.177 23.3113 15.1796 23.33 15.1823C23.9006 15.2756 25.1166 15.953 24.8713 16.1636C24.8073 16.2196 24.7273 16.2463 24.6446 16.2463C24.6153 16.2463 24.5833 16.2436 24.554 16.2356L22.7886 15.7636C22.7513 15.753 22.7353 15.7103 22.7566 15.6783L22.9833 15.3316C23.05 15.2356 23.1593 15.177 23.274 15.177ZM23.274 14.377C22.8873 14.377 22.5273 14.5716 22.3166 14.8943L22.09 15.241C21.9406 15.4703 21.9086 15.7583 22.0073 16.0143C22.106 16.2703 22.322 16.465 22.586 16.5343L24.3513 17.0063C24.4473 17.033 24.5486 17.0463 24.6473 17.0463C24.922 17.0463 25.186 16.9476 25.394 16.769C25.6606 16.5396 25.7673 16.1876 25.6713 15.8463C25.4473 15.0463 23.9166 14.465 23.4633 14.3903C23.3993 14.3823 23.338 14.377 23.274 14.377Z" fill="#424242"/>
</g>
</g>
<mask id="mask1_498_19001" style="mask-type:luminance" maskUnits="userSpaceOnUse" x="0" y="0" width="33" height="33">
<path d="M16.4661 32.001C25.3026 32.001 32.4661 24.8375 32.4661 16.001C32.4661 7.16442 25.3026 0.000976562 16.4661 0.000976562C7.62951 0.000976562 0.466064 7.16442 0.466064 16.001C0.466064 24.8375 7.62951 32.001 16.4661 32.001Z" fill="white"/>
</mask>
<g mask="url(#mask1_498_19001)">
<path d="M23.8474 18.348L22.8848 17.6386C22.2821 17.196 21.5781 16.9106 20.8341 16.812L19.4821 16.6306C18.9274 16.556 18.3834 16.8173 18.0928 17.2973C17.9888 17.468 17.7968 17.5613 17.5968 17.5373L17.5408 17.5293C17.3088 17.5 17.1274 17.316 17.1008 17.084L17.0341 16.4733C17.0048 16.2173 16.7888 16.0226 16.5328 16.0226C16.1834 16.0226 15.9408 15.6786 16.0554 15.3506L16.1141 15.1826C16.1941 14.956 16.0341 14.716 15.7941 14.7026L15.3834 14.6786C15.2288 14.6706 15.0768 14.724 14.9621 14.828C14.6901 15.076 14.2554 15.0066 14.0741 14.6866L14.0528 14.652C13.9648 14.4973 13.9514 14.3106 14.0208 14.1453L14.2154 13.6733C14.4101 13.204 14.8341 12.8706 15.3354 12.796L16.0021 12.6946C16.3808 12.6386 16.7434 12.8653 16.8554 13.2306L16.8581 13.244C16.9674 13.5986 17.3141 13.82 17.6821 13.772C17.8714 13.748 18.0074 13.58 17.9968 13.3906L17.9301 12.3506C17.9248 12.2573 17.9541 12.1666 18.0128 12.0973L18.0368 12.068C19.1941 10.6733 20.6688 9.5773 22.3408 8.87597L23.3248 8.46264C23.9301 8.2093 24.2101 7.51064 23.9488 6.90797L22.7328 4.10264C22.6181 3.8413 22.2954 3.74264 22.0554 3.8973C21.8181 4.0493 21.5034 3.95864 21.3834 3.70264L20.9141 2.69997C20.7461 2.34264 20.3861 2.1133 19.9914 2.1133H19.9168C19.3914 2.1133 18.9514 2.5133 18.9008 3.03597L18.6688 5.42797C18.6474 5.64664 18.4794 5.8253 18.2634 5.85997C18.1088 5.88397 17.9541 5.8333 17.8448 5.7213L15.7621 3.61464C15.5221 3.37197 15.4554 3.00664 15.5888 2.69464C15.9141 1.94797 16.5914 1.41197 17.3914 1.27064L17.7488 1.20664C18.3781 1.09464 18.8181 0.523971 18.7674 -0.110696L18.6554 -1.48136C18.6074 -2.0707 18.0661 -2.4947 17.4821 -2.39603L14.1541 -1.83603C12.8901 -1.62536 11.5941 -1.87336 10.4981 -2.5347L9.38611 -3.2067C9.11411 -3.37203 8.78344 -3.38003 8.50878 -3.24936C8.26078 -3.12936 7.94878 -3.1427 7.73544 -2.9667C6.24744 -1.72403 0.780776 -1.5747 0.492776 -1.55603C0.351442 -1.54803 0.226109 -1.45736 0.175442 -1.32403L-0.00589105 -0.846696C-0.0858911 -0.636029 0.0447756 -0.40403 0.266109 -0.361363C0.538109 -0.310696 0.655442 0.014637 0.476776 0.22797L-0.013891 0.811971L-0.0165577 0.814637C-0.120558 0.942637 -0.0565578 1.13997 0.0927756 1.20664L2.02611 2.09464C2.69278 2.4013 3.42878 2.48397 4.15944 2.41464C4.54611 2.3773 4.94078 2.45997 5.28744 2.6653L5.45811 2.76664C6.27411 3.25197 6.96478 3.91597 7.48478 4.71064L8.06344 5.59597C8.48211 6.23864 8.72478 6.97997 8.76211 7.74797L8.81811 8.88397C8.84744 9.49464 9.02611 10.0893 9.33544 10.6173L11.6021 14.4946C11.9248 15.044 12.4261 15.468 13.0234 15.692L15.3648 16.5693C15.4288 16.5933 15.4874 16.636 15.5274 16.692L16.4848 17.9773C16.5568 18.0733 16.6608 18.1426 16.7781 18.1693L16.8981 18.196C17.2394 18.2733 17.4021 18.6653 17.2128 18.9613L17.1514 19.0573C16.8581 19.5186 16.7568 20.0786 16.8714 20.6146L17.2261 22.2733C17.3434 22.82 17.6208 23.316 18.0208 23.7026L18.3674 24.036C18.8501 24.5 19.0368 25.1906 18.8528 25.836L17.1914 31.692C17.0554 32.1693 17.0688 32.676 17.2261 33.1453L17.5408 34.076C17.6954 34.532 18.0901 34.8626 18.5648 34.9346L19.3008 35.0466C19.6768 35.1053 19.9328 34.6813 19.7088 34.3746L19.4261 33.988C19.0234 33.436 19.0714 32.676 19.5434 32.1826L23.5248 28.0066C23.8554 27.66 24.0554 27.212 24.0928 26.7346L24.1008 26.6173C24.1381 26.1453 24.4794 25.7506 24.9408 25.6466L25.7008 25.476C25.9994 25.4093 26.2528 25.2173 26.3994 24.9506L27.6928 22.604C27.9888 22.068 27.7728 21.3933 27.2234 21.1293L25.3408 20.2226C24.9194 20.02 24.5994 19.6493 24.4581 19.204C24.3514 18.86 24.1381 18.5613 23.8474 18.348Z" fill="url(#paint1_radial_498_19001)"/>
<path d="M19.1274 14.2576C18.6821 14.3642 18.0207 14.5269 17.6581 14.6176C17.5434 14.6469 17.5034 14.7882 17.5861 14.8709L17.6741 14.9616C17.9167 15.2122 18.2661 15.3296 18.6127 15.2762L19.0074 15.2176C19.2021 15.1882 19.4021 15.1882 19.5994 15.2202L21.7701 15.5642C21.9034 15.5856 22.0367 15.5269 22.1141 15.4149L22.2367 15.2336C22.3167 15.1109 22.2581 14.9482 22.1167 14.9056C21.6207 14.7589 20.5887 14.4549 20.0047 14.2816C19.7194 14.1962 19.4181 14.1882 19.1274 14.2576Z" fill="url(#paint2_radial_498_19001)"/>
<path d="M22.9861 15.3343L22.7594 15.681C22.7381 15.713 22.7541 15.7557 22.7914 15.7663L24.5568 16.2383C24.6688 16.2677 24.7861 16.241 24.8714 16.1663C25.1194 15.953 23.9008 15.2783 23.3301 15.185C23.1968 15.161 23.0608 15.2197 22.9861 15.3343Z" fill="url(#paint3_radial_498_19001)"/>
</g>
<path opacity="0.2" d="M16.4661 0.800977C24.8474 0.800977 31.6661 7.61964 31.6661 16.001C31.6661 24.3823 24.8474 31.201 16.4661 31.201C8.08473 31.201 1.26606 24.3823 1.26606 16.001C1.26606 7.61964 8.08473 0.800977 16.4661 0.800977ZM16.4661 0.000976562C7.62873 0.000976562 0.466064 7.16364 0.466064 16.001C0.466064 24.8383 7.62873 32.001 16.4661 32.001C25.3034 32.001 32.4661 24.8383 32.4661 16.001C32.4661 7.16364 25.3034 0.000976562 16.4661 0.000976562Z" fill="#424242"/>
<defs>
<radialGradient id="paint0_radial_498_19001" cx="0" cy="0" r="1" gradientUnits="userSpaceOnUse" gradientTransform="translate(16.4215 0.000976562) scale(32.056)">
<stop stop-color="#42A5F5"/>
<stop offset="0.3522" stop-color="#42A5F5"/>
<stop offset="0.6798" stop-color="#2B8BE2"/>
<stop offset="1" stop-color="#1976D2"/>
</radialGradient>
<radialGradient id="paint1_radial_498_19001" cx="0" cy="0" r="1" gradientUnits="userSpaceOnUse" gradientTransform="translate(16.4661 0.0901835) scale(32.0107 32.0107)">
<stop stop-color="#AEEA00"/>
<stop offset="0.2373" stop-color="#ADE903"/>
<stop offset="0.3915" stop-color="#A9E40B"/>
<stop offset="0.522" stop-color="#A2DC1A"/>
<stop offset="0.6386" stop-color="#98D12F"/>
<stop offset="0.7459" stop-color="#8BC34A"/>
<stop offset="1" stop-color="#8BC34A"/>
</radialGradient>
<radialGradient id="paint2_radial_498_19001" cx="0" cy="0" r="1" gradientUnits="userSpaceOnUse" gradientTransform="translate(16.4661 0.090432) scale(32.0107 32.0107)">
<stop stop-color="#AEEA00"/>
<stop offset="0.2373" stop-color="#ADE903"/>
<stop offset="0.3915" stop-color="#A9E40B"/>
<stop offset="0.522" stop-color="#A2DC1A"/>
<stop offset="0.6386" stop-color="#98D12F"/>
<stop offset="0.7459" stop-color="#8BC34A"/>
<stop offset="1" stop-color="#8BC34A"/>
</radialGradient>
<radialGradient id="paint3_radial_498_19001" cx="0" cy="0" r="1" gradientUnits="userSpaceOnUse" gradientTransform="translate(16.4661 0.0898723) scale(32.0107 32.0107)">
<stop stop-color="#AEEA00"/>
<stop offset="0.2373" stop-color="#ADE903"/>
<stop offset="0.3915" stop-color="#A9E40B"/>
<stop offset="0.522" stop-color="#A2DC1A"/>
<stop offset="0.6386" stop-color="#98D12F"/>
<stop offset="0.7459" stop-color="#8BC34A"/>
<stop offset="1" stop-color="#8BC34A"/>
</radialGradient>
</defs>
</svg>
