<svg width="32" height="32" viewBox="0 0 32 32" fill="none" xmlns="http://www.w3.org/2000/svg">
<path d="M31.9996 31.9996H0V5.33325C0 4.74393 0.477327 4.2666 1.06665 4.2666H30.9329C31.5222 4.2666 31.9996 4.74393 31.9996 5.33325V31.9996Z" fill="url(#paint0_linear_498_17940)"/>
<path d="M27.7332 4.2666H31.9998V31.9996H27.7332V4.2666Z" fill="url(#paint1_linear_498_17940)"/>
<path d="M0 31.9996H4.26661V4.2666H0V31.9996Z" fill="url(#paint2_linear_498_17940)"/>
<path d="M29.3329 11.7332H27.1996C26.9063 11.7332 26.6663 11.4932 26.6663 11.1998V9.06653C26.6663 8.7732 26.9063 8.5332 27.1996 8.5332H29.3329C29.6262 8.5332 29.8662 8.7732 29.8662 9.06653V11.1998C29.8662 11.4932 29.6262 11.7332 29.3329 11.7332Z" fill="#546E7A"/>
<path d="M29.3329 17.0671H27.1996C26.9063 17.0671 26.6663 16.8271 26.6663 16.5338V14.4005C26.6663 14.1072 26.9063 13.8672 27.1996 13.8672H29.3329C29.6262 13.8672 29.8662 14.1072 29.8662 14.4005V16.5338C29.8662 16.8271 29.6262 17.0671 29.3329 17.0671Z" fill="#546E7A"/>
<path d="M29.3329 22.3992H27.1996C26.9063 22.3992 26.6663 22.1592 26.6663 21.8658V19.7325C26.6663 19.4392 26.9063 19.1992 27.1996 19.1992H29.3329C29.6262 19.1992 29.8662 19.4392 29.8662 19.7325V21.8658C29.8662 22.1592 29.6262 22.3992 29.3329 22.3992Z" fill="#546E7A"/>
<path d="M4.79993 11.7332H2.66663C2.3733 11.7332 2.1333 11.4932 2.1333 11.1998V9.06653C2.1333 8.7732 2.3733 8.5332 2.66663 8.5332H4.79993C5.09326 8.5332 5.33326 8.7732 5.33326 9.06653V11.1998C5.33326 11.4932 5.09326 11.7332 4.79993 11.7332Z" fill="#546E7A"/>
<path d="M4.79993 17.0671H2.66663C2.3733 17.0671 2.1333 16.8271 2.1333 16.5338V14.4005C2.1333 14.1072 2.3733 13.8672 2.66663 13.8672H4.79993C5.09326 13.8672 5.33326 14.1072 5.33326 14.4005V16.5338C5.33326 16.8271 5.09326 17.0671 4.79993 17.0671Z" fill="#546E7A"/>
<path d="M4.79993 22.3992H2.66663C2.3733 22.3992 2.1333 22.1592 2.1333 21.8658V19.7325C2.1333 19.4392 2.3733 19.1992 2.66663 19.1992H4.79993C5.09326 19.1992 5.33326 19.4392 5.33326 19.7325V21.8658C5.33326 22.1592 5.09326 22.3992 4.79993 22.3992Z" fill="#546E7A"/>
<path opacity="0.2" d="M30.9329 5.06659C31.0796 5.06659 31.1996 5.18659 31.1996 5.33325V31.1996H0.799989V5.33325C0.799989 5.18659 0.919988 5.06659 1.06665 5.06659H30.9329ZM30.9329 4.2666H1.06665C0.477327 4.2666 0 4.74393 0 5.33325V31.9996H31.9996V5.33325C31.9996 4.74393 31.5222 4.2666 30.9329 4.2666Z" fill="#424242"/>
<path d="M27.733 31.9996H4.2666V1.06665C4.2666 0.477327 4.74393 0 5.33325 0H26.6663C27.2556 0 27.733 0.477327 27.733 1.06665V31.9996Z" fill="url(#paint3_linear_498_17940)"/>
<path d="M10.6666 23.4666H8.53333C8.24 23.4666 8 23.2266 8 22.9332V20.7999C8 20.5066 8.24 20.2666 8.53333 20.2666H10.6666C10.96 20.2666 11.2 20.5066 11.2 20.7999V22.9332C11.2 23.2266 10.96 23.4666 10.6666 23.4666Z" fill="#546E7A"/>
<path d="M17.0665 23.4666H14.9332C14.6399 23.4666 14.3999 23.2266 14.3999 22.9332V20.7999C14.3999 20.5066 14.6399 20.2666 14.9332 20.2666H17.0665C17.3599 20.2666 17.5999 20.5066 17.5999 20.7999V22.9332C17.5999 23.2266 17.3599 23.4666 17.0665 23.4666Z" fill="#546E7A"/>
<path d="M23.4662 23.4666H21.3329C21.0396 23.4666 20.7996 23.2266 20.7996 22.9332V20.7999C20.7996 20.5066 21.0396 20.2666 21.3329 20.2666H23.4662C23.7595 20.2666 23.9995 20.5066 23.9995 20.7999V22.9332C23.9995 23.2266 23.7595 23.4666 23.4662 23.4666Z" fill="#546E7A"/>
<path d="M10.6666 18.1326H8.53333C8.24 18.1326 8 17.8926 8 17.5992V15.4659C8 15.1726 8.24 14.9326 8.53333 14.9326H10.6666C10.96 14.9326 11.2 15.1726 11.2 15.4659V17.5992C11.2 17.8926 10.96 18.1326 10.6666 18.1326Z" fill="#546E7A"/>
<path d="M17.0665 18.1326H14.9332C14.6399 18.1326 14.3999 17.8926 14.3999 17.5992V15.4659C14.3999 15.1726 14.6399 14.9326 14.9332 14.9326H17.0665C17.3599 14.9326 17.5999 15.1726 17.5999 15.4659V17.5992C17.5999 17.8926 17.3599 18.1326 17.0665 18.1326Z" fill="#546E7A"/>
<path d="M23.4662 18.1326H21.3329C21.0396 18.1326 20.7996 17.8926 20.7996 17.5992V15.4659C20.7996 15.1726 21.0396 14.9326 21.3329 14.9326H23.4662C23.7595 14.9326 23.9995 15.1726 23.9995 15.4659V17.5992C23.9995 17.8926 23.7595 18.1326 23.4662 18.1326Z" fill="#546E7A"/>
<path d="M20.7996 6.3619H17.3703V2.93262H14.629V6.3619H11.1997V9.1032H14.629V12.5325H17.3703V9.1032H20.7996V6.3619Z" fill="white" stroke="#E53935" stroke-width="0.526314" stroke-miterlimit="10"/>
<path d="M8.19995 27.5986H23.7997V31.9986H8.19995V27.5986Z" fill="#78909C"/>
<path d="M25.0661 28.132H6.93298C6.63965 28.132 6.39966 27.892 6.39966 27.5986H25.5994C25.5994 27.892 25.3594 28.132 25.0661 28.132Z" fill="#80DEEA"/>
<path d="M25.5994 27.7326H6.39966V27.1993C6.39966 27.0526 6.51966 26.9326 6.66632 26.9326H25.3327C25.4794 26.9326 25.5994 27.0526 25.5994 27.1993V27.7326Z" fill="#E0F7FA"/>
<path opacity="0.2" d="M26.6663 0.799989C26.813 0.799989 26.933 0.919988 26.933 1.06665V31.1996H5.06659V1.06665C5.06659 0.919988 5.18659 0.799989 5.33325 0.799989H26.6663ZM26.6663 0H5.33325C4.74393 0 4.2666 0.477327 4.2666 1.06665V31.9996H27.733V1.06665C27.733 0.477327 27.2556 0 26.6663 0Z" fill="#424242"/>
<defs>
<linearGradient id="paint0_linear_498_17940" x1="15.9998" y1="4.2666" x2="15.9998" y2="31.8502" gradientUnits="userSpaceOnUse">
<stop stop-color="#ECEFF1"/>
<stop offset="0.2515" stop-color="#E2E7EA"/>
<stop offset="0.6708" stop-color="#C9D2D7"/>
<stop offset="1" stop-color="#B0BEC5"/>
</linearGradient>
<linearGradient id="paint1_linear_498_17940" x1="27.7332" y1="18.1331" x2="31.9998" y2="18.1331" gradientUnits="userSpaceOnUse">
<stop stop-color="#B0BEC5"/>
<stop offset="0.3292" stop-color="#C9D2D7"/>
<stop offset="0.7485" stop-color="#E2E7EA"/>
<stop offset="1" stop-color="#ECEFF1"/>
</linearGradient>
<linearGradient id="paint2_linear_498_17940" x1="4.26661" y1="18.1331" x2="0" y2="18.1331" gradientUnits="userSpaceOnUse">
<stop stop-color="#B0BEC5"/>
<stop offset="0.3292" stop-color="#C9D2D7"/>
<stop offset="0.7485" stop-color="#E2E7EA"/>
<stop offset="1" stop-color="#ECEFF1"/>
</linearGradient>
<linearGradient id="paint3_linear_498_17940" x1="15.9998" y1="0.133332" x2="15.9998" y2="31.9489" gradientUnits="userSpaceOnUse">
<stop stop-color="#ECEFF1"/>
<stop offset="0.2515" stop-color="#E2E7EA"/>
<stop offset="0.6708" stop-color="#C9D2D7"/>
<stop offset="1" stop-color="#B0BEC5"/>
</linearGradient>
</defs>
</svg>
