<svg width="28" height="32" viewBox="0 0 28 32" fill="none" xmlns="http://www.w3.org/2000/svg">
<path d="M24.7573 32.0013H1.6C0.717333 32.0013 0 31.2839 0 30.4013V5.88125C0 4.99858 0.717333 4.28125 1.6 4.28125H24.76V32.0013H24.7573Z" fill="#546E7A"/>
<path d="M26.6719 8.94734H25.3386C24.8959 8.94734 24.5386 8.59001 24.5386 8.14734V4.68867C24.5386 4.24601 24.8959 3.88867 25.3386 3.88867H26.6719C27.1146 3.88867 27.4719 4.24601 27.4719 4.68867V8.14734C27.4719 8.59001 27.1146 8.94734 26.6719 8.94734Z" fill="#EC4431"/>
<path d="M26.6719 14.3477H25.3386C24.8959 14.3477 24.5386 13.9904 24.5386 13.5477V10.0891C24.5386 9.6464 24.8959 9.28906 25.3386 9.28906H26.6719C27.1146 9.28906 27.4719 9.6464 27.4719 10.0891V13.5477C27.4719 13.9877 27.1146 14.3477 26.6719 14.3477Z" fill="#FBBE00"/>
<path d="M26.6719 19.7452H25.3386C24.8959 19.7452 24.5386 19.3879 24.5386 18.9452V15.4865C24.5386 15.0439 24.8959 14.6865 25.3386 14.6865H26.6719C27.1146 14.6865 27.4719 15.0439 27.4719 15.4865V18.9452C27.4719 19.3879 27.1146 19.7452 26.6719 19.7452Z" fill="#2CA94F"/>
<path d="M26.6719 25.1446H25.3386C24.8959 25.1446 24.5386 24.7873 24.5386 24.3446V20.8859C24.5386 20.4433 24.8959 20.0859 25.3386 20.0859H26.6719C27.1146 20.0859 27.4719 20.4433 27.4719 20.8859V24.3446C27.4719 24.7846 27.1146 25.1446 26.6719 25.1446Z" fill="#4480F7"/>
<path d="M25.6133 28.5716H1.6C0.717333 28.5716 0 27.8543 0 26.9716V1.60098C0 0.71831 0.717333 0.000976562 1.6 0.000976562H25.6133V28.5716Z" fill="url(#paint0_linear_498_18842)"/>
<path opacity="0.2" d="M24.8453 0.800977V3.88898C24.8453 4.33164 25.2027 4.68898 25.6453 4.68898H26.648C26.68 4.68898 26.704 4.71564 26.704 4.74498V8.08898C26.704 8.12098 26.6773 8.14498 26.648 8.14498H25.6453C25.2027 8.14498 24.8453 8.50231 24.8453 8.94498V9.28631C24.8453 9.72898 25.2027 10.0863 25.6453 10.0863H26.648C26.68 10.0863 26.704 10.113 26.704 10.1423V13.4863C26.704 13.5183 26.6773 13.5423 26.648 13.5423H25.6453C25.2027 13.5423 24.8453 13.8996 24.8453 14.3423V14.6836C24.8453 15.1263 25.2027 15.4836 25.6453 15.4836H26.648C26.68 15.4836 26.704 15.5103 26.704 15.5396V18.8836C26.704 18.9156 26.6773 18.9396 26.648 18.9396H25.6453C25.2027 18.9396 24.8453 19.297 24.8453 19.7396V20.081C24.8453 20.5236 25.2027 20.881 25.6453 20.881H26.648C26.68 20.881 26.704 20.9076 26.704 20.937V24.281C26.704 24.313 26.6773 24.337 26.648 24.337H25.6453C25.2027 24.337 24.8453 24.6943 24.8453 25.137V27.7663H24.792C24.3493 27.7663 23.992 28.1236 23.992 28.5663V31.201H1.74665C1.24265 31.201 0.831982 30.7903 0.831982 30.2863V1.71564C0.831982 1.21164 1.24265 0.800977 1.74665 0.800977H24.8453ZM25.6453 0.000976562H1.74665C0.799982 0.000976562 0.0319824 0.768977 0.0319824 1.71564V30.2863C0.0319824 31.233 0.799982 32.001 1.74665 32.001H24.792V28.5716H25.6453V25.145H26.648C27.1227 25.145 27.504 24.761 27.504 24.289V20.9423C27.504 20.4676 27.12 20.0863 26.648 20.0863H25.6453V19.745H26.648C27.1227 19.745 27.504 19.361 27.504 18.889V15.545C27.504 15.0703 27.12 14.689 26.648 14.689H25.6453V14.3476H26.648C27.1227 14.3476 27.504 13.9636 27.504 13.4916V10.145C27.504 9.67031 27.12 9.28898 26.648 9.28898H25.6453V8.94764H26.648C27.1227 8.94764 27.504 8.56364 27.504 8.09164V4.74764C27.504 4.27298 27.12 3.89164 26.648 3.89164H25.6453V0.000976562Z" fill="#424242"/>
<path d="M18.9147 4.625H6.60004C6.32538 4.625 6.14404 4.81167 6.14404 5.09167V12.105C6.14404 12.385 6.32538 12.5717 6.60004 12.5717H18.9147C19.1894 12.5717 19.3707 12.385 19.3707 12.105V5.09167C19.3707 4.81167 19.1894 4.625 18.9147 4.625ZM18.4587 11.6383H7.05604V5.561H18.4587V11.6383Z" fill="#546E7A"/>
<path d="M10.7067 8.36693H14.8107C15.0854 8.36693 15.2667 8.18026 15.2667 7.90026C15.2667 7.62026 15.0854 7.43359 14.8107 7.43359H10.7067C10.4321 7.43359 10.2507 7.62026 10.2507 7.90026C10.2507 8.17759 10.4321 8.36693 10.7067 8.36693Z" fill="#546E7A"/>
<path d="M9.33857 10.2361H16.1786C16.4532 10.2361 16.6346 10.0494 16.6346 9.7694C16.6346 9.4894 16.4532 9.30273 16.1786 9.30273H9.33857C9.0639 9.30273 8.88257 9.4894 8.88257 9.7694C8.88257 10.0494 9.0639 10.2361 9.33857 10.2361Z" fill="#546E7A"/>
<path d="M22.0906 0.000976562V28.5716" stroke="#424242" stroke-width="4.07103" stroke-miterlimit="10"/>
<path d="M23.616 31.1449H2.03203C1.37336 31.1449 0.832031 30.6036 0.832031 29.9449V29.7742C0.832031 29.1156 1.3707 28.5742 2.03203 28.5742H23.616V31.1449Z" fill="url(#paint1_linear_498_18842)"/>
<mask id="mask0_498_18842" style="mask-type:luminance" maskUnits="userSpaceOnUse" x="0" y="0" width="26" height="29">
<path d="M25.6133 28.5716H1.6C0.717333 28.5716 0 27.8543 0 26.9716V1.60098C0 0.71831 0.717333 0.000976562 1.6 0.000976562H25.6133V28.5716Z" fill="white"/>
</mask>
<g mask="url(#mask0_498_18842)">
<path d="M-1.52808 -1.14355H1.90126V33.1418H-1.52808V-1.14355Z" fill="#546E7A"/>
</g>
<defs>
<linearGradient id="paint0_linear_498_18842" x1="12.8059" y1="0.120017" x2="12.8059" y2="28.6436" gradientUnits="userSpaceOnUse">
<stop offset="0.0087699" stop-color="#B0BEC5"/>
<stop offset="1" stop-color="#78909C"/>
</linearGradient>
<linearGradient id="paint1_linear_498_18842" x1="0.831231" y1="29.8569" x2="23.616" y2="29.8569" gradientUnits="userSpaceOnUse">
<stop offset="0.0091529" stop-color="#BDBDBD"/>
<stop offset="1" stop-color="white"/>
</linearGradient>
</defs>
</svg>
