<svg width="32" height="32" viewBox="0 0 32 32" fill="none" xmlns="http://www.w3.org/2000/svg">
<path d="M16.0001 1.06738L1.06689 13.8673H2.13355V31.4672H29.8667V13.8673H30.9334L16.0001 1.06738Z" fill="url(#paint0_radial_498_19081)"/>
<path opacity="0.2" d="M16.0001 2.12071L29.1947 13.43C29.1147 13.558 29.0667 13.7073 29.0667 13.8673V30.6672H2.93355V13.8673C2.93355 13.7073 2.88555 13.558 2.80555 13.4326L16.0001 2.12071ZM16.0001 1.06738L1.06689 13.8673H2.13355V31.4672H29.8667V13.8673H30.9334L16.0001 1.06738Z" fill="#424242"/>
<path d="M32 32.0005H4.26685V29.8672H30.9333C31.5227 29.8672 32 30.3445 32 30.9338V32.0005Z" fill="#689F38"/>
<path opacity="0.2" d="M30.9333 30.6682C31.08 30.6682 31.2 30.7882 31.2 30.9348V31.2015H5.06684V30.6682H30.9333ZM30.9333 29.8682H4.26685V32.0015H32V30.9348C32 30.3455 31.5227 29.8682 30.9333 29.8682Z" fill="#424242"/>
<path opacity="0.2" d="M18.4001 6.9347C18.6934 6.9347 18.9334 7.1747 18.9334 7.46803V12.268C18.9334 12.5613 18.6934 12.8013 18.4001 12.8013H13.6001C13.3068 12.8013 13.0668 12.5613 13.0668 12.268V7.46803C13.0668 7.1747 13.3068 6.9347 13.6001 6.9347H18.4001ZM18.4001 6.40137H13.6001C13.0108 6.40137 12.5334 6.8787 12.5334 7.46803V12.268C12.5334 12.8573 13.0108 13.3347 13.6001 13.3347H18.4001C18.9894 13.3347 19.4667 12.8573 19.4667 12.268V7.46803C19.4667 6.8787 18.9894 6.40137 18.4001 6.40137Z" fill="#424242"/>
<path opacity="0.2" d="M25.0668 16.0011C25.3602 16.0011 25.6002 16.2411 25.6002 16.5344V24.0011C25.6002 24.2944 25.3602 24.5344 25.0668 24.5344H20.2669C19.9735 24.5344 19.7335 24.2944 19.7335 24.0011V16.5344C19.7335 16.2411 19.9735 16.0011 20.2669 16.0011H25.0668ZM25.0668 15.4678H20.2669C19.6775 15.4678 19.2002 15.9451 19.2002 16.5344V24.0011C19.2002 24.5904 19.6775 25.0677 20.2669 25.0677H25.0668C25.6562 25.0677 26.1335 24.5904 26.1335 24.0011V16.5344C26.1335 15.9451 25.6562 15.4678 25.0668 15.4678Z" fill="#424242"/>
<path d="M16.0001 28.8012H6.40015V15.4679C6.40015 15.1746 6.64015 14.9346 6.93348 14.9346H15.4668C15.7601 14.9346 16.0001 15.1746 16.0001 15.4679V28.8012Z" fill="url(#paint1_radial_498_19081)"/>
<path d="M14.9335 28.1526H7.46686C7.32019 28.1526 7.2002 28.0326 7.2002 27.886V15.8487C7.2002 15.702 7.32019 15.582 7.46686 15.582H14.9335C15.0801 15.582 15.2001 15.702 15.2001 15.8487V27.886C15.2001 28.0326 15.0801 28.1526 14.9335 28.1526Z" fill="url(#paint2_radial_498_19081)"/>
<path d="M13.4668 7.33398H18.5334V12.4006H13.4668V7.33398Z" fill="#4FC3F7"/>
<path d="M13.0669 7.4679V12.2679C13.0669 12.5612 13.3069 12.8012 13.6002 12.8012H18.4002C18.6935 12.8012 18.9335 12.5612 18.9335 12.2679V7.4679C18.9335 7.17457 18.6935 6.93457 18.4002 6.93457H13.6002C13.3069 6.93457 13.0669 7.17457 13.0669 7.4679ZM18.4002 9.60122H16.2669V7.4679H18.4002V9.60122ZM15.7335 7.4679V9.60122H13.6002V7.4679H15.7335ZM13.6002 10.1346H15.7335V12.2679H13.6002V10.1346ZM16.2669 12.2679V10.1346H18.4002V12.2679H16.2669Z" fill="#EEEEEE"/>
<path d="M20.0081 16.4014H25.3254V24.1347H20.0081V16.4014Z" fill="#4FC3F7"/>
<path d="M14.1335 20.8008H8.26691C8.12024 20.8008 8.00024 20.6808 8.00024 20.5342V16.8008C8.00024 16.6542 8.12024 16.5342 8.26691 16.5342H14.1335C14.2802 16.5342 14.4002 16.6542 14.4002 16.8008V20.5342C14.4002 20.6808 14.2802 20.8008 14.1335 20.8008Z" fill="url(#paint3_radial_498_19081)"/>
<path d="M14.1335 27.2005H8.26691C8.12024 27.2005 8.00024 27.0805 8.00024 26.9338V22.1339C8.00024 21.9872 8.12024 21.8672 8.26691 21.8672H14.1335C14.2802 21.8672 14.4002 21.9872 14.4002 22.1339V26.9338C14.4002 27.0805 14.2802 27.2005 14.1335 27.2005Z" fill="url(#paint4_radial_498_19081)"/>
<path d="M17.0721 29.6862H5.33887V28.7102C5.33887 28.3448 5.63487 28.0488 6.0002 28.0488H16.4135C16.7788 28.0488 17.0748 28.3448 17.0748 28.7102V29.6862H17.0721Z" fill="url(#paint5_linear_498_19081)"/>
<path opacity="0.3" d="M16.4135 28.3155C16.6295 28.3155 16.8081 28.4915 16.8081 28.7102V29.4195H5.6082V28.7102C5.6082 28.4942 5.7842 28.3155 6.00286 28.3155H16.4135ZM16.4135 28.0488H6.0002C5.63487 28.0488 5.33887 28.3448 5.33887 28.7102V29.6862H17.0721V28.7102C17.0721 28.3448 16.7761 28.0488 16.4135 28.0488Z" fill="#263238"/>
<path d="M18.1388 31.2066H4.27222V30.0866C4.27222 29.7026 4.58421 29.3906 4.96821 29.3906H17.4428C17.8268 29.3906 18.1388 29.7026 18.1388 30.0866V31.2066Z" fill="url(#paint6_linear_498_19081)"/>
<path opacity="0.3" d="M17.4428 29.6573C17.6801 29.6573 17.8721 29.8493 17.8721 30.0866V30.9399H4.53888V30.0866C4.53888 29.8493 4.73088 29.6573 4.96821 29.6573H17.4428ZM17.4428 29.3906H4.96821C4.58421 29.3906 4.27222 29.7026 4.27222 30.0866V31.2066H18.1388V30.0866C18.1388 29.7026 17.8295 29.3906 17.4428 29.3906Z" fill="#263238"/>
<path opacity="0.2" d="M10.8084 28.7108C10.8332 28.6525 10.76 28.5655 10.6448 28.5165C10.5297 28.4674 10.4162 28.4749 10.3914 28.5332C10.3665 28.5914 10.4398 28.6784 10.555 28.7275C10.6701 28.7765 10.7836 28.7691 10.8084 28.7108Z" fill="#424242"/>
<path opacity="0.2" d="M15.8351 29.2397C15.8704 29.1962 15.8341 29.1083 15.7541 29.0433C15.6741 28.9784 15.5806 28.9609 15.5453 29.0043C15.51 29.0478 15.5463 29.1357 15.6264 29.2007C15.7064 29.2656 15.7999 29.2831 15.8351 29.2397Z" fill="#424242"/>
<path opacity="0.08" d="M11.2803 29.1495C11.432 29.1495 11.5549 29.0898 11.5549 29.0161C11.5549 28.9425 11.432 28.8828 11.2803 28.8828C11.1286 28.8828 11.0056 28.9425 11.0056 29.0161C11.0056 29.0898 11.1286 29.1495 11.2803 29.1495Z" fill="#424242"/>
<path opacity="0.08" d="M13.6482 29.1309C13.7999 29.1309 13.9229 29.0712 13.9229 28.9976C13.9229 28.924 13.7999 28.8643 13.6482 28.8643C13.4965 28.8643 13.3735 28.924 13.3735 28.9976C13.3735 29.0712 13.4965 29.1309 13.6482 29.1309Z" fill="#424242"/>
<path opacity="0.08" d="M13.0802 28.7733C13.1848 28.7733 13.2695 28.7219 13.2695 28.6586C13.2695 28.5953 13.1848 28.5439 13.0802 28.5439C12.9756 28.5439 12.8909 28.5953 12.8909 28.6586C12.8909 28.7219 12.9756 28.7733 13.0802 28.7733Z" fill="#424242"/>
<path opacity="0.08" d="M16.1602 28.8697C16.3104 28.8697 16.4322 28.7957 16.4322 28.7044C16.4322 28.6131 16.3104 28.5391 16.1602 28.5391C16.01 28.5391 15.8882 28.6131 15.8882 28.7044C15.8882 28.7957 16.01 28.8697 16.1602 28.8697Z" fill="#424242"/>
<path opacity="0.08" d="M9.63757 28.7067C9.74214 28.7067 9.82691 28.6661 9.82691 28.6161C9.82691 28.566 9.74214 28.5254 9.63757 28.5254C9.53301 28.5254 9.44824 28.566 9.44824 28.6161C9.44824 28.6661 9.53301 28.7067 9.63757 28.7067Z" fill="#424242"/>
<path opacity="0.08" d="M15.0825 28.9338C15.2515 28.9083 15.3785 28.8216 15.3662 28.74C15.3539 28.6585 15.207 28.613 15.038 28.6385C14.8691 28.6639 14.7421 28.7507 14.7544 28.8322C14.7667 28.9138 14.9136 28.9593 15.0825 28.9338Z" fill="#424242"/>
<path opacity="0.2" d="M10.1044 29.1287C10.265 29.091 10.3799 28.9954 10.361 28.9151C10.3421 28.8348 10.1967 28.8003 10.0361 28.838C9.87553 28.8757 9.76065 28.9713 9.7795 29.0516C9.79835 29.1319 9.94381 29.1664 10.1044 29.1287Z" fill="#424242"/>
<path opacity="0.2" d="M14.1362 28.7549C14.3454 28.7549 14.5149 28.6928 14.5149 28.6162C14.5149 28.5396 14.3454 28.4775 14.1362 28.4775C13.9271 28.4775 13.7576 28.5396 13.7576 28.6162C13.7576 28.6928 13.9271 28.7549 14.1362 28.7549Z" fill="#424242"/>
<path opacity="0.2" d="M11.9266 28.6329C12.0323 28.5632 12.0931 28.4688 12.0623 28.4221C12.0315 28.3753 11.9208 28.3939 11.815 28.4636C11.7093 28.5333 11.6485 28.6277 11.6793 28.6745C11.7101 28.7212 11.8208 28.7026 11.9266 28.6329Z" fill="#424242"/>
<path opacity="0.2" d="M12.915 29.1408C12.9508 29.0633 12.8194 28.9263 12.6216 28.8349C12.4237 28.7435 12.2342 28.7322 12.1984 28.8098C12.1626 28.8873 12.294 29.0243 12.4918 29.1157C12.6897 29.2071 12.8791 29.2184 12.915 29.1408Z" fill="#424242"/>
<path opacity="0.2" d="M16.2209 30.206C16.3496 30.1591 16.4364 30.0729 16.4148 30.0134C16.3931 29.9539 16.2712 29.9436 16.1425 29.9904C16.0138 30.0372 15.927 30.1234 15.9486 30.183C15.9703 30.2425 16.0922 30.2528 16.2209 30.206Z" fill="#424242"/>
<path opacity="0.2" d="M10.6264 30.6822C10.7177 30.6199 10.7654 30.531 10.733 30.4836C10.7007 30.4361 10.6005 30.4481 10.5092 30.5103C10.418 30.5726 10.3702 30.6615 10.4026 30.709C10.435 30.7564 10.5352 30.7444 10.6264 30.6822Z" fill="#424242"/>
<path opacity="0.08" d="M15.4349 30.6231C15.6028 30.6231 15.7389 30.5634 15.7389 30.4898C15.7389 30.4161 15.6028 30.3564 15.4349 30.3564C15.267 30.3564 15.1309 30.4161 15.1309 30.4898C15.1309 30.5634 15.267 30.6231 15.4349 30.6231Z" fill="#424242"/>
<path opacity="0.08" d="M12.8216 30.6065C12.9895 30.6065 13.1256 30.5468 13.1256 30.4732C13.1256 30.3995 12.9895 30.3398 12.8216 30.3398C12.6537 30.3398 12.5176 30.3995 12.5176 30.4732C12.5176 30.5468 12.6537 30.6065 12.8216 30.6065Z" fill="#424242"/>
<path opacity="0.08" d="M13.4482 30.2498C13.5631 30.2498 13.6562 30.1985 13.6562 30.1352C13.6562 30.0718 13.5631 30.0205 13.4482 30.0205C13.3334 30.0205 13.2402 30.0718 13.2402 30.1352C13.2402 30.1985 13.3334 30.2498 13.4482 30.2498Z" fill="#424242"/>
<path opacity="0.08" d="M10.0535 30.3453C10.2185 30.3453 10.3522 30.2713 10.3522 30.18C10.3522 30.0887 10.2185 30.0146 10.0535 30.0146C9.8886 30.0146 9.75488 30.0887 9.75488 30.18C9.75488 30.2713 9.8886 30.3453 10.0535 30.3453Z" fill="#424242"/>
<path opacity="0.08" d="M17.2456 30.1833C17.3605 30.1833 17.4536 30.1427 17.4536 30.0926C17.4536 30.0425 17.3605 30.002 17.2456 30.002C17.1307 30.002 17.0376 30.0425 17.0376 30.0926C17.0376 30.1427 17.1307 30.1833 17.2456 30.1833Z" fill="#424242"/>
<path opacity="0.08" d="M11.5984 30.3061C11.6089 30.2243 11.4672 30.1385 11.2817 30.1145C11.0962 30.0905 10.9372 30.1373 10.9266 30.2191C10.9161 30.3009 11.0578 30.3867 11.2433 30.4107C11.4288 30.4347 11.5878 30.3879 11.5984 30.3061Z" fill="#424242"/>
<path opacity="0.2" d="M17.0925 30.5248C17.1087 30.4439 16.9779 30.3494 16.8003 30.3138C16.6227 30.2781 16.4656 30.3147 16.4493 30.3956C16.4331 30.4764 16.5639 30.5709 16.7415 30.6066C16.9191 30.6422 17.0762 30.6056 17.0925 30.5248Z" fill="#424242"/>
<path opacity="0.2" d="M12.2829 30.2305C12.5127 30.2305 12.6989 30.1684 12.6989 30.0918C12.6989 30.0152 12.5127 29.9531 12.2829 29.9531C12.0532 29.9531 11.8669 30.0152 11.8669 30.0918C11.8669 30.1684 12.0532 30.2305 12.2829 30.2305Z" fill="#424242"/>
<path opacity="0.2" d="M15.0003 30.1493C15.0288 30.0995 14.9566 30.0045 14.8389 29.9373C14.7213 29.87 14.6028 29.8559 14.5743 29.9058C14.5458 29.9557 14.6181 30.0506 14.7357 30.1179C14.8533 30.1851 14.9718 30.1992 15.0003 30.1493Z" fill="#424242"/>
<path opacity="0.2" d="M14.0879 30.5932C14.3063 30.5047 14.4568 30.3677 14.4242 30.2871C14.3915 30.2066 14.188 30.2131 13.9697 30.3016C13.7513 30.3901 13.6007 30.5272 13.6333 30.6077C13.666 30.6883 13.8695 30.6818 14.0879 30.5932Z" fill="#424242"/>
<path d="M20.2667 16.001C19.9734 16.001 19.7334 16.241 19.7334 16.5343V24.0009C19.7334 24.2943 19.9734 24.5343 20.2667 24.5343H25.0667C25.36 24.5343 25.6 24.2943 25.6 24.0009V16.5343C25.6 16.241 25.36 16.001 25.0667 16.001H20.2667ZM22.9334 16.5343H25.0667V18.6676H22.9334V16.5343ZM20.2667 16.5343H22.4V18.6676H20.2667V16.5343ZM20.2667 19.201H22.4V21.3343H20.2667V19.201ZM22.4 24.0009H20.2667V21.8676H22.4V24.0009ZM25.0667 24.0009H22.9334V21.8676H25.0667V24.0009ZM22.9334 21.3343V19.201H25.0667V21.3343H22.9334Z" fill="#EEEEEE"/>
<path d="M14.0615 22.6675C14.6506 22.6675 15.1282 22.1899 15.1282 21.6008C15.1282 21.0117 14.6506 20.5342 14.0615 20.5342C13.4724 20.5342 12.9949 21.0117 12.9949 21.6008C12.9949 22.1899 13.4724 22.6675 14.0615 22.6675Z" fill="#FFC107"/>
<path d="M14.0616 20.8009C14.5043 20.8009 14.8616 21.1582 14.8616 21.6009C14.8616 22.0436 14.5043 22.4009 14.0616 22.4009C13.6189 22.4009 13.2616 22.0436 13.2616 21.6009C13.2616 21.1582 13.6216 20.8009 14.0616 20.8009ZM14.0616 20.2676C13.3256 20.2676 12.7283 20.8649 12.7283 21.6009C12.7283 22.3369 13.3256 22.9342 14.0616 22.9342C14.7976 22.9342 15.3949 22.3369 15.3949 21.6009C15.3949 20.8649 14.7976 20.2676 14.0616 20.2676Z" fill="#C62828"/>
<path d="M25.8669 25.6011H19.4669C19.1736 25.6011 18.9336 25.3611 18.9336 25.0678V24.0011C18.9336 23.7078 19.1736 23.4678 19.4669 23.4678H25.8669C26.1602 23.4678 26.4002 23.7078 26.4002 24.0011V25.0678C26.4002 25.3611 26.1602 25.6011 25.8669 25.6011Z" fill="#795548"/>
<path opacity="0.2" d="M25.8669 24.0011V25.0678H19.4669V24.0011H25.8669ZM25.8669 23.4678H19.4669C19.1736 23.4678 18.9336 23.7078 18.9336 24.0011V25.0678C18.9336 25.3611 19.1736 25.6011 19.4669 25.6011H25.8669C26.1602 25.6011 26.4002 25.3611 26.4002 25.0678V24.0011C26.4002 23.7078 26.1602 23.4678 25.8669 23.4678Z" fill="#424242"/>
<path d="M31.5415 13.1209L16.8536 0.320975C16.3629 -0.105689 15.6376 -0.105689 15.1469 0.320975L0.458992 13.1209C-0.0903376 13.6009 -0.154337 14.4409 0.31766 15.0009C0.789657 15.5609 1.61632 15.6249 2.16565 15.1449L15.4749 3.54762C15.7762 3.28629 16.2242 3.28629 16.5256 3.54762L29.8348 15.1449C30.0828 15.3609 30.3868 15.4649 30.6881 15.4649C31.0588 15.4649 31.4241 15.3076 31.6855 14.9982C32.1548 14.4436 32.0908 13.6009 31.5415 13.1209Z" fill="url(#paint7_radial_498_19081)"/>
<path d="M0.632151 31.7337C0.456152 31.7337 0.360153 31.547 0.328153 31.467C0.229487 31.2297 0.240154 30.8804 0.448152 30.6724C0.533485 30.587 0.541485 30.443 0.485485 30.339C0.357486 30.1124 0.304153 29.8297 0.333486 29.5444C0.421486 28.6537 1.11481 27.9177 2.02148 27.7524C2.14681 27.7311 2.27214 27.7177 2.39747 27.7177C2.56281 27.7177 2.7308 27.7391 2.89347 27.7791C2.9148 27.7844 2.93614 27.7871 2.95747 27.7871C3.04814 27.7871 3.13347 27.7417 3.18414 27.6617C3.56813 27.0457 4.2268 26.6777 4.94946 26.6777C5.86679 26.6777 6.68811 27.2937 6.94411 28.1737C6.97878 28.2884 7.08278 28.3657 7.20011 28.3657C7.21611 28.3657 7.23211 28.3631 7.25078 28.3604C7.38144 28.3364 7.51211 28.3231 7.64011 28.3231C7.80277 28.3231 7.96544 28.3417 8.12544 28.3817C8.9921 28.5924 9.64543 29.3577 9.71476 30.2377C9.75743 30.7897 9.58676 31.315 9.23743 31.7337H0.632151Z" fill="url(#paint8_radial_498_19081)"/>
<path d="M4.94955 26.9425C5.74955 26.9425 6.46421 27.4785 6.68821 28.2465C6.75487 28.4785 6.9682 28.6305 7.2002 28.6305C7.2322 28.6305 7.26687 28.6278 7.29887 28.6198C7.41087 28.5985 7.52553 28.5878 7.63753 28.5878C7.77887 28.5878 7.9202 28.6038 8.05886 28.6385C8.81619 28.8225 9.38686 29.4892 9.44552 30.2572C9.48019 30.6972 9.35752 31.1185 9.10419 31.4651L0.645577 31.4678C0.626911 31.4571 0.562911 31.3798 0.541578 31.2358C0.522911 31.1185 0.541578 30.9558 0.637577 30.8572C0.77091 30.7265 0.869576 30.4758 0.717577 30.2038C0.616244 30.0252 0.573577 29.7985 0.597577 29.5638C0.672244 28.8038 1.29091 28.1505 2.0669 28.0092C2.17623 27.9905 2.28557 27.9798 2.3949 27.9798C2.5389 27.9798 2.68556 27.9985 2.8269 28.0332C2.86956 28.0438 2.91223 28.0492 2.9549 28.0492C3.13623 28.0492 3.30956 27.9558 3.40823 27.7985C3.74156 27.2652 4.31755 26.9425 4.94955 26.9425ZM4.94955 26.4092C4.10689 26.4092 3.37089 26.8518 2.95756 27.5185C2.7789 27.4758 2.59223 27.4518 2.39757 27.4518C2.2589 27.4518 2.11757 27.4652 1.97357 27.4892C0.970908 27.6705 0.168247 28.5025 0.066914 29.5158C0.00824773 30.1105 0.264246 30.4785 0.258913 30.4838C-0.239751 30.9852 0.0349142 32.0011 0.632244 32.0011H9.35486C9.78419 31.5398 10.0322 30.9078 9.97885 30.2198C9.90152 29.2145 9.16819 28.3638 8.18686 28.1238C8.0002 28.0785 7.8162 28.0572 7.6402 28.0572C7.49087 28.0572 7.3442 28.0732 7.2002 28.0998C6.91487 27.1238 6.01621 26.4092 4.94955 26.4092Z" fill="#689F38"/>
<path d="M2.64295 29.0484C2.64295 29.0484 2.62161 28.4058 3.13894 27.7178" stroke="#689F38" stroke-width="1.39954" stroke-miterlimit="10" stroke-linecap="round" stroke-linejoin="round"/>
<path d="M7.16029 28.3662C6.55229 28.3769 5.9603 28.8542 5.86963 29.4355" stroke="#689F38" stroke-width="1.39954" stroke-miterlimit="10" stroke-linecap="round" stroke-linejoin="round"/>
<path d="M6.5363 29.7046C6.00297 29.462 5.28564 29.4993 4.73364 29.782" stroke="#689F38" stroke-width="1.39954" stroke-miterlimit="10" stroke-linecap="round" stroke-linejoin="round"/>
<path opacity="0.2" d="M16.0002 0.800972C16.0856 0.800972 16.2109 0.822305 16.3282 0.926304L31.0161 13.7262C31.2375 13.9209 31.2641 14.2622 31.0721 14.4889C30.9388 14.6462 30.7735 14.6702 30.6881 14.6702C30.6028 14.6702 30.4775 14.6489 30.3601 14.5449L17.0509 2.94496C16.7602 2.69163 16.3869 2.55029 16.0002 2.55029C15.6136 2.55029 15.2402 2.68896 14.9496 2.94496L1.64032 14.5422C1.52299 14.6462 1.39765 14.6676 1.31232 14.6676C1.22699 14.6676 1.06166 14.6436 0.928323 14.4862C0.736324 14.2596 0.762991 13.9182 0.984323 13.7236L15.6722 0.923638C15.7896 0.822305 15.9149 0.800972 16.0002 0.800972ZM16.0002 0.000976562C15.6962 0.000976562 15.3922 0.107643 15.1469 0.320975L0.458992 13.1209C-0.0903376 13.6009 -0.154337 14.4409 0.31766 15.0009C0.576325 15.3102 0.941656 15.4675 1.31232 15.4675C1.61365 15.4675 1.91765 15.3609 2.16565 15.1476L15.4749 3.54762C15.6242 3.41696 15.8136 3.35029 16.0002 3.35029C16.1869 3.35029 16.3762 3.41696 16.5256 3.54762L29.8348 15.1449C30.0828 15.3609 30.3868 15.4649 30.6881 15.4649C31.0588 15.4649 31.4241 15.3076 31.6855 14.9982C32.1575 14.4382 32.0935 13.5982 31.5441 13.1182L16.8536 0.320975C16.6082 0.107643 16.3042 0.000976562 16.0002 0.000976562Z" fill="#424242"/>
<defs>
<radialGradient id="paint0_radial_498_19081" cx="0" cy="0" r="1" gradientUnits="userSpaceOnUse" gradientTransform="translate(16.0001 1.16122) scale(33.1065 33.1065)">
<stop stop-color="#FFD54F"/>
<stop offset="0.179" stop-color="#FFD34B"/>
<stop offset="0.3526" stop-color="#FFCE3F"/>
<stop offset="0.524" stop-color="#FFC62C"/>
<stop offset="0.693" stop-color="#FFBA11"/>
<stop offset="0.7785" stop-color="#FFB300"/>
<stop offset="1" stop-color="#FFB300"/>
</radialGradient>
<radialGradient id="paint1_radial_498_19081" cx="0" cy="0" r="1" gradientUnits="userSpaceOnUse" gradientTransform="translate(11.0335 14.8679) scale(14.0004)">
<stop stop-color="#D32F2F"/>
<stop offset="0.4374" stop-color="#CA2929"/>
<stop offset="0.9957" stop-color="#B71C1C"/>
</radialGradient>
<radialGradient id="paint2_radial_498_19081" cx="0" cy="0" r="1" gradientUnits="userSpaceOnUse" gradientTransform="translate(11.1668 15.6007) scale(12.5677)">
<stop stop-color="#EF5350"/>
<stop offset="1" stop-color="#E53935"/>
</radialGradient>
<radialGradient id="paint3_radial_498_19081" cx="0" cy="0" r="1" gradientUnits="userSpaceOnUse" gradientTransform="translate(11.0669 16.7342) scale(11.0973)">
<stop stop-color="#E53935"/>
<stop offset="0.4072" stop-color="#DC3431"/>
<stop offset="1" stop-color="#C62828"/>
</radialGradient>
<radialGradient id="paint4_radial_498_19081" cx="0" cy="0" r="1" gradientUnits="userSpaceOnUse" gradientTransform="translate(11.0669 16.7339) scale(11.0973)">
<stop stop-color="#E53935"/>
<stop offset="0.4072" stop-color="#DC3431"/>
<stop offset="1" stop-color="#C62828"/>
</radialGradient>
<linearGradient id="paint5_linear_498_19081" x1="11.2066" y1="28.1795" x2="11.2066" y2="29.9208" gradientUnits="userSpaceOnUse">
<stop offset="0.0042918" stop-color="#BDBDBD"/>
<stop offset="0.2153" stop-color="#B5B5B5"/>
<stop offset="0.5502" stop-color="#9E9E9E"/>
<stop offset="0.9652" stop-color="#787878"/>
<stop offset="1" stop-color="#757575"/>
</linearGradient>
<linearGradient id="paint6_linear_498_19081" x1="11.2066" y1="29.4466" x2="11.2066" y2="31.1773" gradientUnits="userSpaceOnUse">
<stop offset="0.0042918" stop-color="#BDBDBD"/>
<stop offset="0.3969" stop-color="#BABABA"/>
<stop offset="0.7025" stop-color="#B0B0B0"/>
<stop offset="0.9786" stop-color="#A0A0A0"/>
<stop offset="1" stop-color="#9E9E9E"/>
</linearGradient>
<radialGradient id="paint7_radial_498_19081" cx="0" cy="0" r="1" gradientUnits="userSpaceOnUse" gradientTransform="translate(15.8669 -0.0656895) scale(18.037 18.037)">
<stop stop-color="#F44336"/>
<stop offset="0.34" stop-color="#EE3F35"/>
<stop offset="0.8027" stop-color="#DC3531"/>
<stop offset="0.9957" stop-color="#D32F2F"/>
</radialGradient>
<radialGradient id="paint8_radial_498_19081" cx="0" cy="0" r="1" gradientUnits="userSpaceOnUse" gradientTransform="translate(4.81092 26.9697) rotate(90) scale(6.47943 7.52715)">
<stop stop-color="#9CCC65"/>
<stop offset="0.2538" stop-color="#96C760"/>
<stop offset="0.5994" stop-color="#84B851"/>
<stop offset="0.9952" stop-color="#689F38"/>
</radialGradient>
</defs>
</svg>
