<svg width="26" height="32" viewBox="0 0 26 32" fill="none" xmlns="http://www.w3.org/2000/svg">
<path d="M24.4833 19.1652C24.0618 18.4075 23.5522 17.6898 23.0213 17.0015C22.2422 15.9876 21.4098 15.0138 20.6974 13.9546C19.9851 12.8981 19.4461 11.7855 18.5364 10.8597C17.7173 10.0006 16.6821 9.42169 15.5909 9.17089C15.18 9.02415 14.8012 8.77603 14.529 8.5119H14.6651V7.44737H14.4623C14.465 7.18057 14.4943 7.09519 14.5557 6.94311C14.9692 5.75585 15.3481 4.57927 15.7616 3.392C15.8577 3.10386 15.9511 2.83439 16.1432 2.61028C16.3646 2.32214 16.7141 2.12204 16.9676 1.83389C17.221 1.54575 17.3171 1.06017 16.9996 0.804045C16.4607 0.707997 15.8897 0.769361 15.3801 0.996141C15.5375 0.707997 15.3481 0.321137 15.0626 0.161057C14.7771 0.000976531 14.4276 0.000976563 14.1101 0.000976563C13.3471 0.000976563 12.5547 0.0329925 11.7943 0.0329925C11.4448 0.0329925 11.0313 0.0650085 10.8098 0.321137C10.6818 0.449201 10.6524 0.609281 10.5244 0.737345C10.1748 1.12154 9.57188 0.993473 9.06496 0.897425C8.55804 0.801377 7.89104 0.865409 7.73096 1.37766C7.69894 1.56976 7.73096 1.72984 7.76297 1.92194C8.17651 3.58944 8.92889 5.44903 9.94273 6.82572C10.1055 7.09519 10.1188 7.1779 10.2175 7.4447H10.1295V8.38917C10.1295 8.53324 9.55587 8.78403 9.44915 8.84273C8.19252 9.52841 7.05329 10.6703 6.04745 11.6735C4.98292 12.7327 4.01177 13.8826 3.142 15.1072C1.70661 17.1269 0.185852 19.4987 0.0177682 22.0253C-0.0729438 23.3673 0.220536 24.7734 0.900876 25.9393C1.6826 27.2786 2.89654 28.3992 4.08647 29.3783C5.27373 30.3548 6.66109 31.0939 8.13649 31.5287C8.1525 31.5341 8.16584 31.5367 8.18185 31.5421C11.3301 32.4625 14.9532 31.8969 17.9707 30.7337C20.0038 29.9493 21.8047 28.7594 23.3708 27.2466C24.1658 26.4782 24.8515 25.5764 25.2304 24.5386C25.892 22.7003 25.4065 20.8221 24.4833 19.1652Z" fill="url(#paint0_linear_498_19151)"/>
<path opacity="0.2" d="M14.1101 0.801377C14.2756 0.801377 14.473 0.801377 14.5957 0.833393C14.545 1.08152 14.6117 1.34565 14.7905 1.53774C14.9452 1.70583 15.1613 1.79654 15.3801 1.79654C15.4895 1.79654 15.5989 1.7752 15.7029 1.72717C15.8017 1.68448 15.9057 1.6498 16.0098 1.62312C15.847 1.75652 15.6709 1.91127 15.5188 2.10603C15.2494 2.43153 15.1186 2.78103 15.0039 3.12787C14.7958 3.72551 14.5931 4.32847 14.3983 4.91277C14.2062 5.48639 14.0061 6.08135 13.8033 6.66297C13.7099 6.90043 13.6646 7.08185 13.6619 7.43669C13.6593 7.63679 13.7313 7.83156 13.8647 7.9783V8.06101C13.8353 8.10636 13.8087 8.15439 13.7873 8.20775C13.6646 8.50923 13.7366 8.8534 13.9687 9.08285C14.3396 9.4457 14.8198 9.74452 15.3214 9.92327C15.3508 9.93394 15.3828 9.94195 15.4121 9.94995C16.3779 10.1714 17.2584 10.6756 17.9654 11.4174C18.539 12.0016 18.9606 12.69 19.4088 13.4157C19.6062 13.7385 19.8117 14.0693 20.0331 14.4002C20.5427 15.1552 21.1083 15.8702 21.6553 16.5586C21.898 16.8627 22.1462 17.1776 22.3863 17.4897C22.9946 18.2821 23.4401 18.9384 23.7843 19.5548C24.7475 21.2863 24.9796 22.8711 24.4727 24.2664C24.1738 25.0855 23.6162 25.8966 22.8105 26.673C21.2791 28.1511 19.5529 29.2663 17.6773 29.9893C15.6202 30.7817 13.5072 31.2032 11.5675 31.2032C10.4363 31.2032 9.37178 31.0592 8.40329 30.7764L8.36061 30.763C6.99993 30.3628 5.69527 29.6718 4.59072 28.762C3.52619 27.8869 2.33626 26.8171 1.58922 25.5391C1.0076 24.5412 0.732792 23.314 0.8155 22.0814C0.964908 19.8349 2.33626 17.6258 3.79299 15.5714C4.63608 14.3868 5.58322 13.2663 6.6104 12.2418L6.63174 12.2204C7.59489 11.2599 8.6861 10.1714 9.83067 9.54708C9.84401 9.53908 9.86536 9.52841 9.89204 9.51773C10.3536 9.29095 10.9299 9.00815 10.9299 8.39184V7.81288C11.0313 7.61545 11.0473 7.38333 10.9699 7.17256C10.9539 7.12454 10.9379 7.08452 10.9246 7.04717C10.8498 6.83373 10.7938 6.68965 10.6257 6.41485C10.6124 6.39351 10.5991 6.37483 10.5857 6.35615C9.72395 5.18757 8.98225 3.51473 8.5447 1.76453L8.54203 1.75385C8.53669 1.72451 8.53136 1.69783 8.52869 1.67381C8.56604 1.66848 8.6114 1.66314 8.66743 1.66314C8.7448 1.66314 8.83017 1.67115 8.91288 1.68715L8.95824 1.69516C9.2197 1.74585 9.51585 1.80188 9.82534 1.80188C10.3589 1.80188 10.7885 1.63112 11.1033 1.29229C11.2367 1.15355 11.3141 1.01215 11.3648 0.918769C11.3728 0.905429 11.3808 0.889421 11.3888 0.876081C11.4288 0.862741 11.5329 0.836061 11.7917 0.836061C12.1812 0.836061 12.5814 0.828057 12.9656 0.820053C13.3471 0.809381 13.7366 0.801377 14.1101 0.801377ZM14.1101 0.000976562C13.3471 0.000976562 12.5547 0.0329925 11.7943 0.0329925C11.4448 0.0329925 11.0313 0.0650085 10.8098 0.321137C10.6818 0.449201 10.6524 0.609281 10.5244 0.737345C10.3429 0.937445 10.0948 0.998809 9.828 0.998809C9.57721 0.998809 9.31041 0.945449 9.06496 0.897425C8.93956 0.873413 8.80616 0.860073 8.67276 0.860073C8.26189 0.860073 7.85369 0.990805 7.73363 1.37767C7.70161 1.56976 7.73363 1.72984 7.76564 1.92194C8.17918 3.58944 8.93156 5.44903 9.9454 6.82572C10.1081 7.09519 10.1215 7.1779 10.2202 7.4447H10.1295V8.38917C10.1295 8.53324 9.55587 8.78403 9.44915 8.84273C8.19252 9.52841 7.05329 10.6703 6.04745 11.6735C4.98292 12.7327 4.01176 13.8826 3.142 15.1072C1.70661 17.1269 0.185852 19.5014 0.0177682 22.0253C-0.0729438 23.3673 0.220536 24.7734 0.900876 25.9393C1.6826 27.2786 2.89654 28.3992 4.08647 29.3783C5.27373 30.3548 6.66109 31.0939 8.13649 31.5287C8.1525 31.5341 8.16584 31.5367 8.18185 31.5421C9.27039 31.8596 10.415 32.001 11.5729 32.001C13.7633 32.001 15.9964 31.4967 17.9707 30.7337C20.0038 29.9493 21.8047 28.7594 23.3708 27.2466C24.1658 26.4782 24.8515 25.5764 25.2304 24.5386C25.9 22.6977 25.4118 20.8194 24.4887 19.1626C24.0671 18.4048 23.5575 17.6872 23.0266 16.9988C22.2475 15.985 21.4151 15.0111 20.7028 13.952C19.9904 12.8954 19.4515 11.7829 18.5417 10.8571C17.7226 9.99798 16.6874 9.41902 15.5962 9.16823C15.1853 9.02149 14.8065 8.77336 14.5344 8.50923H14.6651V7.4447H14.4623C14.465 7.1779 14.4943 7.09252 14.5557 6.94045C14.9692 5.75319 15.3481 4.5766 15.7616 3.38934C15.8577 3.10119 15.9511 2.83173 16.1432 2.60761C16.3646 2.31947 16.7141 2.11937 16.9676 1.83123C17.221 1.54308 17.3171 1.0575 16.9996 0.801377C16.8368 0.772029 16.6714 0.758689 16.5033 0.758689C16.1192 0.758689 15.735 0.836061 15.3801 0.993473C15.5375 0.705329 15.3481 0.318469 15.0626 0.158389C14.7771 0.00097661 14.4276 0.000976562 14.1101 0.000976562Z" fill="#424242"/>
<path opacity="0.2" d="M13.1097 8.30394C12.2987 7.30077 12.883 7.18071 12.5921 6.2896C12.336 5.50254 11.8318 4.73149 11.0714 3.99512C11.0527 4.07783 11.1674 4.42733 11.1781 4.51004C11.3702 5.31845 11.0287 6.10817 11.3755 6.92725C11.6557 7.58625 12.2907 7.91441 13.011 8.54406C13.0484 8.46402 13.1844 8.39732 13.1097 8.30394Z" fill="#212121"/>
<path d="M14.7345 8.71956H10.0148C9.61995 8.71956 9.29712 8.39674 9.29712 8.00187C9.29712 7.60701 9.61995 7.28418 10.0148 7.28418H14.7345C15.1294 7.28418 15.4522 7.60701 15.4522 8.00187C15.4522 8.39674 15.1294 8.71956 14.7345 8.71956Z" fill="#6D4C41"/>
<path opacity="0.2" d="M14.7345 7.55098C14.9826 7.55098 15.1854 7.75375 15.1854 8.00187C15.1854 8.25 14.9826 8.45276 14.7345 8.45276H10.0148C9.76669 8.45276 9.56392 8.25 9.56392 8.00187C9.56392 7.75375 9.76669 7.55098 10.0148 7.55098H14.7345ZM14.7345 7.28418H10.0148C9.61995 7.28418 9.29712 7.60701 9.29712 8.00187C9.29712 8.39674 9.61995 8.71956 10.0148 8.71956H14.7345C15.1294 8.71956 15.4522 8.39674 15.4522 8.00187C15.4522 7.60701 15.1294 7.28418 14.7345 7.28418Z" fill="#424242"/>
<path d="M16.3701 23.6799C16.3701 23.0716 16.2527 22.5433 16.0232 22.0897C15.7911 21.6362 15.4309 21.2413 14.94 20.8998C14.4971 20.593 13.8968 20.3075 13.1418 20.0461L13.1925 15.7026C13.5527 15.8119 13.8541 16.02 14.1023 16.3269C14.4304 16.7351 14.6199 17.2073 14.6652 17.861C14.6786 18.0477 14.8253 18.1384 15.0147 18.1384H15.9005C16.0979 18.1384 16.2607 18.0344 16.25 17.8396C16.1993 16.8338 15.9965 16.0574 15.5163 15.4518C14.98 14.7768 14.1316 14.4032 13.3312 14.2725V12.7811C13.3312 12.5596 13.0297 12.2715 12.8083 12.2715H12.3254C12.1066 12.2688 11.9972 12.5596 11.9972 12.7784V13.8723L11.9572 14.2618C11.002 14.3766 10.2337 14.7341 9.68939 15.3344C9.14245 15.9347 8.85964 16.7057 8.85964 17.6449C8.85964 18.568 9.13445 19.3284 9.69206 19.926C10.1696 20.4383 10.8873 20.8651 11.8478 21.212L11.7971 25.6675C11.2982 25.5848 10.8953 25.3847 10.5858 25.0699C10.223 24.699 10.0176 24.1761 9.96953 23.5305C9.95619 23.3517 9.80145 23.205 9.62269 23.205H8.72891C8.53148 23.205 8.36873 23.3811 8.3794 23.5785C8.4381 24.5443 8.71024 25.3287 9.24917 25.9183C9.85481 26.58 10.6605 26.9642 11.7277 27.0629V28.3062C11.7277 28.5276 11.9572 28.8104 12.1786 28.8104H12.6535C12.875 28.8104 13.0644 28.5276 13.0644 28.3062V27.4284V27.0656C14.1103 26.9562 14.9213 26.6067 15.503 26.017C16.0819 25.4274 16.3701 24.6484 16.3701 23.6799ZM11.0127 19.0162C10.6312 18.6694 10.4418 18.2025 10.4418 17.6182C10.4418 16.9859 10.6232 16.4949 10.9834 16.1428C11.2208 15.9107 11.5303 15.7559 11.9092 15.6759L11.8638 19.5578C11.5063 19.3871 11.2208 19.2056 11.0127 19.0162ZM14.1369 25.174C13.8541 25.4114 13.4993 25.5715 13.0751 25.6515L13.1231 21.6789C13.606 21.8923 13.9769 22.1218 14.2277 22.3645C14.5958 22.7247 14.7826 23.1703 14.7826 23.6959C14.7799 24.3202 14.5665 24.8138 14.1369 25.174Z" fill="url(#paint1_linear_498_19151)"/>
<defs>
<linearGradient id="paint0_linear_498_19151" x1="12.7676" y1="32.0036" x2="12.7676" y2="0.000549275" gradientUnits="userSpaceOnUse">
<stop stop-color="#FFB74D"/>
<stop offset="1" stop-color="#FFE0B2"/>
</linearGradient>
<linearGradient id="paint1_linear_498_19151" x1="12.3753" y1="28.8104" x2="12.3753" y2="12.2688" gradientUnits="userSpaceOnUse">
<stop offset="0.0023318" stop-color="#5D4037"/>
<stop offset="1" stop-color="#795548"/>
</linearGradient>
</defs>
</svg>
