<svg width="33" height="32" viewBox="0 0 33 32" fill="none" xmlns="http://www.w3.org/2000/svg">
<path d="M12.7942 24.4912C12.7809 24.4912 12.7702 24.4912 12.7569 24.4912C7.90631 24.4965 2.96516 25.4501 0.503906 27.7063V28.263V28.873V31.9496H25.809H26.2085H26.6081V31.1478C26.6081 26.6541 19.6559 24.4912 12.7942 24.4912Z" fill="url(#paint0_linear_498_18905)"/>
<path opacity="0.19" d="M21.8189 28.2895C21.7336 28.3188 20.4258 29.0993 18.6091 29.7705C17.7541 30.0875 15.117 30.591 12.7623 30.5377C8.53238 30.4365 5.45315 29.1233 3.68179 28.2016C3.0132 27.8553 2.22209 27.1601 1.80389 26.7686L1.28979 27.1042C1.62009 27.4265 2.26737 27.9939 3.27425 28.5985C2.17947 29.7972 1.86249 31.422 1.78524 31.9521H2.32597C2.4192 31.3927 2.7495 29.9064 3.74838 28.8702C4.44361 29.2538 5.28267 29.6374 6.27356 29.9783C5.71685 30.8493 5.63694 31.7097 5.62629 31.9521H6.15903C6.17234 31.723 6.26025 30.9239 6.79831 30.1488C8.40452 30.6442 10.3757 31.0118 12.7517 31.0678C12.9355 31.0731 13.1166 31.0731 13.2951 31.0731C15.4473 31.0731 17.24 30.7614 18.713 30.3113C19.1525 31.0305 19.2324 31.7363 19.2458 31.9494H19.7785C19.7678 31.723 19.6959 30.9532 19.2298 30.1408C20.2287 29.7945 21.0651 29.387 21.7523 28.9741C22.6739 30.0023 22.9882 31.4087 23.0761 31.9468H23.6169C23.5423 31.4327 23.2386 29.8744 22.2104 28.6837C23.1694 28.0525 23.782 27.4478 24.0937 27.1042L23.6222 26.8218C23.3052 27.1628 22.7165 27.7115 21.8189 28.2895Z" fill="white"/>
<path opacity="0.3" d="M12.7942 24.4805C12.7809 24.4805 12.7702 24.4805 12.7569 24.4805C7.90631 24.4858 2.96516 25.4394 0.503906 27.6955V28.2523V28.8622V31.9415H25.809H26.2085H26.6081V31.1397C26.6081 26.6434 19.6559 24.4805 12.7942 24.4805Z" fill="url(#paint1_linear_498_18905)"/>
<path d="M22.0532 20.152C21.7202 19.5474 22.1438 18.9321 22.8683 18.1702C24.0163 16.9609 25.2656 14.1561 24.1042 11.3086C24.1122 11.2926 23.8752 10.8131 23.8831 10.7971L23.4063 10.7732C23.2519 10.7519 18.007 10.7412 12.7569 10.7412C7.50676 10.7412 2.26195 10.7519 2.11012 10.7732C2.11012 10.7732 1.40424 11.2926 1.40957 11.3086C0.250863 14.1561 1.50014 16.9583 2.64819 18.1702C3.37005 18.9321 3.79358 19.5474 3.46328 20.152C3.14097 20.7407 2.18204 20.826 2.18204 20.826C2.18204 20.826 2.40313 21.4279 2.93587 21.7529C3.42865 22.0539 4.03597 22.1232 4.45417 22.1338C4.45417 22.1338 6.09234 24.4006 10.3756 24.4006H12.7569H15.1409C19.4241 24.4006 21.0623 22.1338 21.0623 22.1338C21.4805 22.1232 22.0878 22.0539 22.5806 21.7529C23.1133 21.4279 23.3344 20.826 23.3344 20.826C23.3344 20.826 22.3755 20.7407 22.0532 20.152Z" fill="#AB872F"/>
<path d="M12.7542 24.3987V21.8842L20.3643 21.2822L21.0569 22.1346C21.0569 22.1346 19.4187 24.4014 15.1355 24.4014L12.7542 24.3987Z" fill="url(#paint2_radial_498_18905)"/>
<path d="M21.041 21.034C19.9009 19.3026 22.4288 18.6553 22.4288 18.6553L22.4314 18.6579C21.9919 19.204 21.7921 19.6808 22.0505 20.1523C22.3728 20.7409 23.3317 20.8262 23.3317 20.8262C23.3317 20.8262 22.0239 21.9876 21.041 21.034Z" fill="url(#paint3_radial_498_18905)"/>
<path d="M24.1095 11.3093C25.2415 14.0663 24.0509 16.9058 22.9348 18.1044C22.7829 18.2696 22.133 18.9062 21.9838 19.415C21.9838 19.415 19.4427 15.8696 18.6835 13.7866C18.5317 13.3657 18.3905 12.9342 18.3719 12.4867C18.3586 12.1511 18.4092 11.7515 18.6036 11.4665C18.8407 11.1176 23.9736 11.0137 23.9736 11.0137C23.9736 11.019 24.1095 11.3093 24.1095 11.3093Z" fill="url(#paint4_radial_498_18905)"/>
<path d="M1.40957 11.3093C0.277504 14.0663 1.46818 16.9058 2.58426 18.1044C2.73609 18.2696 3.38603 18.9062 3.5352 19.415C3.5352 19.415 6.07636 15.8696 6.83552 13.7866C6.99001 13.3657 7.12852 12.9342 7.14717 12.4867C7.16049 12.1511 7.10988 11.7515 6.91543 11.4665C6.67836 11.1176 6.40133 11.2108 5.99912 11.2108C5.23197 11.2108 1.87306 11.0137 1.61201 11.0137C1.61468 11.019 1.40957 11.3093 1.40957 11.3093Z" fill="url(#paint5_radial_498_18905)"/>
<path d="M12.7649 24.3987V21.8842L5.15472 21.2822L4.46216 22.1346C4.46216 22.1346 6.10033 24.4014 10.3835 24.4014L12.7649 24.3987Z" fill="url(#paint6_radial_498_18905)"/>
<path d="M4.47803 21.034C5.61809 19.3026 3.09025 18.6553 3.09025 18.6553L3.08758 18.6579C3.52709 19.204 3.72687 19.6808 3.46849 20.1523C3.14619 20.7409 2.18726 20.8262 2.18726 20.8262C2.18726 20.8262 3.49513 21.9876 4.47803 21.034Z" fill="url(#paint7_radial_498_18905)"/>
<path d="M12.757 22.877H10.3384V25.5353C10.3384 26.7366 11.3239 27.7116 12.5386 27.7116H12.9781C14.1927 27.7116 15.1783 26.7366 15.1783 25.5353V22.877C15.1756 22.877 12.757 22.877 12.757 22.877Z" fill="#C48E6A"/>
<path d="M20.0368 12.3164H5.47708C3.90817 12.3164 2.62427 13.6855 2.62427 15.3557C2.62427 17.0258 3.90817 18.395 5.47708 18.395H20.0342C21.6031 18.395 22.887 17.0258 22.887 15.3557C22.887 13.6855 21.6057 12.3164 20.0368 12.3164Z" fill="#C48E6A"/>
<path d="M12.7568 1.83105C8.122 1.83105 3.82812 6.78819 3.82812 13.9242C3.82812 21.0203 8.25252 24.5284 12.7568 24.5284C17.2611 24.5284 21.6855 21.0203 21.6855 13.9242C21.6855 6.78819 17.3917 1.83105 12.7568 1.83105Z" fill="#E0BB95"/>
<path d="M10.3063 12.1533C10.0586 11.8257 9.48859 11.3516 8.3805 11.3516C7.2724 11.3516 6.69971 11.8284 6.45465 12.1533C6.34544 12.2972 6.37207 12.465 6.44932 12.5662C6.51858 12.6594 6.72634 12.7473 6.95542 12.6701C7.1845 12.5928 7.632 12.3611 8.3805 12.3558C9.129 12.3611 9.5765 12.5928 9.80557 12.6701C10.0347 12.7473 10.2424 12.6621 10.3117 12.5662C10.3863 12.465 10.4156 12.2972 10.3063 12.1533Z" fill="#AB872F"/>
<path d="M19.0617 12.1533C18.814 11.8257 18.244 11.3516 17.1359 11.3516C16.0278 11.3516 15.4551 11.8284 15.21 12.1533C15.1008 12.2972 15.1274 12.465 15.2047 12.5662C15.2739 12.6594 15.4817 12.7473 15.7108 12.6701C15.9399 12.5928 16.3874 12.3611 17.1359 12.3558C17.8844 12.3611 18.3319 12.5928 18.5609 12.6701C18.79 12.7473 18.9978 12.6621 19.067 12.5662C19.1416 12.465 19.1709 12.2972 19.0617 12.1533Z" fill="#AB872F"/>
<path d="M8.37765 15.9064C9.10291 15.9064 9.69086 15.2982 9.69086 14.5479C9.69086 13.7977 9.10291 13.1895 8.37765 13.1895C7.65239 13.1895 7.06445 13.7977 7.06445 14.5479C7.06445 15.2982 7.65239 15.9064 8.37765 15.9064Z" fill="#5D4037"/>
<path d="M17.136 15.9064C17.8612 15.9064 18.4492 15.2982 18.4492 14.5479C18.4492 13.7977 17.8612 13.1895 17.136 13.1895C16.4107 13.1895 15.8228 13.7977 15.8228 14.5479C15.8228 15.2982 16.4107 15.9064 17.136 15.9064Z" fill="#5D4037"/>
<path d="M13.785 17.0115C13.7557 17.0009 13.7291 16.9929 13.6998 16.9902H11.8139C11.7846 16.9929 11.7553 17.0009 11.7286 17.0115C11.5582 17.0808 11.4649 17.2566 11.5448 17.4457C11.6247 17.6348 12.0003 18.1623 12.7568 18.1623C13.5133 18.1623 13.8889 17.6322 13.9688 17.4457C14.0487 17.2566 13.9555 17.0808 13.785 17.0115Z" fill="#C48E6A"/>
<path d="M23.4304 5.57136C22.7805 4.58846 21.3234 3.26993 20.0156 3.18203C19.8051 1.92477 18.46 0.859289 17.1574 0.446417C13.6333 -0.66967 11.3399 0.582265 10.1093 1.25618C9.85356 1.39469 8.19941 2.31367 7.04336 1.65573C6.31884 1.24286 6.33216 0.126774 6.33216 0.126774C6.33216 0.126774 4.06269 0.992474 4.83783 3.40312C4.05736 3.43508 3.03451 3.76538 2.49378 4.86016C1.84916 6.16537 2.07824 7.25482 2.2647 7.7769C1.59345 8.34693 0.749058 9.55891 1.32708 11.1332C1.76393 12.3185 3.50332 12.8646 3.50332 12.8646C3.33817 15.7254 4.11064 17.1131 4.11064 17.1131C4.11064 17.1131 5.35991 12.1986 5.25603 11.4475C5.25603 11.4475 7.32305 11.0373 9.66977 9.69476C11.2547 8.78644 12.3388 7.72363 14.1208 7.32141C16.8324 6.71142 17.4371 8.67456 17.4371 8.67456C17.4371 8.67456 19.9463 8.19244 20.7028 11.6765C21.0144 13.1096 21.2169 15.4856 21.3874 16.9427C21.3714 16.8148 22.2504 15.2565 22.4155 13.6583C22.4582 13.2455 23.5716 12.6994 24.051 10.9254C24.6877 8.55736 23.9019 6.28257 23.4304 5.57136Z" fill="#AB872F"/>
<path d="M22.4048 13.669C22.4474 13.2561 23.5608 12.71 24.0403 10.936C24.0909 10.7469 24.1335 10.5551 24.1735 10.3633C24.5624 8.20838 23.8645 6.22926 23.4303 5.57399C22.8283 4.66567 21.5391 3.47234 20.3165 3.22728C20.2099 3.21396 20.106 3.20064 20.0075 3.19531C20.0075 3.19531 20.0954 3.76801 19.8636 4.2235C19.5653 4.81484 18.9553 4.95601 18.9553 4.95601C22.1438 8.14445 21.9174 10.8135 22.4048 13.669Z" fill="url(#paint8_radial_498_18905)"/>
<path d="M10.8789 0.853697C10.5859 0.994872 10.3302 1.13605 10.1065 1.25591C9.85074 1.39443 8.19659 2.3134 7.04055 1.65547C6.32934 1.25059 6.32934 0.169128 6.32934 0.131836C6.00171 0.550036 5.01081 3.53604 7.90891 3.73581C9.15818 3.82105 9.92799 2.7316 10.3861 1.80996C10.5513 1.47167 10.8097 0.984218 10.8789 0.853697Z" fill="url(#paint9_radial_498_18905)"/>
<path d="M16.7952 0.340149C18.745 0.86756 19.6959 1.86112 20.0129 3.18497C20.1061 3.57387 20.218 7.20182 13.2924 3.07843C10.7166 1.54414 11.4198 0.585209 11.7208 0.475997C12.8982 0.0498064 14.6109 -0.251191 16.7952 0.340149Z" fill="url(#paint10_radial_498_18905)"/>
<path d="M6.32138 0.129617C6.31872 0.13228 6.31339 0.132281 6.3054 0.137608C6.05768 0.241492 4.11052 1.14448 4.83771 3.4033L6.91006 3.73626C5.07477 1.877 6.33204 0.126953 6.33204 0.126953C6.33204 0.126953 6.32405 0.126953 6.32138 0.129617Z" fill="url(#paint11_radial_498_18905)"/>
<path d="M6.11634 3.60842L4.8351 3.40332C4.78449 3.40332 4.61402 3.4193 4.52079 3.43262C3.79893 3.53384 2.94921 3.90676 2.48839 4.86036C1.99294 5.88855 2.00626 6.77023 2.14211 7.3589C2.18206 7.55602 2.26197 7.77977 2.26197 7.77977C2.26197 7.77977 2.89593 7.17777 4.40625 7.13782L6.11634 3.60842Z" fill="url(#paint12_radial_498_18905)"/>
<path d="M2.20055 7.82733C1.56925 8.38936 0.719534 9.63864 1.3455 11.1862C1.81698 12.3556 3.50043 12.8617 3.50043 12.8617C3.50043 12.867 3.83605 12.9683 4.00919 12.9683L4.40342 7.13477C3.59632 7.13477 2.82119 7.37716 2.32041 7.72611C2.3284 7.7341 2.19788 7.81933 2.20055 7.82733Z" fill="url(#paint13_radial_498_18905)"/>
<path d="M12.7568 30.4186C12.7568 30.4186 14.387 29.5556 15.5457 27.7043C14.5362 27.4592 12.6609 27.0224 12.7568 27.1556L9.95728 27.7656C11.1107 29.5476 12.7568 30.4186 12.7568 30.4186Z" fill="#D8D8D8"/>
<path d="M10.3462 24.5742C9.85608 24.6088 9.37129 24.6541 8.88916 24.7074C9.05964 26.5933 9.98927 28.0024 10.8949 28.948L12.7542 27.1527C11.0654 25.9087 10.5034 24.9152 10.3462 24.5742Z" fill="url(#paint14_linear_498_18905)"/>
<path d="M15.1622 24.5791C15.005 24.9227 14.4376 25.9109 12.7568 27.1549L14.6001 28.9342C15.4711 28.0019 16.3741 26.6115 16.6192 24.7229C16.1371 24.6643 15.6523 24.6164 15.1622 24.5791Z" fill="url(#paint15_linear_498_18905)"/>
<path d="M14.8266 19.9316C14.5389 19.9316 10.9749 19.9316 10.6845 19.9316C9.80284 19.9316 9.96 20.4484 10.3862 20.6295C11.0548 20.9145 12.0004 20.9918 12.7489 20.9945H12.7542C12.7542 20.9945 12.7569 20.9945 12.7595 20.9945C13.508 20.9918 14.4536 20.9145 15.1222 20.6295C15.5511 20.4484 15.7082 19.9316 14.8266 19.9316Z" fill="#6D4C41"/>
<path d="M25.865 30.7698L27.0823 24.1531C27.093 24.0759 27.0983 24.0013 27.0903 23.9241L26.9118 21.564C26.8639 20.9434 27.346 20.8635 27.964 20.9274C28.582 20.9913 29.0374 21.1671 28.867 21.7638L28.2117 24.0386C28.1904 24.1132 28.1771 24.1878 28.1744 24.265L28.0146 30.9669L25.865 30.7698Z" fill="#DD8A3E"/>
<path d="M27.7801 19.1589L28.4034 19.2228C28.8589 19.2707 29.1946 19.6809 29.1493 20.1391L29.1333 20.2883C29.0853 20.7438 28.6751 21.0794 28.217 21.0341L27.5937 20.9702C27.1382 20.9222 26.8026 20.512 26.8478 20.0539L26.8638 19.9047C26.9118 19.4465 27.3246 19.1109 27.7801 19.1589Z" fill="#DD8A3E"/>
<path d="M25.2466 18.6436L25.5852 15.3445L31.8468 15.9872L31.5082 19.2862L25.2466 18.6436Z" fill="#995F33"/>
<path d="M29.3836 19.4224L26.8211 19.1587C26.4562 19.1214 26.1898 18.7964 26.2271 18.4288L26.5041 15.7225C26.5414 15.3576 26.8664 15.0912 27.234 15.1285L29.7965 15.3922C30.1614 15.4295 30.4278 15.7571 30.3905 16.1194L30.1134 18.8257C30.0735 19.1959 29.7485 19.4623 29.3836 19.4224Z" fill="#DD8A3E"/>
<path d="M25.9022 17.0298C26.0593 15.4955 26.0673 14.9148 25.4706 14.8536C24.874 14.7923 24.2933 15.6873 24.1734 16.854C24.0536 18.0207 24.4398 19.0142 25.0365 19.0755C25.6331 19.1368 25.745 18.5641 25.9022 17.0298Z" fill="#DD8A3E"/>
<path d="M30.7154 17.525C30.8726 15.9907 30.9845 15.4207 31.5811 15.482C32.1778 15.5432 32.5641 16.5368 32.4442 17.7035C32.3243 18.8702 31.7436 19.7652 31.147 19.7039C30.5503 19.6426 30.5583 19.0593 30.7154 17.525Z" fill="#DD8A3E"/>
<path d="M26.3791 26.5296C26.0994 26.5749 25.8251 26.6468 25.5667 26.764C25.1965 26.9318 23.4278 26.4124 23.3186 28.1171C23.3079 28.5886 23.2626 30.0723 23.6622 30.7995C24.4959 32.3204 27.6284 31.9449 27.8655 31.9822C29.3598 32.2139 28.6912 27.4139 27.8468 26.7986C27.7403 26.7294 27.5698 26.6441 27.4206 26.5615C27.1303 26.407 26.6721 26.4843 26.3791 26.5296Z" fill="url(#paint16_radial_498_18905)"/>
<path d="M28.4754 30.9587L26.7892 30.9214C26.5735 30.9108 26.395 31.0573 26.3577 31.2571C26.3151 31.4755 26.4749 31.6833 26.7067 31.7259L28.3741 31.9736C28.6405 32.0215 28.8962 31.8431 28.9229 31.5847L28.9362 31.4515C28.9628 31.1905 28.7524 30.9614 28.4754 30.9587Z" fill="url(#paint17_radial_498_18905)"/>
<path d="M23.3317 29.2698C23.3317 29.2698 23.6726 29.5069 24.192 29.712C25.7743 30.3379 25.9661 28.4014 26.0033 28.1031C26.1951 26.5635 27.5563 26.9071 28.7097 26.8298C28.9494 26.8139 29.7698 26.6887 29.9909 26.1479C30.2226 25.2476 29.301 25.2609 27.3538 25.1437C26.8238 25.1118 26.2963 25.1197 25.7689 25.1943C23.2651 25.5433 23.2464 28.1164 23.3317 29.2698Z" fill="url(#paint18_radial_498_18905)"/>
<path d="M29.0001 28.2213L26.5868 28.4264C26.2618 28.4504 26.2565 28.6954 26.2405 29.0044C26.2165 29.3374 26.2565 29.625 26.6107 29.6464L29.0347 29.7609C29.4449 29.7822 29.7912 29.4705 29.7859 29.079L29.7832 28.8792C29.7726 28.4797 29.4156 28.176 29.0001 28.2213Z" fill="url(#paint19_radial_498_18905)"/>
<path d="M28.9682 26.7984L26.8986 27.0887C26.5896 27.1287 26.3685 27.3791 26.3685 27.6721C26.3632 27.9917 26.6428 28.2501 26.9811 28.2528L29.0775 28.2688C29.469 28.2688 29.7887 27.9544 29.762 27.5789L29.7487 27.3871C29.7167 27.0062 29.3625 26.7345 28.9682 26.7984Z" fill="url(#paint20_radial_498_18905)"/>
<path d="M28.779 29.6863L26.8665 29.7929C26.5815 29.8035 26.3604 30.014 26.3364 30.283C26.3045 30.5734 26.5389 30.8317 26.8478 30.8637L28.7577 31.0395C29.1146 31.0715 29.4316 30.8104 29.4396 30.4668L29.4449 30.291C29.4449 29.9367 29.1439 29.6597 28.779 29.6863Z" fill="url(#paint21_radial_498_18905)"/>
<path d="M29.0826 29.7605C29.1119 29.4915 26.9437 29.7685 26.6773 29.5447C26.3737 29.2917 26.4056 28.7962 26.7812 28.6284C27.1994 28.4393 29.2478 28.3647 29.2478 28.2475C29.2451 28.0344 26.5761 28.663 26.5575 27.7041C26.5468 27.1101 27.1754 27.1128 27.5963 27.0355C27.8467 26.9903 28.9495 26.905 28.9495 26.8278C28.9495 26.7505 28.6778 26.7745 28.6485 26.7718C28.4487 26.7532 27.1621 26.8517 26.8158 26.9343C26.2431 27.0702 26.1046 27.3898 26.094 27.6402C26.078 27.9305 26.0034 28.3168 25.9102 28.5938C25.7104 29.1825 24.9965 29.7259 24.9752 29.8031C24.9513 29.8884 25.4307 29.6486 25.7264 29.3316C25.9022 29.1452 26.1446 29.2331 26.2032 29.4835C26.2378 29.6353 26.2671 29.7765 26.2645 29.8404C26.2618 29.9736 26.2538 30.7727 26.2085 31.0471C26.1899 31.1536 26.1819 31.2362 26.2165 31.3534C26.2405 31.4386 26.2804 31.5212 26.3337 31.5904C26.5788 31.9101 27.0156 31.9394 27.3726 31.9554C27.5883 31.966 28.446 32.0593 28.6458 31.9447C28.169 31.9394 26.4935 31.982 26.5628 31.3294C26.6081 30.9645 26.9437 31.0657 27.1888 31.0897C27.4684 31.1136 27.9905 31.1216 28.2702 31.0923C28.3475 31.0843 28.7577 31.0923 28.7577 31.0337C28.7577 30.9458 27.8973 30.9352 27.8014 30.9325C27.4525 30.9219 26.7253 30.9778 26.5628 30.5649C26.5042 30.4131 26.5255 30.2266 26.6267 30.0961C26.8718 29.7871 29.0693 29.899 29.0826 29.7605Z" fill="#BA8F63"/>
<defs>
<linearGradient id="paint0_linear_498_18905" x1="13.556" y1="24.4912" x2="13.556" y2="31.9496" gradientUnits="userSpaceOnUse">
<stop offset="0.0032" stop-color="#616161"/>
<stop offset="0.2772" stop-color="#545454"/>
<stop offset="0.7831" stop-color="#323232"/>
<stop offset="1" stop-color="#212121"/>
</linearGradient>
<linearGradient id="paint1_linear_498_18905" x1="13.556" y1="31.7793" x2="13.556" y2="23.2411" gradientUnits="userSpaceOnUse">
<stop stop-color="#BFBEBE"/>
<stop offset="0.236" stop-color="#212121" stop-opacity="0"/>
</linearGradient>
<radialGradient id="paint2_radial_498_18905" cx="0" cy="0" r="1" gradientUnits="userSpaceOnUse" gradientTransform="translate(16.6413 20.7662) scale(6.2381 3.06416)">
<stop offset="0.7275" stop-color="#BFA055" stop-opacity="0"/>
<stop offset="1" stop-color="#BFA055"/>
</radialGradient>
<radialGradient id="paint3_radial_498_18905" cx="0" cy="0" r="1" gradientUnits="userSpaceOnUse" gradientTransform="translate(22.7862 19.8374) rotate(154.924) scale(1.84342 1.36756)">
<stop offset="0.6628" stop-color="#BFA055"/>
<stop offset="1" stop-color="#BFA055" stop-opacity="0"/>
</radialGradient>
<radialGradient id="paint4_radial_498_18905" cx="0" cy="0" r="1" gradientUnits="userSpaceOnUse" gradientTransform="translate(18.0083 14.6241) rotate(-94.2783) scale(8.0973 6.74858)">
<stop offset="0.7247" stop-color="#BFA055" stop-opacity="0"/>
<stop offset="1" stop-color="#BFA055"/>
</radialGradient>
<radialGradient id="paint5_radial_498_18905" cx="0" cy="0" r="1" gradientUnits="userSpaceOnUse" gradientTransform="translate(7.51176 14.6239) rotate(-85.7217) scale(8.0973 6.74858)">
<stop offset="0.7247" stop-color="#BFA055" stop-opacity="0"/>
<stop offset="1" stop-color="#BFA055"/>
</radialGradient>
<radialGradient id="paint6_radial_498_18905" cx="0" cy="0" r="1" gradientUnits="userSpaceOnUse" gradientTransform="translate(8.87832 20.7662) rotate(180) scale(6.2381 3.06416)">
<stop offset="0.7275" stop-color="#BFA055" stop-opacity="0"/>
<stop offset="1" stop-color="#BFA055"/>
</radialGradient>
<radialGradient id="paint7_radial_498_18905" cx="0" cy="0" r="1" gradientUnits="userSpaceOnUse" gradientTransform="translate(2.73432 19.8378) rotate(25.0761) scale(1.84342 1.36756)">
<stop offset="0.6628" stop-color="#BFA055"/>
<stop offset="1" stop-color="#BFA055" stop-opacity="0"/>
</radialGradient>
<radialGradient id="paint8_radial_498_18905" cx="0" cy="0" r="1" gradientUnits="userSpaceOnUse" gradientTransform="translate(17.5562 10.3513) rotate(72.0851) scale(9.49134 7.04235)">
<stop offset="0.6985" stop-color="#BFA055" stop-opacity="0"/>
<stop offset="1" stop-color="#BFA055"/>
</radialGradient>
<radialGradient id="paint9_radial_498_18905" cx="0" cy="0" r="1" gradientUnits="userSpaceOnUse" gradientTransform="translate(8.30328 0.00245533) rotate(28.2026) scale(2.48863 2.95079)">
<stop offset="0.58" stop-color="#BFA055"/>
<stop offset="1" stop-color="#BFA055" stop-opacity="0"/>
</radialGradient>
<radialGradient id="paint10_radial_498_18905" cx="0" cy="0" r="1" gradientUnits="userSpaceOnUse" gradientTransform="translate(13.8654 4.5225) rotate(-157.19) scale(7.78323 4.3742)">
<stop offset="0.6985" stop-color="#BFA055" stop-opacity="0"/>
<stop offset="1" stop-color="#BFA055"/>
</radialGradient>
<radialGradient id="paint11_radial_498_18905" cx="0" cy="0" r="1" gradientUnits="userSpaceOnUse" gradientTransform="translate(7.30397 2.27329) scale(2.28425 2.79432)">
<stop offset="0.7016" stop-color="#BFA055" stop-opacity="0"/>
<stop offset="1" stop-color="#BFA055"/>
</radialGradient>
<radialGradient id="paint12_radial_498_18905" cx="0" cy="0" r="1" gradientUnits="userSpaceOnUse" gradientTransform="translate(6.9897 6.30527) rotate(-164.942) scale(4.28428 4.00931)">
<stop offset="0.6605" stop-color="#BFA055" stop-opacity="0"/>
<stop offset="1" stop-color="#BFA055"/>
</radialGradient>
<radialGradient id="paint13_radial_498_18905" cx="0" cy="0" r="1" gradientUnits="userSpaceOnUse" gradientTransform="translate(5.97386 10.4413) rotate(7.83355) scale(4.49795 6.32036)">
<stop offset="0.5981" stop-color="#BFA055" stop-opacity="0"/>
<stop offset="1" stop-color="#BFA055"/>
</radialGradient>
<linearGradient id="paint14_linear_498_18905" x1="10.8233" y1="27.1447" x2="10.8233" y2="24.6917" gradientUnits="userSpaceOnUse">
<stop stop-color="white"/>
<stop offset="1" stop-color="#BDBDBD"/>
</linearGradient>
<linearGradient id="paint15_linear_498_18905" x1="14.6857" y1="27.1443" x2="14.6857" y2="24.6912" gradientUnits="userSpaceOnUse">
<stop stop-color="white"/>
<stop offset="1" stop-color="#BDBDBD"/>
</linearGradient>
<radialGradient id="paint16_radial_498_18905" cx="0" cy="0" r="1" gradientUnits="userSpaceOnUse" gradientTransform="translate(23.805 29.7232) rotate(-91.9886) scale(5.1439 5.43831)">
<stop offset="0.3074" stop-color="#E0BB95"/>
<stop offset="1" stop-color="#CCA47A"/>
</radialGradient>
<radialGradient id="paint17_radial_498_18905" cx="0" cy="0" r="1" gradientUnits="userSpaceOnUse" gradientTransform="translate(29.8695 28.4515) rotate(-20.6097) scale(3.76905 3.76904)">
<stop stop-color="#CCA47A"/>
<stop offset="1" stop-color="#E0BB95"/>
</radialGradient>
<radialGradient id="paint18_radial_498_18905" cx="0" cy="0" r="1" gradientUnits="userSpaceOnUse" gradientTransform="translate(28.8665 26.5043) rotate(9.38906) scale(3.87282 3.76577)">
<stop stop-color="#CCA47A"/>
<stop offset="1" stop-color="#E0BB95"/>
</radialGradient>
<radialGradient id="paint19_radial_498_18905" cx="0" cy="0" r="1" gradientUnits="userSpaceOnUse" gradientTransform="translate(30.8298 28.7256) rotate(-3.77291) scale(4.28396)">
<stop stop-color="#CCA47A"/>
<stop offset="1" stop-color="#E0BB95"/>
</radialGradient>
<radialGradient id="paint20_radial_498_18905" cx="0" cy="0" r="1" gradientUnits="userSpaceOnUse" gradientTransform="translate(30.6868 28.8484) rotate(4.38157) scale(4.09406 4.09405)">
<stop stop-color="#CCA47A"/>
<stop offset="1" stop-color="#E0BB95"/>
</radialGradient>
<radialGradient id="paint21_radial_498_18905" cx="0" cy="0" r="1" gradientUnits="userSpaceOnUse" gradientTransform="translate(30.3975 28.4758) rotate(-12.9495) scale(4.09556 4.09556)">
<stop stop-color="#CCA47A"/>
<stop offset="1" stop-color="#E0BB95"/>
</radialGradient>
</defs>
</svg>
