<svg width="29" height="32" viewBox="0 0 29 32" fill="none" xmlns="http://www.w3.org/2000/svg">
<path d="M17.9326 16.2557L20.4829 15.8906C20.4829 15.8906 20.8877 21.1658 21.1945 21.7875C21.5014 22.4092 24.8427 26.2346 24.8427 26.2346L24.139 27.7584L19.6046 23.4647C19.1178 23.0044 18.803 22.3933 18.7078 21.7293L17.9326 16.2557Z" fill="url(#paint0_linear_498_19361)"/>
<path d="M10.7739 16.2557L8.22358 15.8906C8.22358 15.8906 7.81881 21.1658 7.51193 21.7875C7.20505 22.4118 3.86377 26.2346 3.86377 26.2346L4.56748 27.7584L9.09924 23.4647C9.58602 23.0044 9.90083 22.3933 9.99607 21.7293L10.7739 16.2557Z" fill="url(#paint1_linear_498_19361)"/>
<path d="M20.9168 17.4621L20.6972 14.9648C20.6681 14.6235 20.057 11.8457 14.4749 11.8457C8.8929 11.8457 8.16803 14.5653 8.13364 14.9621L7.91406 17.4595L10.3321 17.6738V25.0415H18.5808V17.6685L20.9168 17.4621Z" fill="url(#paint2_linear_498_19361)"/>
<path d="M20.5889 28.6153C18.8269 28.9195 17.3005 29.3825 15.5835 29.8931C14.811 30.1232 13.9989 30.3613 13.1073 30.5994C11.3719 31.0624 9.33483 31.5254 6.70519 31.9116C5.14699 32.1418 3.51206 31.9116 2.68401 31.401C2.06761 31.0201 1.52528 30.2661 1.73956 29.6259C1.97501 28.9169 2.67872 28.1285 3.67079 27.655C4.08084 27.4592 4.52529 27.274 4.98296 27.1047C6.12318 26.6788 7.33483 26.3322 8.24224 26.0941C9.10732 25.8693 9.69991 25.7449 9.69991 25.7449C10.7846 25.5068 11.7846 25.5015 12.5782 25.8428C13.9592 26.4327 21.073 28.5333 20.5889 28.6153Z" fill="url(#paint3_linear_498_19361)"/>
<path d="M6.53315 26.6237L5.24479 27.875L4.12573 28.6422C4.09928 28.6634 4.06489 28.674 4.0305 28.6713L3.74743 28.6449C3.58605 28.7322 3.4088 28.7798 3.22891 28.7798C3.14689 28.7798 3.05959 28.7692 2.97758 28.7533C2.78975 28.711 2.62044 28.6211 2.48022 28.4914C2.7871 28.1898 3.16541 27.92 3.59928 27.7084C4.46965 27.2851 5.49876 26.9068 6.45908 26.6025L6.53315 26.6237Z" fill="url(#paint4_linear_498_19361)"/>
<path d="M26.1206 31.4014C25.2926 31.912 23.6629 32.121 22.0994 31.912C19.1179 31.5152 15.4459 30.3035 12.8137 29.0205C11.3189 28.2929 10.0226 27.4226 9.27397 26.9913C8.74751 26.6871 8.32952 26.5178 7.66814 26.5892C7.40888 26.6183 7.32422 26.6368 7.14168 26.6289C6.77131 26.613 7.09935 26.0231 7.09935 26.0231C7.27925 25.6051 7.87978 25.1263 8.46973 25.3379C9.05968 25.5495 9.76868 25.9755 9.76868 25.9755C11.1152 26.3935 11.1761 25.5575 11.9645 25.8353C12.3586 25.9728 12.4486 26.4437 12.4592 26.7083C12.4724 26.994 12.9063 27.2585 13.192 27.2982L15.0412 27.5178L15.2952 27.5469L15.9565 27.6263L17.9671 26.1977L18.2449 25.9993L18.9724 25.4834C18.9724 25.4834 19.1708 25.5495 19.5042 25.6659C19.6073 25.7003 19.7237 25.7427 19.8534 25.7876C20.3984 25.9781 21.1444 26.2427 21.9433 26.539C22.0333 26.5734 22.1259 26.6077 22.2185 26.6421C23.2529 27.031 24.3481 27.4649 25.1894 27.8538C26.1867 28.3141 26.8296 28.9173 27.0677 29.6263C27.2793 30.2665 26.737 31.0205 26.1206 31.4014Z" fill="url(#paint5_linear_498_19361)"/>
<path d="M18.6124 25.1633L18.5728 24.2559C18.5728 24.2559 17.4855 24.7532 14.5251 24.7532C11.5648 24.7532 10.3267 24.2559 10.3267 24.2559V25.1633L8.37695 26.3273L14.4405 29.0919L20.84 26.3035L18.6124 25.1633Z" fill="#7C7C7C"/>
<path d="M15.5835 29.8937C14.811 30.1238 13.9988 30.3619 13.1073 30.6C12.7501 30.4413 12.4062 30.2799 12.0729 30.1186C10.7713 29.481 9.57817 28.7535 8.71044 28.2217L8.6443 28.1847C8.31097 27.9783 8.02261 27.8011 7.78186 27.6609C7.29773 27.3804 7.10461 27.3328 6.85064 27.3328C6.7845 27.3328 6.71837 27.3381 6.64694 27.3487L6.45911 27.3672C6.32419 27.3831 6.1681 27.4043 5.97233 27.4043C5.92207 27.4043 5.87445 27.4016 5.81889 27.399C5.50408 27.3857 5.21572 27.2852 4.98291 27.1053C6.12313 26.6794 7.33477 26.3328 8.24218 26.0947C8.35329 26.1476 8.46441 26.2111 8.58081 26.2773C8.8242 26.4201 9.12578 26.6027 9.46441 26.8117C10.3242 27.3381 11.4988 28.0603 12.7739 28.682C13.6126 29.0921 14.5359 29.4916 15.5147 29.8672L15.5835 29.8937Z" fill="url(#paint6_linear_498_19361)"/>
<path d="M6.04102 28.9615C6.06218 28.6917 6.22885 28.4536 6.42726 28.2869C6.62567 28.1123 6.85848 27.9933 7.10451 27.9033C7.22356 27.861 7.36906 27.8266 7.48811 27.8134L7.85584 27.7631C8.10187 27.734 8.3479 27.7023 8.59394 27.6784C9.086 27.6255 9.58071 27.5964 10.0754 27.5806C10.5701 27.5647 11.0648 27.5647 11.5648 27.5991C11.6389 27.6044 11.6945 27.6679 11.6892 27.7419C11.6839 27.8134 11.6257 27.8689 11.5543 27.8663H11.549C11.0648 27.8583 10.5728 27.8742 10.086 27.8927C9.59659 27.9139 9.10981 27.9509 8.62304 27.988C8.37965 28.0091 8.13626 28.0329 7.89288 28.0594L7.5278 28.1044C7.40081 28.1176 7.30557 28.1335 7.18917 28.1652C6.96959 28.2287 6.75266 28.3292 6.56218 28.4562C6.37171 28.5859 6.21033 28.7552 6.1389 28.9747V28.9774C6.13096 29.0038 6.10186 29.0171 6.07541 29.0091C6.05424 29.0038 6.04102 28.9827 6.04102 28.9615Z" fill="#EDA600"/>
<path d="M26.1206 31.4014C25.2926 31.912 23.6629 32.121 22.0994 31.912C19.9116 31.621 17.3534 30.8908 15.1047 30.0152C14.2899 29.6977 13.5147 29.3617 12.8137 29.0205C11.3189 28.2929 10.0226 27.4226 9.27397 26.9913C8.74751 26.6871 8.32952 26.5178 7.66814 26.5892C7.40888 26.6183 7.32422 26.6368 7.14168 26.6289C6.77131 26.613 7.09935 26.0231 7.09935 26.0231C7.27925 25.6051 7.87978 25.1263 8.46973 25.3379C9.05968 25.5495 9.76868 25.9755 9.76868 25.9755C11.1152 26.3935 11.1761 25.5575 11.9645 25.8353C12.3586 25.9728 12.4486 26.4437 12.4592 26.7083C12.4724 26.994 12.9063 27.2585 13.192 27.2982C13.192 27.2982 13.9459 27.4331 14.7661 27.5416H14.7687L14.9036 27.5575C14.9618 27.5654 15.02 27.5734 15.0782 27.5786C15.274 27.6025 15.4671 27.621 15.6497 27.6369L15.6999 27.6421H15.7131C15.7158 27.6448 15.7184 27.6448 15.7211 27.6421H15.7237C15.9221 27.658 16.1073 27.666 16.2661 27.666C16.5174 27.666 16.7608 27.658 16.9989 27.6421C17.819 27.5919 18.5756 27.4675 19.3084 27.3617C19.5148 27.33 19.7185 27.3009 19.9222 27.2744H19.9248C20.6523 27.1818 21.3666 27.1316 22.1126 27.2162C23.5201 27.3776 25.2476 27.8564 26.9248 29.3062C26.9804 29.4093 27.0307 29.5178 27.0677 29.6263C27.2793 30.2665 26.737 31.0205 26.1206 31.4014Z" fill="url(#paint7_linear_498_19361)"/>
<path d="M22.6761 27.7634C22.2078 27.5941 20.8507 27.4115 20.0676 27.3189C19.2845 27.2263 20.6972 26.9353 21.6999 27.0517C22.3242 27.1258 21.721 26.0332 21.721 26.0332C21.721 26.0332 20.1734 26.8771 19.6469 27.1814C19.6231 27.1946 19.5702 27.2237 19.5014 27.2581C19.4909 27.2634 19.4803 27.2687 19.4697 27.2739C19.4194 27.3004 19.3639 27.3295 19.3083 27.3613C19.1575 27.438 18.9988 27.52 18.9194 27.565C19.0967 27.5702 19.2713 27.5782 19.4485 27.5861C21.1946 27.6734 22.8904 27.9062 23.684 28.5808C23.7078 28.5994 23.7475 28.5914 23.7396 28.565C23.6602 28.3216 23.3374 28.0041 22.6761 27.7634Z" fill="#EDA600"/>
<path d="M21.7766 26.8186C21.5967 26.8265 21.512 26.808 21.2501 26.7762C20.5914 26.7075 20.1734 26.8768 19.6469 27.181C19.6231 27.1942 19.5702 27.2233 19.5014 27.2577C19.4908 27.263 19.4803 27.2683 19.4697 27.2736C19.4194 27.3 19.3639 27.3291 19.3083 27.3609C19.1575 27.4376 18.9988 27.5196 18.9194 27.5646C18.9035 27.5725 18.8877 27.5805 18.8797 27.5858C18.8797 27.5858 17.9062 27.5831 17.4988 27.6202C17.4168 27.6281 17.34 27.6334 17.2713 27.6387C16.9194 27.6651 16.7025 27.6651 16.266 27.6651C16.1072 27.6651 15.922 27.6572 15.7236 27.6413C15.721 27.6413 15.721 27.6413 15.721 27.6413H15.6998L15.6496 27.636C15.467 27.6202 15.2739 27.6016 15.0781 27.5778L15.094 27.5752H15.0966L15.6416 27.4985L15.7289 27.4852C15.9115 27.4614 16.1522 27.345 16.3083 27.1889C16.3109 27.1863 16.3136 27.1836 16.3136 27.181C16.3347 27.1625 16.3506 27.144 16.3665 27.1228C16.4194 27.054 16.4538 26.9773 16.4591 26.8953C16.4591 26.8821 16.4617 26.8688 16.4644 26.8556C16.4829 26.5858 16.5808 26.1519 16.9564 26.0223C17.7448 25.7471 17.803 26.5805 19.1496 26.1651C19.1496 26.1651 19.8586 25.7392 20.4485 25.5276C21.0385 25.3159 21.6416 25.7921 21.8189 26.2101C21.8189 26.2101 21.8639 26.2895 21.9009 26.3873C21.9644 26.5619 22.0147 26.808 21.7766 26.8186Z" fill="url(#paint8_linear_498_19361)"/>
<path d="M28.2765 25.5681C28.2765 25.5258 28.2553 25.4834 28.2183 25.4596C28.1812 25.4358 28.1389 25.4279 28.0966 25.4437C28.0807 25.449 27.7394 25.5707 27.5833 25.9014C27.5754 25.9173 27.5701 25.9358 27.5701 25.9543L27.5463 26.5972C27.5146 26.6422 27.4669 26.7057 27.414 26.7797L27.3241 25.9755L27.3453 24.8908C27.3453 24.8538 27.332 24.8168 27.3056 24.7903C27.2791 24.7638 27.2394 24.7506 27.205 24.7533C27.1971 24.7533 27.0992 24.7612 26.9802 24.8009C26.9696 24.8009 26.9617 24.8009 26.9511 24.8009C26.9431 24.8009 26.9352 24.8035 26.9246 24.8035C26.9061 24.8035 26.8902 24.8062 26.8717 24.8088C26.8532 24.8115 26.832 24.8141 26.8135 24.8194C26.7976 24.822 26.7844 24.8273 26.7685 24.83C26.75 24.8353 26.7341 24.8406 26.7156 24.8485C26.7024 24.8538 26.6892 24.8591 26.6759 24.867C26.6601 24.875 26.6468 24.8829 26.631 24.8935C26.6177 24.9014 26.6072 24.9093 26.5939 24.9173C26.5807 24.9279 26.5675 24.9384 26.5569 24.949C26.5463 24.9596 26.5331 24.9702 26.5225 24.9808C26.5119 24.9914 26.5013 25.0019 26.4908 25.0125C26.4802 25.0257 26.4669 25.039 26.4564 25.0522C26.4484 25.0628 26.4405 25.0734 26.4326 25.0813C26.4193 25.0972 26.4061 25.1157 26.3955 25.1316C26.3902 25.1369 26.3876 25.1448 26.3823 25.1501C26.2209 25.3855 26.0992 25.6686 25.8558 25.7612C25.8135 25.7771 25.7685 25.7903 25.7209 25.8009C25.2791 25.8935 24.7024 25.7215 24.369 26.1051L24.3717 26.1104C24.3611 26.121 24.3479 26.1316 24.3373 26.1448C24.2474 26.2533 23.8902 26.0496 23.8902 26.0496L23.2209 26.5178L23.1442 26.4464L22.9114 26.2268L22.6045 26.3009L23.9034 27.5416L25.0304 28.3009C25.0569 28.3221 25.0913 28.3326 25.1257 28.3273L25.4061 28.2983C25.5675 28.3856 25.7474 28.4305 25.9273 28.4305C26.0119 28.4305 26.0966 28.4199 26.1786 28.4014C26.3982 28.3512 26.5939 28.2321 26.7394 28.0602L26.7738 28.0205L26.8294 28.0416C26.8426 28.0469 26.8558 28.0496 26.8691 28.0522C27.131 28.0707 27.4378 27.9305 27.6204 27.7083L28.258 26.9067C28.2765 26.8829 28.2871 26.8512 28.2871 26.8221L28.2765 25.5681Z" fill="url(#paint9_linear_498_19361)"/>
<path d="M27.3454 24.8008V24.8484L27.3401 25.023C27.1972 25.0177 27.0306 25.0442 26.9195 25.1183C26.8004 25.1897 26.7528 25.3061 26.7528 25.4754L26.7211 26.5072L26.7025 27.0257C26.7131 27.1183 26.6576 27.2294 26.5994 27.2849L26.438 27.486L25.7925 28.2955L26.3824 27.4463L26.5332 27.232C26.5888 27.1606 26.6099 27.1077 26.602 27.023L26.5861 26.5045L26.5517 25.4675C26.5465 25.3855 26.5517 25.2691 26.5888 25.1712C26.6232 25.0759 26.7687 24.777 27.274 24.7373C27.311 24.74 27.3401 24.7611 27.3454 24.8008Z" fill="#EDA600"/>
<path d="M28.2819 25.4621V25.4806L28.2792 25.6552C28.184 25.6525 28.0702 25.6763 27.9803 25.724C27.8903 25.7716 27.8216 25.8457 27.7845 25.9409C27.7687 25.9885 27.7581 26.0441 27.7528 26.0996L27.7343 26.2927C27.7157 26.4224 27.6999 26.5441 27.6549 26.6843L27.6522 26.6949L27.6443 26.7054L27.4882 26.8906L26.8877 27.8298L27.3877 26.8245L27.3903 26.8192L27.52 26.6314C27.5411 26.5256 27.5491 26.3986 27.5544 26.2769V26.0917C27.557 26.0203 27.5649 25.9462 27.5835 25.8748C27.6258 25.7266 27.7316 25.5943 27.8586 25.515C27.9618 25.4568 28.0649 25.4144 28.1787 25.3959C28.1866 25.3933 28.1972 25.3906 28.2078 25.3906H28.2105C28.2475 25.3933 28.2766 25.4224 28.2819 25.4621Z" fill="#EDA600"/>
<path d="M24.2581 26.8324C24.2581 26.8324 25.2448 25.8615 26.5702 25.9647C26.5702 25.9647 26.0094 25.9383 26.1073 26.9118C26.1073 26.9118 25.7157 26.5176 25.1681 27.5441C25.1655 27.5467 24.8507 26.7081 24.2581 26.8324Z" fill="url(#paint10_linear_498_19361)"/>
<path d="M26.6126 26.1475C26.5333 26.1316 26.4275 26.1422 26.3613 26.1818C26.2925 26.2215 26.2502 26.2983 26.2343 26.3988C26.2185 26.502 26.2132 26.6289 26.2026 26.7427L26.1894 26.9173C26.1814 26.9755 26.1867 27.0311 26.1682 27.1078C26.147 27.1819 26.0968 27.2374 26.0624 27.2771L25.9513 27.4147L25.7264 27.6871L25.2793 28.2348L25.6735 27.6475L25.8719 27.3538L25.9698 27.2057C26.0042 27.1528 26.0333 27.1157 26.0386 27.0734C26.0465 27.0363 26.0386 26.9729 26.0386 26.912L26.0359 26.7348C26.0359 26.6131 26.028 26.502 26.0333 26.3723C26.0386 26.24 26.0968 26.0813 26.2264 25.9861C26.3587 25.8935 26.4989 25.8697 26.6523 25.8803L26.6126 26.1475Z" fill="#EDA600"/>
<path d="M26.0439 27.0443C25.983 27.0152 25.8878 26.9967 25.8164 27.0126C25.7396 27.0231 25.6709 27.0708 25.6153 27.1369L25.2132 27.6342L25.1179 27.7533L25.0703 27.6104C24.9751 27.3194 24.7714 27.0311 24.4777 26.9014C24.1814 26.7665 23.8269 26.8194 23.5227 26.9491C23.8164 26.7983 24.1709 26.7083 24.5068 26.8274C24.6709 26.8856 24.819 26.9887 24.9381 27.1157C25.0571 27.2454 25.1523 27.3909 25.2211 27.5602L25.0783 27.5364L25.4407 27.0073C25.5121 26.9067 25.6232 26.8115 25.7582 26.7797C25.8931 26.7454 26.0201 26.7533 26.155 26.8036L26.0439 27.0443Z" fill="#EDA600"/>
<path d="M0.551598 25.4694C0.551598 25.4271 0.572762 25.3848 0.609799 25.361C0.64419 25.3372 0.689164 25.3292 0.731492 25.3451C0.747366 25.3504 1.08864 25.4721 1.24472 25.8028C1.25266 25.8187 1.25795 25.8372 1.25795 25.8557L1.28176 26.4986C1.31351 26.5435 1.36112 26.607 1.41404 26.6811L1.50398 25.8769L1.48282 24.7922C1.48282 24.7552 1.49605 24.7181 1.52515 24.6917C1.5516 24.6652 1.59128 24.652 1.62568 24.6546C1.63361 24.6546 1.7315 24.6626 1.85055 24.7022H1.87965C1.88758 24.7022 1.89552 24.7049 1.9061 24.7049C1.92462 24.7049 1.94049 24.7075 1.95901 24.7102C1.98018 24.7128 1.99869 24.7155 2.01721 24.7208C2.03309 24.7234 2.04631 24.7287 2.06219 24.7313C2.0807 24.7366 2.09658 24.7419 2.1151 24.7499C2.12832 24.7552 2.14155 24.7604 2.15478 24.7684C2.17065 24.7763 2.18388 24.7843 2.19975 24.7948C2.21298 24.8028 2.22356 24.8107 2.23679 24.8187L2.27647 24.8504C2.2897 24.861 2.30028 24.8716 2.31086 24.8821L2.34261 24.9139C2.35584 24.9271 2.36642 24.9403 2.377 24.9536C2.38494 24.9642 2.39288 24.9747 2.40081 24.9827C2.41404 24.9985 2.42727 25.0171 2.43785 25.0329C2.44314 25.0382 2.44579 25.0462 2.45108 25.0515C2.61245 25.2869 2.73415 25.57 2.97753 25.6626C3.01986 25.6784 3.06484 25.6917 3.11246 25.7023C3.55426 25.7948 4.13098 25.6229 4.46431 26.0065L4.46167 26.0118C4.47225 26.0224 4.48548 26.0329 4.49606 26.0462C4.58601 26.1546 4.94315 25.9509 4.94315 25.9509L5.60982 26.4192L5.68389 26.3478L5.9167 26.1282L6.22358 26.2023L4.92463 27.443L3.79764 28.2023C3.77119 28.2234 3.7368 28.234 3.7024 28.2287L3.42198 28.1996C3.2606 28.2869 3.08071 28.3319 2.90081 28.3319C2.81616 28.3319 2.7315 28.3213 2.64949 28.3028C2.42991 28.2525 2.23414 28.1335 2.08864 27.9615L2.05425 27.9218L1.99869 27.943C1.98547 27.9483 1.97224 27.9509 1.95901 27.9536C1.69975 27.9721 1.39023 27.8319 1.20769 27.6097L0.570116 26.8081C0.551598 26.7843 0.541016 26.7525 0.541016 26.7234L0.551598 25.4694Z" fill="url(#paint11_linear_498_19361)"/>
<path d="M0.549072 25.3634V25.3819L0.551718 25.5565C0.646956 25.5539 0.760713 25.5777 0.850661 25.6253C0.940608 25.6729 1.00939 25.747 1.04643 25.8423C1.0623 25.8899 1.07288 25.9454 1.07818 26.001L1.09669 26.1941C1.11521 26.3237 1.13109 26.4454 1.17606 26.5856L1.1787 26.5962L1.18664 26.6068L1.34273 26.792L1.94326 27.7312L1.44326 26.7259L1.44061 26.7206L1.31098 26.5327C1.28982 26.4269 1.28188 26.2999 1.27659 26.1782V25.9931C1.27394 25.9216 1.26601 25.8475 1.24749 25.7761C1.20516 25.628 1.09934 25.4957 0.969709 25.4163C0.866534 25.3581 0.763359 25.3158 0.649602 25.2973C0.641665 25.2946 0.631083 25.292 0.620501 25.292H0.617856C0.580818 25.2946 0.551718 25.3237 0.549072 25.3634Z" fill="#EDA600"/>
<path d="M4.57024 26.7348C4.57024 26.7348 3.58346 25.7639 2.25806 25.8671C2.25806 25.8671 2.81891 25.8406 2.72102 26.8141C2.72102 26.8141 3.11256 26.42 3.66018 27.4464C3.66018 27.4491 3.97764 26.6104 4.57024 26.7348Z" fill="url(#paint12_linear_498_19361)"/>
<path d="M2.21571 26.0469C2.29507 26.031 2.40089 26.0416 2.46703 26.0813C2.53582 26.1209 2.57814 26.1977 2.59402 26.2982C2.60989 26.4014 2.61518 26.5284 2.62576 26.6421L2.63899 26.8167C2.64693 26.8749 2.64164 26.9305 2.66015 27.0072C2.68132 27.0813 2.73158 27.1368 2.76597 27.1765L2.87709 27.3141L3.10196 27.5866L3.54905 28.1342L3.15487 27.5469L2.95645 27.2532L2.85857 27.1051C2.82418 27.0522 2.79508 27.0151 2.78978 26.9728C2.78185 26.9358 2.78978 26.8723 2.78978 26.8114L2.79243 26.6342C2.79243 26.5125 2.80037 26.4014 2.79508 26.2717C2.78978 26.1395 2.73158 25.9807 2.60195 25.8855C2.46968 25.7929 2.32947 25.7691 2.17603 25.7797L2.21571 26.0469Z" fill="#EDA600"/>
<path d="M2.78173 26.9437C2.84257 26.9146 2.93781 26.8961 3.00924 26.912C3.08596 26.9225 3.15474 26.9702 3.2103 27.0363L3.61242 27.5337L3.70766 27.6527L3.75527 27.5099C3.85051 27.2188 4.05422 26.9305 4.34787 26.8009C4.64417 26.6659 4.99867 26.7188 5.3029 26.8485C5.00925 26.6977 4.65475 26.6077 4.31877 26.7268C4.15475 26.785 4.0066 26.8882 3.88755 27.0151C3.7685 27.1448 3.67326 27.2903 3.60183 27.4596L3.74469 27.4358L3.38226 26.9067C3.31083 26.8061 3.19972 26.7109 3.0648 26.6792C2.92987 26.6448 2.80289 26.6527 2.66797 26.703L2.78173 26.9437Z" fill="#EDA600"/>
<path d="M1.48291 24.7139V24.7615L1.4882 24.9361C1.63106 24.9308 1.79773 24.9573 1.90884 25.0313C2.02789 25.1028 2.07551 25.2192 2.07551 25.3885L2.10725 26.4202L2.12577 26.9388C2.11519 27.0314 2.17074 27.1425 2.22895 27.198L2.39032 27.3991L3.03583 28.2086L2.44588 27.3594L2.29508 27.1451C2.23953 27.0737 2.21836 27.0208 2.2263 26.9361L2.24217 26.4176L2.27656 25.3806C2.28186 25.2985 2.27656 25.1821 2.23953 25.0843C2.20514 24.989 2.05963 24.6901 1.55434 24.6504C1.5173 24.653 1.4882 24.6768 1.48291 24.7139Z" fill="#EDA600"/>
<path d="M18.8744 9.66824C18.7156 9.37723 18.9193 9.08358 19.2659 8.71585C19.8162 8.13648 20.4167 6.78992 19.8585 5.42483C19.8611 5.4169 19.75 5.18674 19.7527 5.1788L19.5225 5.16822C19.4484 5.15763 16.9326 5.15234 14.414 5.15234C11.8955 5.15234 9.37962 5.15763 9.30554 5.16822C9.30554 5.16822 8.96691 5.4169 8.96956 5.42483C8.414 6.79256 9.01189 8.13648 9.56216 8.71585C9.90872 9.08093 10.1124 9.37723 9.95369 9.66824C9.80025 9.95131 9.33729 9.99099 9.33729 9.99099C9.33729 9.99099 9.44311 10.2793 9.69972 10.4354C9.93782 10.5783 10.2262 10.6127 10.4299 10.618C10.4299 10.618 11.2156 11.7053 13.2712 11.7053H14.414H15.5569C17.6098 11.7053 18.3982 10.618 18.3982 10.618C18.5992 10.6127 18.8902 10.5783 19.1257 10.4354C19.3823 10.2793 19.4881 9.99099 19.4881 9.99099C19.4881 9.99099 19.0278 9.95131 18.8744 9.66824Z" fill="#543930"/>
<path d="M14.4114 11.7057V10.4993L18.0622 10.2109L18.3929 10.6183C18.3929 10.6183 17.6072 11.7057 15.5516 11.7057H14.4114Z" fill="url(#paint13_radial_498_19361)"/>
<path d="M18.3877 10.0914C17.8401 9.2607 19.0544 8.95117 19.0544 8.95117C18.8428 9.21308 18.7475 9.44324 18.8719 9.66811C19.0253 9.95118 19.4856 9.99086 19.4856 9.99086C19.4856 9.99086 18.8613 10.5491 18.3877 10.0914Z" fill="url(#paint14_radial_498_19361)"/>
<path d="M19.8613 5.42439C20.4036 6.74715 19.8322 8.10959 19.2978 8.68367C19.2237 8.76303 18.9142 9.06727 18.8428 9.3133C18.8428 9.3133 17.6232 7.61223 17.2581 6.61487C17.184 6.41381 17.1179 6.20482 17.11 5.99053C17.102 5.82916 17.1285 5.63868 17.2211 5.50111C17.3348 5.33444 19.7978 5.28418 19.7978 5.28418C19.7952 5.28683 19.8613 5.42439 19.8613 5.42439Z" fill="url(#paint15_radial_498_19361)"/>
<path d="M8.96967 5.42508C8.42734 6.74784 8.99877 8.11028 9.53316 8.68436C9.60724 8.76372 9.91676 9.06796 9.98819 9.31399C9.98819 9.31399 11.2078 7.61292 11.5729 6.61557C11.6469 6.41451 11.7131 6.20551 11.721 5.99122C11.7289 5.82985 11.7025 5.63937 11.6099 5.5018C11.4961 5.33514 11.3639 5.37747 11.1707 5.37747C10.803 5.37747 9.19189 5.28223 9.06755 5.28223C9.0702 5.28752 8.96967 5.42508 8.96967 5.42508Z" fill="url(#paint16_radial_498_19361)"/>
<path d="M14.4194 11.7057V10.4993L10.7686 10.2109L10.4353 10.6183C10.4353 10.6183 11.221 11.7057 13.2766 11.7057H14.4194Z" fill="url(#paint17_radial_498_19361)"/>
<path d="M10.4433 10.0914C10.9909 9.2607 9.77664 8.95117 9.77664 8.95117C9.98828 9.21308 10.0835 9.44324 9.95918 9.66811C9.80574 9.95118 9.34277 9.99086 9.34277 9.99086C9.34277 9.99086 9.97241 10.5491 10.4433 10.0914Z" fill="url(#paint18_radial_498_19361)"/>
<path d="M14.414 10.8955H13.1494V12.2341C13.1494 12.84 13.6626 13.3294 14.2976 13.3294H14.5277C15.1627 13.3294 15.6759 12.84 15.6759 12.2341V10.8955H14.414Z" fill="#E59600"/>
<path d="M17.8903 5.92969H16.9538H11.8744H10.9379C10.1892 5.92969 9.57544 6.58313 9.57544 7.38207C9.57544 8.18102 10.1892 8.83446 10.9379 8.83446H11.8744H16.9538H17.8903C18.639 8.83446 19.2527 8.18102 19.2527 7.38207C19.2527 6.58313 18.639 5.92969 17.8903 5.92969Z" fill="#E59600"/>
<path d="M14.414 0.924805C12.1997 0.924805 10.1494 3.29254 10.1494 6.69996C10.1494 10.0889 12.2605 11.7635 14.414 11.7635C16.5674 11.7635 18.6786 10.0889 18.6786 6.69996C18.6786 3.28989 16.6283 0.924805 14.414 0.924805Z" fill="#FFCA28"/>
<path d="M13.2473 5.73948C13.1283 5.58075 12.8505 5.35059 12.3108 5.35059C11.7738 5.35059 11.496 5.58075 11.3743 5.73948C11.3214 5.81091 11.3346 5.89027 11.3716 5.94054C11.406 5.98551 11.5066 6.02784 11.6177 5.9908C11.7288 5.95376 11.9457 5.84001 12.3108 5.83736C12.6759 5.84001 12.8928 5.95112 13.0039 5.9908C13.115 6.02784 13.2156 5.98551 13.2499 5.94054C13.287 5.89027 13.3002 5.81091 13.2473 5.73948Z" fill="#6D4C41"/>
<path d="M17.4512 5.73948C17.3321 5.58075 17.0543 5.35059 16.5146 5.35059C15.975 5.35059 15.6998 5.58075 15.5781 5.73948C15.5252 5.81091 15.5385 5.89027 15.5755 5.94054C15.6099 5.98551 15.7104 6.02784 15.8215 5.9908C15.9326 5.95376 16.1496 5.84001 16.5146 5.83736C16.8797 5.84001 17.0967 5.95112 17.2078 5.9908C17.3189 6.02784 17.4194 5.98551 17.4538 5.94054C17.4908 5.89027 17.5041 5.81091 17.4512 5.73948Z" fill="#6D4C41"/>
<path d="M14.9062 8.17367C14.893 8.16838 14.8798 8.16573 14.8665 8.16309H13.9671C13.9538 8.16573 13.9406 8.16838 13.9274 8.17367C13.8454 8.20541 13.8004 8.29007 13.8401 8.38002C13.8798 8.46997 14.057 8.72129 14.4194 8.72129C14.7792 8.72129 14.9591 8.46732 14.9988 8.38002C15.0306 8.29007 14.9856 8.20541 14.9062 8.17367Z" fill="#E59600"/>
<path d="M15.4722 9.19945C15.0727 9.43754 13.7605 9.43754 13.3584 9.19945C13.1282 9.06188 12.8928 9.27087 12.988 9.47987C13.0806 9.68622 13.7975 10.1624 14.4166 10.1624C15.0356 10.1624 15.742 9.68622 15.8372 9.47987C15.9325 9.27352 15.7023 9.06453 15.4722 9.19945Z" fill="#795548"/>
<path d="M12.3401 7.18676C12.0782 7.18676 11.8427 7.12327 11.6814 7.02274C11.6126 6.98041 11.5702 7.00422 11.5835 7.08623C11.6311 7.40105 11.9512 7.64708 12.3401 7.64708C12.729 7.64708 13.0491 7.40369 13.0967 7.08623C13.1099 7.00422 13.0676 6.97776 12.9988 7.02274C12.8348 7.12327 12.602 7.18676 12.3401 7.18676Z" fill="#404040"/>
<path d="M16.4883 7.18676C16.2264 7.18676 15.9909 7.12327 15.8295 7.02274C15.7608 6.98041 15.7184 7.00422 15.7317 7.08623C15.7793 7.40105 16.0994 7.64708 16.4883 7.64708C16.8772 7.64708 17.1973 7.40369 17.2449 7.08623C17.2581 7.00422 17.2158 6.97776 17.147 7.02274C16.983 7.12327 16.7502 7.18676 16.4883 7.18676Z" fill="#404040"/>
<path d="M19.5569 2.67341C19.2448 2.20251 18.5464 1.56758 17.9194 1.5279C17.8188 0.924723 17.1733 0.414138 16.549 0.215725C14.8585 -0.321314 13.758 0.279217 13.1654 0.60197C13.041 0.668108 12.25 1.10991 11.6945 0.792447C11.3479 0.594033 11.3532 0.0596395 11.3532 0.0596395C11.3532 0.0596395 10.2633 0.474985 10.6363 1.63108C10.2633 1.64695 9.77119 1.80303 9.51193 2.32949C9.2024 2.95383 9.31351 3.47764 9.40081 3.72897C9.07806 4.00146 8.6733 4.58347 8.95108 5.34009C9.16007 5.90887 9.99605 6.17078 9.99605 6.17078C9.93785 7.19459 10.1283 7.82422 10.2289 8.07819C10.2474 8.12317 10.3109 8.11788 10.3215 8.0729C10.4484 7.56496 10.8797 5.79776 10.8373 5.49088C10.8373 5.49088 12.2871 5.20252 13.6707 4.18664C13.9511 3.98029 14.258 3.80304 14.5807 3.67341C16.3162 2.98293 16.6813 4.16019 16.6813 4.16019C16.6813 4.16019 17.885 3.93003 18.2474 5.59935C18.3823 6.22633 18.4776 7.22898 18.5543 7.93004C18.5596 7.98031 18.6284 7.99089 18.6469 7.94327C18.7686 7.66549 19.012 7.11258 19.0702 6.54909C19.0913 6.35067 19.6257 6.08877 19.8532 5.23691C20.1601 4.10463 19.7845 3.01468 19.5569 2.67341Z" fill="#543930"/>
<path d="M19.065 6.55675C19.0862 6.35834 19.6205 6.09643 19.8481 5.24458C19.8719 5.15463 19.893 5.06203 19.9116 4.96944C20.0967 3.93505 19.7634 2.98531 19.5544 2.67314C19.266 2.23663 18.647 1.66519 18.0597 1.54615C18.0094 1.53821 17.9592 1.53292 17.9115 1.53027C17.9115 1.53027 17.9539 1.80541 17.8428 2.02498C17.6999 2.30805 17.4062 2.37684 17.4062 2.37684C18.9406 3.90595 18.8322 5.18637 19.065 6.55675Z" fill="url(#paint19_radial_498_19361)"/>
<path d="M13.5358 0.408778C13.3956 0.477562 13.2713 0.543699 13.1655 0.601901C13.0411 0.668039 12.2501 1.10984 11.6945 0.792378C11.3533 0.599255 11.3533 0.0807344 11.3533 0.0595703C11.1972 0.260629 10.721 1.69185 12.1099 1.78709C12.7104 1.82677 13.0781 1.30561 13.2977 0.863807C13.3797 0.705076 13.5041 0.47227 13.5358 0.408778Z" fill="url(#paint20_radial_498_19361)"/>
<path d="M16.3743 0.162556C17.3108 0.416526 17.7659 0.892718 17.9167 1.52764C17.9616 1.71283 18.0146 3.45358 14.6918 1.47738C13.4563 0.741924 13.7923 0.281604 13.9378 0.228694C14.5066 0.0249895 15.3267 -0.120514 16.3743 0.162556Z" fill="url(#paint21_radial_498_19361)"/>
<path d="M11.3506 0.0622158C11.348 0.0622158 11.3454 0.0648613 11.3427 0.0648613C11.2237 0.115126 10.2898 0.546345 10.639 1.63101L11.6337 1.79238C10.7528 0.900844 11.3559 0.0595703 11.3559 0.0595703L11.3506 0.0622158Z" fill="url(#paint22_radial_498_19361)"/>
<path d="M11.2527 1.73167L10.6389 1.63379C10.6151 1.63379 10.5331 1.64173 10.4881 1.64702C10.1416 1.69464 9.73415 1.87453 9.51458 2.3322C9.27648 2.82427 9.28442 3.2502 9.34791 3.53062C9.36643 3.62586 9.40611 3.73168 9.40611 3.73168C9.40611 3.73168 9.71034 3.44332 10.4352 3.4248L11.2527 1.73167Z" fill="url(#paint23_radial_498_19361)"/>
<path d="M9.3744 3.75521C9.07017 4.02505 8.66276 4.62294 8.96435 5.36633C9.19186 5.92718 9.99875 6.17056 9.99875 6.17056C9.99875 6.17321 10.1601 6.22083 10.2421 6.22083L10.4326 3.42188C10.0464 3.42188 9.67335 3.53828 9.4326 3.70494C9.43525 3.71024 9.37176 3.74992 9.3744 3.75521Z" fill="url(#paint24_radial_498_19361)"/>
<defs>
<linearGradient id="paint0_linear_498_19361" x1="21.3865" y1="15.8922" x2="21.3865" y2="27.7605" gradientUnits="userSpaceOnUse">
<stop stop-color="#FFB300"/>
<stop offset="0.5" stop-color="#FFCA28"/>
</linearGradient>
<linearGradient id="paint1_linear_498_19361" x1="7.32106" y1="15.8922" x2="7.32106" y2="27.7605" gradientUnits="userSpaceOnUse">
<stop stop-color="#FFB300"/>
<stop offset="0.5" stop-color="#FFCA28"/>
</linearGradient>
<linearGradient id="paint2_linear_498_19361" x1="14.4142" y1="11.7862" x2="14.4142" y2="24.6043" gradientUnits="userSpaceOnUse">
<stop stop-color="#F78C1F"/>
<stop offset="1" stop-color="#ED6D23"/>
</linearGradient>
<linearGradient id="paint3_linear_498_19361" x1="11.1522" y1="31.1923" x2="11.1522" y2="24.7665" gradientUnits="userSpaceOnUse">
<stop stop-color="#FFB300"/>
<stop offset="0.3773" stop-color="#FFCA28"/>
</linearGradient>
<linearGradient id="paint4_linear_498_19361" x1="4.48059" y1="27.5286" x2="5.80973" y2="29.169" gradientUnits="userSpaceOnUse">
<stop stop-color="#FFB300"/>
<stop offset="0.5" stop-color="#FFCA28" stop-opacity="0"/>
</linearGradient>
<linearGradient id="paint5_linear_498_19361" x1="6.96533" y1="28.6392" x2="27.1143" y2="28.6392" gradientUnits="userSpaceOnUse">
<stop offset="0.7779" stop-color="#FFCA28"/>
<stop offset="1" stop-color="#FFB300"/>
</linearGradient>
<linearGradient id="paint6_linear_498_19361" x1="10.3152" y1="28.4394" x2="9.50793" y2="29.954" gradientUnits="userSpaceOnUse">
<stop stop-color="#FFB300"/>
<stop offset="0.5" stop-color="#FFCA28" stop-opacity="0"/>
</linearGradient>
<linearGradient id="paint7_linear_498_19361" x1="26.6963" y1="30.5504" x2="8.0524" y2="26.582" gradientUnits="userSpaceOnUse">
<stop stop-color="#FFB300"/>
<stop offset="0.3379" stop-color="#FFCA28"/>
</linearGradient>
<linearGradient id="paint8_linear_498_19361" x1="18.5995" y1="27.6372" x2="18.114" y2="24.4489" gradientUnits="userSpaceOnUse">
<stop offset="0.078" stop-color="#FFB300"/>
<stop offset="0.6927" stop-color="#FFCA28"/>
</linearGradient>
<linearGradient id="paint9_linear_498_19361" x1="27.4667" y1="27.4445" x2="24.7462" y2="25.5726" gradientUnits="userSpaceOnUse">
<stop stop-color="#FFB300"/>
<stop offset="0.5" stop-color="#FFCA28"/>
</linearGradient>
<linearGradient id="paint10_linear_498_19361" x1="25.7753" y1="26.9818" x2="25.3448" y2="26.2892" gradientUnits="userSpaceOnUse">
<stop stop-color="#FFB300"/>
<stop offset="1" stop-color="#FFCA28" stop-opacity="0"/>
</linearGradient>
<linearGradient id="paint11_linear_498_19361" x1="1.18221" y1="27.0205" x2="5.07585" y2="25.498" gradientUnits="userSpaceOnUse">
<stop stop-color="#FFB300"/>
<stop offset="0.5" stop-color="#FFCA28"/>
</linearGradient>
<linearGradient id="paint12_linear_498_19361" x1="3.01073" y1="26.8019" x2="3.60036" y2="26.0719" gradientUnits="userSpaceOnUse">
<stop stop-color="#FFB300"/>
<stop offset="1" stop-color="#FFCA28" stop-opacity="0"/>
</linearGradient>
<radialGradient id="paint13_radial_498_19361" cx="0" cy="0" r="1" gradientUnits="userSpaceOnUse" gradientTransform="translate(16.2775 9.96273) scale(2.99258 1.46995)">
<stop offset="0.7275" stop-color="#6D4C41" stop-opacity="0"/>
<stop offset="1" stop-color="#6D4C41"/>
</radialGradient>
<radialGradient id="paint14_radial_498_19361" cx="0" cy="0" r="1" gradientUnits="userSpaceOnUse" gradientTransform="translate(19.2261 9.51668) rotate(154.924) scale(0.884324 0.656043)">
<stop offset="0.6628" stop-color="#6D4C41"/>
<stop offset="1" stop-color="#6D4C41" stop-opacity="0"/>
</radialGradient>
<radialGradient id="paint15_radial_498_19361" cx="0" cy="0" r="1" gradientUnits="userSpaceOnUse" gradientTransform="translate(16.9338 7.01556) rotate(-94.2783) scale(3.88449 3.23747)">
<stop offset="0.7247" stop-color="#6D4C41" stop-opacity="0"/>
<stop offset="1" stop-color="#6D4C41"/>
</radialGradient>
<radialGradient id="paint16_radial_498_19361" cx="0" cy="0" r="1" gradientUnits="userSpaceOnUse" gradientTransform="translate(11.8977 7.0161) rotate(-85.7217) scale(3.88449 3.23747)">
<stop offset="0.7247" stop-color="#6D4C41" stop-opacity="0"/>
<stop offset="1" stop-color="#6D4C41"/>
</radialGradient>
<radialGradient id="paint17_radial_498_19361" cx="0" cy="0" r="1" gradientUnits="userSpaceOnUse" gradientTransform="translate(12.5535 9.96273) rotate(180) scale(2.99258 1.46995)">
<stop offset="0.7275" stop-color="#6D4C41" stop-opacity="0"/>
<stop offset="1" stop-color="#6D4C41"/>
</radialGradient>
<radialGradient id="paint18_radial_498_19361" cx="0" cy="0" r="1" gradientUnits="userSpaceOnUse" gradientTransform="translate(9.60571 9.5169) rotate(25.0761) scale(0.884324 0.656043)">
<stop offset="0.6628" stop-color="#6D4C41"/>
<stop offset="1" stop-color="#6D4C41" stop-opacity="0"/>
</radialGradient>
<radialGradient id="paint19_radial_498_19361" cx="0" cy="0" r="1" gradientUnits="userSpaceOnUse" gradientTransform="translate(16.7398 4.96572) rotate(72.0851) scale(4.55323 3.37839)">
<stop offset="0.6985" stop-color="#6D4C41" stop-opacity="0"/>
<stop offset="1" stop-color="#6D4C41"/>
</radialGradient>
<radialGradient id="paint20_radial_498_19361" cx="0" cy="0" r="1" gradientUnits="userSpaceOnUse" gradientTransform="translate(12.3011 0.0018529) rotate(28.2026) scale(1.19387 1.41558)">
<stop offset="0.58" stop-color="#6D4C41"/>
<stop offset="1" stop-color="#6D4C41" stop-opacity="0"/>
</radialGradient>
<radialGradient id="paint21_radial_498_19361" cx="0" cy="0" r="1" gradientUnits="userSpaceOnUse" gradientTransform="translate(14.9695 2.16897) rotate(-157.19) scale(3.73381 2.09841)">
<stop offset="0.6985" stop-color="#6D4C41" stop-opacity="0"/>
<stop offset="1" stop-color="#6D4C41"/>
</radialGradient>
<radialGradient id="paint22_radial_498_19361" cx="0" cy="0" r="1" gradientUnits="userSpaceOnUse" gradientTransform="translate(11.8215 1.09075) scale(1.09583 1.34052)">
<stop offset="0.7016" stop-color="#6D4C41" stop-opacity="0"/>
<stop offset="1" stop-color="#6D4C41"/>
</radialGradient>
<radialGradient id="paint23_radial_498_19361" cx="0" cy="0" r="1" gradientUnits="userSpaceOnUse" gradientTransform="translate(11.6702 3.02548) rotate(-164.942) scale(2.05527 1.92336)">
<stop offset="0.6605" stop-color="#6D4C41" stop-opacity="0"/>
<stop offset="1" stop-color="#6D4C41"/>
</radialGradient>
<radialGradient id="paint24_radial_498_19361" cx="0" cy="0" r="1" gradientUnits="userSpaceOnUse" gradientTransform="translate(11.1838 5.00917) rotate(7.83355) scale(2.15778 3.03203)">
<stop offset="0.5981" stop-color="#6D4C41" stop-opacity="0"/>
<stop offset="1" stop-color="#6D4C41"/>
</radialGradient>
</defs>
</svg>
