<svg width="33" height="32" viewBox="0 0 33 32" fill="none" xmlns="http://www.w3.org/2000/svg">
<path d="M26.107 2.25867C25.1923 0.896 23.6377 0 21.875 0C20.3443 0 18.9763 0.677333 18.043 1.744C17.379 1.34667 16.6057 1.11467 15.7763 1.11467C13.8163 1.11467 12.1577 2.38667 11.571 4.14933C9.61367 4.16267 7.92301 5.288 7.09367 6.92533C6.87234 6.88533 6.64567 6.86133 6.41367 6.86133C4.28834 6.86133 2.56567 8.584 2.56567 10.7093C2.56567 12.8347 4.28834 14.5573 6.41367 14.5573C7.41634 14.5573 8.32834 14.1707 9.01367 13.5413C9.77367 13.9947 10.6563 14.2613 11.6057 14.2613C12.0297 14.2613 12.4403 14.2027 12.835 14.104C13.9097 15.608 15.667 16.5893 17.6563 16.5893C19.4777 16.5893 21.107 15.768 22.1923 14.4747C23.235 15.1547 24.483 15.5547 25.8217 15.5547C29.4963 15.5547 32.4723 12.576 32.4723 8.904C32.4697 5.32533 29.6457 2.41067 26.107 2.25867Z" fill="url(#paint0_radial_498_18246)"/>
<path opacity="0.2" d="M8.4911 8.1548C9.21644 8.08813 9.76844 8.5148 9.94977 9.20546C10.0778 9.68546 10.7951 9.4028 10.6698 8.92813C10.5871 8.61346 10.4378 8.33613 10.2404 8.1068C11.2458 7.68813 12.3364 7.87213 13.1551 8.61346C13.5231 8.9468 14.0084 8.34946 13.6431 8.0188C12.6031 7.0748 11.0991 6.84546 9.8271 7.44546C9.73377 7.48813 9.6751 7.5548 9.64044 7.62946C9.2751 7.4348 8.84844 7.3468 8.40577 7.3868C7.91244 7.4348 7.99777 8.20013 8.4911 8.1548Z" fill="#424242"/>
<path opacity="0.2" d="M26.107 2.25867C25.1923 0.896 23.6377 0 21.875 0C20.3443 0 18.9763 0.677333 18.043 1.744C17.379 1.34667 16.6057 1.11467 15.7763 1.11467C13.8163 1.11467 12.1577 2.38667 11.571 4.14933C9.61367 4.16267 7.92301 5.288 7.09367 6.92533C6.87234 6.88533 6.64567 6.86133 6.41367 6.86133C4.28834 6.86133 2.56567 8.584 2.56567 10.7093C2.56567 12.8347 4.28834 14.5573 6.41367 14.5573C7.41634 14.5573 8.32834 14.1707 9.01367 13.5413C9.77101 13.9947 10.6563 14.2613 11.6057 14.2613C12.0297 14.2613 12.4403 14.2027 12.835 14.104C13.9097 15.608 15.667 16.5893 17.6563 16.5893C19.4777 16.5893 21.107 15.768 22.1923 14.4747C23.235 15.1547 24.483 15.5547 25.8217 15.5547C29.4963 15.5547 32.4723 12.576 32.4723 8.904C32.4697 5.32533 29.6457 2.41067 26.107 2.25867ZM25.819 14.7547C24.6803 14.7547 23.5763 14.4267 22.627 13.8053C22.547 13.752 22.4617 13.72 22.371 13.6987C21.2643 13.1973 20.683 12.1413 20.8643 10.944C20.939 10.4453 20.163 10.328 20.0883 10.8293C19.8883 12.1467 20.4297 13.352 21.4697 14.08C20.4963 15.168 19.115 15.7893 17.6537 15.7893C16.003 15.7893 14.4457 14.9867 13.483 13.64C13.331 13.4267 13.0857 13.304 12.8323 13.304C12.7683 13.304 12.7017 13.312 12.6377 13.328C12.2857 13.416 11.9363 13.4613 11.603 13.4613C10.8403 13.4613 10.0857 13.2507 9.42167 12.8533C9.29367 12.776 9.15234 12.7387 9.01101 12.7387C8.81634 12.7387 8.62167 12.8107 8.46967 12.9493C7.90434 13.4693 7.17367 13.7547 6.41101 13.7547C4.73101 13.7547 3.36301 12.3867 3.36301 10.7067C3.36301 9.02667 4.73101 7.65867 6.41101 7.65867C6.58167 7.65867 6.75767 7.67467 6.94967 7.70933C6.99767 7.71733 7.04301 7.72267 7.09101 7.72267C7.38967 7.72267 7.66701 7.55733 7.80567 7.28533C8.53101 5.85333 9.97634 4.95733 11.5737 4.94667C11.9177 4.944 12.219 4.72533 12.3283 4.4C12.8243 2.912 14.2083 1.92267 15.7737 1.912C17.9017 1.89867 19.131 3.592 19.0243 4.41067C18.9497 4.98133 19.843 4.99733 19.9177 4.432C19.9683 4.056 19.9283 3.69333 19.819 3.36267C21.083 3.36 22.171 4.03733 22.7203 5.19467C22.9683 5.71467 23.7523 5.29067 23.507 4.77067C22.8083 3.29867 21.2963 2.38933 19.6697 2.472C19.5523 2.47733 19.459 2.52267 19.387 2.58667C19.227 2.39467 19.035 2.22667 18.819 2.088C19.6297 1.26933 20.7257 0.8 21.875 0.8C23.3097 0.8 24.643 1.512 25.443 2.704C25.5843 2.91467 25.819 3.04533 26.0723 3.056C29.211 3.192 31.6697 5.76 31.6697 8.904C31.6697 12.1307 29.0457 14.7547 25.819 14.7547Z" fill="#424242"/>
<path d="M6.86176 10.666H3.9151C3.1551 10.666 2.5311 11.1087 2.50176 11.6687L2.44043 12.7593H8.33643L8.2751 11.6687C8.2431 11.1087 7.61909 10.666 6.86176 10.666Z" fill="url(#paint1_radial_498_18246)"/>
<path d="M8.33656 12.7598H2.43789L2.32056 14.8504H8.45389L8.33656 12.7598Z" fill="url(#paint2_radial_498_18246)"/>
<path d="M2.32021 14.8506L2.20288 16.9439H8.57355L8.45355 14.8506H2.32021Z" fill="url(#paint3_radial_498_18246)"/>
<path d="M2.08569 19.0377H8.69103L8.57369 16.9443H2.20303L2.08569 19.0377Z" fill="url(#paint4_radial_498_18246)"/>
<path d="M9.04556 25.3144L8.92556 23.2211L8.80823 21.1304L8.6909 19.0371H2.08556L1.96556 21.1304L1.84823 23.2211L1.7309 25.3144L1.65356 26.6664H9.12023L9.04556 25.3144Z" fill="url(#paint5_radial_498_18246)"/>
<path d="M9.04556 25.3145L8.34156 12.7545L8.28023 11.6638C8.24823 11.1038 7.62423 10.6611 6.8669 10.6611H3.9149C3.1549 10.6611 2.5309 11.1038 2.50156 11.6638L2.44023 12.7545L1.73623 25.3145L1.65356 26.6665H9.12023L9.04556 25.3145Z" fill="url(#paint6_linear_498_18246)"/>
<path d="M17.9443 10.666H14.9949C14.2349 10.666 13.6109 11.1087 13.5816 11.6687L13.5203 12.7593H19.4189L19.3576 11.6687C19.3256 11.1087 18.7016 10.666 17.9443 10.666Z" fill="url(#paint7_radial_498_18246)"/>
<path d="M19.4191 12.7598H13.5204L13.4031 14.8504H19.5364L19.4191 12.7598Z" fill="url(#paint8_radial_498_18246)"/>
<path d="M13.403 14.8506L13.2856 16.9439H19.6536L19.5363 14.8506H13.403Z" fill="url(#paint9_radial_498_18246)"/>
<path d="M13.1658 19.0377H19.7738L19.6538 16.9443H13.2858L13.1658 19.0377Z" fill="url(#paint10_radial_498_18246)"/>
<path d="M20.1259 25.3144L20.0086 23.2211L19.8912 21.1304L19.7739 19.0371H13.1659L13.0486 21.1304L12.9312 23.2211L12.8139 25.3144L12.7366 26.6664H20.2032L20.1259 25.3144Z" fill="url(#paint11_radial_498_18246)"/>
<path d="M20.1259 25.3145L19.4219 12.7545L19.3606 11.6638C19.3286 11.1038 18.7046 10.6611 17.9472 10.6611H14.9952C14.2352 10.6611 13.6112 11.1038 13.5819 11.6638L13.5206 12.7545L12.8166 25.3145L12.7366 26.6665H20.2032L20.1259 25.3145Z" fill="url(#paint12_linear_498_18246)"/>
<path opacity="0.2" d="M6.86156 11.466C7.25356 11.466 7.46423 11.6553 7.47756 11.714L7.5389 12.8047L8.2429 25.3647L8.27223 25.8713H2.50156L2.5309 25.3647L3.2349 12.8047L3.29623 11.7167C3.30956 11.6553 3.52023 11.4687 3.91223 11.4687H6.86156M6.86156 10.666H3.9149C3.1549 10.666 2.5309 11.1087 2.50156 11.6687L2.44023 12.7593L1.73623 25.3193L1.65356 26.666H9.12023L9.0429 25.314L8.3389 12.754L8.27756 11.6633C8.2429 11.1087 7.6189 10.666 6.86156 10.666Z" fill="#424242"/>
<path opacity="0.2" d="M17.9446 11.466C18.3366 11.466 18.5472 11.6553 18.5606 11.714L18.6219 12.8047L19.3259 25.3647L19.3552 25.8713H13.5819L13.6112 25.3647L14.3152 12.8047L14.3766 11.7167C14.3899 11.6553 14.6006 11.4687 14.9926 11.4687H17.9446M17.9446 10.666H14.9952C14.2352 10.666 13.6112 11.1087 13.5819 11.6687L13.5206 12.7593L12.8166 25.3193L12.7366 26.666H20.2032L20.1259 25.314L19.4219 12.754L19.3606 11.6633C19.3259 11.1087 18.7019 10.666 17.9446 10.666Z" fill="#424242"/>
<path d="M13.5203 24.5337H19.4189L19.2936 22.4004H13.6456L13.5203 24.5337Z" fill="url(#paint13_linear_498_18246)"/>
<path d="M32.4697 32.0007H0.469727V23.2007C0.469727 22.1687 1.30439 21.334 2.33639 21.334H30.6031C31.6351 21.334 32.4697 22.1687 32.4697 23.2007V32.0007Z" fill="url(#paint14_radial_498_18246)"/>
<path opacity="0.2" d="M30.6031 22.134C31.1924 22.134 31.6697 22.6113 31.6697 23.2007V31.2007H1.26973V23.2007C1.26973 22.6113 1.74706 22.134 2.33639 22.134H30.6031ZM30.6031 21.334H2.33639C1.30439 21.334 0.469727 22.1687 0.469727 23.2007V32.0007H32.4697V23.2007C32.4697 22.1687 31.6351 21.334 30.6031 21.334Z" fill="#424242"/>
<path d="M21.8031 26.1681H20.5258C20.2324 26.1681 19.9924 25.9281 19.9924 25.6347V25.4054C19.9924 25.1121 20.2324 24.8721 20.5258 24.8721H21.8031C22.0964 24.8721 22.3364 25.1121 22.3364 25.4054V25.6347C22.3364 25.9281 22.0964 26.1681 21.8031 26.1681Z" fill="#E53935"/>
<path d="M30.4536 27.6657H28.8082C28.5149 27.6657 28.2749 27.4257 28.2749 27.1323V26.7003C28.2749 26.407 28.5149 26.167 28.8082 26.167H30.4536C30.7469 26.167 30.9869 26.407 30.9869 26.7003V27.1323C30.9869 27.4257 30.7469 27.6657 30.4536 27.6657Z" fill="#B71C1C"/>
<path d="M26.9898 28.618H25.4564C25.1631 28.618 24.9231 28.378 24.9231 28.0847V27.714C24.9231 27.4207 25.1631 27.1807 25.4564 27.1807H26.9898C27.2831 27.1807 27.5231 27.4207 27.5231 27.714V28.0847C27.5231 28.3807 27.2858 28.618 26.9898 28.618Z" fill="#EF5350"/>
<path d="M30.7685 30.5667H28.2965C28.0032 30.5667 27.7632 30.3267 27.7632 30.0334V29.1427C27.7632 28.8494 28.0032 28.6094 28.2965 28.6094H30.7685C31.0619 28.6094 31.3019 28.8494 31.3019 29.1427V30.0334C31.3019 30.3294 31.0645 30.5667 30.7685 30.5667Z" fill="#C62828"/>
<path d="M21.1256 24.4812H18.9469C18.6536 24.4812 18.4136 24.2412 18.4136 23.9479V23.2199C18.4136 22.9265 18.6536 22.6865 18.9469 22.6865H21.1256C21.4189 22.6865 21.6589 22.9265 21.6589 23.2199V23.9479C21.6589 24.2412 21.4189 24.4812 21.1256 24.4812Z" fill="#C62828"/>
<path d="M13.691 26.2674H16.0297C16.323 26.2674 16.563 26.0274 16.563 25.7341V24.9181C16.563 24.6248 16.323 24.3848 16.0297 24.3848H13.691C13.3977 24.3848 13.1577 24.6248 13.1577 24.9181V25.7341C13.1577 26.0274 13.3977 26.2674 13.691 26.2674Z" fill="#C62828"/>
<path d="M2.05921 30.9012H4.39788C4.69121 30.9012 4.93121 30.6612 4.93121 30.3679V29.5519C4.93121 29.2586 4.69121 29.0186 4.39788 29.0186H2.05921C1.76588 29.0186 1.52588 29.2586 1.52588 29.5519V30.3679C1.52588 30.6612 1.76588 30.9012 2.05921 30.9012Z" fill="#B71C1C"/>
<path d="M5.30724 28.8881H7.03524C7.27524 28.8881 7.46724 28.6934 7.46724 28.4561V27.8881C7.46724 27.6481 7.27258 27.4561 7.03524 27.4561H5.30724C5.06724 27.4561 4.87524 27.6507 4.87524 27.8881V28.4561C4.87524 28.6961 5.06991 28.8881 5.30724 28.8881Z" fill="#EF5350"/>
<path d="M6.33634 26.6668H4.20301C3.90968 26.6668 3.66968 26.4268 3.66968 26.1335V24.0001C3.66968 23.7068 3.90968 23.4668 4.20301 23.4668H6.33634C6.62968 23.4668 6.86968 23.7068 6.86968 24.0001V26.1335C6.86968 26.4268 6.62968 26.6668 6.33634 26.6668Z" fill="#4FC3F7"/>
<path d="M17.5365 26.6668H15.4032C15.1099 26.6668 14.8699 26.4268 14.8699 26.1335V24.0001C14.8699 23.7068 15.1099 23.4668 15.4032 23.4668H17.5365C17.8299 23.4668 18.0699 23.7068 18.0699 24.0001V26.1335C18.0699 26.4268 17.8299 26.6668 17.5365 26.6668Z" fill="#4FC3F7"/>
<path d="M28.7362 26.6668H26.6029C26.3096 26.6668 26.0696 26.4268 26.0696 26.1335V24.0001C26.0696 23.7068 26.3096 23.4668 26.6029 23.4668H28.7362C29.0296 23.4668 29.2696 23.7068 29.2696 24.0001V26.1335C29.2696 26.4268 29.0296 26.6668 28.7362 26.6668Z" fill="#4FC3F7"/>
<defs>
<radialGradient id="paint0_radial_498_18246" cx="0" cy="0" r="1" gradientUnits="userSpaceOnUse" gradientTransform="translate(15.944 -0.6592) rotate(90) scale(16.3195 20.2867)">
<stop stop-color="#E0E0E0"/>
<stop offset="0.3926" stop-color="#E0E0E0"/>
<stop offset="0.6549" stop-color="#CFCFCF"/>
<stop offset="1" stop-color="#BDBDBD"/>
</radialGradient>
<radialGradient id="paint1_radial_498_18246" cx="0" cy="0" r="1" gradientUnits="userSpaceOnUse" gradientTransform="translate(5.26976 10.6881) scale(13.4248 13.4248)">
<stop offset="0.0031768" stop-color="#EF5350"/>
<stop offset="0.3272" stop-color="#EA4D4A"/>
<stop offset="0.7789" stop-color="#DC3A3A"/>
<stop offset="1" stop-color="#D32F2F"/>
</radialGradient>
<radialGradient id="paint2_radial_498_18246" cx="0" cy="0" r="1" gradientUnits="userSpaceOnUse" gradientTransform="translate(5.44776 12.9552) scale(2.97813)">
<stop offset="0.0031768" stop-color="#FAFAFA"/>
<stop offset="0.6677" stop-color="#F4F4F4"/>
<stop offset="1" stop-color="#EEEEEE"/>
</radialGradient>
<radialGradient id="paint3_radial_498_18246" cx="0" cy="0" r="1" gradientUnits="userSpaceOnUse" gradientTransform="translate(5.26955 10.6887) scale(13.4248 13.4248)">
<stop offset="0.0031768" stop-color="#EF5350"/>
<stop offset="0.3272" stop-color="#EA4D4A"/>
<stop offset="0.7789" stop-color="#DC3A3A"/>
<stop offset="1" stop-color="#D32F2F"/>
</radialGradient>
<radialGradient id="paint4_radial_498_18246" cx="0" cy="0" r="1" gradientUnits="userSpaceOnUse" gradientTransform="translate(5.35849 17.2225) scale(2.44605)">
<stop offset="0.0031768" stop-color="#FAFAFA"/>
<stop offset="0.6677" stop-color="#F4F4F4"/>
<stop offset="1" stop-color="#EEEEEE"/>
</radialGradient>
<radialGradient id="paint5_radial_498_18246" cx="0" cy="0" r="1" gradientUnits="userSpaceOnUse" gradientTransform="translate(5.26956 10.6886) scale(13.4248 13.4248)">
<stop offset="0.0031768" stop-color="#EF5350"/>
<stop offset="0.3272" stop-color="#EA4D4A"/>
<stop offset="0.7789" stop-color="#DC3A3A"/>
<stop offset="1" stop-color="#D32F2F"/>
</radialGradient>
<linearGradient id="paint6_linear_498_18246" x1="5.3877" y1="21.8443" x2="5.3877" y2="18.955" gradientUnits="userSpaceOnUse">
<stop stop-color="#B71C1C"/>
<stop offset="1" stop-color="#B71C1C" stop-opacity="0"/>
</linearGradient>
<radialGradient id="paint7_radial_498_18246" cx="0" cy="0" r="1" gradientUnits="userSpaceOnUse" gradientTransform="translate(16.3515 10.6881) scale(13.4248 13.4248)">
<stop offset="0.0031768" stop-color="#EF5350"/>
<stop offset="0.3272" stop-color="#EA4D4A"/>
<stop offset="0.7789" stop-color="#DC3A3A"/>
<stop offset="1" stop-color="#D32F2F"/>
</radialGradient>
<radialGradient id="paint8_radial_498_18246" cx="0" cy="0" r="1" gradientUnits="userSpaceOnUse" gradientTransform="translate(16.5295 12.9552) scale(2.97813)">
<stop offset="0.0031768" stop-color="#FAFAFA"/>
<stop offset="0.6677" stop-color="#F4F4F4"/>
<stop offset="1" stop-color="#EEEEEE"/>
</radialGradient>
<radialGradient id="paint9_radial_498_18246" cx="0" cy="0" r="1" gradientUnits="userSpaceOnUse" gradientTransform="translate(16.3515 10.6887) scale(13.4248 13.4248)">
<stop offset="0.0031768" stop-color="#EF5350"/>
<stop offset="0.3272" stop-color="#EA4D4A"/>
<stop offset="0.7789" stop-color="#DC3A3A"/>
<stop offset="1" stop-color="#D32F2F"/>
</radialGradient>
<radialGradient id="paint10_radial_498_18246" cx="0" cy="0" r="1" gradientUnits="userSpaceOnUse" gradientTransform="translate(16.4407 17.2225) scale(2.44605)">
<stop offset="0.0031768" stop-color="#FAFAFA"/>
<stop offset="0.6677" stop-color="#F4F4F4"/>
<stop offset="1" stop-color="#EEEEEE"/>
</radialGradient>
<radialGradient id="paint11_radial_498_18246" cx="0" cy="0" r="1" gradientUnits="userSpaceOnUse" gradientTransform="translate(16.3518 10.6886) scale(13.4248 13.4248)">
<stop offset="0.0031768" stop-color="#EF5350"/>
<stop offset="0.3272" stop-color="#EA4D4A"/>
<stop offset="0.7789" stop-color="#DC3A3A"/>
<stop offset="1" stop-color="#D32F2F"/>
</radialGradient>
<linearGradient id="paint12_linear_498_18246" x1="16.4699" y1="21.8443" x2="16.4699" y2="18.955" gradientUnits="userSpaceOnUse">
<stop stop-color="#B71C1C"/>
<stop offset="1" stop-color="#B71C1C" stop-opacity="0"/>
</linearGradient>
<linearGradient id="paint13_linear_498_18246" x1="16.4696" y1="24.1833" x2="16.4696" y2="10.3465" gradientUnits="userSpaceOnUse">
<stop stop-color="#B71C1C"/>
<stop offset="1" stop-color="#D32F2F"/>
</linearGradient>
<radialGradient id="paint14_radial_498_18246" cx="0" cy="0" r="1" gradientUnits="userSpaceOnUse" gradientTransform="translate(16.0683 21.134) rotate(90) scale(11.6629 20.4673)">
<stop offset="0.0031768" stop-color="#EF5350"/>
<stop offset="0.3796" stop-color="#EF5350"/>
<stop offset="1" stop-color="#D32F2F"/>
</radialGradient>
</defs>
</svg>
