<svg width="33" height="32" viewBox="0 0 33 32" fill="none" xmlns="http://www.w3.org/2000/svg">
<path d="M25.4556 10.5187V13.7187C25.4556 14.012 25.6956 14.252 25.9889 14.252H29.1889C29.4822 14.252 29.7222 14.012 29.7222 13.7187V10.5187C29.7222 10.2254 29.4822 9.98535 29.1889 9.98535H25.9889C25.6956 9.98535 25.4556 10.2227 25.4556 10.5187ZM28.6556 13.1854H26.5222V11.052H28.6556V13.1854Z" fill="#BDBDBD"/>
<path d="M28.7889 4.66751V4.53418H26.3889V4.66751C26.3889 5.17685 26.7142 6.29418 27.1889 6.46218L27.1729 6.71551C27.1729 6.85685 27.1649 6.95285 27.2076 7.05418C27.2769 7.22218 27.4662 7.33951 27.5889 7.39018C27.7916 7.47551 27.9889 7.63018 27.9889 7.85151C27.9889 8.07285 27.8102 8.25151 27.5889 8.25151C27.3676 8.25151 27.1889 8.07285 27.1889 7.85151C27.1889 7.74218 27.1569 7.67018 27.1116 7.60085C27.0822 7.55551 27.0316 7.52351 26.9676 7.50485C26.7916 7.45951 26.6289 7.50485 26.5249 7.63018C26.3969 7.78218 26.3782 8.02218 26.4742 8.24085C26.5489 8.40618 26.6689 8.56618 26.8449 8.73151C27.0636 8.93951 27.3329 9.05151 27.6023 9.05151H27.6076C28.2449 9.04885 28.7756 8.52351 28.7916 7.88618C28.8103 7.13151 28.2156 6.99551 27.9916 6.72618C27.9089 6.62751 27.9916 6.46485 27.9916 6.46485C28.4636 6.29418 28.7889 5.17685 28.7889 4.66751Z" fill="#BDBDBD"/>
<path d="M12.1224 9.60059H13.1891C13.4824 9.60059 13.7224 9.84059 13.7224 10.1339V11.7339H20.1224V10.1339C20.1224 9.84059 20.3624 9.60059 20.6558 9.60059H21.7224C22.0158 9.60059 22.2558 9.84059 22.2558 10.1339V17.0673H28.6558V16.8006C28.6558 16.3579 29.0131 16.0006 29.4558 16.0006H29.9891C30.4318 16.0006 30.7891 16.3579 30.7891 16.8006V29.8673H11.5891V10.1339C11.5891 9.84059 11.8291 9.60059 12.1224 9.60059Z" fill="url(#paint0_radial_498_18791)"/>
<path d="M22.7889 27.7342H28.1223C28.4156 27.7342 28.6556 27.4942 28.6556 27.2008V25.0675C28.6556 24.7742 28.4156 24.5342 28.1223 24.5342H22.7889C22.4956 24.5342 22.2556 24.7742 22.2556 25.0675V27.2008C22.2556 27.4942 22.4956 27.7342 22.7889 27.7342Z" fill="#455A64"/>
<path d="M22.7889 22.4012H28.1223C28.4156 22.4012 28.6556 22.1612 28.6556 21.8678V19.7345C28.6556 19.4412 28.4156 19.2012 28.1223 19.2012H22.7889C22.4956 19.2012 22.2556 19.4412 22.2556 19.7345V21.8678C22.2556 22.1612 22.4956 22.4012 22.7889 22.4012Z" fill="#455A64"/>
<path d="M14.2557 22.4012H19.5891C19.8824 22.4012 20.1224 22.1612 20.1224 21.8678V19.7345C20.1224 19.4412 19.8824 19.2012 19.5891 19.2012H14.2557C13.9624 19.2012 13.7224 19.4412 13.7224 19.7345V21.8678C13.7224 22.1612 13.9624 22.4012 14.2557 22.4012Z" fill="#455A64"/>
<path d="M14.2557 27.7342H19.5891C19.8824 27.7342 20.1224 27.4942 20.1224 27.2008V25.0675C20.1224 24.7742 19.8824 24.5342 19.5891 24.5342H14.2557C13.9624 24.5342 13.7224 24.7742 13.7224 25.0675V27.2008C13.7224 27.4942 13.9624 27.7342 14.2557 27.7342Z" fill="#455A64"/>
<path d="M14.2557 17.0672H19.5891C19.8824 17.0672 20.1224 16.8272 20.1224 16.5339V14.4005C20.1224 14.1072 19.8824 13.8672 19.5891 13.8672H14.2557C13.9624 13.8672 13.7224 14.1072 13.7224 14.4005V16.5339C13.7224 16.8272 13.9624 17.0672 14.2557 17.0672Z" fill="#455A64"/>
<path d="M3.05566 6.40137V7.46803V28.8014H8.389V7.46803V6.40137M4.12233 27.2014V25.1774C4.12233 24.94 4.41033 24.82 4.57833 24.988L6.869 27.2787C7.037 27.4467 6.917 27.7347 6.67966 27.7347H4.65566C4.36233 27.7347 4.12233 27.4947 4.12233 27.2014ZM6.86633 25.772L5.01833 23.924C4.85033 23.756 4.97033 23.468 5.20766 23.468H6.789C7.08233 23.468 7.32233 23.708 7.32233 24.0014V25.5827C7.32233 25.82 7.03433 25.94 6.86633 25.772ZM4.12233 21.868V19.844C4.12233 19.6067 4.41033 19.4867 4.57833 19.6547L6.869 21.9454C7.037 22.1134 6.917 22.4014 6.67966 22.4014H4.65566C4.36233 22.4014 4.12233 22.1614 4.12233 21.868ZM6.86633 20.4387L5.01833 18.5907C4.85033 18.4227 4.97033 18.1347 5.20766 18.1347H6.789C7.08233 18.1347 7.32233 18.3747 7.32233 18.668V20.2494C7.32233 20.4867 7.03433 20.6067 6.86633 20.4387ZM4.12233 16.5347V14.5107C4.12233 14.2734 4.41033 14.1534 4.57833 14.3214L6.869 16.612C7.037 16.78 6.917 17.068 6.67966 17.068H4.65566C4.36233 17.068 4.12233 16.828 4.12233 16.5347ZM6.86633 15.1054L5.01833 13.2574C4.85033 13.0894 4.97033 12.8014 5.20766 12.8014H6.789C7.08233 12.8014 7.32233 13.0414 7.32233 13.3347V14.916C7.32233 15.1534 7.03433 15.2734 6.86633 15.1054ZM4.12233 11.2014V9.17737C4.12233 8.94003 4.41033 8.82003 4.57833 8.98803L6.869 11.2787C7.037 11.4467 6.917 11.7347 6.67966 11.7347H4.65566C4.36233 11.7347 4.12233 11.4947 4.12233 11.2014ZM6.86633 9.77203L5.01833 7.92403C4.85033 7.75603 4.97033 7.46803 5.20766 7.46803H6.789C7.08233 7.46803 7.32233 7.70803 7.32233 8.00137V9.5827C7.32233 9.82003 7.03433 9.94003 6.86633 9.77203ZM6.67966 6.40137H4.65566H6.67966Z" fill="url(#paint1_linear_498_18791)"/>
<path d="M7.32235 1.06764H1.98901C1.98901 0.47831 2.46635 0.000976562 3.05568 0.000976562H8.38901C8.97835 0.000976562 9.45568 0.47831 9.45568 1.06764H7.32235Z" fill="#FFB300"/>
<path d="M27.589 11.3395C27.3676 11.3395 27.189 11.2728 27.189 11.0515V8.00081C27.189 7.86215 27.3676 7.70215 27.589 7.70215C27.8103 7.70215 27.989 7.88348 27.989 8.00081V11.0515C27.989 11.2728 27.8103 11.3395 27.589 11.3395Z" fill="#FF9800"/>
<path opacity="0.2" d="M7.989 5.73398V29.4673H3.45566V5.73398H7.989ZM7.053 10.2487C7.421 10.2487 7.72233 9.94998 7.72233 9.58198V8.00065C7.72233 7.48598 7.30366 7.06732 6.789 7.06732H5.20766C4.93833 7.06732 4.69566 7.22998 4.59166 7.47798C4.48766 7.72865 4.54366 8.01398 4.73566 8.20332L6.58366 10.0513C6.71166 10.1793 6.877 10.2487 7.053 10.2487ZM4.65566 12.134H6.67966C6.949 12.134 7.19166 11.9713 7.29566 11.7233C7.39966 11.4727 7.34366 11.1873 7.15166 10.998L4.861 8.70732C4.73566 8.58198 4.56766 8.51265 4.39166 8.51265C4.02366 8.51265 3.72233 8.81132 3.72233 9.17932V11.2007C3.72233 11.7153 4.141 12.134 4.65566 12.134ZM7.053 15.582C7.421 15.582 7.72233 15.2833 7.72233 14.9153V13.334C7.72233 12.8193 7.30366 12.4007 6.789 12.4007H5.20766C4.93833 12.4007 4.69566 12.5633 4.59166 12.8113C4.48766 13.062 4.54366 13.3473 4.73566 13.5366L6.58366 15.3847C6.71166 15.5127 6.877 15.582 7.053 15.582ZM4.65566 17.4673H6.67966C6.949 17.4673 7.19166 17.3047 7.29566 17.0567C7.39966 16.806 7.34366 16.5206 7.15166 16.3313L4.861 14.0407C4.73566 13.9153 4.56766 13.846 4.39166 13.846C4.02366 13.846 3.72233 14.1447 3.72233 14.5126V16.534C3.72233 17.0487 4.141 17.4673 4.65566 17.4673ZM7.053 20.9153C7.421 20.9153 7.72233 20.6167 7.72233 20.2487V18.6673C7.72233 18.1526 7.30366 17.734 6.789 17.734H5.20766C4.93833 17.734 4.69566 17.8967 4.59166 18.1447C4.48766 18.3953 4.54366 18.6807 4.73566 18.87L6.58366 20.718C6.71166 20.846 6.877 20.9153 7.053 20.9153ZM4.65566 22.8006H6.67966C6.949 22.8006 7.19166 22.638 7.29566 22.39C7.39966 22.1393 7.34366 21.854 7.15166 21.6646L4.861 19.374C4.73566 19.2487 4.56766 19.1793 4.39166 19.1793C4.02366 19.1793 3.72233 19.478 3.72233 19.846V21.8673C3.72233 22.382 4.141 22.8006 4.65566 22.8006ZM7.053 26.2486C7.421 26.2486 7.72233 25.95 7.72233 25.582V24.0007C7.72233 23.486 7.30366 23.0673 6.789 23.0673H5.20766C4.93833 23.0673 4.69566 23.23 4.59166 23.478C4.48766 23.7287 4.54366 24.014 4.73566 24.2033L6.58366 26.0513C6.71166 26.1793 6.877 26.2486 7.053 26.2486ZM4.65566 28.134H6.67966C6.949 28.134 7.19166 27.9713 7.29566 27.7233C7.39966 27.4726 7.34366 27.1873 7.15166 26.998L4.861 24.7073C4.73566 24.582 4.56766 24.5126 4.39166 24.5126C4.02366 24.5126 3.72233 24.8113 3.72233 25.1793V27.2006C3.72233 27.7153 4.141 28.134 4.65566 28.134ZM8.389 5.33398H6.67966H4.65566H3.05566V7.46732V29.8673H8.389V7.46732V5.33398ZM7.053 9.84865C6.98633 9.84865 6.91966 9.82465 6.86633 9.77132L5.01833 7.92332C4.85033 7.75532 4.97033 7.46732 5.20766 7.46732H6.789C7.08233 7.46732 7.32233 7.70732 7.32233 8.00065V9.58198C7.32233 9.74198 7.19166 9.84865 7.053 9.84865ZM4.65566 11.734C4.36233 11.734 4.12233 11.494 4.12233 11.2007V9.17665C4.12233 9.01665 4.253 8.90998 4.39166 8.90998C4.45833 8.90998 4.525 8.93398 4.57833 8.98732L6.869 11.278C7.037 11.446 6.917 11.734 6.67966 11.734H4.65566ZM7.053 15.182C6.98633 15.182 6.91966 15.158 6.86633 15.1047L5.01833 13.2567C4.85033 13.0887 4.97033 12.8007 5.20766 12.8007H6.789C7.08233 12.8007 7.32233 13.0407 7.32233 13.334V14.9153C7.32233 15.0753 7.19166 15.182 7.053 15.182ZM4.65566 17.0673C4.36233 17.0673 4.12233 16.8273 4.12233 16.534V14.51C4.12233 14.35 4.253 14.2433 4.39166 14.2433C4.45833 14.2433 4.525 14.2673 4.57833 14.3207L6.869 16.6113C7.037 16.7793 6.917 17.0673 6.67966 17.0673H4.65566ZM7.053 20.5153C6.98633 20.5153 6.91966 20.4913 6.86633 20.438L5.01833 18.59C4.85033 18.422 4.97033 18.134 5.20766 18.134H6.789C7.08233 18.134 7.32233 18.374 7.32233 18.6673V20.2487C7.32233 20.4087 7.19166 20.5153 7.053 20.5153ZM4.65566 22.4007C4.36233 22.4007 4.12233 22.1607 4.12233 21.8673V19.8433C4.12233 19.6833 4.253 19.5767 4.39166 19.5767C4.45833 19.5767 4.525 19.6006 4.57833 19.654L6.869 21.9447C7.037 22.1126 6.917 22.4007 6.67966 22.4007H4.65566ZM7.053 25.8486C6.98633 25.8486 6.91966 25.8246 6.86633 25.7713L5.01833 23.9233C4.85033 23.7553 4.97033 23.4673 5.20766 23.4673H6.789C7.08233 23.4673 7.32233 23.7073 7.32233 24.0007V25.582C7.32233 25.742 7.19166 25.8486 7.053 25.8486ZM4.65566 27.734C4.36233 27.734 4.12233 27.494 4.12233 27.2006V25.1767C4.12233 25.0167 4.253 24.91 4.39166 24.91C4.45833 24.91 4.525 24.934 4.57833 24.9873L6.869 27.278C7.037 27.446 6.917 27.734 6.67966 27.734H4.65566Z" fill="#424242"/>
<path d="M4.12235 5.33398H9.45568C9.45568 5.92332 8.97835 6.40065 8.38901 6.40065H3.05568C2.46635 6.40065 1.98901 5.92332 1.98901 5.33398H4.12235Z" fill="#FFB300"/>
<path d="M8.38901 28.8008H3.05568C2.46635 28.8008 1.98901 29.2781 1.98901 29.8674V32.0008H9.45568V29.8674C9.45568 29.2781 8.97835 28.8008 8.38901 28.8008Z" fill="#FFB300"/>
<path opacity="0.2" d="M29.1889 10.3854C29.2636 10.3854 29.3222 10.444 29.3222 10.5187V13.7187C29.3222 13.7934 29.2636 13.852 29.1889 13.852H25.9889C25.9142 13.852 25.8556 13.7934 25.8556 13.7187V10.5187C25.8556 10.444 25.9142 10.3854 25.9889 10.3854H29.1889ZM26.1222 13.5854H29.0556V10.652H26.1222V13.5854ZM29.1889 9.98535H25.9889C25.6956 9.98535 25.4556 10.2254 25.4556 10.5187V13.7187C25.4556 14.012 25.6956 14.252 25.9889 14.252H29.1889C29.4822 14.252 29.7222 14.012 29.7222 13.7187V10.5187C29.7222 10.2227 29.4822 9.98535 29.1889 9.98535ZM26.5222 13.1854V11.052H28.6556V13.1854H26.5222Z" fill="#424242"/>
<path opacity="0.2" d="M28.3649 4.93418C28.2849 5.43018 28.0182 6.02751 27.8556 6.08351L27.7036 6.13685L27.6316 6.28351C27.6183 6.31018 27.6076 6.33685 27.5969 6.36618L27.6076 6.18218L27.3222 6.08351C27.1596 6.02751 26.8929 5.43018 26.8129 4.93418H28.3649ZM27.5729 6.76885C27.5916 6.84351 27.6262 6.91285 27.6822 6.97951C27.6876 6.98751 27.6929 6.99285 27.7009 7.00085C27.6396 6.96618 27.5889 6.92351 27.5782 6.90218C27.5729 6.88885 27.5729 6.82485 27.5729 6.77151V6.76885ZM28.3543 7.62485C28.3809 7.69418 28.3916 7.77418 28.3889 7.87551C28.3782 8.29418 28.0396 8.63551 27.6236 8.65151C28.0476 8.63285 28.3889 8.28085 28.3889 7.85151C28.3889 7.77151 28.3783 7.69685 28.3543 7.62485ZM28.7889 4.53418H26.3889V4.66751C26.3889 5.17685 26.7142 6.29418 27.1889 6.46218L27.1729 6.71551C27.1729 6.85685 27.1649 6.95285 27.2076 7.05418C27.2769 7.22218 27.4662 7.33951 27.5889 7.39018C27.7916 7.47551 27.9889 7.63018 27.9889 7.85151C27.9889 8.07285 27.8102 8.25151 27.5889 8.25151C27.3676 8.25151 27.1889 8.07285 27.1889 7.85151C27.1889 7.74218 27.1569 7.67018 27.1116 7.60085C27.0822 7.55551 27.0316 7.52351 26.9676 7.50485C26.9222 7.49418 26.8796 7.48618 26.8369 7.48618C26.7142 7.48618 26.6049 7.53418 26.5249 7.62751C26.3969 7.77951 26.3782 8.01951 26.4742 8.23818C26.5489 8.40351 26.6689 8.56351 26.8449 8.72885C27.0636 8.93685 27.3329 9.04885 27.6023 9.04885H27.6076C28.2449 9.04618 28.7756 8.52085 28.7916 7.88351C28.8103 7.12885 28.2156 6.99285 27.9916 6.72351C27.9089 6.62485 27.9916 6.46218 27.9916 6.46218C28.4662 6.29418 28.7916 5.17685 28.7916 4.66751V4.53418H28.7889Z" fill="#424242"/>
<path opacity="0.2" d="M21.4558 10.4006V17.0673C21.4558 17.5099 21.8131 17.8673 22.2558 17.8673H28.6558C29.0984 17.8673 29.4558 17.5099 29.4558 17.0673V16.8006H29.9891V30.1339H12.3891V10.4006H12.9224V11.7339C12.9224 12.1766 13.2798 12.5339 13.7224 12.5339H20.1224C20.5651 12.5339 20.9224 12.1766 20.9224 11.7339V10.4006H21.4558ZM21.7224 9.60059H20.6558C20.3624 9.60059 20.1224 9.84059 20.1224 10.1339V11.7339H13.7224V10.1339C13.7224 9.84059 13.4824 9.60059 13.1891 9.60059H12.1224C11.8291 9.60059 11.5891 9.84059 11.5891 10.1339V30.9339H30.7891V16.8006C30.7891 16.3579 30.4318 16.0006 29.9891 16.0006H29.4558C29.0131 16.0006 28.6558 16.3579 28.6558 16.8006V17.0673H22.2558V10.1339C22.2558 9.84059 22.0158 9.60059 21.7224 9.60059Z" fill="#424242"/>
<path opacity="0.2" d="M28.1223 25.0675V27.2008H22.7889V25.0675H28.1223ZM28.1223 24.5342H22.7889C22.4956 24.5342 22.2556 24.7742 22.2556 25.0675V27.2008C22.2556 27.4942 22.4956 27.7342 22.7889 27.7342H28.1223C28.4156 27.7342 28.6556 27.4942 28.6556 27.2008V25.0675C28.6556 24.7742 28.4156 24.5342 28.1223 24.5342Z" fill="#424242"/>
<path opacity="0.2" d="M28.1223 19.7345V21.8678H22.7889V19.7345H28.1223ZM28.1223 19.2012H22.7889C22.4956 19.2012 22.2556 19.4412 22.2556 19.7345V21.8678C22.2556 22.1612 22.4956 22.4012 22.7889 22.4012H28.1223C28.4156 22.4012 28.6556 22.1612 28.6556 21.8678V19.7345C28.6556 19.4412 28.4156 19.2012 28.1223 19.2012Z" fill="#424242"/>
<path opacity="0.2" d="M19.5891 19.7345V21.8678H14.2557V19.7345H19.5891ZM19.5891 19.2012H14.2557C13.9624 19.2012 13.7224 19.4412 13.7224 19.7345V21.8678C13.7224 22.1612 13.9624 22.4012 14.2557 22.4012H19.5891C19.8824 22.4012 20.1224 22.1612 20.1224 21.8678V19.7345C20.1224 19.4412 19.8824 19.2012 19.5891 19.2012Z" fill="#424242"/>
<path opacity="0.2" d="M19.5891 25.0675V27.2008H14.2557V25.0675H19.5891ZM19.5891 24.5342H14.2557C13.9624 24.5342 13.7224 24.7742 13.7224 25.0675V27.2008C13.7224 27.4942 13.9624 27.7342 14.2557 27.7342H19.5891C19.8824 27.7342 20.1224 27.4942 20.1224 27.2008V25.0675C20.1224 24.7742 19.8824 24.5342 19.5891 24.5342Z" fill="#424242"/>
<path opacity="0.2" d="M19.5891 14.4005V16.5339H14.2557V14.4005H19.5891ZM19.5891 13.8672H14.2557C13.9624 13.8672 13.7224 14.1072 13.7224 14.4005V16.5339C13.7224 16.8272 13.9624 17.0672 14.2557 17.0672H19.5891C19.8824 17.0672 20.1224 16.8272 20.1224 16.5339V14.4005C20.1224 14.1072 19.8824 13.8672 19.5891 13.8672Z" fill="#424242"/>
<path opacity="0.2" d="M8.38901 0.400977C8.75701 0.400977 9.05568 0.699643 9.05568 1.06764V1.32364H2.38901V1.06764C2.38901 0.699643 2.68768 0.400977 3.05568 0.400977H8.38901ZM8.38901 0.000976562H3.05568C2.46635 0.000976562 1.98901 0.47831 1.98901 1.06764V1.72364H9.45568V1.06764C9.45568 0.47831 8.97835 0.000976562 8.38901 0.000976562Z" fill="#424242"/>
<path opacity="0.2" d="M9.05568 5.07773V5.33373C9.05568 5.70173 8.75701 6.0004 8.38901 6.0004H3.05568C2.68768 6.0004 2.38901 5.70173 2.38901 5.33373V5.07773H9.05568ZM9.45568 4.67773H1.98901V5.33373C1.98901 5.92307 2.46635 6.4004 3.05568 6.4004H8.38901C8.97835 6.4004 9.45568 5.92307 9.45568 5.33373V4.67773Z" fill="#424242"/>
<path d="M27.589 11.3395C27.3676 11.3395 27.189 11.2728 27.189 11.0515V8.00081C27.189 7.86215 27.3676 7.70215 27.589 7.70215C27.8103 7.70215 27.989 7.88348 27.989 8.00081V11.0515C27.989 11.2728 27.8103 11.3395 27.589 11.3395Z" fill="#FF9800"/>
<path d="M32.9224 32.0015H0.922363V30.9348C0.922363 30.3455 1.3997 29.8682 1.98903 29.8682H31.8557C32.445 29.8682 32.9224 30.3455 32.9224 30.9348V32.0015Z" fill="#FFB300"/>
<path d="M30.3837 1.34205C30.2104 1.16605 29.9704 1.06738 29.7224 1.06738H1.98903C1.3997 1.06738 0.922363 1.54472 0.922363 2.13405V4.26738C0.922363 4.85672 1.3997 5.33405 1.98903 5.33405H31.9864C32.5037 5.33405 32.9224 4.91538 32.9224 4.39805V4.26738C32.9224 4.01938 32.8237 3.78205 32.6477 3.60605L30.3837 1.34205ZM1.98903 3.73405V2.66738C1.98903 2.37405 2.22903 2.13405 2.52236 2.13405H4.6557C4.94903 2.13405 5.18903 2.37405 5.18903 2.66738V3.73405C5.18903 4.02738 4.94903 4.26738 4.6557 4.26738H2.52236C2.22903 4.26738 1.98903 4.02738 1.98903 3.73405ZM6.2557 3.73405V2.66738C6.2557 2.37405 6.4957 2.13405 6.78903 2.13405H8.92236C9.2157 2.13405 9.4557 2.37405 9.4557 2.66738V3.73405C9.4557 4.02738 9.2157 4.26738 8.92236 4.26738H6.78903C6.4957 4.26738 6.2557 4.02738 6.2557 3.73405ZM10.5224 3.73405V2.66738C10.5224 2.37405 10.7624 2.13405 11.0557 2.13405H13.189C13.4824 2.13405 13.7224 2.37405 13.7224 2.66738V3.73405C13.7224 4.02738 13.4824 4.26738 13.189 4.26738H11.0557C10.7624 4.26738 10.5224 4.02738 10.5224 3.73405ZM14.789 3.73405V2.66738C14.789 2.37405 15.029 2.13405 15.3224 2.13405H17.4557C17.749 2.13405 17.989 2.37405 17.989 2.66738V3.73405C17.989 4.02738 17.749 4.26738 17.4557 4.26738H15.3224C15.029 4.26738 14.789 4.02738 14.789 3.73405ZM19.0557 3.73405V2.66738C19.0557 2.37405 19.2957 2.13405 19.589 2.13405H21.7224C22.0157 2.13405 22.2557 2.37405 22.2557 2.66738V3.73405C22.2557 4.02738 22.0157 4.26738 21.7224 4.26738H19.589C19.2957 4.26738 19.0557 4.02738 19.0557 3.73405ZM23.3224 3.73405V2.66738C23.3224 2.37405 23.5624 2.13405 23.8557 2.13405H25.989C26.2824 2.13405 26.5224 2.37405 26.5224 2.66738V3.73405C26.5224 4.02738 26.2824 4.26738 25.989 4.26738H23.8557C23.5624 4.26738 23.3224 4.02738 23.3224 3.73405ZM27.589 3.73405V2.66738C27.589 2.37405 27.829 2.13405 28.1224 2.13405H29.4477C29.589 2.13405 29.725 2.19005 29.8237 2.29138L30.8904 3.35805C31.2264 3.69405 30.989 4.26738 30.5144 4.26738H28.1224C27.829 4.26738 27.589 4.02738 27.589 3.73405Z" fill="url(#paint2_linear_498_18791)"/>
<path opacity="0.2" d="M8.38903 29.6008C8.5357 29.6008 8.6557 29.7208 8.6557 29.8674C8.6557 30.3101 9.01303 30.6674 9.4557 30.6674H31.8557C32.0024 30.6674 32.1224 30.7874 32.1224 30.9341V31.2008H1.72236V30.9341C1.72236 30.7874 1.84236 30.6674 1.98903 30.6674C2.4317 30.6674 2.78903 30.3101 2.78903 29.8674C2.78903 29.7208 2.90903 29.6008 3.0557 29.6008H8.38903ZM8.38903 28.8008H3.0557C2.46636 28.8008 1.98903 29.2781 1.98903 29.8674C1.3997 29.8674 0.922363 30.3448 0.922363 30.9341V32.0008H32.9224V30.9341C32.9224 30.3448 32.445 29.8674 31.8557 29.8674H9.4557C9.4557 29.2781 8.97836 28.8008 8.38903 28.8008Z" fill="#424242"/>
<path opacity="0.2" d="M29.7224 1.46738C29.8664 1.46738 29.9997 1.52338 30.101 1.62472L32.365 3.88872C32.4664 3.99005 32.5224 4.12338 32.5224 4.26738V4.39805C32.5224 4.69405 32.2824 4.93405 31.9864 4.93405H1.98903C1.62103 4.93405 1.32236 4.63538 1.32236 4.26738V2.13405C1.32236 1.76605 1.62103 1.46738 1.98903 1.46738H29.7224ZM28.1224 4.66738H30.5144C30.893 4.66738 31.2317 4.44072 31.3757 4.09138C31.5197 3.74205 31.4424 3.34205 31.173 3.07538L30.1064 2.00872C29.9304 1.83272 29.6957 1.73405 29.4477 1.73405H28.1224C27.6077 1.73405 27.189 2.15272 27.189 2.66738V3.73405C27.189 4.24872 27.6077 4.66738 28.1224 4.66738ZM23.8557 4.66738H25.989C26.5037 4.66738 26.9224 4.24872 26.9224 3.73405V2.66738C26.9224 2.15272 26.5037 1.73405 25.989 1.73405H23.8557C23.341 1.73405 22.9224 2.15272 22.9224 2.66738V3.73405C22.9224 4.24872 23.341 4.66738 23.8557 4.66738ZM19.589 4.66738H21.7224C22.237 4.66738 22.6557 4.24872 22.6557 3.73405V2.66738C22.6557 2.15272 22.237 1.73405 21.7224 1.73405H19.589C19.0744 1.73405 18.6557 2.15272 18.6557 2.66738V3.73405C18.6557 4.24872 19.0744 4.66738 19.589 4.66738ZM15.3224 4.66738H17.4557C17.9704 4.66738 18.389 4.24872 18.389 3.73405V2.66738C18.389 2.15272 17.9704 1.73405 17.4557 1.73405H15.3224C14.8077 1.73405 14.389 2.15272 14.389 2.66738V3.73405C14.389 4.24872 14.8077 4.66738 15.3224 4.66738ZM11.0557 4.66738H13.189C13.7037 4.66738 14.1224 4.24872 14.1224 3.73405V2.66738C14.1224 2.15272 13.7037 1.73405 13.189 1.73405H11.0557C10.541 1.73405 10.1224 2.15272 10.1224 2.66738V3.73405C10.1224 4.24872 10.541 4.66738 11.0557 4.66738ZM6.78903 4.66738H8.92236C9.43703 4.66738 9.8557 4.24872 9.8557 3.73405V2.66738C9.8557 2.15272 9.43703 1.73405 8.92236 1.73405H6.78903C6.27436 1.73405 5.8557 2.15272 5.8557 2.66738V3.73405C5.8557 4.24872 6.27436 4.66738 6.78903 4.66738ZM2.52236 4.66738H4.6557C5.17036 4.66738 5.58903 4.24872 5.58903 3.73405V2.66738C5.58903 2.15272 5.17036 1.73405 4.6557 1.73405H2.52236C2.0077 1.73405 1.58903 2.15272 1.58903 2.66738V3.73405C1.58903 4.24872 2.0077 4.66738 2.52236 4.66738ZM29.7224 1.06738H1.98903C1.3997 1.06738 0.922363 1.54472 0.922363 2.13405V4.26738C0.922363 4.85672 1.3997 5.33405 1.98903 5.33405H31.9864C32.5037 5.33405 32.9224 4.91538 32.9224 4.39805V4.26738C32.9224 4.01938 32.8237 3.78205 32.6477 3.60605L30.3837 1.34205C30.2104 1.16605 29.9704 1.06738 29.7224 1.06738ZM28.1224 4.26738C27.829 4.26738 27.589 4.02738 27.589 3.73405V2.66738C27.589 2.37405 27.829 2.13405 28.1224 2.13405H29.4477C29.589 2.13405 29.725 2.19005 29.8237 2.29138L30.8904 3.35805C31.2264 3.69405 30.989 4.26738 30.5144 4.26738H28.1224ZM23.8557 4.26738C23.5624 4.26738 23.3224 4.02738 23.3224 3.73405V2.66738C23.3224 2.37405 23.5624 2.13405 23.8557 2.13405H25.989C26.2824 2.13405 26.5224 2.37405 26.5224 2.66738V3.73405C26.5224 4.02738 26.2824 4.26738 25.989 4.26738H23.8557ZM19.589 4.26738C19.2957 4.26738 19.0557 4.02738 19.0557 3.73405V2.66738C19.0557 2.37405 19.2957 2.13405 19.589 2.13405H21.7224C22.0157 2.13405 22.2557 2.37405 22.2557 2.66738V3.73405C22.2557 4.02738 22.0157 4.26738 21.7224 4.26738H19.589ZM15.3224 4.26738C15.029 4.26738 14.789 4.02738 14.789 3.73405V2.66738C14.789 2.37405 15.029 2.13405 15.3224 2.13405H17.4557C17.749 2.13405 17.989 2.37405 17.989 2.66738V3.73405C17.989 4.02738 17.749 4.26738 17.4557 4.26738H15.3224ZM11.0557 4.26738C10.7624 4.26738 10.5224 4.02738 10.5224 3.73405V2.66738C10.5224 2.37405 10.7624 2.13405 11.0557 2.13405H13.189C13.4824 2.13405 13.7224 2.37405 13.7224 2.66738V3.73405C13.7224 4.02738 13.4824 4.26738 13.189 4.26738H11.0557ZM6.78903 4.26738C6.4957 4.26738 6.2557 4.02738 6.2557 3.73405V2.66738C6.2557 2.37405 6.4957 2.13405 6.78903 2.13405H8.92236C9.2157 2.13405 9.4557 2.37405 9.4557 2.66738V3.73405C9.4557 4.02738 9.2157 4.26738 8.92236 4.26738H6.78903ZM2.52236 4.26738C2.22903 4.26738 1.98903 4.02738 1.98903 3.73405V2.66738C1.98903 2.37405 2.22903 2.13405 2.52236 2.13405H4.6557C4.94903 2.13405 5.18903 2.37405 5.18903 2.66738V3.73405C5.18903 4.02738 4.94903 4.26738 4.6557 4.26738H2.52236Z" fill="#424242"/>
<path opacity="0.2" d="M27.589 7.96882C27.6503 7.96882 27.701 8.00881 27.7223 8.03281V11.0515V11.0568C27.7063 11.0621 27.6663 11.0728 27.589 11.0728C27.5116 11.0728 27.4716 11.0621 27.4556 11.0568V11.0515V8.02215C27.4743 8.00348 27.5223 7.96882 27.589 7.96882ZM27.589 7.70215C27.3676 7.70215 27.189 7.86215 27.189 8.00081V11.0515C27.189 11.2728 27.3676 11.3395 27.589 11.3395C27.8103 11.3395 27.989 11.2728 27.989 11.0515V8.00081C27.989 7.88348 27.8103 7.70215 27.589 7.70215Z" fill="#424242"/>
<defs>
<radialGradient id="paint0_radial_498_18791" cx="0" cy="0" r="1" gradientUnits="userSpaceOnUse" gradientTransform="translate(21.9003 12.2227) scale(18.0917 18.0917)">
<stop stop-color="#E0E0E0"/>
<stop offset="0.2294" stop-color="#D7D7D7"/>
<stop offset="0.6034" stop-color="#BFBFBF"/>
<stop offset="1" stop-color="#9E9E9E"/>
</radialGradient>
<linearGradient id="paint1_linear_498_18791" x1="5.72233" y1="6.49017" x2="5.72233" y2="29.3054" gradientUnits="userSpaceOnUse">
<stop offset="0.0166" stop-color="#FFA726"/>
<stop offset="0.4003" stop-color="#FC991A"/>
<stop offset="1" stop-color="#F57C00"/>
</linearGradient>
<linearGradient id="paint2_linear_498_18791" x1="16.9224" y1="0.978503" x2="16.9224" y2="6.99832" gradientUnits="userSpaceOnUse">
<stop offset="0.0166" stop-color="#FFA726"/>
<stop offset="0.4003" stop-color="#FC991A"/>
<stop offset="1" stop-color="#F57C00"/>
</linearGradient>
</defs>
</svg>
