<svg width="33" height="22" viewBox="0 0 33 22" fill="none" xmlns="http://www.w3.org/2000/svg">
<path d="M31.3994 21.6673H1.53273C0.770065 21.6673 0.466064 21.19 0.466064 20.6007V1.40065C0.466064 0.811318 0.943398 0.333984 1.53273 0.333984H31.3994C31.9887 0.333984 32.4661 0.811318 32.4661 1.40065V20.6007C32.4661 21.19 31.9887 21.6673 31.3994 21.6673Z" fill="#E0E0E0"/>
<path d="M32.4393 1.16065C32.4393 0.712651 31.9887 0.333984 31.3993 0.333984H1.53266C0.943326 0.333984 0.559326 0.739318 0.559326 1.21132L16.442 14.2407C16.442 14.2407 31.3567 1.67798 31.802 1.28332C32.2473 0.891318 32.4393 1.16065 32.4393 1.16065Z" fill="#F5F5F5"/>
<path d="M0.751377 21.283C0.650043 21.2083 0.671377 21.067 0.82071 20.9017L10.4954 9.64301C10.6447 9.47767 11.018 9.69101 11.1807 9.83767C11.3434 9.98701 11.3567 10.2377 11.21 10.403L1.26338 21.155C1.07671 21.3337 0.91671 21.403 0.751377 21.283Z" fill="#BDBDBD"/>
<path d="M32.1807 21.283C32.282 21.2083 32.2607 21.067 32.1113 20.9017L22.4367 9.64301C22.2873 9.47767 21.914 9.69101 21.7513 9.83767C21.5887 9.98701 21.5753 10.2377 21.722 10.403L31.6713 21.1523C31.8553 21.3337 32.0153 21.403 32.1807 21.283Z" fill="#BDBDBD"/>
<path d="M32.4394 1.16127C32.4394 1.16127 32.0528 0.739933 31.5434 1.13727L16.4101 13.1426L1.17542 0.961267C1.00476 0.819933 0.754089 0.843933 0.612756 1.0146C0.471422 1.18527 0.495422 1.43593 0.666089 1.57727L16.4661 15.2679L31.9381 1.37993C32.1061 1.2386 32.4394 1.16127 32.4394 1.16127Z" fill="#9E9E9E"/>
<path d="M20.3408 4.20312C17.4661 4.20312 16.4101 7.59779 16.4101 7.59779C16.4101 7.59779 15.3674 4.20312 12.4714 4.20312C10.2954 4.20312 7.81275 5.90713 8.73009 9.78179C9.64742 13.6565 16.4154 18.4831 16.4154 18.4831C16.4154 18.4831 23.1621 13.6565 24.0794 9.78179C24.9968 5.90979 22.5168 4.20312 20.3408 4.20312Z" fill="#B71C1C"/>
<path d="M19.8848 4.20312C17.3408 4.20312 16.4074 7.24313 16.4074 7.24313C16.4074 7.24313 15.4848 4.20312 12.9221 4.20312C10.9968 4.20312 8.80211 5.72846 9.61278 9.19513C10.4234 12.6645 16.4128 16.9845 16.4128 16.9845C16.4128 16.9845 22.3808 12.6645 23.1941 9.19513C24.0048 5.73113 21.8101 4.20312 19.8848 4.20312Z" fill="#F44336"/>
</svg>
