<svg width="33" height="32" viewBox="0 0 33 32" fill="none" xmlns="http://www.w3.org/2000/svg">
<path d="M23.7854 28.2965L6.22487 31.8909C5.34684 32.083 4.46882 31.5068 4.27675 30.6013L0.709771 13.2603C0.517703 12.3823 1.09391 11.5043 1.99937 11.3122L19.5599 7.71777C19.5873 7.74521 23.7854 28.2965 23.7854 28.2965Z" fill="#424242"/>
<path d="M23.9228 25.6356L5.70376 29.3672C4.82574 29.5593 3.94771 28.9831 3.75564 28.0776L0.0789119 10.1055C-0.113156 9.22748 0.463048 8.34946 1.36851 8.15739L19.5875 4.42578L23.9228 25.6356Z" fill="url(#paint0_linear_498_18742)"/>
<path d="M7.5146 28.9831L5.73111 29.3398C4.85308 29.5319 3.97505 28.9557 3.78299 28.0502L0.106256 10.1056C-0.0858124 9.22757 0.490392 8.34955 1.39586 8.15748L3.17934 7.80078L7.5146 28.9831Z" fill="#424242"/>
<path opacity="0.2" d="M18.9563 5.41356L22.9897 25.0045C22.8251 25.0594 22.7154 25.1691 22.6056 25.3063C22.4959 25.4984 22.441 25.7179 22.4959 25.91L22.8526 27.6386L5.81337 31.1232C5.78593 31.1232 5.73106 31.1232 5.70362 31.1232C5.45667 31.1232 5.26461 30.9586 5.20973 30.7665L4.6884 28.2148L1.47812 12.7945L0.819603 9.61162C0.764726 9.36467 0.956794 9.09029 1.25862 9.03541L18.9563 5.41356ZM19.5874 4.42578L1.09399 8.2397C0.353152 8.3769 -0.113299 9.09029 0.023892 9.77625L0.682411 12.9591L3.86525 28.4343L4.38658 30.9586C4.52377 31.5623 5.07254 32.0013 5.70362 32.0013C5.78593 32.0013 5.89569 32.0013 5.978 31.9738L23.8129 28.3245L23.2916 25.7728L23.9501 25.6356L19.5874 4.42578Z" fill="#424242"/>
<path d="M22.7703 27.8582L6.06037 31.288C5.53904 31.3977 5.04515 31.0685 4.9354 30.5471V30.4923C4.82564 29.9709 5.1549 29.477 5.67623 29.3673L22.3862 25.9375L22.7703 27.8582Z" fill="url(#paint1_linear_498_18742)"/>
<path d="M25.761 26.1294L7.87118 24.4008C6.96572 24.3184 6.3072 23.4953 6.38952 22.5898L8.11813 4.83725C8.20044 3.93178 9.02359 3.27326 9.90162 3.35558L27.7914 5.11163C27.8188 5.08419 25.761 26.1294 25.761 26.1294Z" fill="#424242"/>
<path d="M26.6116 23.5225L8.06336 21.7116C7.15789 21.6293 6.77376 20.8061 6.85607 19.9007L8.36518 1.48959C8.44749 0.584128 9.27064 -0.0743916 10.1487 0.00792326L28.697 1.81885C28.7244 1.81885 26.6116 23.5225 26.6116 23.5225Z" fill="url(#paint2_linear_498_18742)"/>
<path d="M28.7244 1.81885L12.426 0.282306L10.3133 21.9586L8.06336 21.7116C7.15789 21.6293 6.77376 20.8062 6.85607 19.9007L8.36518 1.48959C8.44749 0.584128 9.27064 -0.0743916 10.1761 0.00792326L28.7244 1.81885Z" fill="#424242"/>
<path opacity="0.2" d="M9.8194 0.913087H9.87428L27.8738 2.66914L25.9257 22.6991C25.761 22.7265 25.5964 22.7814 25.4592 22.8912C25.2946 23.0284 25.1848 23.2479 25.1574 23.4674L24.9928 25.2234L7.67921 23.5222C7.54202 23.4948 7.40483 23.4399 7.32251 23.3302C7.26764 23.2753 7.18532 23.1655 7.21276 23.0009L7.45971 20.3943L8.99625 4.56238L9.32551 1.32466C9.35295 1.07772 9.57245 0.913087 9.8194 0.913087ZM9.8194 0.0625C9.13344 0.0625 8.5298 0.556389 8.47492 1.24235L8.42005 4.48007L6.8835 20.312L6.36217 22.9186C6.27986 23.632 6.82863 24.2905 7.5969 24.3454L25.761 26.1014L26.008 23.4948L26.694 23.5497L28.8067 1.87343L9.95659 0.0625C9.92915 0.0625 9.87428 0.0625 9.8194 0.0625Z" fill="#424242"/>
<path d="M24.9379 25.3887L7.92612 23.7424C7.40479 23.6875 7.02066 23.2211 7.07553 22.6997V22.6449C7.13041 22.1235 7.59686 21.7394 8.11819 21.7943L25.1299 23.4406L24.9379 25.3887Z" fill="url(#paint3_linear_498_18742)"/>
<path d="M32.511 30.1354L15.7462 31.6171C14.8407 31.6994 14.045 31.0134 13.9627 30.1354L12.4261 12.8218C12.3438 11.9164 13.0298 11.1207 13.9352 11.0383L30.7 9.55667C30.7 9.52923 32.511 30.1354 32.511 30.1354Z" fill="#424242"/>
<path d="M32.9225 27.5282L15.5266 29.0647C14.6212 29.147 13.8255 28.4611 13.7431 27.5831L12.1517 9.63842C12.0694 8.73296 12.7554 7.93724 13.6608 7.85493L31.0567 6.31839C31.0293 6.29095 32.9225 27.5282 32.9225 27.5282Z" fill="url(#paint4_linear_498_18742)"/>
<path d="M17.6119 28.8728L15.2248 29.0923C14.4565 29.01 13.8255 28.4063 13.7431 27.6106L12.1517 9.66599C12.0694 8.76052 12.7554 7.96481 13.6608 7.8825L15.7461 7.69043L17.6119 28.8728Z" fill="#424242"/>
<path opacity="0.2" d="M30.2883 7.19648L32.0169 26.8149C31.6602 26.9246 31.4133 27.2813 31.4407 27.6654L31.6054 29.3941L15.307 30.8483C15.307 30.8483 15.2796 30.8483 15.2521 30.8483C15.0326 30.8483 14.8131 30.6562 14.7857 30.4367L14.5662 27.885L13.1943 12.3823L12.9199 9.19948C12.8925 8.95253 13.0845 8.73302 13.3315 8.70559L30.2883 7.19648ZM31.0566 6.29102L13.304 7.855C12.5906 7.90987 12.0693 8.54096 12.1516 9.22691L12.426 12.4098L13.7979 27.9124L14.0174 30.4642C14.0723 31.1227 14.6211 31.6166 15.2796 31.6166H15.3893L32.5108 30.1075L32.2913 27.5557L32.9224 27.5008L31.0566 6.29102Z" fill="#424242"/>
<path d="M31.6054 29.5594L15.554 30.9861C15.0601 31.041 14.6485 30.6569 14.5936 30.1904V30.0258C14.5387 29.5319 14.9229 29.1203 15.3893 29.0655L31.4407 27.6387C31.4407 27.6661 31.6054 29.5594 31.6054 29.5594Z" fill="url(#paint5_linear_498_18742)"/>
<defs>
<linearGradient id="paint0_linear_498_18742" x1="9.67371" y1="6.51961" x2="14.0373" y2="27.7757" gradientUnits="userSpaceOnUse">
<stop offset="0.0079465" stop-color="#FF9800"/>
<stop offset="1" stop-color="#EF6C00"/>
</linearGradient>
<linearGradient id="paint1_linear_498_18742" x1="4.94946" y1="30.5165" x2="22.6026" y2="26.8926" gradientUnits="userSpaceOnUse">
<stop offset="0.0102" stop-color="#BDBDBD"/>
<stop offset="0.9869" stop-color="#F5F5F5"/>
</linearGradient>
<linearGradient id="paint2_linear_498_18742" x1="18.6186" y1="0.896603" x2="16.5008" y2="22.6451" gradientUnits="userSpaceOnUse">
<stop offset="0.0079465" stop-color="#4480F7"/>
<stop offset="1" stop-color="#315DB3"/>
</linearGradient>
<linearGradient id="paint3_linear_498_18742" x1="7.073" y1="22.6708" x2="25.0346" y2="24.4195" gradientUnits="userSpaceOnUse">
<stop offset="0.0102" stop-color="#BDBDBD"/>
<stop offset="0.9869" stop-color="#F5F5F5"/>
</linearGradient>
<linearGradient id="paint4_linear_498_18742" x1="21.5342" y1="7.18774" x2="23.4199" y2="28.4838" gradientUnits="userSpaceOnUse">
<stop offset="0.0079465" stop-color="#66BB6A"/>
<stop offset="1" stop-color="#2E7D32"/>
</linearGradient>
<linearGradient id="paint5_linear_498_18742" x1="14.5857" y1="30.1016" x2="31.526" y2="28.6016" gradientUnits="userSpaceOnUse">
<stop offset="0.0102" stop-color="#BDBDBD"/>
<stop offset="0.9869" stop-color="#F5F5F5"/>
</linearGradient>
</defs>
</svg>
