<svg width="32" height="22" viewBox="0 0 32 22" fill="none" xmlns="http://www.w3.org/2000/svg">
<path d="M23.6573 7.00098H25.8104C26.0762 7.00098 26.342 7.05414 26.5547 7.18704L30.1165 8.96799C30.6748 9.2338 31.0469 9.81859 31.1266 10.4565L31.9507 17.1284C32.1899 18.8296 31.5519 19.2283 30.1963 19.2283H21.8232V17.8461V8.91482C21.8232 7.45286 21.8232 7.00098 23.6573 7.00098Z" fill="url(#paint0_linear_498_18681)"/>
<path d="M25.1724 8.54213C25.1724 8.32948 25.4116 8.19658 25.5977 8.27632L29.5317 9.97752C29.8773 10.1636 30.1165 10.5091 30.1696 10.9344L30.3291 12.3167C30.3557 12.5027 30.2228 12.6356 30.0367 12.6356H25.4382C25.2787 12.6356 25.1458 12.5027 25.1458 12.3432L25.1724 8.54213Z" fill="#546E7A"/>
<path d="M21.7169 14.1777V16.8359H31.9241L31.5785 14.1777H21.7169Z" fill="#B71C1C"/>
<path d="M30.6483 15.2674L30.7281 15.932C30.7015 16.118 30.8344 16.2509 31.0205 16.2509H31.8445L31.685 14.9219H31.0205C30.8344 14.9485 30.6749 15.0814 30.6483 15.2674Z" fill="#FFEE58"/>
<path opacity="0.2" d="M23.6574 7.5326C22.8068 7.5326 22.541 7.63893 22.4612 7.74525C22.3549 7.90474 22.3283 8.3832 22.3283 8.94141V18.6967H30.1964C30.8077 18.6967 31.1533 18.617 31.3128 18.4309C31.4723 18.2448 31.5254 17.8195 31.4457 17.1816L30.5951 10.5363C30.5419 10.0578 30.2761 9.6591 29.8774 9.44645L26.3155 7.66551C26.156 7.58576 25.9699 7.5326 25.8105 7.5326H23.6574ZM23.6574 7.00098H25.8105C26.0763 7.00098 26.3421 7.05414 26.5547 7.18704L30.1166 8.96799C30.6748 9.2338 31.047 9.81859 31.1267 10.4565L31.9507 17.1284C32.19 18.8296 31.552 19.2283 30.1698 19.2283H21.8233V8.91482C21.8233 7.45286 21.8233 7.00098 23.6574 7.00098Z" fill="#424242"/>
<path d="M23.365 17.8457H8.2016e-05V19.2279H23.365V17.8457Z" fill="#263238"/>
<path opacity="0.2" d="M25.704 8.91432V12.1041H29.7709L29.638 10.9611C29.6114 10.7218 29.4785 10.5358 29.2925 10.4294L25.704 8.91432ZM25.4648 8.27637C25.5179 8.27637 25.5445 8.27637 25.5977 8.30295L29.5317 9.97756C29.8773 10.1636 30.1165 10.5092 30.1696 10.9345L30.3291 12.3167C30.3557 12.5028 30.2228 12.6357 30.0367 12.6357H25.4382C25.2787 12.6357 25.1458 12.5028 25.1458 12.3433V8.54218C25.1724 8.38269 25.3053 8.27637 25.4648 8.27637Z" fill="#424242"/>
<path d="M0.0266609 17.8459H23.365V1.41872C23.365 0.833931 22.8865 0.355469 22.3017 0.355469H1.08991C0.505123 0.355469 0.0266609 0.833931 0.0266609 1.41872V17.8459Z" fill="url(#paint1_linear_498_18681)"/>
<path opacity="0.2" d="M1.08991 1.15291C0.957005 1.15291 0.850681 1.25923 0.850681 1.41872V17.0485H22.541V1.41872C22.541 1.28581 22.4346 1.15291 22.2752 1.15291H1.08991ZM1.08991 0.355469H22.3017C22.8865 0.355469 23.365 0.833931 23.365 1.41872V17.8459H0.0266609V1.41872C0.0266609 0.833931 0.505123 0.355469 1.08991 0.355469Z" fill="#424242"/>
<path d="M3.29608 21.6203C2.01888 21.6203 0.983506 20.5849 0.983506 19.3077C0.983506 18.0305 2.01888 16.9951 3.29608 16.9951C4.57327 16.9951 5.60864 18.0305 5.60864 19.3077C5.60864 20.5849 4.57327 21.6203 3.29608 21.6203Z" fill="#4E342E"/>
<path opacity="0.2" d="M3.29608 17.5541C2.31257 17.5541 1.51513 18.3515 1.51513 19.335C1.51513 20.3185 2.31257 21.116 3.29608 21.116C4.27958 21.116 5.07702 20.3185 5.07702 19.335C5.07702 18.3515 4.27958 17.5541 3.29608 17.5541ZM3.29608 17.0225C4.57197 17.0225 5.60864 18.0591 5.60864 19.335C5.60864 20.6109 4.57197 21.6476 3.29608 21.6476C2.02018 21.6476 0.983506 20.6109 0.983506 19.335C0.983506 18.0591 2.04676 17.0225 3.29608 17.0225Z" fill="#EEEEEE"/>
<path d="M3.29622 20.2376C2.7824 20.2376 2.36588 19.8211 2.36588 19.3073C2.36588 18.7935 2.7824 18.377 3.29622 18.377C3.81003 18.377 4.22656 18.7935 4.22656 19.3073C4.22656 19.8211 3.81003 20.2376 3.29622 20.2376Z" fill="#BDBDBD"/>
<path d="M26.9799 21.6203C25.7027 21.6203 24.6673 20.5849 24.6673 19.3077C24.6673 18.0305 25.7027 16.9951 26.9799 16.9951C28.2571 16.9951 29.2925 18.0305 29.2925 19.3077C29.2925 20.5849 28.2571 21.6203 26.9799 21.6203Z" fill="#4E342E"/>
<path opacity="0.2" d="M26.9799 17.5541C25.9964 17.5541 25.2255 18.3515 25.2255 19.335C25.2255 20.3185 26.023 21.116 26.9799 21.116C27.9368 21.116 28.7342 20.3185 28.7342 19.335C28.7342 18.3515 27.9368 17.5541 26.9799 17.5541ZM26.9799 17.0225C28.2558 17.0225 29.2659 18.0591 29.2659 19.335C29.2659 20.6109 28.2292 21.6476 26.9799 21.6476C25.7306 21.6476 24.6939 20.6109 24.6939 19.335C24.6939 18.0591 25.704 17.0225 26.9799 17.0225Z" fill="#EEEEEE"/>
<path d="M26.9801 20.2376C26.4662 20.2376 26.0497 19.8211 26.0497 19.3073C26.0497 18.7935 26.4662 18.377 26.9801 18.377C27.4939 18.377 27.9104 18.7935 27.9104 19.3073C27.9104 19.8211 27.4939 20.2376 26.9801 20.2376Z" fill="#BDBDBD"/>
<path d="M18.7133 21.6203C17.4361 21.6203 16.4007 20.5849 16.4007 19.3077C16.4007 18.0305 17.4361 16.9951 18.7133 16.9951C19.9905 16.9951 21.0259 18.0305 21.0259 19.3077C21.0259 20.5849 19.9905 21.6203 18.7133 21.6203Z" fill="#4E342E"/>
<path opacity="0.2" d="M18.7133 17.5541C17.7298 17.5541 16.9324 18.3515 16.9324 19.335C16.9324 20.3185 17.7298 21.116 18.7133 21.116C19.6968 21.116 20.4943 20.3185 20.4943 19.335C20.4943 18.3515 19.6968 17.5541 18.7133 17.5541ZM18.7133 17.0225C19.9892 17.0225 21.0259 18.0591 21.0259 19.335C21.0259 20.6109 19.9892 21.6476 18.7133 21.6476C17.4374 21.6476 16.4007 20.6109 16.4007 19.335C16.4007 18.0591 17.464 17.0225 18.7133 17.0225Z" fill="#EEEEEE"/>
<path d="M18.7132 20.2376C18.1994 20.2376 17.7829 19.8211 17.7829 19.3073C17.7829 18.7935 18.1994 18.377 18.7132 18.377C19.227 18.377 19.6436 18.7935 19.6436 19.3073C19.6436 19.8211 19.227 20.2376 18.7132 20.2376Z" fill="#BDBDBD"/>
<path d="M13.9286 21.6203C12.6514 21.6203 11.6161 20.5849 11.6161 19.3077C11.6161 18.0305 12.6514 16.9951 13.9286 16.9951C15.2058 16.9951 16.2412 18.0305 16.2412 19.3077C16.2412 20.5849 15.2058 21.6203 13.9286 21.6203Z" fill="#4E342E"/>
<path opacity="0.2" d="M13.9286 17.5541C12.9451 17.5541 12.1477 18.3515 12.1477 19.335C12.1477 20.3185 12.9451 21.116 13.9286 21.116C14.9121 21.116 15.7096 20.3185 15.7096 19.335C15.7096 18.3515 14.9121 17.5541 13.9286 17.5541ZM13.9286 17.0225C15.2045 17.0225 16.2412 18.0591 16.2412 19.335C16.2412 20.6109 15.2045 21.6476 13.9286 21.6476C12.6527 21.6476 11.6161 20.6109 11.6161 19.335C11.6161 18.0591 12.6793 17.0225 13.9286 17.0225Z" fill="#EEEEEE"/>
<path d="M13.9285 20.2376C13.4147 20.2376 12.9982 19.8211 12.9982 19.3073C12.9982 18.7935 13.4147 18.377 13.9285 18.377C14.4424 18.377 14.8589 18.7935 14.8589 19.3073C14.8589 19.8211 14.4424 20.2376 13.9285 20.2376Z" fill="#BDBDBD"/>
<path d="M19.5637 1.95117V16.305" stroke="#E57373" stroke-width="2.47282" stroke-miterlimit="10" stroke-linecap="round" stroke-linejoin="round"/>
<path d="M15.8423 1.95117V16.305" stroke="#E57373" stroke-width="2.47282" stroke-miterlimit="10" stroke-linecap="round" stroke-linejoin="round"/>
<path d="M11.8552 1.95117V16.305" stroke="#E57373" stroke-width="2.47282" stroke-miterlimit="10" stroke-linecap="round" stroke-linejoin="round"/>
<path d="M8.13379 1.95117V16.305" stroke="#E57373" stroke-width="2.47282" stroke-miterlimit="10" stroke-linecap="round" stroke-linejoin="round"/>
<path d="M4.14673 1.95117V16.305" stroke="#E57373" stroke-width="2.47282" stroke-miterlimit="10" stroke-linecap="round" stroke-linejoin="round"/>
<defs>
<linearGradient id="paint0_linear_498_18681" x1="26.9116" y1="7.46615" x2="26.9116" y2="19.2416" gradientUnits="userSpaceOnUse">
<stop offset="0.0031768" stop-color="#EF5350"/>
<stop offset="0.3272" stop-color="#EA4D4A"/>
<stop offset="0.7789" stop-color="#DC3A3A"/>
<stop offset="1" stop-color="#D32F2F"/>
</linearGradient>
<linearGradient id="paint1_linear_498_18681" x1="11.6958" y1="0.810008" x2="11.6958" y2="17.7954" gradientUnits="userSpaceOnUse">
<stop offset="0.0031768" stop-color="#EF5350"/>
<stop offset="0.3272" stop-color="#EA4D4A"/>
<stop offset="0.7789" stop-color="#DC3A3A"/>
<stop offset="1" stop-color="#D32F2F"/>
</linearGradient>
</defs>
</svg>
