<svg width="33" height="32" viewBox="0 0 33 32" fill="none" xmlns="http://www.w3.org/2000/svg">
<path d="M9.81743 0.109605C5.93222 0.402929 3.3163 1.15757 1.83635 1.72022C0.932377 2.06421 0.383061 2.97885 0.484391 3.93882C2.34833 21.9383 11.3667 20.4183 11.3667 20.4183C11.3667 20.4183 20.5104 20.5623 19.6251 2.49086C19.5771 1.52823 18.8971 0.706919 17.9505 0.501592C16.4012 0.168269 13.7026 -0.18372 9.81743 0.109605ZM5.68423 9.64264C4.80959 9.6853 3.79095 9.97329 3.2843 10.1306C3.13231 10.1786 2.97498 10.08 2.99098 9.94663C3.31364 7.35471 5.19091 6.84539 6.45754 6.80539C7.27351 6.77873 8.10015 7.10672 8.38014 7.7387C8.92146 8.97333 6.96952 9.58131 5.68423 9.64264ZM14.8493 16.0958C13.684 15.8184 12.3507 15.7624 11.6014 15.7571C11.1934 15.7544 10.7881 15.7838 10.3854 15.8451C9.61744 15.9624 8.28948 16.2131 7.28151 16.6637C7.03352 16.7757 6.72153 16.6504 6.76153 16.4504C6.87352 15.8958 7.27085 14.9731 8.6148 14.2852C9.92943 13.6105 11.6734 13.4692 13.0867 13.9225C14.5693 14.3972 15.1106 15.2665 15.3106 15.8051C15.3799 15.9891 15.1106 16.1571 14.8493 16.0958ZM17.7932 9.03466C17.2679 8.95199 16.2172 8.82133 15.3453 8.91199C14.0653 9.04266 12.044 8.73867 12.3934 7.43737C12.572 6.76806 13.34 6.32274 14.1506 6.22408C15.4093 6.07475 17.3425 6.29608 18.0545 8.808C18.0918 8.93866 17.9505 9.05866 17.7932 9.03466Z" fill="url(#paint0_radial_498_18326)"/>
<path d="M9.81743 0.109605C5.93222 0.402929 3.3163 1.15757 1.83635 1.72022C0.932377 2.06421 0.383061 2.97885 0.484391 3.93882C2.34833 21.9383 11.3667 20.4183 11.3667 20.4183C11.3667 20.4183 20.5104 20.5623 19.6251 2.49086C19.5771 1.52823 18.8971 0.706919 17.9505 0.501592C16.4012 0.168269 13.7026 -0.18372 9.81743 0.109605ZM5.68423 9.64264C4.80959 9.6853 3.79095 9.97329 3.2843 10.1306C3.13231 10.1786 2.97498 10.08 2.99098 9.94663C3.31364 7.35471 5.19091 6.84539 6.45754 6.80539C7.27351 6.77873 8.10015 7.10672 8.38014 7.7387C8.92146 8.97333 6.96952 9.58131 5.68423 9.64264ZM14.8493 16.0958C13.684 15.8184 12.3507 15.7624 11.6014 15.7571C11.1934 15.7544 10.7881 15.7838 10.3854 15.8451C9.61744 15.9624 8.28948 16.2131 7.28151 16.6637C7.03352 16.7757 6.72153 16.6504 6.76153 16.4504C6.87352 15.8958 7.27085 14.9731 8.6148 14.2852C9.92943 13.6105 11.6734 13.4692 13.0867 13.9225C14.5693 14.3972 15.1106 15.2665 15.3106 15.8051C15.3799 15.9891 15.1106 16.1571 14.8493 16.0958ZM17.7932 9.03466C17.2679 8.95199 16.2172 8.82133 15.3453 8.91199C14.0653 9.04266 12.044 8.73867 12.3934 7.43737C12.572 6.76806 13.34 6.32274 14.1506 6.22408C15.4093 6.07475 17.3425 6.29608 18.0545 8.808C18.0918 8.93866 17.9505 9.05866 17.7932 9.03466Z" fill="url(#paint1_radial_498_18326)"/>
<path d="M8.95348 7.03219C8.63349 6.18422 7.70818 5.73623 6.79621 5.75756C5.38559 5.78956 3.30299 6.43754 2.98567 9.8801C2.983 9.9041 2.98567 9.9281 2.991 9.9521V9.94943C3.31365 7.35751 5.19093 6.8482 6.45756 6.8082C7.27353 6.78153 8.10017 7.10952 8.38016 7.7415C8.65749 8.37348 8.27883 8.84013 7.67085 9.15479C8.62015 8.7708 9.34813 8.07749 8.95348 7.03219Z" fill="url(#paint2_radial_498_18326)"/>
<path d="M3.28399 10.1334C3.26803 10.1387 3.25473 10.1414 3.23877 10.1414C3.26271 10.1414 3.28931 10.136 3.31591 10.1281C3.34784 10.1174 3.38774 10.1041 3.42232 10.0908C3.37444 10.1041 3.32389 10.1201 3.28399 10.1334Z" fill="url(#paint3_radial_498_18326)"/>
<path d="M17.7926 9.03398C17.75 9.02866 17.6995 9.02068 17.6516 9.0127C17.6889 9.02068 17.7288 9.026 17.7633 9.03398C17.7899 9.0393 17.8165 9.0393 17.8405 9.03664C17.8245 9.03664 17.8086 9.03664 17.7926 9.03398Z" fill="url(#paint4_radial_498_18326)"/>
<path d="M12.396 7.4366C12.5747 6.76729 13.3427 6.32197 14.1533 6.2233C15.4119 6.07397 17.3452 6.2953 18.0572 8.80722V8.80989C18.0598 8.78589 18.0572 8.76189 18.0518 8.73789C17.2172 5.38333 15.0599 5.05534 13.66 5.23667C12.7587 5.35133 11.9107 5.93531 11.7214 6.82062C11.4894 7.91392 12.3134 8.49256 13.3107 8.72722C12.66 8.50856 12.2147 8.10324 12.396 7.4366Z" fill="url(#paint5_radial_498_18326)"/>
<path d="M11.3374 13.6591C11.9427 13.6591 12.5427 13.7444 13.092 13.9204C14.5747 14.3951 15.116 15.2644 15.316 15.803C15.3746 15.963 15.1853 16.107 14.9667 16.107C14.9293 16.107 14.892 16.1017 14.8547 16.0937C13.6894 15.8164 12.3561 15.7604 11.6068 15.755H11.5374C11.1534 15.755 10.7695 15.7844 10.3908 15.843C9.62282 15.9603 8.29486 16.211 7.28689 16.6617C7.22289 16.691 7.15356 16.7043 7.08957 16.7043C6.90024 16.7043 6.73758 16.5977 6.76958 16.4483C6.88157 15.8937 7.27889 14.971 8.62285 14.2831C9.42283 13.8724 10.3855 13.6591 11.3374 13.6591ZM11.3374 12.8564C10.2468 12.8564 9.15083 13.1098 8.2522 13.5711C6.58025 14.4271 6.10826 15.643 5.9776 16.291C5.91894 16.579 5.9936 16.8723 6.18026 17.1016C6.39092 17.3603 6.72158 17.507 7.08423 17.507C7.26556 17.507 7.44689 17.4696 7.60955 17.395C8.54552 16.9763 9.82548 16.739 10.5055 16.6377C10.8494 16.5843 11.1961 16.5603 11.5321 16.5603H11.5934C12.2654 16.5657 13.5614 16.6163 14.6627 16.8777C14.7613 16.9017 14.86 16.9123 14.9613 16.9123C15.364 16.9123 15.732 16.731 15.9453 16.4243C16.1319 16.1577 16.1746 15.8297 16.0653 15.5284C15.8333 14.8964 15.1693 13.7471 13.3347 13.1578C12.7134 12.9578 12.0414 12.8564 11.3374 12.8564Z" fill="url(#paint6_radial_498_18326)"/>
<path opacity="0.2" d="M12.6387 0.799975C15.0333 0.799975 16.7559 1.06397 17.7825 1.28263C18.3665 1.40796 18.7958 1.91994 18.8252 2.52792C19.0678 7.47177 18.6572 14.0982 15.3319 17.5914C13.4253 19.5941 11.4547 19.6154 11.38 19.6154H11.3054L11.2387 19.626C11.2361 19.626 11.0947 19.6474 10.8494 19.6474C10.0814 19.6474 8.08149 19.4287 6.10822 17.4075C3.56696 14.8022 1.94035 10.2423 1.27903 3.85588C1.2177 3.25056 1.56169 2.67992 2.11901 2.46926C3.57763 1.91461 6.10821 1.19463 9.8761 0.909305C10.8227 0.837307 11.7507 0.799975 12.6387 0.799975ZM12.6387 0C11.78 0 10.8387 0.031999 9.81743 0.10933C5.93222 0.402654 3.3163 1.1573 1.83635 1.71995C0.932377 2.06394 0.383061 2.97857 0.484391 3.93854C2.07901 19.3381 8.91079 20.45 10.8521 20.45C11.1801 20.45 11.3667 20.418 11.3667 20.418C11.3667 20.418 11.3694 20.418 11.3747 20.418C11.6547 20.418 20.4971 20.2767 19.6251 2.49059C19.5771 1.52795 18.8971 0.706644 17.9505 0.501318C16.8092 0.255992 15.0439 0 12.6387 0Z" fill="#424242"/>
<path d="M23.129 11.6621C19.2437 11.3635 16.5452 11.7128 14.9959 12.0461C14.0492 12.2488 13.3693 13.0701 13.3213 14.0327C12.4146 32.1041 21.561 31.9681 21.561 31.9681C21.561 31.9681 30.5767 33.4961 32.4593 15.4993C32.5607 14.542 32.014 13.6247 31.11 13.2807C29.6274 12.7181 27.0142 11.9608 23.129 11.6621ZM15.5079 18.9365C15.3612 18.8805 15.3025 18.7392 15.3985 18.6699C17.2891 17.3606 19.0544 18.0966 20.0544 18.7686C20.6997 19.2005 21.1264 19.8432 20.9397 20.3605C20.577 21.3658 18.6918 20.6432 17.6625 19.9738C16.9638 19.5152 15.9985 19.1232 15.5079 18.9365ZM26.3342 25.835C26.1342 26.3736 25.5929 27.2403 24.1103 27.7149C22.697 28.1683 20.953 28.0216 19.6384 27.347C18.2944 26.6563 17.8971 25.7363 17.7851 25.179C17.7451 24.979 18.0571 24.8537 18.3051 24.9657C19.3131 25.419 20.641 25.6697 21.409 25.787C21.8117 25.8483 22.217 25.8777 22.625 25.875C23.3743 25.8697 24.7076 25.8137 25.8729 25.539C26.1315 25.4803 26.4009 25.6483 26.3342 25.835ZM29.5421 20.0112C29.0274 20.1205 28.0141 20.3632 27.2515 20.7072C26.1315 21.2111 24.1583 21.6378 23.9529 20.5898C23.8463 20.0512 24.3689 19.4832 25.0729 19.1525C26.1662 18.6406 28.0221 18.1819 29.6888 19.7659C29.7767 19.8459 29.6968 19.9792 29.5421 20.0112Z" fill="url(#paint7_radial_498_18326)"/>
<path d="M20.0866 17.3701C18.956 16.4954 16.9107 15.5275 14.5295 18.1834C14.4068 18.3194 14.4655 18.5434 14.6335 18.5994C14.8228 18.6634 15.0974 18.7594 15.4094 18.874C15.3401 18.8074 15.3241 18.7167 15.3961 18.6687C17.2867 17.3594 19.052 18.0954 20.0519 18.7674C20.6279 19.154 21.0306 19.7087 20.9746 20.1913C21.0093 20.1167 21.0413 20.0367 21.0679 19.9487C21.3452 19.0367 20.8173 17.9327 20.0866 17.3701Z" fill="url(#paint8_radial_498_18326)"/>
<path d="M30.6246 19.4148C28.678 16.4255 26.51 17.0735 25.2567 17.7641C24.4487 18.2095 23.7581 19.2228 23.8888 20.1614C23.9021 20.2547 23.9208 20.3374 23.9421 20.4147C23.9634 19.9294 24.4434 19.4441 25.0727 19.1508C26.166 18.6388 28.022 18.1801 29.6886 19.7641C29.7526 19.8254 29.7233 19.9107 29.6433 19.9667C29.9686 19.9001 30.2539 19.8467 30.4539 19.8121C30.6326 19.7827 30.7259 19.5694 30.6246 19.4148Z" fill="url(#paint9_radial_498_18326)"/>
<path d="M18.105 24.9257C18.1716 24.9257 18.2383 24.939 18.305 24.9684C19.3129 25.4217 20.6409 25.6723 21.4089 25.7897C21.7929 25.8483 22.1769 25.8777 22.5635 25.8777H22.6248C23.3742 25.8723 24.7074 25.8163 25.8727 25.5417C25.9101 25.5337 25.9474 25.5283 25.9847 25.5283C26.2034 25.5283 26.3927 25.675 26.3367 25.835C26.1367 26.3736 25.5954 27.2403 24.1128 27.7149C23.5661 27.8909 22.9688 27.9763 22.3662 27.9763C21.4142 27.9763 20.4462 27.7629 19.6409 27.3469C18.297 26.6563 17.8997 25.7363 17.7877 25.179C17.7557 25.0324 17.9183 24.9257 18.105 24.9257ZM18.105 24.123C17.7423 24.123 17.4117 24.2697 17.201 24.5284C17.0144 24.755 16.9397 25.051 16.9984 25.3363C17.129 25.9843 17.5983 27.2003 19.2703 28.0589C20.1689 28.5202 21.2675 28.7762 22.3608 28.7762C23.0622 28.7762 23.7315 28.6749 24.3528 28.4776C26.1874 27.8909 26.854 26.7416 27.086 26.1097C27.198 25.8083 27.1554 25.4803 26.9687 25.2137C26.7554 24.9097 26.3874 24.7257 25.9847 24.7257C25.8834 24.7257 25.7847 24.7364 25.6887 24.7604C24.5848 25.0217 23.2915 25.0697 22.6195 25.075H22.5662C22.2275 25.075 21.8782 25.0484 21.5315 24.995C20.8516 24.891 19.5716 24.6537 18.6356 24.235C18.4676 24.163 18.2863 24.123 18.105 24.123Z" fill="url(#paint10_radial_498_18326)"/>
<path opacity="0.2" d="M20.2703 12.3488C21.1689 12.3488 22.1102 12.3861 23.0675 12.4581C26.8354 12.7461 29.3633 13.4714 30.822 14.0261C31.3793 14.2394 31.7259 14.8101 31.6619 15.4154C30.9953 21.7965 29.366 26.3537 26.8221 28.9589C24.8488 30.9802 22.8462 31.1989 22.0782 31.1989C21.8356 31.1989 21.6916 31.1775 21.6916 31.1775L21.6196 31.1669H21.5529C21.4703 31.1669 19.5023 31.1429 17.5984 29.1403C14.2732 25.6444 13.8705 19.0153 14.1185 14.0714C14.1478 13.4634 14.5771 12.9514 15.1638 12.8261C16.1824 12.6075 17.8944 12.3488 20.2703 12.3488ZM20.2703 11.5488C17.8837 11.5488 16.1291 11.8022 14.9958 12.0448C14.0492 12.2475 13.3692 13.0688 13.3212 14.0314C12.4305 31.8335 21.2916 31.9669 21.5556 31.9669H21.5609C21.5609 31.9669 21.7502 31.9989 22.0809 31.9989C24.0275 31.9989 30.8486 30.8816 32.4592 15.498C32.5606 14.5407 32.0139 13.6234 31.11 13.2794C29.63 12.7168 27.0167 11.9595 23.1315 11.6608C22.0916 11.5808 21.1396 11.5488 20.2703 11.5488Z" fill="#424242"/>
<defs>
<radialGradient id="paint0_radial_498_18326" cx="0" cy="0" r="1" gradientUnits="userSpaceOnUse" gradientTransform="translate(9.82658 0.245094) rotate(85.6413) scale(20.2864 12.0521)">
<stop stop-color="#29B6F6"/>
<stop offset="0.6577" stop-color="#03A9F4"/>
<stop offset="1" stop-color="#0288D1"/>
</radialGradient>
<radialGradient id="paint1_radial_498_18326" cx="0" cy="0" r="1" gradientUnits="userSpaceOnUse" gradientTransform="translate(18.0905 19.2143) scale(12.2551 12.2551)">
<stop stop-color="#2196F3"/>
<stop offset="1" stop-color="#2196F3" stop-opacity="0"/>
</radialGradient>
<radialGradient id="paint2_radial_498_18326" cx="0" cy="0" r="1" gradientUnits="userSpaceOnUse" gradientTransform="translate(5.29038 8.73347) scale(4.35595 4.33773)">
<stop stop-color="#03A9F4"/>
<stop offset="1" stop-color="#0277BD"/>
</radialGradient>
<radialGradient id="paint3_radial_498_18326" cx="0" cy="0" r="1" gradientUnits="userSpaceOnUse" gradientTransform="translate(3.33664 10.1228) rotate(-4.32341) scale(0.0983008 0.0978924)">
<stop stop-color="#03A9F4"/>
<stop offset="1" stop-color="#0277BD"/>
</radialGradient>
<radialGradient id="paint4_radial_498_18326" cx="0" cy="0" r="1" gradientUnits="userSpaceOnUse" gradientTransform="translate(17.7461 9.03694) rotate(-4.32348) scale(0.116118 0.115637)">
<stop stop-color="#03A9F4"/>
<stop offset="1" stop-color="#0277BD"/>
</radialGradient>
<radialGradient id="paint5_radial_498_18326" cx="0" cy="0" r="1" gradientUnits="userSpaceOnUse" gradientTransform="translate(13.7254 7.99925) scale(4.1527 4.13534)">
<stop stop-color="#03A9F4"/>
<stop offset="1" stop-color="#0277BD"/>
</radialGradient>
<radialGradient id="paint6_radial_498_18326" cx="0" cy="0" r="1" gradientUnits="userSpaceOnUse" gradientTransform="translate(11.042 15.1813) scale(3.95294 3.93634)">
<stop stop-color="#03A9F4"/>
<stop offset="1" stop-color="#0277BD"/>
</radialGradient>
<radialGradient id="paint7_radial_498_18326" cx="0" cy="0" r="1" gradientUnits="userSpaceOnUse" gradientTransform="translate(23.0742 11.626) rotate(94.422) scale(20.3341 13.5928)">
<stop stop-color="#F48FB1"/>
<stop offset="0.4192" stop-color="#F06292"/>
<stop offset="1" stop-color="#EC407A"/>
</radialGradient>
<radialGradient id="paint8_radial_498_18326" cx="0" cy="0" r="1" gradientUnits="userSpaceOnUse" gradientTransform="translate(18.6125 18.7327) scale(4.50323 4.48439)">
<stop stop-color="#F06292"/>
<stop offset="1" stop-color="#EC407A"/>
</radialGradient>
<radialGradient id="paint9_radial_498_18326" cx="0" cy="0" r="1" gradientUnits="userSpaceOnUse" gradientTransform="translate(26.6455 18.6654) scale(4.35354 4.33533)">
<stop stop-color="#F06292"/>
<stop offset="1" stop-color="#EC407A"/>
</radialGradient>
<radialGradient id="paint10_radial_498_18326" cx="0" cy="0" r="1" gradientUnits="userSpaceOnUse" gradientTransform="translate(22.0627 26.4512) scale(3.95321 3.93661)">
<stop stop-color="#F06292"/>
<stop offset="0.5669" stop-color="#EC407A"/>
<stop offset="1" stop-color="#EC407A"/>
</radialGradient>
</defs>
</svg>
