<svg width="36" height="32" viewBox="0 0 36 32" fill="none" xmlns="http://www.w3.org/2000/svg">
<path d="M0.471436 12.0732C0.471436 12.0732 1.47558 13.6081 3.62732 13.7975C6.04014 14.0098 9.50301 15.7943 15.35 21.0503C21.197 26.3063 21.1769 27.0121 24.0918 28.4781C27.0067 29.9442 28.3551 30.2655 30.0306 28.6962C31.7061 27.1268 24.2639 22.4045 18.7698 19.4982C13.2757 16.5919 8.96651 13.6024 6.52787 13.0745C3.89987 12.5065 3.3519 13.502 2.19857 12.9311C1.04523 12.3601 0.471436 12.0732 0.471436 12.0732Z" fill="#558B2F"/>
<path opacity="0.2" d="M5.01878 13.4676C5.44626 13.4704 5.90243 13.5278 6.40737 13.6368C7.8849 13.9553 10.1657 15.2779 13.0548 16.9505C14.6787 17.8915 16.5205 18.9588 18.503 20.006C24.8062 23.3369 29.5142 26.7424 29.6949 28.1023C29.7064 28.1941 29.6892 28.2314 29.6404 28.2773C28.9777 28.897 28.4182 29.1609 27.7641 29.1609C26.9005 29.1609 25.8189 28.7048 24.3529 27.9646C22.5339 27.0494 21.92 26.4583 20.1039 24.7025C19.1256 23.7586 17.7858 22.4618 15.7373 20.62C10.1858 15.6365 7.00699 14.0069 5.01878 13.4676ZM0.471436 12.0732C0.471436 12.0732 1.47558 13.6081 3.62732 13.7975C6.04014 14.0098 9.50301 15.7943 15.35 21.0503C21.197 26.3063 21.1769 27.0121 24.0918 28.4781C25.6755 29.2757 26.8001 29.7347 27.7612 29.7347C28.5703 29.7347 29.2646 29.4134 30.0306 28.6962C31.7061 27.1268 24.2639 22.4045 18.7698 19.4982C13.2729 16.5919 8.96651 13.6024 6.52787 13.0745C5.90243 12.9397 5.39462 12.8938 4.96714 12.8938C4.03472 12.8938 3.49248 13.1147 2.96172 13.1147C2.71785 13.1147 2.47686 13.0688 2.19857 12.9311C1.04523 12.3573 0.471436 12.0732 0.471436 12.0732Z" fill="#424242"/>
<path d="M12.0851 17.7449C4.59129 9.32153 1.44688 2.48474 3.10229 0.355951C5.01877 -1.08715 12.0679 1.84782 20.4883 9.34162C28.5875 16.5456 31.6114 22.9837 29.2043 26.4609C25.5177 29.0774 19.2891 25.844 12.0851 17.7449Z" fill="url(#paint0_linear_498_18540)"/>
<path d="M9.2592 7.02038C9.44281 6.82529 9.53462 6.72775 9.72397 6.54987C9.92767 6.35765 9.79856 5.9273 9.44281 5.60024C9.38256 5.54572 9.35387 5.51703 9.29362 5.46252C8.94074 5.13833 8.49891 5.01496 8.30956 5.1871C8.13455 5.34776 8.04848 5.4367 7.88495 5.62032C7.70707 5.81828 7.83044 6.2601 8.1575 6.61012C8.21202 6.67037 8.24071 6.69906 8.29808 6.75931C8.62515 7.10932 9.06124 7.23269 9.2592 7.02038Z" fill="url(#paint1_radial_498_18540)"/>
<path d="M7.71846 5.45439C7.87913 5.27364 7.9652 5.1847 8.13734 5.02691C8.32382 4.85764 8.20906 4.47319 7.882 4.17769C7.82749 4.12892 7.7988 4.1031 7.74429 4.05432C7.42009 3.76169 7.01843 3.64406 6.84629 3.79324C6.68563 3.93096 6.6139 4.01129 6.47045 4.18056C6.3184 4.3613 6.43316 4.76583 6.72866 5.08716C6.77744 5.14167 6.80326 5.16749 6.8549 5.222C7.15327 5.54046 7.54346 5.64948 7.71846 5.45439Z" fill="url(#paint2_radial_498_18540)"/>
<path d="M6.32415 4.02491C6.46473 3.85851 6.53645 3.77818 6.69425 3.64333C6.86352 3.49702 6.76023 3.16135 6.4676 2.90027C6.41883 2.85723 6.393 2.83428 6.34423 2.79125C6.05446 2.53304 5.6901 2.42115 5.53805 2.54164C5.39747 2.6564 5.33435 2.72813 5.21672 2.87732C5.09048 3.03798 5.19951 3.40521 5.46058 3.69211C5.50362 3.74088 5.52657 3.7667 5.57247 3.81547C5.83355 4.10524 6.17496 4.20279 6.32415 4.02491Z" fill="url(#paint3_radial_498_18540)"/>
<path d="M5.0848 2.74286C5.19956 2.59367 5.26268 2.52482 5.40039 2.41293C5.54958 2.29243 5.46064 2.0084 5.19956 1.77888C5.15653 1.74159 5.13358 1.7215 5.09054 1.68421C4.83233 1.46042 4.51387 1.3514 4.3819 1.44895C4.25854 1.53789 4.20976 1.59814 4.11509 1.73011C4.01467 1.87069 4.11795 2.19488 4.3446 2.45309C4.3819 2.49613 4.40198 2.51908 4.44215 2.56212C4.67167 2.81746 4.96144 2.90066 5.0848 2.74286Z" fill="url(#paint4_radial_498_18540)"/>
<path d="M4.00605 1.60948C4.09499 1.48038 4.14376 1.42013 4.26426 1.33406C4.39336 1.24225 4.3159 1.007 4.09212 0.814773C4.05482 0.783214 4.03474 0.766 3.99744 0.734442C3.77653 0.545088 3.50111 0.441805 3.38921 0.510661C3.28593 0.573778 3.24863 0.62542 3.18265 0.737311C3.11092 0.857808 3.20847 1.13897 3.39782 1.35988C3.42938 1.39718 3.44659 1.41726 3.47815 1.45456C3.67038 1.67834 3.9085 1.75006 4.00605 1.60948Z" fill="url(#paint5_radial_498_18540)"/>
<path d="M10.9375 8.72767C11.1384 8.5211 11.2417 8.41495 11.4425 8.21986C11.6577 8.00756 11.5142 7.53417 11.1298 7.17555C11.0638 7.1153 11.0322 7.08374 10.9691 7.02349C10.5875 6.66774 10.1113 6.53577 9.90758 6.73086C9.71823 6.9116 9.62355 7.00915 9.43994 7.20711C9.24198 7.41941 9.37108 7.89566 9.7297 8.27437C9.78995 8.33749 9.82151 8.36905 9.88176 8.43503C10.2433 8.81374 10.7224 8.94858 10.9375 8.72767Z" fill="url(#paint6_radial_498_18540)"/>
<path d="M12.7507 10.5609C12.9687 10.3429 13.0778 10.2338 13.2872 10.0187C13.5139 9.78914 13.3561 9.27559 12.9458 8.88541C12.8769 8.81942 12.8425 8.78786 12.7737 8.72187C12.3663 8.33456 11.8584 8.19685 11.6404 8.40915C11.4396 8.60711 11.3363 8.71327 11.1326 8.9227C10.9146 9.14648 11.0523 9.65716 11.4424 10.0617C11.5084 10.1305 11.5429 10.165 11.6088 10.2338C11.999 10.6441 12.5183 10.7962 12.7507 10.5609Z" fill="url(#paint7_radial_498_18540)"/>
<path d="M14.693 12.5236C14.9225 12.2998 15.0401 12.185 15.2553 11.9584C15.4906 11.7145 15.3155 11.1637 14.8795 10.7419C14.8049 10.6702 14.7704 10.6358 14.6958 10.5641C14.2626 10.1452 13.7261 9.99886 13.4995 10.2284C13.2872 10.4436 13.1782 10.5526 12.9601 10.7735C12.7249 11.0087 12.8712 11.5452 13.29 11.9785C13.3618 12.0502 13.3962 12.0875 13.4679 12.1621C13.8897 12.5953 14.4434 12.7646 14.693 12.5236Z" fill="url(#paint8_radial_498_18540)"/>
<path d="M16.7329 14.5802C16.9739 14.3507 17.0944 14.233 17.3153 13.9978C17.4358 13.8715 17.453 13.665 17.3813 13.4355C17.3124 13.2059 17.1546 12.9535 16.9251 12.7297C16.8476 12.6551 16.8075 12.6149 16.73 12.5403C16.2738 12.0928 15.7144 11.935 15.4791 12.1788C15.2611 12.4055 15.1463 12.5231 14.9139 12.7469C14.6643 12.9879 14.8193 13.5531 15.2668 14.0093C15.3414 14.0867 15.3816 14.1269 15.4562 14.2015C15.68 14.431 15.9324 14.5859 16.162 14.6519C16.3943 14.7236 16.6009 14.7036 16.7329 14.5802Z" fill="url(#paint9_radial_498_18540)"/>
<path d="M18.6867 16.5485C18.9334 16.319 19.0568 16.2014 19.2777 15.9575C19.5158 15.6965 19.3723 15.1456 18.9449 14.721L18.7641 14.5402C18.3338 14.1128 17.7772 13.9636 17.5391 14.2189C17.3182 14.457 17.1977 14.5747 16.9538 14.8042C16.6927 15.0509 16.8419 15.6132 17.2665 16.0436C17.3382 16.1153 17.3755 16.1526 17.4444 16.2243C17.869 16.6518 18.4198 16.7924 18.6867 16.5485Z" fill="url(#paint10_radial_498_18540)"/>
<path d="M20.4913 18.4047C20.7409 18.1809 20.8728 18.0547 21.0909 17.808C21.3233 17.544 21.2056 17.0046 20.8126 16.6059C20.7466 16.537 20.715 16.5026 20.6491 16.4337C20.2531 16.0321 19.7252 15.9058 19.4871 16.1669C19.2662 16.4108 19.1228 16.5513 18.8731 16.778C18.6063 17.0219 18.7039 17.5784 19.1055 17.9801L19.2748 18.1494C19.6679 18.5482 20.2244 18.6457 20.4913 18.4047Z" fill="url(#paint11_radial_498_18540)"/>
<path d="M22.2097 20.0801C22.4565 19.865 22.577 19.7531 22.7835 19.5121C23.0073 19.251 22.9012 18.7432 22.5397 18.3674C22.4794 18.3042 22.4478 18.2727 22.3876 18.2096C22.0232 17.8337 21.5269 17.7333 21.2945 17.9944C21.0793 18.2383 20.956 18.3559 20.7064 18.5768C20.4396 18.8149 20.5342 19.317 20.9072 19.6842C20.9703 19.7473 21.0019 19.776 21.065 19.8391C21.438 20.2035 21.9458 20.3097 22.2097 20.0801Z" fill="url(#paint12_radial_498_18540)"/>
<path d="M23.7733 21.6327C24.0115 21.4318 24.1291 21.3257 24.3242 21.0904C24.5336 20.838 24.4418 20.356 24.1119 20.0088C24.0574 19.9514 24.0287 19.9199 23.9742 19.8625C23.6442 19.5153 23.1852 19.4321 22.9643 19.6932C22.7577 19.9342 22.6372 20.0461 22.3934 20.2584C22.1294 20.4879 22.204 20.9527 22.5511 21.2855C22.6085 21.3429 22.6372 21.3687 22.6975 21.4261C23.036 21.7589 23.518 21.8478 23.7733 21.6327Z" fill="url(#paint13_radial_498_18540)"/>
<path d="M25.1993 23.0358C25.426 22.8522 25.5379 22.7547 25.7157 22.5309C25.9051 22.2899 25.8248 21.8423 25.5321 21.5239C25.4833 21.4693 25.4575 21.4435 25.4088 21.389C25.1132 21.0706 24.6972 21.0046 24.4878 21.257C24.2956 21.4894 24.178 21.5985 23.9398 21.7964C23.6845 22.0087 23.7419 22.4333 24.0575 22.7317C24.112 22.7833 24.1378 22.8063 24.1894 22.8579C24.505 23.1534 24.9555 23.2338 25.1993 23.0358Z" fill="url(#paint14_radial_498_18540)"/>
<path d="M26.4846 24.2857C26.6969 24.1251 26.8002 24.0361 26.9551 23.8267C27.1215 23.6029 27.0498 23.1898 26.7916 22.9029C26.7485 22.8541 26.7256 22.8311 26.6825 22.7824C26.4214 22.4926 26.0514 22.4438 25.862 22.682C25.687 22.9029 25.578 23.0033 25.3513 23.1812C25.1075 23.3763 25.1505 23.7521 25.4374 24.016C25.4862 24.0619 25.5091 24.082 25.5579 24.1279C25.8419 24.3861 26.2551 24.4579 26.4846 24.2857Z" fill="url(#paint15_radial_498_18540)"/>
<path d="M27.6235 25.3732C27.8158 25.2383 27.9104 25.1609 28.0395 24.9715C28.1801 24.7678 28.1113 24.3977 27.8904 24.1424C27.8531 24.0994 27.833 24.0764 27.7957 24.0334C27.569 23.7752 27.2477 23.7379 27.0842 23.9616C26.9321 24.1682 26.8288 24.2571 26.6194 24.4149C26.3927 24.5842 26.4243 24.9113 26.6825 25.1379C26.7256 25.1752 26.7485 25.1953 26.7915 25.2326C27.0411 25.4535 27.4141 25.5195 27.6235 25.3732Z" fill="url(#paint16_radial_498_18540)"/>
<path d="M28.6134 26.2978C28.7855 26.1917 28.8658 26.1285 28.9662 25.965C29.0753 25.7871 29.0093 25.4629 28.8228 25.2391C28.7912 25.2019 28.774 25.1818 28.7425 25.1445C28.5531 24.9178 28.2863 24.892 28.1486 25.0928C28.0223 25.2793 27.9305 25.3539 27.7383 25.4859C27.5317 25.6265 27.5547 25.8961 27.7814 26.0855C27.8186 26.1171 27.8387 26.1343 27.876 26.1658C28.1027 26.3494 28.4297 26.4097 28.6134 26.2978Z" fill="url(#paint17_radial_498_18540)"/>
<path d="M8.00534 8.57002C8.15453 8.35484 8.23199 8.24869 8.39553 8.03925C8.56767 7.81547 8.44143 7.33348 8.11437 6.97773C8.05986 6.91748 8.03117 6.88879 7.97665 6.82854C7.65246 6.47566 7.26801 6.3695 7.11883 6.58468C6.97825 6.78551 6.91226 6.88879 6.78603 7.09536C6.64831 7.31914 6.76881 7.79826 7.05858 8.16262C7.10735 8.22287 7.13317 8.25443 7.18195 8.31755C7.46884 8.68478 7.84468 8.79954 8.00534 8.57002Z" fill="url(#paint18_radial_498_18540)"/>
<path d="M6.63971 6.91767C6.76308 6.7111 6.82907 6.60782 6.96678 6.40699C7.1131 6.19182 6.9926 5.74712 6.69996 5.42006C6.65119 5.36555 6.62537 5.33686 6.5766 5.28235C6.28683 4.95815 5.95116 4.86347 5.82779 5.06717C5.71303 5.25653 5.66139 5.35407 5.56098 5.5549C5.45195 5.77007 5.56958 6.22051 5.82205 6.55618C5.86509 6.61356 5.88517 6.64225 5.92821 6.69963C6.18355 7.0439 6.50774 7.14145 6.63971 6.91767Z" fill="url(#paint19_radial_498_18540)"/>
<path d="M5.4347 5.39649C5.53225 5.19853 5.58389 5.10098 5.69578 4.91163C5.81628 4.7108 5.69865 4.30054 5.44044 4.00503C5.39741 3.95626 5.37445 3.93044 5.33142 3.88166C5.07608 3.58903 4.79205 3.5087 4.69737 3.69805C4.6113 3.87593 4.57114 3.96486 4.49941 4.15422C4.42195 4.35792 4.53384 4.77392 4.74902 5.08377C4.78631 5.13541 4.80353 5.16123 4.84082 5.21574C5.0646 5.52559 5.33142 5.60879 5.4347 5.39649Z" fill="url(#paint20_radial_498_18540)"/>
<path d="M4.39618 4.00853C4.46504 3.81918 4.50234 3.73024 4.58554 3.55523C4.67448 3.36588 4.56545 2.99578 4.34454 2.7347C4.30725 2.69166 4.28716 2.66871 4.24987 2.62568C4.03182 2.3646 3.79943 2.29574 3.73632 2.47075C3.67894 2.63428 3.65312 2.71749 3.61295 2.89536C3.56992 3.08472 3.67607 3.46916 3.85395 3.74745C3.88264 3.79335 3.89985 3.81918 3.92854 3.86508C4.11215 4.14337 4.32159 4.20936 4.39618 4.00853Z" fill="url(#paint21_radial_498_18540)"/>
<path d="M3.52406 2.76028C3.56135 2.58527 3.5843 2.4992 3.63881 2.33854C3.69906 2.1664 3.59291 1.83647 3.4093 1.60695C3.37774 1.56678 3.36339 1.54957 3.33183 1.5094C3.14822 1.28275 2.97321 1.22824 2.94452 1.38604C2.91583 1.53235 2.90722 1.61269 2.89575 1.77622C2.88427 1.9541 2.99042 2.30124 3.131 2.54511C3.15396 2.58527 3.16543 2.60822 3.19125 2.64839C3.33183 2.90086 3.48389 2.94963 3.52406 2.76028Z" fill="url(#paint22_radial_498_18540)"/>
<path d="M9.52882 10.34C9.70096 10.1191 9.79277 10.0101 9.97351 9.79203C10.1715 9.55964 10.0338 9.04896 9.67514 8.66452C9.61489 8.59853 9.58333 8.56697 9.52595 8.50386C9.1702 8.12228 8.73985 8.00178 8.56484 8.22843C8.40131 8.43787 8.32098 8.54402 8.16892 8.76207C8.00539 8.99445 8.13162 9.49939 8.45295 9.88958C8.50746 9.95556 8.53615 9.98712 8.59066 10.056C8.91773 10.4433 9.34234 10.5753 9.52882 10.34Z" fill="url(#paint23_radial_498_18540)"/>
<path d="M11.2014 12.2226C11.3965 11.9989 11.4941 11.887 11.6978 11.6661C11.9158 11.4279 11.7695 10.8886 11.3822 10.4783C11.3162 10.4094 11.2846 10.375 11.2187 10.3062C10.8313 9.89876 10.358 9.76392 10.16 9.9963C9.97352 10.2143 9.88458 10.3234 9.70957 10.5443C9.52022 10.7824 9.65219 11.3103 10.0108 11.7234C10.0711 11.7923 10.1026 11.8296 10.1629 11.8984C10.5215 12.3116 10.992 12.4636 11.2014 12.2226Z" fill="url(#paint24_radial_498_18540)"/>
<path d="M13.0233 14.2106C13.2356 13.9868 13.3446 13.8749 13.5627 13.6511C13.7979 13.4101 13.643 12.8478 13.2241 12.4117C13.1524 12.3371 13.118 12.3027 13.0491 12.2281C12.6331 11.7949 12.1196 11.6428 11.8986 11.8838C11.6949 12.1047 11.5945 12.2166 11.3966 12.4404C11.1843 12.6814 11.3248 13.2265 11.7179 13.6626C11.7839 13.7372 11.8183 13.7716 11.8843 13.8462C12.2774 14.2823 12.7966 14.4516 13.0233 14.2106Z" fill="url(#paint25_radial_498_18540)"/>
<path d="M14.9684 16.2703C15.1951 16.0494 15.3127 15.9375 15.5451 15.7138C15.7947 15.4728 15.6484 14.9104 15.2037 14.4543C15.1291 14.3768 15.0918 14.3366 15.0143 14.2592C14.5696 13.8001 14.0188 13.6337 13.7807 13.8747C13.5598 14.0985 13.4507 14.2104 13.2356 14.4342C13.0061 14.6752 13.1552 15.2375 13.5798 15.6937C13.6516 15.7711 13.6889 15.8084 13.7606 15.8859C14.1852 16.3421 14.7217 16.5085 14.9684 16.2703Z" fill="url(#paint26_radial_498_18540)"/>
<path d="M16.8592 18.21C17.0973 17.9949 17.2178 17.8887 17.4588 17.6678C17.7199 17.4325 17.5994 16.8989 17.1776 16.4714C17.1059 16.3997 17.0715 16.3624 16.9997 16.2907C16.578 15.8603 16.0128 15.6968 15.7603 15.9378C15.5279 16.1616 15.4103 16.2735 15.1808 16.4944C14.9341 16.7325 15.0775 17.2805 15.4849 17.7022C15.5538 17.774 15.5882 17.8084 15.657 17.8801C16.0673 18.2961 16.6009 18.4396 16.8592 18.21Z" fill="url(#paint27_radial_498_18540)"/>
<path d="M18.6551 19.9829C18.9019 19.7792 19.0224 19.6788 19.2691 19.4694C19.5331 19.2456 19.4384 18.7435 19.0425 18.3505L18.8761 18.1841C18.4773 17.7853 17.9264 17.6447 17.6653 17.88C17.4215 18.098 17.301 18.207 17.0629 18.4193C16.8046 18.6489 16.9223 19.1595 17.3125 19.5411C17.3784 19.6071 17.41 19.6387 17.476 19.7018C17.8662 20.0776 18.3912 20.201 18.6551 19.9829Z" fill="url(#paint28_radial_498_18540)"/>
<path d="M20.3564 21.5839C20.6032 21.3974 20.7265 21.3027 20.9761 21.1076C21.2429 20.8982 21.1655 20.4363 20.7954 20.0748C20.7323 20.0145 20.7007 19.983 20.6376 19.9227C20.2646 19.5584 19.7339 19.4379 19.467 19.6616C19.2203 19.8682 19.0969 19.9715 18.8502 20.1723C18.5863 20.3875 18.6809 20.8551 19.051 21.1965C19.1142 21.2539 19.1457 21.2826 19.206 21.34C19.5761 21.6785 20.0896 21.7847 20.3564 21.5839Z" fill="url(#paint29_radial_498_18540)"/>
<path d="M21.9515 23.0095C22.1982 22.8431 22.3187 22.757 22.5626 22.582C22.8237 22.3927 22.7663 21.9738 22.422 21.6467C22.3646 21.5922 22.336 21.5635 22.2757 21.509C21.9286 21.1791 21.4207 21.0758 21.1539 21.2824C20.9072 21.4746 20.7838 21.5693 20.5371 21.7558C20.2703 21.9537 20.3477 22.3697 20.6978 22.6738C20.758 22.7255 20.7867 22.7513 20.8441 22.8001C21.1941 23.0956 21.6876 23.1874 21.9515 23.0095Z" fill="url(#paint30_radial_498_18540)"/>
<path d="M23.4435 24.2519C23.6816 24.1113 23.8021 24.0367 24.0373 23.8818C24.2898 23.7154 24.2468 23.3424 23.9312 23.0527C23.8767 23.0039 23.8509 22.9781 23.7963 22.9293C23.4779 22.6338 22.9959 22.5449 22.7348 22.7313C22.491 22.9064 22.3705 22.9896 22.1266 23.1531C21.8627 23.3281 21.9229 23.6925 22.2528 23.9535C22.3073 23.9966 22.336 24.0195 22.3905 24.0626C22.7147 24.3236 23.1853 24.404 23.4435 24.2519Z" fill="url(#paint31_radial_498_18540)"/>
<path d="M24.8234 25.3104C25.0529 25.1985 25.1648 25.1383 25.3886 25.0092C25.6296 24.8715 25.598 24.5501 25.3082 24.2977C25.2595 24.2546 25.2365 24.2317 25.1849 24.1886C24.8951 23.9304 24.4418 23.8501 24.1922 24.0136C23.9569 24.1657 23.8393 24.2374 23.6012 24.378C23.3458 24.5272 23.3917 24.8313 23.6959 25.0522C23.7475 25.0895 23.7733 25.1067 23.825 25.144C24.1319 25.3592 24.5766 25.4338 24.8234 25.3104Z" fill="url(#paint32_radial_498_18540)"/>
<path d="M26.0858 26.1794C26.301 26.0991 26.4072 26.0561 26.6137 25.9556C26.8375 25.8495 26.8146 25.5855 26.5563 25.3704C26.5133 25.3331 26.4904 25.3159 26.4473 25.2786C26.1862 25.0576 25.7702 24.9888 25.5321 25.1236C25.3112 25.2499 25.1964 25.3073 24.9698 25.4163C24.7259 25.5339 24.7604 25.7778 25.0415 25.9528C25.0903 25.9815 25.1132 25.9958 25.1591 26.0274C25.4403 26.1995 25.8563 26.2655 26.0858 26.1794Z" fill="url(#paint33_radial_498_18540)"/>
<path d="M27.2304 26.8543C27.4284 26.8112 27.5231 26.7825 27.7124 26.7194C27.9161 26.6506 27.8989 26.4469 27.6694 26.2719C27.6321 26.2432 27.612 26.226 27.5718 26.1973C27.3394 26.0165 26.9636 25.9505 26.7427 26.0538C26.5361 26.1485 26.4328 26.1915 26.2177 26.2661C25.9882 26.3493 26.0168 26.5243 26.2722 26.6563C26.3152 26.6793 26.3382 26.6907 26.3812 26.7108C26.6394 26.8371 27.0181 26.903 27.2304 26.8543Z" fill="url(#paint34_radial_498_18540)"/>
<path d="M10.7108 5.70617C10.9174 5.54838 11.0207 5.47091 11.2358 5.3246C11.4653 5.1668 11.3477 4.79383 10.9776 4.50694C10.9145 4.45816 10.8829 4.43521 10.8227 4.38644C10.4555 4.10241 9.97348 3.98191 9.7497 4.11675C9.54313 4.24299 9.43984 4.30611 9.24188 4.44382C9.02958 4.59014 9.14434 4.96884 9.50009 5.29017C9.56034 5.34468 9.58903 5.3705 9.65215 5.42501C10.0108 5.74634 10.4899 5.87544 10.7108 5.70617Z" fill="url(#paint35_radial_498_18540)"/>
<path d="M9.06695 4.29262C9.26205 4.15778 9.36533 4.09466 9.5719 3.97129C9.79568 3.83932 9.69239 3.52373 9.35098 3.26839C9.2936 3.22536 9.26491 3.20527 9.20753 3.16224C8.86612 2.91264 8.41569 2.79788 8.20052 2.90116C8.00256 2.99871 7.90501 3.05035 7.71853 3.16224C7.5177 3.28274 7.62099 3.61267 7.94518 3.89957C7.99969 3.94834 8.02838 3.97129 8.08289 4.02007C8.40996 4.31557 8.85465 4.43607 9.06695 4.29262Z" fill="url(#paint36_radial_498_18540)"/>
<path d="M7.55497 3.033C7.73859 2.92398 7.83614 2.87521 8.0341 2.78053C8.2464 2.68012 8.1632 2.41617 7.84761 2.19813C7.79597 2.16083 7.76728 2.14362 7.71564 2.10632C7.40579 1.89402 6.98405 1.77926 6.78035 1.85385C6.591 1.92271 6.50206 1.96 6.32705 2.0432C6.14056 2.13214 6.2295 2.4133 6.52501 2.66577C6.57378 2.70881 6.5996 2.72889 6.65124 2.7748C6.94962 3.033 7.35701 3.15063 7.55497 3.033Z" fill="url(#paint37_radial_498_18540)"/>
<path d="M6.18356 1.9314C6.3557 1.85107 6.44463 1.81378 6.63112 1.75066C6.83195 1.6818 6.76596 1.47523 6.48193 1.29449C6.43316 1.26293 6.41021 1.24858 6.3643 1.21989C6.08314 1.04202 5.6987 0.932996 5.50934 0.973162C5.33147 1.01046 5.24827 1.03341 5.09047 1.09079C4.91833 1.15104 4.99293 1.37769 5.25687 1.59573C5.29991 1.63303 5.32286 1.65024 5.36876 1.68754C5.62984 1.90558 5.99994 2.01747 6.18356 1.9314Z" fill="url(#paint38_radial_498_18540)"/>
<path d="M4.96138 0.990355C5.11917 0.938713 5.20238 0.915761 5.37738 0.881333C5.56674 0.844036 5.51796 0.694849 5.26836 0.5514C5.22533 0.528448 5.20524 0.514103 5.16508 0.491151C4.91835 0.35057 4.5712 0.241549 4.39619 0.247287C4.23266 0.253025 4.1552 0.261632 4.01175 0.287453C3.85682 0.316143 3.91707 0.488282 4.14372 0.671897C4.18102 0.703456 4.2011 0.717801 4.24127 0.74936C4.46792 0.938713 4.79211 1.04487 4.96138 0.990355Z" fill="url(#paint39_radial_498_18540)"/>
<path d="M12.481 7.26971C12.6933 7.08897 12.8023 7.0029 13.0204 6.83076C13.2556 6.64714 13.1208 6.2254 12.7248 5.90121C12.6589 5.8467 12.6244 5.81801 12.5584 5.76637C12.1654 5.44504 11.6576 5.32167 11.4281 5.4852C11.2129 5.63726 11.1067 5.71472 10.9002 5.87539C10.6764 6.04753 10.8055 6.475 11.1899 6.82502C11.2559 6.88527 11.2875 6.91396 11.3535 6.97421C11.7408 7.32709 12.2515 7.4648 12.481 7.26971Z" fill="url(#paint40_radial_498_18540)"/>
<path d="M14.363 8.98279C14.581 8.78196 14.69 8.68441 14.9138 8.49219C15.152 8.28562 14.9999 7.81511 14.581 7.45649C14.5093 7.39624 14.4749 7.36468 14.406 7.3073C13.99 6.95155 13.4621 6.82244 13.224 7.00892C13.0031 7.18393 12.8969 7.27287 12.6818 7.45362C12.4522 7.64871 12.5957 8.11922 13.006 8.50367C13.0748 8.56965 13.1092 8.60121 13.181 8.6672C13.5941 9.05164 14.1306 9.19796 14.363 8.98279Z" fill="url(#paint41_radial_498_18540)"/>
<path d="M16.357 10.8419C16.5779 10.6239 16.687 10.5177 16.9108 10.3054C17.1489 10.0788 16.9796 9.56236 16.5407 9.16931C16.4661 9.10333 16.4288 9.0689 16.357 9.00291C15.921 8.61273 15.373 8.47502 15.1348 8.68445C14.9139 8.87954 14.802 8.97996 14.584 9.18079C14.3487 9.39883 14.5065 9.90951 14.9426 10.3226C15.0172 10.3915 15.0516 10.4288 15.1262 10.4977C15.5595 10.9194 16.1189 11.0772 16.357 10.8419Z" fill="url(#paint42_radial_498_18540)"/>
<path d="M18.4227 12.8213C18.6436 12.5918 18.7526 12.477 18.9706 12.2475C19.2059 12.0036 19.0395 11.4643 18.5833 11.0396C18.5059 10.9679 18.4686 10.9306 18.3911 10.8589C17.9349 10.4343 17.3755 10.2851 17.1373 10.5146C16.9164 10.7298 16.8045 10.8359 16.5836 11.054C16.3455 11.2892 16.5205 11.8372 16.9767 12.2819C17.0541 12.3565 17.0943 12.3938 17.1718 12.4713C17.6308 12.9188 18.1874 13.068 18.4227 12.8213Z" fill="url(#paint43_radial_498_18540)"/>
<path d="M20.3707 14.7439C20.5858 14.5029 20.692 14.3824 20.9043 14.1443C21.1309 13.8889 20.9875 13.3496 20.5715 12.9422C20.5026 12.8733 20.4653 12.8389 20.3936 12.77C19.9747 12.3598 19.4268 12.2163 19.1944 12.463C18.9763 12.6926 18.8673 12.8073 18.6464 13.0397C18.4111 13.2893 18.5775 13.8516 19.0079 14.2762C19.0796 14.348 19.1169 14.3824 19.1886 14.4541C19.6133 14.8787 20.1411 15.0021 20.3707 14.7439Z" fill="url(#paint44_radial_498_18540)"/>
<path d="M22.1609 16.569C22.3675 16.3223 22.4679 16.2018 22.6659 15.9551C22.8811 15.6911 22.7577 15.1632 22.3819 14.7702C22.3187 14.7042 22.2872 14.6698 22.2212 14.6038C21.8425 14.2107 21.3347 14.0931 21.108 14.3513C20.8986 14.5923 20.7924 14.7099 20.5773 14.9538C20.3477 15.212 20.4912 15.7628 20.8871 16.1645C20.9531 16.2333 20.9875 16.2649 21.0535 16.3338C21.4466 16.7297 21.94 16.833 22.1609 16.569Z" fill="url(#paint45_radial_498_18540)"/>
<path d="M23.7877 18.2874C23.9799 18.0407 24.0717 17.9173 24.2553 17.6706C24.4533 17.4038 24.3471 16.8873 24.0086 16.5144L23.8651 16.3566C23.5237 15.9836 23.0647 15.8861 22.8495 16.15C22.6516 16.3967 22.5512 16.5201 22.3475 16.764C22.1294 17.0279 22.2528 17.5615 22.6143 17.9374C22.6745 18.0005 22.7061 18.0321 22.7663 18.0952C23.1249 18.471 23.5811 18.5513 23.7877 18.2874Z" fill="url(#paint46_radial_498_18540)"/>
<path d="M25.248 19.8941C25.4202 19.6531 25.5062 19.5298 25.6669 19.283C25.8419 19.0191 25.7501 18.5199 25.4517 18.167C25.403 18.1068 25.3771 18.0781 25.3255 18.0178C25.0271 17.6649 24.614 17.5875 24.4189 17.8514C24.2382 18.0982 24.1463 18.2215 23.957 18.4683C23.7533 18.7322 23.8594 19.2429 24.1865 19.5929C24.241 19.6531 24.2697 19.6818 24.3242 19.7392C24.6484 20.0892 25.0615 20.1552 25.248 19.8941Z" fill="url(#paint47_radial_498_18540)"/>
<path d="M26.5391 21.3828C26.6911 21.1476 26.7628 21.0299 26.9006 20.789C27.0497 20.5307 26.9665 20.0545 26.7112 19.7246C26.6682 19.67 26.6452 19.6414 26.6022 19.584C26.344 19.2512 25.9853 19.1909 25.8132 19.4549C25.6525 19.7016 25.5693 19.8221 25.4001 20.0631C25.2165 20.3242 25.3083 20.8062 25.6009 21.1275C25.6497 21.182 25.6755 21.2078 25.7243 21.2623C26.0112 21.5865 26.3755 21.6353 26.5391 21.3828Z" fill="url(#paint48_radial_498_18540)"/>
<path d="M27.658 22.7454C27.7842 22.5217 27.8416 22.4098 27.9506 22.1803C28.0682 21.9335 27.9936 21.4831 27.7785 21.179C27.7412 21.1273 27.7239 21.1015 27.6866 21.0499C27.4686 20.74 27.1674 20.6941 27.0239 20.9495C26.8891 21.1876 26.8173 21.3052 26.671 21.5405C26.5104 21.7901 26.5936 22.2434 26.8489 22.536C26.8919 22.5848 26.9149 22.6106 26.9551 22.6594C27.2104 22.9491 27.5231 22.9864 27.658 22.7454Z" fill="url(#paint49_radial_498_18540)"/>
<path d="M28.6047 23.9794C28.6994 23.7728 28.7424 23.6667 28.8199 23.4515C28.9031 23.2191 28.8313 22.8031 28.6592 22.5219C28.6305 22.4732 28.6162 22.4502 28.5846 22.4014C28.4096 22.1174 28.1686 22.083 28.0538 22.3268C27.9477 22.5564 27.8903 22.6682 27.7698 22.8892C27.6378 23.1273 27.7124 23.5433 27.9334 23.8044C27.9706 23.8474 27.9879 23.8703 28.0252 23.9134C28.2432 24.1773 28.5043 24.2032 28.6047 23.9794Z" fill="url(#paint50_radial_498_18540)"/>
<path d="M29.3735 25.0745C29.4338 24.8881 29.4596 24.7905 29.4998 24.5925C29.5428 24.3802 29.474 23.9987 29.3449 23.7462C29.3219 23.7032 29.3133 23.6802 29.2903 23.6372C29.1584 23.379 28.9834 23.3531 28.903 23.5827C28.8313 23.795 28.7883 23.9011 28.6965 24.1048C28.5989 24.3257 28.6678 24.6987 28.8485 24.9311C28.8801 24.9713 28.8944 24.9885 28.926 25.0286C29.1067 25.2582 29.3104 25.2782 29.3735 25.0745Z" fill="url(#paint51_radial_498_18540)"/>
<path d="M12.349 4.63324C12.5785 4.50701 12.6933 4.44676 12.9314 4.32913C13.1839 4.20289 13.0835 3.89878 12.7105 3.66065L12.5527 3.56024C12.1826 3.32498 11.672 3.21309 11.4195 3.31064C11.1842 3.39958 11.0695 3.44835 10.8428 3.54876C10.5989 3.65779 10.6994 3.97051 11.0666 4.2488C11.1297 4.2947 11.1613 4.32052 11.2215 4.36643C11.5945 4.64759 12.1023 4.77095 12.349 4.63324Z" fill="url(#paint52_radial_498_18540)"/>
<path d="M10.6592 3.41959C10.8858 3.32204 11.0006 3.27614 11.2358 3.19007C11.4883 3.09826 11.408 2.85439 11.058 2.65357C10.9977 2.61914 10.969 2.60192 10.9116 2.57036C10.5645 2.3724 10.0768 2.26338 9.82429 2.3265C9.5919 2.38388 9.47714 2.41544 9.25336 2.4843C9.01523 2.55889 9.09557 2.8171 9.43984 3.05809C9.49722 3.09826 9.52591 3.11834 9.58616 3.16138C9.93044 3.40811 10.4153 3.52574 10.6592 3.41959Z" fill="url(#paint53_radial_498_18540)"/>
<path d="M9.08705 2.3754C9.30796 2.30942 9.42272 2.27786 9.65511 2.22622C9.90471 2.16884 9.84446 1.98809 9.52313 1.82456C9.46862 1.79587 9.4428 1.78439 9.38829 1.7557C9.06696 1.59791 8.60506 1.48889 8.35833 1.51184C8.12881 1.53479 8.01692 1.54914 7.79887 1.58643C7.56649 1.6266 7.63247 1.82743 7.94519 2.034C7.99683 2.06842 8.02552 2.08564 8.07716 2.12293C8.39275 2.33237 8.84892 2.44713 9.08705 2.3754Z" fill="url(#paint54_radial_498_18540)"/>
<path d="M7.64392 1.50025C7.85909 1.46583 7.97098 1.45435 8.2005 1.43427C8.44724 1.41418 8.40707 1.29369 8.11443 1.17032C8.06566 1.15024 8.03984 1.13876 7.99107 1.11868C7.7013 0.998182 7.26521 0.88916 7.02135 0.874815C6.79757 0.863339 6.68855 0.86047 6.47911 0.863339C6.25533 0.869077 6.30123 1.00966 6.58239 1.17893C6.63117 1.20762 6.65412 1.22196 6.70289 1.25065C6.98979 1.42279 7.41153 1.53755 7.64392 1.50025Z" fill="url(#paint55_radial_498_18540)"/>
<path d="M6.3414 0.794448C6.55083 0.794448 6.65699 0.797318 6.88364 0.814531C7.12463 0.831745 7.10742 0.777235 6.84634 0.691165C6.8033 0.67682 6.78035 0.668213 6.73732 0.656737C6.47911 0.573537 6.07458 0.461646 5.83646 0.410004C5.61841 0.361232 5.51226 0.341149 5.31143 0.30959C5.09626 0.278031 5.12208 0.358362 5.37168 0.490336C5.41471 0.513288 5.4348 0.524764 5.47783 0.547716C5.72743 0.682558 6.11762 0.794448 6.3414 0.794448Z" fill="url(#paint56_radial_498_18540)"/>
<path d="M14.1479 6.01391C14.3774 5.85899 14.4922 5.78439 14.7275 5.64095C14.9799 5.48602 14.8594 5.12166 14.4635 4.84337C14.3975 4.79746 14.3631 4.77164 14.2971 4.72574C13.9041 4.45031 13.379 4.33842 13.1266 4.46753C12.8913 4.58803 12.7737 4.65114 12.5442 4.78025C12.2974 4.92083 12.4151 5.28519 12.8081 5.60078C12.8741 5.65242 12.9085 5.68111 12.9745 5.73275C13.3704 6.04834 13.9012 6.18031 14.1479 6.01391Z" fill="url(#paint57_radial_498_18540)"/>
<path d="M16.0415 7.55983C16.2681 7.38196 16.3829 7.29302 16.6124 7.12088C16.8591 6.93726 16.7185 6.51839 16.3054 6.19993C16.2365 6.14542 16.2021 6.1196 16.1304 6.06796C15.7201 5.75524 15.1808 5.63761 14.9283 5.79541C14.6959 5.94459 14.5783 6.01919 14.3488 6.17698C14.102 6.34625 14.2369 6.76225 14.6529 7.11227C14.7217 7.17252 14.759 7.20121 14.8279 7.26146C15.2496 7.61434 15.7976 7.75206 16.0415 7.55983Z" fill="url(#paint58_radial_498_18540)"/>
<path d="M18.024 9.26965C18.2477 9.06882 18.3596 8.9684 18.5805 8.77331C18.8215 8.56388 18.6609 8.09049 18.2305 7.73474C18.1588 7.67449 18.1215 7.6458 18.0498 7.58555C17.6223 7.23267 17.0743 7.10643 16.8276 7.29578C16.5981 7.47079 16.4833 7.55973 16.2567 7.74048C16.0128 7.93557 16.1649 8.40321 16.6009 8.78766C16.6755 8.85364 16.7128 8.8852 16.7846 8.95119C17.2235 9.3385 17.7858 9.48482 18.024 9.26965Z" fill="url(#paint59_radial_498_18540)"/>
<path d="M20.058 11.1262C20.2732 10.9053 20.3793 10.7962 20.5916 10.5811C20.8211 10.3487 20.6633 9.84374 20.2215 9.45069C20.1469 9.3847 20.1096 9.35027 20.035 9.28429C19.5932 8.89411 19.0424 8.75639 18.8042 8.97157C18.5833 9.16953 18.4714 9.26994 18.2505 9.47364C18.0124 9.69168 18.1817 10.2052 18.635 10.6241C18.7124 10.6958 18.7497 10.7303 18.8272 10.802C19.2805 11.2209 19.8285 11.3614 20.058 11.1262Z" fill="url(#paint60_radial_498_18540)"/>
<path d="M21.9429 12.9568C22.1466 12.7215 22.247 12.6039 22.4449 12.3715C22.6572 12.1219 22.5253 11.6084 22.1293 11.2239C22.0634 11.1579 22.0289 11.1264 21.9629 11.0604C21.5642 10.6759 21.0363 10.544 20.8096 10.7792C20.5973 10.9973 20.4912 11.1063 20.2788 11.3301C20.0493 11.5682 20.2157 12.1047 20.6317 12.5121C20.7035 12.581 20.7379 12.6154 20.8067 12.6842C21.2199 13.0916 21.7248 13.2093 21.9429 12.9568Z" fill="url(#paint61_radial_498_18540)"/>
<path d="M23.6328 14.7235C23.8193 14.4797 23.9111 14.3563 24.0918 14.1124C24.284 13.8485 24.1721 13.3321 23.8221 12.9591C23.7647 12.896 23.7332 12.8644 23.6758 12.8013C23.3229 12.4255 22.8495 12.3193 22.6372 12.5689C22.4393 12.8042 22.3417 12.9218 22.1409 13.1571C21.9257 13.4095 22.0663 13.946 22.4421 14.3362C22.5053 14.4022 22.5368 14.4366 22.5999 14.4997C22.9729 14.8899 23.4348 14.9875 23.6328 14.7235Z" fill="url(#paint62_radial_498_18540)"/>
<path d="M25.1304 16.4191C25.2968 16.1695 25.3771 16.0433 25.5321 15.7908C25.7013 15.5211 25.6038 15.0047 25.3026 14.6432C25.2509 14.583 25.2251 14.5514 25.1734 14.4883C24.8693 14.1239 24.4505 14.0379 24.2611 14.3018C24.0832 14.5457 23.9943 14.669 23.8078 14.9158C23.6099 15.1797 23.7304 15.7076 24.066 16.0806C24.1234 16.1437 24.1521 16.1753 24.2066 16.2384C24.5423 16.6113 24.9525 16.6888 25.1304 16.4191Z" fill="url(#paint63_radial_498_18540)"/>
<path d="M26.4272 18.0344C26.5677 17.7819 26.6366 17.6557 26.7657 17.4003C26.9063 17.1278 26.8202 16.62 26.5677 16.27C26.5247 16.2097 26.5046 16.181 26.4587 16.1208C26.2005 15.7708 25.8448 15.7019 25.6784 15.9716C25.5234 16.2241 25.446 16.3503 25.2824 16.5999C25.1074 16.8696 25.2136 17.386 25.5062 17.7389C25.555 17.7991 25.5808 17.8278 25.6296 17.8881C25.9222 18.2438 26.2751 18.3041 26.4272 18.0344Z" fill="url(#paint64_radial_498_18540)"/>
<path d="M27.5261 19.5605C27.638 19.3109 27.6896 19.1846 27.7871 18.9322C27.8933 18.6596 27.8187 18.1661 27.6121 17.8305C27.5777 17.7731 27.5605 17.7444 27.5232 17.6899C27.3138 17.3542 27.0211 17.2997 26.8863 17.5723C26.76 17.8276 26.6941 17.9538 26.5563 18.2063C26.4072 18.476 26.5018 18.9781 26.7514 19.3109C26.7945 19.3682 26.8146 19.3941 26.8576 19.4514C27.1101 19.7814 27.4056 19.8302 27.5261 19.5605Z" fill="url(#paint65_radial_498_18540)"/>
<path d="M28.4211 20.9952C28.4985 20.7513 28.5358 20.6308 28.5961 20.3812C28.6621 20.1144 28.5961 19.6382 28.4383 19.3197C28.4125 19.2652 28.3981 19.2394 28.3723 19.1849C28.2116 18.8664 27.9879 18.8234 27.8874 19.0959C27.7928 19.3484 27.744 19.4746 27.635 19.7242C27.5202 19.9911 27.6005 20.4702 27.81 20.78C27.8444 20.8317 27.8616 20.8575 27.8989 20.912C28.1055 21.2218 28.3379 21.2563 28.4211 20.9952Z" fill="url(#paint66_radial_498_18540)"/>
<path d="M29.1154 22.3293C29.1556 22.0969 29.1728 21.9792 29.1957 21.7411C29.2215 21.4829 29.1556 21.0296 29.0465 20.7312C29.0293 20.6796 29.0178 20.6566 29.0006 20.605C28.8859 20.3038 28.7367 20.2722 28.6736 20.539C28.6162 20.7858 28.5818 20.9091 28.5072 21.1501C28.4268 21.4083 28.5014 21.8616 28.6678 22.1485C28.6965 22.1973 28.7109 22.2202 28.7367 22.269C28.9031 22.553 29.0724 22.5789 29.1154 22.3293Z" fill="url(#paint67_radial_498_18540)"/>
<path d="M29.606 23.555C29.606 23.337 29.6003 23.228 29.5831 23.0013C29.563 22.7574 29.497 22.33 29.4368 22.0517C29.4253 22.0058 29.4224 21.98 29.4109 21.934C29.3449 21.6529 29.2732 21.6299 29.2531 21.8881C29.2331 22.1263 29.2216 22.2439 29.1843 22.4734C29.1441 22.7201 29.2158 23.1419 29.3392 23.403C29.3593 23.446 29.3708 23.469 29.3909 23.512C29.5056 23.7702 29.6032 23.7874 29.606 23.555Z" fill="url(#paint68_radial_498_18540)"/>
<path d="M7.00129 10.2541C7.11892 10.0218 7.17916 9.907 7.30827 9.68035C7.44598 9.43648 7.32261 8.93154 7.03572 8.56144C6.98694 8.49832 6.96399 8.46963 6.91522 8.40652C6.63406 8.03929 6.3156 7.94174 6.20658 8.18273C6.10329 8.40652 6.05452 8.52128 5.96558 8.75366C5.86804 9.00327 5.97993 9.50534 6.22092 9.87257C6.26109 9.93569 6.28117 9.96724 6.32421 10.0275C6.5652 10.4005 6.87505 10.5037 7.00129 10.2541Z" fill="url(#paint69_radial_498_18540)"/>
<path d="M5.84508 8.57303C5.93115 8.34065 5.97992 8.22876 6.07747 8.00497C6.18362 7.76398 6.06599 7.28486 5.81639 6.94345C5.77335 6.88607 5.75327 6.85738 5.7131 6.8C5.46924 6.46146 5.20529 6.37826 5.12783 6.61638C5.05611 6.8373 5.02168 6.94919 4.9643 7.17584C4.90118 7.42257 5.0102 7.90169 5.21103 8.24597C5.24546 8.30335 5.26267 8.33204 5.2971 8.39229C5.50367 8.73657 5.7504 8.81977 5.84508 8.57303Z" fill="url(#paint70_radial_498_18540)"/>
<path d="M4.86387 7.00326C4.91838 6.77374 4.94994 6.66185 5.0188 6.4438C5.09339 6.20855 4.97863 5.75525 4.76632 5.44253C4.7319 5.39088 4.71181 5.36219 4.67739 5.31055C4.46795 5.0007 4.26425 4.93472 4.22122 5.16423C4.18105 5.37654 4.16384 5.48843 4.13802 5.71221C4.1122 5.95321 4.21835 6.40937 4.38188 6.72783C4.41057 6.78234 4.42205 6.80816 4.45074 6.86267C4.61714 7.184 4.80649 7.24999 4.86387 7.00326Z" fill="url(#paint71_radial_498_18540)"/>
<path d="M4.06058 5.55755C4.08067 5.33377 4.09501 5.22475 4.13231 5.01244C4.17247 4.78292 4.06058 4.36405 3.88558 4.08002C3.85689 4.03125 3.84254 4.0083 3.81385 3.95952C3.64458 3.67836 3.49826 3.63246 3.49252 3.85337C3.48679 4.05994 3.48679 4.16609 3.49539 4.38413C3.50687 4.61939 3.61302 5.04974 3.73639 5.33951C3.75647 5.38828 3.76795 5.4141 3.78803 5.46287C3.91427 5.75551 4.03763 5.79855 4.06058 5.55755Z" fill="url(#paint72_radial_498_18540)"/>
<path d="M3.43516 4.24671C3.42081 4.02867 3.41795 3.92252 3.42081 3.71595C3.42368 3.49504 3.31466 3.10772 3.17982 2.85812C3.15687 2.81509 3.14539 2.79501 3.12244 2.75197C2.99047 2.50237 2.90727 2.47368 2.93596 2.68598C2.96465 2.88394 2.98186 2.98723 3.02776 3.19953C3.07654 3.42905 3.18269 3.82784 3.26589 4.08605C3.28023 4.12908 3.28597 4.15204 3.30032 4.19507C3.38926 4.45902 3.4495 4.48197 3.43516 4.24671Z" fill="url(#paint73_radial_498_18540)"/>
<path d="M8.32955 12.0381C8.47587 11.8057 8.55046 11.6909 8.70539 11.4643C8.87179 11.2204 8.73981 10.6925 8.41849 10.2995C8.36398 10.2335 8.33815 10.1991 8.28364 10.1331C7.96519 9.74289 7.59509 9.62813 7.45451 9.87199C7.32253 10.0986 7.25942 10.2134 7.13892 10.4458C7.00981 10.6954 7.12457 11.2147 7.40287 11.6049C7.44877 11.6708 7.47459 11.7053 7.52049 11.7713C7.80452 12.1643 8.17175 12.2877 8.32955 12.0381Z" fill="url(#paint74_radial_498_18540)"/>
<path d="M9.82726 13.9202C9.9994 13.6936 10.0855 13.5788 10.2662 13.3522C10.4584 13.1083 10.3179 12.5632 9.96498 12.1472C9.90473 12.0783 9.87604 12.0411 9.81579 11.9722C9.4629 11.5591 9.04116 11.4271 8.87189 11.671C8.7141 11.8976 8.63663 12.0124 8.49032 12.2447C8.32965 12.4944 8.45302 13.028 8.76861 13.4382C8.82312 13.5071 8.84894 13.5415 8.90345 13.6133C9.22191 14.0207 9.64365 14.1641 9.82726 13.9202Z" fill="url(#paint75_radial_498_18540)"/>
<path d="M11.494 15.8852C11.6891 15.6643 11.7867 15.5524 11.9875 15.3286C12.2027 15.0905 12.0535 14.5282 11.6633 14.0921C11.5973 14.0175 11.5657 13.9802 11.4998 13.9085C11.1124 13.4724 10.6448 13.3232 10.4497 13.5671C10.269 13.7937 10.18 13.9056 10.005 14.1351C9.81853 14.379 9.94764 14.9241 10.3034 15.3516C10.3636 15.4233 10.3923 15.4606 10.4554 15.5323C10.8112 15.9598 11.2846 16.1233 11.494 15.8852Z" fill="url(#paint76_radial_498_18540)"/>
<path d="M13.3044 17.9028C13.5196 17.6905 13.6257 17.5844 13.8467 17.3692C14.0819 17.1368 13.9413 16.5888 13.5196 16.1355C13.4479 16.0581 13.4134 16.0208 13.3417 15.9433C12.9228 15.49 12.4064 15.3207 12.1884 15.5589C11.9847 15.7798 11.8843 15.8917 11.6892 16.1126C11.4769 16.3507 11.6175 16.9016 12.0105 17.3434C12.0765 17.418 12.1109 17.4553 12.1769 17.5299C12.57 17.9688 13.0749 18.1295 13.3044 17.9028Z" fill="url(#paint77_radial_498_18540)"/>
<path d="M15.0946 19.7617C15.3241 19.5637 15.4417 19.4633 15.6741 19.2596C15.9237 19.0416 15.8061 18.5309 15.4044 18.1178C15.3356 18.0489 15.3011 18.0116 15.2323 17.9428C14.8278 17.5239 14.2913 17.3575 14.0531 17.5899C13.8322 17.8051 13.7232 17.9112 13.508 18.1206C13.2756 18.3473 13.4076 18.8752 13.7921 19.2768C13.858 19.3457 13.8896 19.3773 13.9556 19.4461C14.3372 19.8392 14.8478 19.9769 15.0946 19.7617Z" fill="url(#paint78_radial_498_18540)"/>
<path d="M16.8246 21.4231C17.0656 21.2423 17.1861 21.1505 17.43 20.9612C17.6911 20.7603 17.5964 20.2956 17.2091 19.9197C17.1431 19.8566 17.1115 19.825 17.0456 19.7591C16.6582 19.3804 16.1246 19.2369 15.8721 19.4549C15.6369 19.6586 15.5221 19.7562 15.2897 19.9542C15.0401 20.1665 15.1492 20.6427 15.5221 20.9985C15.5852 21.0587 15.6168 21.0874 15.6799 21.1476C16.0558 21.5005 16.5664 21.6153 16.8246 21.4231Z" fill="url(#paint79_radial_498_18540)"/>
<path d="M18.4915 22.8774C18.7383 22.7196 18.8645 22.6392 19.1112 22.47C19.378 22.2892 19.3006 21.8761 18.9333 21.5404C18.8702 21.483 18.8387 21.4543 18.7784 21.397C18.4083 21.0584 17.8833 20.9351 17.6222 21.1359C17.3784 21.3224 17.2579 21.4142 17.014 21.5921C16.7529 21.7843 16.8419 22.2032 17.2033 22.513C17.2636 22.5646 17.2952 22.5905 17.3554 22.6421C17.7169 22.9491 18.2247 23.0466 18.4915 22.8774Z" fill="url(#paint80_radial_498_18540)"/>
<path d="M20.0867 24.1249C20.3363 23.993 20.4626 23.9241 20.7122 23.7835C20.979 23.6315 20.9187 23.27 20.5716 22.9773C20.5113 22.9286 20.4826 22.9027 20.4253 22.854C20.0752 22.5556 19.5617 22.4523 19.2949 22.6273C19.0453 22.7909 18.9219 22.8712 18.6723 23.029C18.4055 23.1954 18.4772 23.5569 18.8244 23.818C18.8817 23.861 18.9133 23.8839 18.9707 23.927C19.3178 24.1794 19.817 24.2655 20.0867 24.1249Z" fill="url(#paint81_radial_498_18540)"/>
<path d="M21.6044 25.1616C21.854 25.0612 21.9774 25.0067 22.2241 24.8948C22.488 24.7714 22.4421 24.4731 22.1151 24.2206C22.0606 24.1776 22.0319 24.1575 21.9774 24.1144C21.6474 23.8591 21.1511 23.7673 20.8843 23.9165C20.6347 24.0571 20.5113 24.123 20.2588 24.2522C19.9892 24.3899 20.0465 24.6854 20.3793 24.8977C20.4367 24.935 20.4625 24.9522 20.5199 24.9866C20.8499 25.1932 21.3376 25.2678 21.6044 25.1616Z" fill="url(#paint82_radial_498_18540)"/>
<path d="M23.0446 25.9789C23.2885 25.9129 23.409 25.8785 23.6471 25.7953C23.9053 25.7092 23.868 25.4711 23.5639 25.2645C23.5123 25.2301 23.4865 25.2129 23.4348 25.1756C23.1278 24.9633 22.6545 24.883 22.3905 25.0006C22.1438 25.1096 22.0204 25.1641 21.7737 25.2588C21.5069 25.3621 21.5499 25.5887 21.8655 25.7523C21.92 25.7809 21.9458 25.7924 22.0003 25.8211C22.3131 25.9818 22.7807 26.0506 23.0446 25.9789Z" fill="url(#paint83_radial_498_18540)"/>
<path d="M24.3959 26.5791C24.6312 26.5533 24.7459 26.5361 24.9755 26.4902C25.2222 26.4414 25.1935 26.2721 24.9095 26.1115C24.8607 26.0828 24.8378 26.0713 24.789 26.0426C24.505 25.8762 24.0574 25.8016 23.7992 25.8848C23.5611 25.9623 23.4406 25.9967 23.1967 26.0569C22.9356 26.1229 22.97 26.275 23.2684 26.3898C23.3201 26.4098 23.343 26.4184 23.3947 26.4357C23.6959 26.5475 24.1435 26.6078 24.3959 26.5791Z" fill="url(#paint84_radial_498_18540)"/>
<path d="M25.6553 26.9569C25.8763 26.9741 25.9853 26.977 26.2004 26.9741C26.43 26.9712 26.4099 26.8737 26.1488 26.7561C26.1058 26.736 26.0828 26.7274 26.0398 26.7044C25.7787 26.581 25.3598 26.5151 25.116 26.5581C24.8893 26.5983 24.7746 26.6126 24.5422 26.6356C24.2926 26.6585 24.3184 26.7331 24.5996 26.7991C24.6483 26.8106 24.6713 26.8163 24.7172 26.8249C24.9955 26.8794 25.4172 26.9368 25.6553 26.9569Z" fill="url(#paint85_radial_498_18540)"/>
<path d="M33.3615 24.8604C33.3615 24.8604 33.4849 25.6895 34.3025 26.4641C35.1173 27.2359 35.9666 28.1138 33.7287 29.9413C31.4909 31.7689 31.4479 32.2853 30.6245 31.8607C29.804 31.4332 28.6478 30.2426 28.1715 29.7491C27.6953 29.2585 30.2257 28.7105 31.3848 27.4539C32.5467 26.1944 33.3615 24.8604 33.3615 24.8604Z" fill="url(#paint86_linear_498_18540)"/>
<path opacity="0.2" d="M4.56257 0.0229519V0.883648H4.50519C7.10163 0.883648 12.8626 3.69238 19.9461 9.99555C27.2362 16.4795 30.5958 22.6707 28.5932 25.8496C27.9391 26.277 27.1673 26.4922 26.3124 26.4922C22.9011 26.4922 18.0784 23.1814 12.7334 17.1766C9.21033 13.2146 6.51062 9.45618 4.93554 6.30603C3.46662 3.37393 3.39203 1.66401 3.7736 0.989801C3.89984 0.929552 3.99165 0.863565 4.56544 0.863565V0.0229519M4.44495 0C3.87115 0 3.41498 0.117628 3.10226 0.355754C1.44972 2.48454 4.59413 9.32134 12.0879 17.7418C17.6509 23.9933 22.6286 27.3472 26.3066 27.3472C27.394 27.3472 28.3666 27.0545 29.2072 26.4578C31.6143 22.9835 28.5903 16.5454 20.4912 9.33855C13.4478 3.07842 7.37131 0 4.44495 0Z" fill="#424242"/>
<path d="M18.6809 21.2074C21.2228 19.7643 20.9875 19.4488 22.7233 20.9607C24.3098 22.3436 27.8071 24.7592 29.5572 25.1839C27.8645 22.969 25.9308 19.4057 24.5221 16.4421C22.1782 11.5017 20.385 8.73883 20.3133 6.19117C20.2416 3.64351 22.8983 2.53034 22.8954 2.53321C20.7092 4.28903 21.4953 7.69452 26.1574 13.2116C30.8195 18.7286 31.4823 18.7086 32.7188 21.4599C33.9553 24.2113 34.1877 25.4851 32.627 27.0688C32.5467 27.1491 32.4606 27.2036 32.3659 27.2409C32.079 27.8262 31.5569 28.6611 30.7392 29.1689C29.3793 30.0095 27.6034 29.2435 25.4201 29.2922C22.2183 29.364 20.4281 25.4822 18.9592 25.2871C16.948 25.0232 15.436 25.2699 15.436 25.2699C15.436 25.2699 16.1389 22.6534 18.6809 21.2074Z" fill="url(#paint87_linear_498_18540)"/>
<path d="M25.2423 24.0534C25.2423 24.0534 24.396 19.2508 19.3179 19.8332C14.2398 20.4156 12.9487 22.7366 12.0421 25.6515C11.6175 27.0171 12.4237 30.2419 12.4237 30.2419C12.4237 30.2419 12.9487 28.0901 14.8623 26.0818C15.9411 24.9514 19.9003 24.2256 22.2471 24.9256C24.5968 25.6257 25.0817 27.1261 25.2022 26.056C25.3227 24.9887 25.2796 24.2026 25.2796 24.2026" fill="url(#paint88_linear_498_18540)"/>
<path d="M27.5432 7.96777C27.5432 7.96777 26.7513 10.0248 27.2276 12.6241C27.7038 15.2206 29.7752 17.3608 30.3146 20.3015C30.854 23.2451 34.2853 23.9939 32.4118 26.3695C30.6417 28.6159 26.3497 26.5215 24.9209 20.7663C23.495 15.014 25.6095 10.1138 27.5432 7.96777Z" fill="url(#paint89_linear_498_18540)"/>
<path opacity="0.2" d="M21.3003 7.18096C21.8541 8.75317 22.9471 10.5721 24.5739 12.6349C24.7374 12.8443 24.9899 12.962 25.2481 12.962C25.2968 12.962 25.3456 12.9591 25.3944 12.9505C25.7042 12.896 25.9624 12.6779 26.0629 12.3767C26.1231 12.1988 26.1862 12.0238 26.2522 11.8517C26.278 12.1529 26.3211 12.4628 26.3784 12.7784C26.6108 14.0493 27.1588 15.1625 27.7986 16.3789C27.8302 16.4421 27.8732 16.4994 27.9191 16.5539C28.3839 17.0732 28.7827 17.5122 29.1327 17.8966C30.7106 19.6266 31.1869 20.1488 31.9357 21.8157C32.6558 23.4166 33.0259 24.501 32.7878 25.3015C32.7246 25.5138 32.7447 25.7433 32.848 25.9413C33.0661 26.3659 33.3587 26.7532 33.7144 27.0917C34.0415 27.4016 34.3141 27.677 34.3055 27.8922C34.3026 28.0069 34.2079 28.443 33.1866 29.275C32.5209 29.8201 32.039 30.2534 31.6861 30.5718C31.4451 30.7899 31.1955 31.0136 31.0578 31.1112C31.0463 31.1054 31.0377 31.0997 31.0233 31.094C30.4323 30.787 29.5085 29.8804 29.0122 29.3754C29.0007 29.3008 28.9777 29.2234 28.9462 29.1517C28.82 28.8705 28.556 28.6783 28.249 28.6467C28.0711 28.6266 27.8875 28.6066 27.701 28.5836C27.0785 28.509 26.3756 28.4258 25.621 28.4258C25.5464 28.4258 25.4718 28.4258 25.3973 28.4287H25.3284C23.7619 28.4287 22.5426 27.195 21.4667 26.1048C20.6405 25.2671 19.9261 24.5441 19.0683 24.4322C18.417 24.3461 17.7514 24.3031 17.0858 24.3031C16.9022 24.3031 16.7186 24.3059 16.5378 24.3117C16.4604 24.3146 16.3829 24.3289 16.3083 24.3518C15.3615 24.6531 14.6644 25.0347 14.234 25.488C13.6401 26.1105 13.1725 26.7446 12.8024 27.3356C12.7536 26.7417 12.7594 26.2196 12.8569 25.9068C13.6746 23.2817 14.6758 21.2304 19.4097 20.6882C19.6621 20.6595 19.906 20.6451 20.1441 20.6451C21.8397 20.6451 23.0992 21.3939 23.891 22.8715C23.9542 22.9891 24.0431 23.0895 24.1492 23.1641C24.5251 23.4338 24.9239 23.7063 25.3341 23.976C25.4776 24.0707 25.644 24.1166 25.8075 24.1166C26.0112 24.1166 26.2149 24.0449 26.3756 23.9014C26.6653 23.6461 26.7514 23.2272 26.5821 22.8801C26.2379 22.1714 25.9596 21.3882 25.753 20.559C25.4116 19.1762 25.2653 17.7647 25.3255 16.3617C25.3313 16.2211 25.3026 16.0834 25.2423 15.9543C24.6714 14.7522 24.1263 13.6706 23.6472 12.7152C22.468 10.3627 21.6102 8.65562 21.3003 7.18096ZM22.8955 2.5332C22.8926 2.5332 20.2417 3.64637 20.3134 6.19116C20.3851 8.71587 22.1496 11.4586 24.4677 16.3273C24.4103 17.7216 24.5337 19.2135 24.921 20.7685C25.1505 21.6952 25.4546 22.5243 25.8104 23.2559C25.4145 22.9977 25.0272 22.7309 24.6542 22.4641C24.0029 21.2505 22.6947 19.7844 20.1499 19.7844C19.8859 19.7844 19.6105 19.7988 19.3179 19.8332C14.2398 20.4156 12.9487 22.7366 12.0421 25.6515C11.6175 27.0171 12.4237 30.2419 12.4237 30.2419C12.4237 30.2419 12.9487 28.0901 14.8623 26.0818C15.198 25.729 15.8148 25.4162 16.5751 25.1724C16.7329 25.1666 16.9079 25.1638 17.0915 25.1638C17.6252 25.1638 18.2621 25.1925 18.9621 25.2843C20.4167 25.4765 22.1869 29.2894 25.3341 29.2894H25.4202C25.4891 29.2865 25.5579 29.2865 25.6239 29.2865C26.5448 29.2865 27.3883 29.4213 28.1601 29.5017C28.0998 29.5877 28.097 29.6681 28.1716 29.7455C28.6478 30.2361 29.8011 31.4296 30.6245 31.8571C30.8024 31.9489 30.9459 31.9977 31.0807 31.9977C31.5684 31.9977 31.9758 31.3694 33.7288 29.9378C35.9666 28.1102 35.1174 27.2323 34.3026 26.4606C33.9669 26.1421 33.7517 25.8179 33.6083 25.5425C33.9239 24.4867 33.548 23.3075 32.7189 21.4599C31.7377 19.2737 31.1123 18.8319 28.5589 15.9773C27.9793 14.8756 27.44 13.794 27.2248 12.6206C26.7485 10.0241 27.5404 7.9642 27.5404 7.9642C26.7112 8.88514 25.8506 10.311 25.2481 12.0955C21.4036 7.23547 20.8585 4.16853 22.8955 2.5332Z" fill="#424242"/>
<defs>
<linearGradient id="paint0_linear_498_18540" x1="12.516" y1="-3.31418" x2="20.2758" y2="29.1961" gradientUnits="userSpaceOnUse">
<stop stop-color="#FBC02D"/>
<stop offset="1" stop-color="#F57C00"/>
</linearGradient>
<radialGradient id="paint1_radial_498_18540" cx="0" cy="0" r="1" gradientUnits="userSpaceOnUse" gradientTransform="translate(6.24322 -1.83166) rotate(135) scale(31.9717)">
<stop offset="0.0591" stop-color="#FFEE58"/>
<stop offset="0.2654" stop-color="#FEE54F"/>
<stop offset="0.6032" stop-color="#FCCC38"/>
<stop offset="0.7439" stop-color="#FBC02D"/>
</radialGradient>
<radialGradient id="paint2_radial_498_18540" cx="0" cy="0" r="1" gradientUnits="userSpaceOnUse" gradientTransform="translate(6.37033 -1.14652) rotate(135) scale(26.6538)">
<stop offset="0.0591" stop-color="#FFEE58"/>
<stop offset="0.2654" stop-color="#FEE54F"/>
<stop offset="0.6032" stop-color="#FCCC38"/>
<stop offset="0.7439" stop-color="#FBC02D"/>
</radialGradient>
<radialGradient id="paint3_radial_498_18540" cx="0" cy="0" r="1" gradientUnits="userSpaceOnUse" gradientTransform="translate(6.34722 -0.563796) rotate(135) scale(20.9279)">
<stop offset="0.0591" stop-color="#FFEE58"/>
<stop offset="0.2654" stop-color="#FEE54F"/>
<stop offset="0.6032" stop-color="#FCCC38"/>
<stop offset="0.7439" stop-color="#FBC02D"/>
</radialGradient>
<radialGradient id="paint4_radial_498_18540" cx="0" cy="0" r="1" gradientUnits="userSpaceOnUse" gradientTransform="translate(6.16814 -0.0978291) rotate(135) scale(15.5782)">
<stop offset="0.0591" stop-color="#FFEE58"/>
<stop offset="0.2654" stop-color="#FEE54F"/>
<stop offset="0.6032" stop-color="#FCCC38"/>
<stop offset="0.7439" stop-color="#FBC02D"/>
</radialGradient>
<radialGradient id="paint5_radial_498_18540" cx="0" cy="0" r="1" gradientUnits="userSpaceOnUse" gradientTransform="translate(5.82792 0.233728) rotate(135) scale(12.1041)">
<stop offset="0.0591" stop-color="#FFEE58"/>
<stop offset="0.2654" stop-color="#FEE54F"/>
<stop offset="0.6032" stop-color="#FCCC38"/>
<stop offset="0.7439" stop-color="#FBC02D"/>
</radialGradient>
<radialGradient id="paint6_radial_498_18540" cx="0" cy="0" r="1" gradientUnits="userSpaceOnUse" gradientTransform="translate(5.97117 -2.60129) rotate(135) scale(36.7227)">
<stop offset="0.0591" stop-color="#FFEE58"/>
<stop offset="0.2654" stop-color="#FEE54F"/>
<stop offset="0.6032" stop-color="#FCCC38"/>
<stop offset="0.7439" stop-color="#FBC02D"/>
</radialGradient>
<radialGradient id="paint7_radial_498_18540" cx="0" cy="0" r="1" gradientUnits="userSpaceOnUse" gradientTransform="translate(5.56012 -3.44041) rotate(135) scale(40.9687)">
<stop offset="0.0591" stop-color="#FFEE58"/>
<stop offset="0.2654" stop-color="#FEE54F"/>
<stop offset="0.6032" stop-color="#FCCC38"/>
<stop offset="0.7439" stop-color="#FBC02D"/>
</radialGradient>
<radialGradient id="paint8_radial_498_18540" cx="0" cy="0" r="1" gradientUnits="userSpaceOnUse" gradientTransform="translate(4.99105 -4.35646) rotate(135) scale(44.8849)">
<stop offset="0.0591" stop-color="#FFEE58"/>
<stop offset="0.2654" stop-color="#FEE54F"/>
<stop offset="0.6032" stop-color="#FCCC38"/>
<stop offset="0.7439" stop-color="#FBC02D"/>
</radialGradient>
<radialGradient id="paint9_radial_498_18540" cx="0" cy="0" r="1" gradientUnits="userSpaceOnUse" gradientTransform="translate(4.45473 -5.14931) rotate(135) scale(47.9374)">
<stop offset="0.0591" stop-color="#FFEE58"/>
<stop offset="0.2654" stop-color="#FEE54F"/>
<stop offset="0.6032" stop-color="#FCCC38"/>
<stop offset="0.7439" stop-color="#FBC02D"/>
</radialGradient>
<radialGradient id="paint10_radial_498_18540" cx="0" cy="0" r="1" gradientUnits="userSpaceOnUse" gradientTransform="translate(5.26579 -4.47191) rotate(135) scale(46.4972)">
<stop offset="0.0591" stop-color="#FFEE58"/>
<stop offset="0.2654" stop-color="#FEE54F"/>
<stop offset="0.6032" stop-color="#FCCC38"/>
<stop offset="0.7439" stop-color="#FBC02D"/>
</radialGradient>
<radialGradient id="paint11_radial_498_18540" cx="0" cy="0" r="1" gradientUnits="userSpaceOnUse" gradientTransform="translate(6.45195 -3.43636) rotate(135) scale(44.116)">
<stop offset="0.0591" stop-color="#FFEE58"/>
<stop offset="0.2654" stop-color="#FEE54F"/>
<stop offset="0.6032" stop-color="#FCCC38"/>
<stop offset="0.7439" stop-color="#FBC02D"/>
</radialGradient>
<radialGradient id="paint12_radial_498_18540" cx="0" cy="0" r="1" gradientUnits="userSpaceOnUse" gradientTransform="translate(7.5859 -2.02122) rotate(135) scale(41.2843)">
<stop offset="0.0591" stop-color="#FFEE58"/>
<stop offset="0.2654" stop-color="#FEE54F"/>
<stop offset="0.6032" stop-color="#FCCC38"/>
<stop offset="0.7439" stop-color="#FBC02D"/>
</radialGradient>
<radialGradient id="paint13_radial_498_18540" cx="0" cy="0" r="1" gradientUnits="userSpaceOnUse" gradientTransform="translate(8.90517 -0.441095) rotate(135) scale(38.2604)">
<stop offset="0.0591" stop-color="#FFEE58"/>
<stop offset="0.2654" stop-color="#FEE54F"/>
<stop offset="0.6032" stop-color="#FCCC38"/>
<stop offset="0.7439" stop-color="#FBC02D"/>
</radialGradient>
<radialGradient id="paint14_radial_498_18540" cx="0" cy="0" r="1" gradientUnits="userSpaceOnUse" gradientTransform="translate(10.3452 1.38412) rotate(135) scale(35.0243)">
<stop offset="0.0591" stop-color="#FFEE58"/>
<stop offset="0.2654" stop-color="#FEE54F"/>
<stop offset="0.6032" stop-color="#FCCC38"/>
<stop offset="0.7439" stop-color="#FBC02D"/>
</radialGradient>
<radialGradient id="paint15_radial_498_18540" cx="0" cy="0" r="1" gradientUnits="userSpaceOnUse" gradientTransform="translate(11.9159 3.45787) rotate(135) scale(31.6045)">
<stop offset="0.0591" stop-color="#FFEE58"/>
<stop offset="0.2654" stop-color="#FEE54F"/>
<stop offset="0.6032" stop-color="#FCCC38"/>
<stop offset="0.7439" stop-color="#FBC02D"/>
</radialGradient>
<radialGradient id="paint16_radial_498_18540" cx="0" cy="0" r="1" gradientUnits="userSpaceOnUse" gradientTransform="translate(13.6283 5.78667) rotate(135) scale(28.0289)">
<stop offset="0.0591" stop-color="#FFEE58"/>
<stop offset="0.2654" stop-color="#FEE54F"/>
<stop offset="0.6032" stop-color="#FCCC38"/>
<stop offset="0.7439" stop-color="#FBC02D"/>
</radialGradient>
<radialGradient id="paint17_radial_498_18540" cx="0" cy="0" r="1" gradientUnits="userSpaceOnUse" gradientTransform="translate(15.4902 8.37237) rotate(135) scale(24.313)">
<stop offset="0.0591" stop-color="#FFEE58"/>
<stop offset="0.2654" stop-color="#FEE54F"/>
<stop offset="0.6032" stop-color="#FCCC38"/>
<stop offset="0.7439" stop-color="#FBC02D"/>
</radialGradient>
<radialGradient id="paint18_radial_498_18540" cx="0" cy="0" r="1" gradientUnits="userSpaceOnUse" gradientTransform="translate(6.20782 -1.8751) rotate(135) scale(29.6564)">
<stop offset="0.0591" stop-color="#FFEE58"/>
<stop offset="0.2654" stop-color="#FEE54F"/>
<stop offset="0.6032" stop-color="#FCCC38"/>
<stop offset="0.7439" stop-color="#FBC02D"/>
</radialGradient>
<radialGradient id="paint19_radial_498_18540" cx="0" cy="0" r="1" gradientUnits="userSpaceOnUse" gradientTransform="translate(6.39304 -1.18415) rotate(135) scale(24.914)">
<stop offset="0.0591" stop-color="#FFEE58"/>
<stop offset="0.2654" stop-color="#FEE54F"/>
<stop offset="0.6032" stop-color="#FCCC38"/>
<stop offset="0.7439" stop-color="#FBC02D"/>
</radialGradient>
<radialGradient id="paint20_radial_498_18540" cx="0" cy="0" r="1" gradientUnits="userSpaceOnUse" gradientTransform="translate(6.47577 -0.551827) rotate(135) scale(20.1039)">
<stop offset="0.0591" stop-color="#FFEE58"/>
<stop offset="0.2654" stop-color="#FEE54F"/>
<stop offset="0.6032" stop-color="#FCCC38"/>
<stop offset="0.7439" stop-color="#FBC02D"/>
</radialGradient>
<radialGradient id="paint21_radial_498_18540" cx="0" cy="0" r="1" gradientUnits="userSpaceOnUse" gradientTransform="translate(6.45899 0.0133803) rotate(135) scale(15.7988)">
<stop offset="0.0591" stop-color="#FFEE58"/>
<stop offset="0.2654" stop-color="#FEE54F"/>
<stop offset="0.6032" stop-color="#FCCC38"/>
<stop offset="0.7439" stop-color="#FBC02D"/>
</radialGradient>
<radialGradient id="paint22_radial_498_18540" cx="0" cy="0" r="1" gradientUnits="userSpaceOnUse" gradientTransform="translate(6.34989 0.502454) rotate(135) scale(12.7993)">
<stop offset="0.0591" stop-color="#FFEE58"/>
<stop offset="0.2654" stop-color="#FEE54F"/>
<stop offset="0.6032" stop-color="#FCCC38"/>
<stop offset="0.7439" stop-color="#FBC02D"/>
</radialGradient>
<radialGradient id="paint23_radial_498_18540" cx="0" cy="0" r="1" gradientUnits="userSpaceOnUse" gradientTransform="translate(5.92162 -2.61066) rotate(135) scale(34.0689)">
<stop offset="0.0591" stop-color="#FFEE58"/>
<stop offset="0.2654" stop-color="#FEE54F"/>
<stop offset="0.6032" stop-color="#FCCC38"/>
<stop offset="0.7439" stop-color="#FBC02D"/>
</radialGradient>
<radialGradient id="paint24_radial_498_18540" cx="0" cy="0" r="1" gradientUnits="userSpaceOnUse" gradientTransform="translate(5.53679 -3.37672) rotate(135) scale(38.0768)">
<stop offset="0.0591" stop-color="#FFEE58"/>
<stop offset="0.2654" stop-color="#FEE54F"/>
<stop offset="0.6032" stop-color="#FCCC38"/>
<stop offset="0.7439" stop-color="#FBC02D"/>
</radialGradient>
<radialGradient id="paint25_radial_498_18540" cx="0" cy="0" r="1" gradientUnits="userSpaceOnUse" gradientTransform="translate(5.05705 -4.15987) rotate(135) scale(41.6975)">
<stop offset="0.0591" stop-color="#FFEE58"/>
<stop offset="0.2654" stop-color="#FEE54F"/>
<stop offset="0.6032" stop-color="#FCCC38"/>
<stop offset="0.7439" stop-color="#FBC02D"/>
</radialGradient>
<radialGradient id="paint26_radial_498_18540" cx="0" cy="0" r="1" gradientUnits="userSpaceOnUse" gradientTransform="translate(4.59144 -4.83941) rotate(135) scale(44.6754)">
<stop offset="0.0591" stop-color="#FFEE58"/>
<stop offset="0.2654" stop-color="#FEE54F"/>
<stop offset="0.6032" stop-color="#FCCC38"/>
<stop offset="0.7439" stop-color="#FBC02D"/>
</radialGradient>
<radialGradient id="paint27_radial_498_18540" cx="0" cy="0" r="1" gradientUnits="userSpaceOnUse" gradientTransform="translate(5.28671 -4.23116) rotate(135) scale(44.0098)">
<stop offset="0.0591" stop-color="#FFEE58"/>
<stop offset="0.2654" stop-color="#FEE54F"/>
<stop offset="0.6032" stop-color="#FCCC38"/>
<stop offset="0.7439" stop-color="#FBC02D"/>
</radialGradient>
<radialGradient id="paint28_radial_498_18540" cx="0" cy="0" r="1" gradientUnits="userSpaceOnUse" gradientTransform="translate(6.16979 -3.3117) rotate(135) scale(42.4721)">
<stop offset="0.0591" stop-color="#FFEE58"/>
<stop offset="0.2654" stop-color="#FEE54F"/>
<stop offset="0.6032" stop-color="#FCCC38"/>
<stop offset="0.7439" stop-color="#FBC02D"/>
</radialGradient>
<radialGradient id="paint29_radial_498_18540" cx="0" cy="0" r="1" gradientUnits="userSpaceOnUse" gradientTransform="translate(7.11472 -2.22392) rotate(135) scale(40.5441)">
<stop offset="0.0591" stop-color="#FFEE58"/>
<stop offset="0.2654" stop-color="#FEE54F"/>
<stop offset="0.6032" stop-color="#FCCC38"/>
<stop offset="0.7439" stop-color="#FBC02D"/>
</radialGradient>
<radialGradient id="paint30_radial_498_18540" cx="0" cy="0" r="1" gradientUnits="userSpaceOnUse" gradientTransform="translate(8.11478 -0.956252) rotate(135) scale(38.3092)">
<stop offset="0.0591" stop-color="#FFEE58"/>
<stop offset="0.2654" stop-color="#FEE54F"/>
<stop offset="0.6032" stop-color="#FCCC38"/>
<stop offset="0.7439" stop-color="#FBC02D"/>
</radialGradient>
<radialGradient id="paint31_radial_498_18540" cx="0" cy="0" r="1" gradientUnits="userSpaceOnUse" gradientTransform="translate(9.17301 0.48709) rotate(135) scale(35.8419)">
<stop offset="0.0591" stop-color="#FFEE58"/>
<stop offset="0.2654" stop-color="#FEE54F"/>
<stop offset="0.6032" stop-color="#FCCC38"/>
<stop offset="0.7439" stop-color="#FBC02D"/>
</radialGradient>
<radialGradient id="paint32_radial_498_18540" cx="0" cy="0" r="1" gradientUnits="userSpaceOnUse" gradientTransform="translate(10.2877 2.09588) rotate(135) scale(33.2053)">
<stop offset="0.0591" stop-color="#FFEE58"/>
<stop offset="0.2654" stop-color="#FEE54F"/>
<stop offset="0.6032" stop-color="#FCCC38"/>
<stop offset="0.7439" stop-color="#FBC02D"/>
</radialGradient>
<radialGradient id="paint33_radial_498_18540" cx="0" cy="0" r="1" gradientUnits="userSpaceOnUse" gradientTransform="translate(11.4498 3.85117) rotate(135) scale(30.4569)">
<stop offset="0.0591" stop-color="#FFEE58"/>
<stop offset="0.2654" stop-color="#FEE54F"/>
<stop offset="0.6032" stop-color="#FCCC38"/>
<stop offset="0.7439" stop-color="#FBC02D"/>
</radialGradient>
<radialGradient id="paint34_radial_498_18540" cx="0" cy="0" r="1" gradientUnits="userSpaceOnUse" gradientTransform="translate(12.6383 5.71842) rotate(135) scale(27.6645)">
<stop offset="0.0591" stop-color="#FFEE58"/>
<stop offset="0.2654" stop-color="#FEE54F"/>
<stop offset="0.6032" stop-color="#FCCC38"/>
<stop offset="0.7439" stop-color="#FBC02D"/>
</radialGradient>
<radialGradient id="paint35_radial_498_18540" cx="0" cy="0" r="1" gradientUnits="userSpaceOnUse" gradientTransform="translate(6.15447 -1.8475) rotate(135) scale(36.7657)">
<stop offset="0.0591" stop-color="#FFEE58"/>
<stop offset="0.2654" stop-color="#FEE54F"/>
<stop offset="0.6032" stop-color="#FCCC38"/>
<stop offset="0.7439" stop-color="#FBC02D"/>
</radialGradient>
<radialGradient id="paint36_radial_498_18540" cx="0" cy="0" r="1" gradientUnits="userSpaceOnUse" gradientTransform="translate(6.32374 -1.14391) rotate(135) scale(32.052)">
<stop offset="0.0591" stop-color="#FFEE58"/>
<stop offset="0.2654" stop-color="#FEE54F"/>
<stop offset="0.6032" stop-color="#FCCC38"/>
<stop offset="0.7439" stop-color="#FBC02D"/>
</radialGradient>
<radialGradient id="paint37_radial_498_18540" cx="0" cy="0" r="1" gradientUnits="userSpaceOnUse" gradientTransform="translate(6.39087 -0.495477) rotate(135) scale(25.7851)">
<stop offset="0.0591" stop-color="#FFEE58"/>
<stop offset="0.2654" stop-color="#FEE54F"/>
<stop offset="0.6032" stop-color="#FCCC38"/>
<stop offset="0.7439" stop-color="#FBC02D"/>
</radialGradient>
<radialGradient id="paint38_radial_498_18540" cx="0" cy="0" r="1" gradientUnits="userSpaceOnUse" gradientTransform="translate(6.35674 0.089273) rotate(135) scale(17.6834)">
<stop offset="0.0591" stop-color="#FFEE58"/>
<stop offset="0.2654" stop-color="#FEE54F"/>
<stop offset="0.6032" stop-color="#FCCC38"/>
<stop offset="0.7439" stop-color="#FBC02D"/>
</radialGradient>
<radialGradient id="paint39_radial_498_18540" cx="0" cy="0" r="1" gradientUnits="userSpaceOnUse" gradientTransform="translate(6.22712 0.604328) rotate(135) scale(12.7106)">
<stop offset="0.0591" stop-color="#FFEE58"/>
<stop offset="0.2654" stop-color="#FEE54F"/>
<stop offset="0.6032" stop-color="#FCCC38"/>
<stop offset="0.7439" stop-color="#FBC02D"/>
</radialGradient>
<radialGradient id="paint40_radial_498_18540" cx="0" cy="0" r="1" gradientUnits="userSpaceOnUse" gradientTransform="translate(5.88508 -2.59125) rotate(135) scale(40.59)">
<stop offset="0.0591" stop-color="#FFEE58"/>
<stop offset="0.2654" stop-color="#FEE54F"/>
<stop offset="0.6032" stop-color="#FCCC38"/>
<stop offset="0.7439" stop-color="#FBC02D"/>
</radialGradient>
<radialGradient id="paint41_radial_498_18540" cx="0" cy="0" r="1" gradientUnits="userSpaceOnUse" gradientTransform="translate(5.51864 -3.36268) rotate(135) scale(43.8836)">
<stop offset="0.0591" stop-color="#FFEE58"/>
<stop offset="0.2654" stop-color="#FEE54F"/>
<stop offset="0.6032" stop-color="#FCCC38"/>
<stop offset="0.7439" stop-color="#FBC02D"/>
</radialGradient>
<radialGradient id="paint42_radial_498_18540" cx="0" cy="0" r="1" gradientUnits="userSpaceOnUse" gradientTransform="translate(5.05926 -4.14711) rotate(135) scale(46.83)">
<stop offset="0.0591" stop-color="#FFEE58"/>
<stop offset="0.2654" stop-color="#FEE54F"/>
<stop offset="0.6032" stop-color="#FCCC38"/>
<stop offset="0.7439" stop-color="#FBC02D"/>
</radialGradient>
<radialGradient id="paint43_radial_498_18540" cx="0" cy="0" r="1" gradientUnits="userSpaceOnUse" gradientTransform="translate(4.58795 -4.85353) rotate(135) scale(49.2543)">
<stop offset="0.0591" stop-color="#FFEE58"/>
<stop offset="0.2654" stop-color="#FEE54F"/>
<stop offset="0.6032" stop-color="#FCCC38"/>
<stop offset="0.7439" stop-color="#FBC02D"/>
</radialGradient>
<radialGradient id="paint44_radial_498_18540" cx="0" cy="0" r="1" gradientUnits="userSpaceOnUse" gradientTransform="translate(5.2596 -4.29386) rotate(135) scale(47.6075)">
<stop offset="0.0591" stop-color="#FFEE58"/>
<stop offset="0.2654" stop-color="#FEE54F"/>
<stop offset="0.6032" stop-color="#FCCC38"/>
<stop offset="0.7439" stop-color="#FBC02D"/>
</radialGradient>
<radialGradient id="paint45_radial_498_18540" cx="0" cy="0" r="1" gradientUnits="userSpaceOnUse" gradientTransform="translate(6.14089 -3.39835) rotate(135) scale(45.2463)">
<stop offset="0.0591" stop-color="#FFEE58"/>
<stop offset="0.2654" stop-color="#FEE54F"/>
<stop offset="0.6032" stop-color="#FCCC38"/>
<stop offset="0.7439" stop-color="#FBC02D"/>
</radialGradient>
<radialGradient id="paint46_radial_498_18540" cx="0" cy="0" r="1" gradientUnits="userSpaceOnUse" gradientTransform="translate(7.07308 -2.32514) rotate(135) scale(42.7131)">
<stop offset="0.0591" stop-color="#FFEE58"/>
<stop offset="0.2654" stop-color="#FEE54F"/>
<stop offset="0.6032" stop-color="#FCCC38"/>
<stop offset="0.7439" stop-color="#FBC02D"/>
</radialGradient>
<radialGradient id="paint47_radial_498_18540" cx="0" cy="0" r="1" gradientUnits="userSpaceOnUse" gradientTransform="translate(8.05804 -1.07071) rotate(135) scale(40.0478)">
<stop offset="0.0591" stop-color="#FFEE58"/>
<stop offset="0.2654" stop-color="#FEE54F"/>
<stop offset="0.6032" stop-color="#FCCC38"/>
<stop offset="0.7439" stop-color="#FBC02D"/>
</radialGradient>
<radialGradient id="paint48_radial_498_18540" cx="0" cy="0" r="1" gradientUnits="userSpaceOnUse" gradientTransform="translate(9.09852 0.361028) rotate(135) scale(37.2735)">
<stop offset="0.0591" stop-color="#FFEE58"/>
<stop offset="0.2654" stop-color="#FEE54F"/>
<stop offset="0.6032" stop-color="#FCCC38"/>
<stop offset="0.7439" stop-color="#FBC02D"/>
</radialGradient>
<radialGradient id="paint49_radial_498_18540" cx="0" cy="0" r="1" gradientUnits="userSpaceOnUse" gradientTransform="translate(10.1928 1.9627) rotate(135) scale(34.4189)">
<stop offset="0.0591" stop-color="#FFEE58"/>
<stop offset="0.2654" stop-color="#FEE54F"/>
<stop offset="0.6032" stop-color="#FCCC38"/>
<stop offset="0.7439" stop-color="#FBC02D"/>
</radialGradient>
<radialGradient id="paint50_radial_498_18540" cx="0" cy="0" r="1" gradientUnits="userSpaceOnUse" gradientTransform="translate(11.3314 3.71835) rotate(135) scale(31.5213)">
<stop offset="0.0591" stop-color="#FFEE58"/>
<stop offset="0.2654" stop-color="#FEE54F"/>
<stop offset="0.6032" stop-color="#FCCC38"/>
<stop offset="0.7439" stop-color="#FBC02D"/>
</radialGradient>
<radialGradient id="paint51_radial_498_18540" cx="0" cy="0" r="1" gradientUnits="userSpaceOnUse" gradientTransform="translate(12.4904 5.59346) rotate(135) scale(28.6219)">
<stop offset="0.0591" stop-color="#FFEE58"/>
<stop offset="0.2654" stop-color="#FEE54F"/>
<stop offset="0.6032" stop-color="#FCCC38"/>
<stop offset="0.7439" stop-color="#FBC02D"/>
</radialGradient>
<radialGradient id="paint52_radial_498_18540" cx="0" cy="0" r="1" gradientUnits="userSpaceOnUse" gradientTransform="translate(6.40484 -1.52) rotate(135) scale(40.5757)">
<stop offset="0.0591" stop-color="#FFEE58"/>
<stop offset="0.2654" stop-color="#FEE54F"/>
<stop offset="0.6032" stop-color="#FCCC38"/>
<stop offset="0.7439" stop-color="#FBC02D"/>
</radialGradient>
<radialGradient id="paint53_radial_498_18540" cx="0" cy="0" r="1" gradientUnits="userSpaceOnUse" gradientTransform="translate(6.60564 -0.783266) rotate(135) scale(38.16)">
<stop offset="0.0591" stop-color="#FFEE58"/>
<stop offset="0.2654" stop-color="#FEE54F"/>
<stop offset="0.6032" stop-color="#FCCC38"/>
<stop offset="0.7439" stop-color="#FBC02D"/>
</radialGradient>
<radialGradient id="paint54_radial_498_18540" cx="0" cy="0" r="1" gradientUnits="userSpaceOnUse" gradientTransform="translate(6.75788 -0.0467317) rotate(135) scale(35.1935)">
<stop offset="0.0591" stop-color="#FFEE58"/>
<stop offset="0.2654" stop-color="#FEE54F"/>
<stop offset="0.6032" stop-color="#FCCC38"/>
<stop offset="0.7439" stop-color="#FBC02D"/>
</radialGradient>
<radialGradient id="paint55_radial_498_18540" cx="0" cy="0" r="1" gradientUnits="userSpaceOnUse" gradientTransform="translate(6.87734 0.695042) rotate(135) scale(28.767)">
<stop offset="0.0591" stop-color="#FFEE58"/>
<stop offset="0.2654" stop-color="#FEE54F"/>
<stop offset="0.6032" stop-color="#FCCC38"/>
<stop offset="0.7439" stop-color="#FBC02D"/>
</radialGradient>
<radialGradient id="paint56_radial_498_18540" cx="0" cy="0" r="1" gradientUnits="userSpaceOnUse" gradientTransform="translate(6.99318 1.46123) rotate(135) scale(17.0999)">
<stop offset="0.0591" stop-color="#FFEE58"/>
<stop offset="0.2654" stop-color="#FEE54F"/>
<stop offset="0.6032" stop-color="#FCCC38"/>
<stop offset="0.7439" stop-color="#FBC02D"/>
</radialGradient>
<radialGradient id="paint57_radial_498_18540" cx="0" cy="0" r="1" gradientUnits="userSpaceOnUse" gradientTransform="translate(6.14602 -2.2545) rotate(135) scale(42.8164)">
<stop offset="0.0591" stop-color="#FFEE58"/>
<stop offset="0.2654" stop-color="#FEE54F"/>
<stop offset="0.6032" stop-color="#FCCC38"/>
<stop offset="0.7439" stop-color="#FBC02D"/>
</radialGradient>
<radialGradient id="paint58_radial_498_18540" cx="0" cy="0" r="1" gradientUnits="userSpaceOnUse" gradientTransform="translate(5.8261 -2.98183) rotate(135) scale(44.9595)">
<stop offset="0.0591" stop-color="#FFEE58"/>
<stop offset="0.2654" stop-color="#FEE54F"/>
<stop offset="0.6032" stop-color="#FCCC38"/>
<stop offset="0.7439" stop-color="#FBC02D"/>
</radialGradient>
<radialGradient id="paint59_radial_498_18540" cx="0" cy="0" r="1" gradientUnits="userSpaceOnUse" gradientTransform="translate(5.44352 -3.69156) rotate(135) scale(47.0136)">
<stop offset="0.0591" stop-color="#FFEE58"/>
<stop offset="0.2654" stop-color="#FEE54F"/>
<stop offset="0.6032" stop-color="#FCCC38"/>
<stop offset="0.7439" stop-color="#FBC02D"/>
</radialGradient>
<radialGradient id="paint60_radial_498_18540" cx="0" cy="0" r="1" gradientUnits="userSpaceOnUse" gradientTransform="translate(5.12899 -4.24184) rotate(135) scale(48.5084)">
<stop offset="0.0591" stop-color="#FFEE58"/>
<stop offset="0.2654" stop-color="#FEE54F"/>
<stop offset="0.6032" stop-color="#FCCC38"/>
<stop offset="0.7439" stop-color="#FBC02D"/>
</radialGradient>
<radialGradient id="paint61_radial_498_18540" cx="0" cy="0" r="1" gradientUnits="userSpaceOnUse" gradientTransform="translate(5.85338 -3.63324) rotate(135) scale(46.3911)">
<stop offset="0.0591" stop-color="#FFEE58"/>
<stop offset="0.2654" stop-color="#FEE54F"/>
<stop offset="0.6032" stop-color="#FCCC38"/>
<stop offset="0.7439" stop-color="#FBC02D"/>
</radialGradient>
<radialGradient id="paint62_radial_498_18540" cx="0" cy="0" r="1" gradientUnits="userSpaceOnUse" gradientTransform="translate(6.55477 -2.90978) rotate(135) scale(44.2566)">
<stop offset="0.0591" stop-color="#FFEE58"/>
<stop offset="0.2654" stop-color="#FEE54F"/>
<stop offset="0.6032" stop-color="#FCCC38"/>
<stop offset="0.7439" stop-color="#FBC02D"/>
</radialGradient>
<radialGradient id="paint63_radial_498_18540" cx="0" cy="0" r="1" gradientUnits="userSpaceOnUse" gradientTransform="translate(7.24396 -2.0636) rotate(135) scale(42.0819)">
<stop offset="0.0591" stop-color="#FFEE58"/>
<stop offset="0.2654" stop-color="#FEE54F"/>
<stop offset="0.6032" stop-color="#FCCC38"/>
<stop offset="0.7439" stop-color="#FBC02D"/>
</radialGradient>
<radialGradient id="paint64_radial_498_18540" cx="0" cy="0" r="1" gradientUnits="userSpaceOnUse" gradientTransform="translate(7.91195 -1.10868) rotate(135) scale(39.89)">
<stop offset="0.0591" stop-color="#FFEE58"/>
<stop offset="0.2654" stop-color="#FEE54F"/>
<stop offset="0.6032" stop-color="#FCCC38"/>
<stop offset="0.7439" stop-color="#FBC02D"/>
</radialGradient>
<radialGradient id="paint65_radial_498_18540" cx="0" cy="0" r="1" gradientUnits="userSpaceOnUse" gradientTransform="translate(8.54316 -0.067186) rotate(135) scale(37.7153)">
<stop offset="0.0591" stop-color="#FFEE58"/>
<stop offset="0.2654" stop-color="#FEE54F"/>
<stop offset="0.6032" stop-color="#FCCC38"/>
<stop offset="0.7439" stop-color="#FBC02D"/>
</radialGradient>
<radialGradient id="paint66_radial_498_18540" cx="0" cy="0" r="1" gradientUnits="userSpaceOnUse" gradientTransform="translate(9.10821 1.02692) rotate(135) scale(35.6066)">
<stop offset="0.0591" stop-color="#FFEE58"/>
<stop offset="0.2654" stop-color="#FEE54F"/>
<stop offset="0.6032" stop-color="#FCCC38"/>
<stop offset="0.7439" stop-color="#FBC02D"/>
</radialGradient>
<radialGradient id="paint67_radial_498_18540" cx="0" cy="0" r="1" gradientUnits="userSpaceOnUse" gradientTransform="translate(9.55839 2.1173) rotate(135) scale(33.6328)">
<stop offset="0.0591" stop-color="#FFEE58"/>
<stop offset="0.2654" stop-color="#FEE54F"/>
<stop offset="0.6032" stop-color="#FCCC38"/>
<stop offset="0.7439" stop-color="#FBC02D"/>
</radialGradient>
<radialGradient id="paint68_radial_498_18540" cx="0" cy="0" r="1" gradientUnits="userSpaceOnUse" gradientTransform="translate(9.812 3.11854) rotate(135) scale(31.8942)">
<stop offset="0.0591" stop-color="#FFEE58"/>
<stop offset="0.2654" stop-color="#FEE54F"/>
<stop offset="0.6032" stop-color="#FCCC38"/>
<stop offset="0.7439" stop-color="#FBC02D"/>
</radialGradient>
<radialGradient id="paint69_radial_498_18540" cx="0" cy="0" r="1" gradientUnits="userSpaceOnUse" gradientTransform="translate(6.47873 -1.55636) rotate(135) scale(27.4869)">
<stop offset="0.0591" stop-color="#FFEE58"/>
<stop offset="0.2654" stop-color="#FEE54F"/>
<stop offset="0.6032" stop-color="#FCCC38"/>
<stop offset="0.7439" stop-color="#FBC02D"/>
</radialGradient>
<radialGradient id="paint70_radial_498_18540" cx="0" cy="0" r="1" gradientUnits="userSpaceOnUse" gradientTransform="translate(6.76253 -0.900788) rotate(135) scale(23.5533)">
<stop offset="0.0591" stop-color="#FFEE58"/>
<stop offset="0.2654" stop-color="#FEE54F"/>
<stop offset="0.6032" stop-color="#FCCC38"/>
<stop offset="0.7439" stop-color="#FBC02D"/>
</radialGradient>
<radialGradient id="paint71_radial_498_18540" cx="0" cy="0" r="1" gradientUnits="userSpaceOnUse" gradientTransform="translate(7.00068 -0.261393) rotate(135) scale(19.6845)">
<stop offset="0.0591" stop-color="#FFEE58"/>
<stop offset="0.2654" stop-color="#FEE54F"/>
<stop offset="0.6032" stop-color="#FCCC38"/>
<stop offset="0.7439" stop-color="#FBC02D"/>
</radialGradient>
<radialGradient id="paint72_radial_498_18540" cx="0" cy="0" r="1" gradientUnits="userSpaceOnUse" gradientTransform="translate(7.21271 0.363498) rotate(135) scale(16.2544)">
<stop offset="0.0591" stop-color="#FFEE58"/>
<stop offset="0.2654" stop-color="#FEE54F"/>
<stop offset="0.6032" stop-color="#FCCC38"/>
<stop offset="0.7439" stop-color="#FBC02D"/>
</radialGradient>
<radialGradient id="paint73_radial_498_18540" cx="0" cy="0" r="1" gradientUnits="userSpaceOnUse" gradientTransform="translate(7.43364 0.984355) rotate(135) scale(13.7773)">
<stop offset="0.0591" stop-color="#FFEE58"/>
<stop offset="0.2654" stop-color="#FEE54F"/>
<stop offset="0.6032" stop-color="#FCCC38"/>
<stop offset="0.7439" stop-color="#FBC02D"/>
</radialGradient>
<radialGradient id="paint74_radial_498_18540" cx="0" cy="0" r="1" gradientUnits="userSpaceOnUse" gradientTransform="translate(6.13865 -2.22356) rotate(135) scale(31.2688)">
<stop offset="0.0591" stop-color="#FFEE58"/>
<stop offset="0.2654" stop-color="#FEE54F"/>
<stop offset="0.6032" stop-color="#FCCC38"/>
<stop offset="0.7439" stop-color="#FBC02D"/>
</radialGradient>
<radialGradient id="paint75_radial_498_18540" cx="0" cy="0" r="1" gradientUnits="userSpaceOnUse" gradientTransform="translate(5.73789 -2.8925) rotate(135) scale(34.7947)">
<stop offset="0.0591" stop-color="#FFEE58"/>
<stop offset="0.2654" stop-color="#FEE54F"/>
<stop offset="0.6032" stop-color="#FCCC38"/>
<stop offset="0.7439" stop-color="#FBC02D"/>
</radialGradient>
<radialGradient id="paint76_radial_498_18540" cx="0" cy="0" r="1" gradientUnits="userSpaceOnUse" gradientTransform="translate(5.27462 -3.55353) rotate(135) scale(38.0367)">
<stop offset="0.0591" stop-color="#FFEE58"/>
<stop offset="0.2654" stop-color="#FEE54F"/>
<stop offset="0.6032" stop-color="#FCCC38"/>
<stop offset="0.7439" stop-color="#FBC02D"/>
</radialGradient>
<radialGradient id="paint77_radial_498_18540" cx="0" cy="0" r="1" gradientUnits="userSpaceOnUse" gradientTransform="translate(4.90486 -4.03826) rotate(135) scale(40.6101)">
<stop offset="0.0591" stop-color="#FFEE58"/>
<stop offset="0.2654" stop-color="#FEE54F"/>
<stop offset="0.6032" stop-color="#FCCC38"/>
<stop offset="0.7439" stop-color="#FBC02D"/>
</radialGradient>
<radialGradient id="paint78_radial_498_18540" cx="0" cy="0" r="1" gradientUnits="userSpaceOnUse" gradientTransform="translate(5.59818 -3.32886) rotate(135) scale(40.2056)">
<stop offset="0.0591" stop-color="#FFEE58"/>
<stop offset="0.2654" stop-color="#FEE54F"/>
<stop offset="0.6032" stop-color="#FCCC38"/>
<stop offset="0.7439" stop-color="#FBC02D"/>
</radialGradient>
<radialGradient id="paint79_radial_498_18540" cx="0" cy="0" r="1" gradientUnits="userSpaceOnUse" gradientTransform="translate(6.30279 -2.55428) rotate(135) scale(39.3535)">
<stop offset="0.0591" stop-color="#FFEE58"/>
<stop offset="0.2654" stop-color="#FEE54F"/>
<stop offset="0.6032" stop-color="#FCCC38"/>
<stop offset="0.7439" stop-color="#FBC02D"/>
</radialGradient>
<radialGradient id="paint80_radial_498_18540" cx="0" cy="0" r="1" gradientUnits="userSpaceOnUse" gradientTransform="translate(7.0392 -1.69161) rotate(135) scale(38.1199)">
<stop offset="0.0591" stop-color="#FFEE58"/>
<stop offset="0.2654" stop-color="#FEE54F"/>
<stop offset="0.6032" stop-color="#FCCC38"/>
<stop offset="0.7439" stop-color="#FBC02D"/>
</radialGradient>
<radialGradient id="paint81_radial_498_18540" cx="0" cy="0" r="1" gradientUnits="userSpaceOnUse" gradientTransform="translate(7.77665 -0.729837) rotate(135) scale(36.5907)">
<stop offset="0.0591" stop-color="#FFEE58"/>
<stop offset="0.2654" stop-color="#FEE54F"/>
<stop offset="0.6032" stop-color="#FCCC38"/>
<stop offset="0.7439" stop-color="#FBC02D"/>
</radialGradient>
<radialGradient id="paint82_radial_498_18540" cx="0" cy="0" r="1" gradientUnits="userSpaceOnUse" gradientTransform="translate(8.50289 0.308584) rotate(135) scale(34.8693)">
<stop offset="0.0591" stop-color="#FFEE58"/>
<stop offset="0.2654" stop-color="#FEE54F"/>
<stop offset="0.6032" stop-color="#FCCC38"/>
<stop offset="0.7439" stop-color="#FBC02D"/>
</radialGradient>
<radialGradient id="paint83_radial_498_18540" cx="0" cy="0" r="1" gradientUnits="userSpaceOnUse" gradientTransform="translate(9.19631 1.37975) rotate(135) scale(33.0562)">
<stop offset="0.0591" stop-color="#FFEE58"/>
<stop offset="0.2654" stop-color="#FEE54F"/>
<stop offset="0.6032" stop-color="#FCCC38"/>
<stop offset="0.7439" stop-color="#FBC02D"/>
</radialGradient>
<radialGradient id="paint84_radial_498_18540" cx="0" cy="0" r="1" gradientUnits="userSpaceOnUse" gradientTransform="translate(9.81929 2.42006) rotate(135) scale(31.2573)">
<stop offset="0.0591" stop-color="#FFEE58"/>
<stop offset="0.2654" stop-color="#FEE54F"/>
<stop offset="0.6032" stop-color="#FCCC38"/>
<stop offset="0.7439" stop-color="#FBC02D"/>
</radialGradient>
<radialGradient id="paint85_radial_498_18540" cx="0" cy="0" r="1" gradientUnits="userSpaceOnUse" gradientTransform="translate(10.312 3.31794) rotate(135) scale(29.6106)">
<stop offset="0.0591" stop-color="#FFEE58"/>
<stop offset="0.2654" stop-color="#FEE54F"/>
<stop offset="0.6032" stop-color="#FCCC38"/>
<stop offset="0.7439" stop-color="#FBC02D"/>
</radialGradient>
<linearGradient id="paint86_linear_498_18540" x1="32.7366" y1="28.0822" x2="29.198" y2="31.3328" gradientUnits="userSpaceOnUse">
<stop offset="0.0049069" stop-color="#8BC34A"/>
<stop offset="1" stop-color="#558B2F"/>
</linearGradient>
<linearGradient id="paint87_linear_498_18540" x1="34.0325" y1="25.8896" x2="10.3155" y2="6.76439" gradientUnits="userSpaceOnUse">
<stop stop-color="#558B2F"/>
<stop offset="0.9951" stop-color="#8BC34A"/>
</linearGradient>
<linearGradient id="paint88_linear_498_18540" x1="22.9775" y1="19.9849" x2="15.2141" y2="29.4644" gradientUnits="userSpaceOnUse">
<stop offset="0.0049069" stop-color="#8BC34A"/>
<stop offset="1" stop-color="#558B2F"/>
</linearGradient>
<linearGradient id="paint89_linear_498_18540" x1="33.0872" y1="25.9994" x2="24.4802" y2="12.1315" gradientUnits="userSpaceOnUse">
<stop stop-color="#558B2F"/>
<stop offset="0.9951" stop-color="#8BC34A"/>
</linearGradient>
</defs>
</svg>
