<svg width="33" height="32" viewBox="0 0 33 32" fill="none" xmlns="http://www.w3.org/2000/svg">
<path d="M30.8379 32H3.10452C1.92586 32 0.971191 31.0453 0.971191 29.8667V2.13333C0.971191 0.954667 1.92586 0 3.10452 0H30.8379C32.0165 0 32.9712 0.954667 32.9712 2.13333V29.8667C32.9712 31.0453 32.0165 32 30.8379 32Z" fill="url(#paint0_linear_498_18049)"/>
<path opacity="0.2" d="M30.8379 0.8C31.5739 0.8 32.1712 1.39733 32.1712 2.13333V29.8667C32.1712 30.6027 31.5739 31.2 30.8379 31.2H3.10452C2.36852 31.2 1.77119 30.6027 1.77119 29.8667V2.13333C1.77119 1.39733 2.36852 0.8 3.10452 0.8H30.8379ZM30.8379 0H3.10452C1.92586 0 0.971191 0.954667 0.971191 2.13333V29.8667C0.971191 31.0453 1.92586 32 3.10452 32H30.8379C32.0165 32 32.9712 31.0453 32.9712 29.8667V2.13333C32.9712 0.954667 32.0165 0 30.8379 0Z" fill="#424242"/>
<path d="M3.67786 28.5018L6.86452 24.5658L10.0699 26.8005L12.1765 22.4005L15.3765 20.2672L18.5979 25.6005L21.2645 18.1338L24.3979 22.9338L28.1552 16.0218L30.2645 5.3125" stroke="#EFEBE9" stroke-width="1.18318" stroke-miterlimit="10" stroke-linecap="round" stroke-linejoin="round"/>
<path d="M10.7978 9.43704L13.5524 3.50904C13.6298 3.34104 13.7978 3.23438 13.9844 3.23438H15.3498C15.5631 3.23438 15.7018 3.45838 15.6031 3.64771L12.3391 10.0504C12.2458 10.2317 12.3791 10.4477 12.5844 10.4477H14.4324C14.6084 10.4477 14.7524 10.5917 14.7524 10.7677V11.3784C14.7524 11.5544 14.6084 11.6984 14.4324 11.6984H11.7844C11.6298 11.6984 11.5071 11.8237 11.5071 11.9757V13.0744C11.5071 13.229 11.6324 13.3517 11.7844 13.3517H14.4324C14.6084 13.3517 14.7524 13.4957 14.7524 13.6717V14.2717C14.7524 14.4477 14.6084 14.5917 14.4324 14.5917H11.7844C11.6298 14.5917 11.5071 14.717 11.5071 14.869V17.461C11.5071 17.6584 11.3471 17.8184 11.1498 17.8184H9.93111C9.73378 17.8184 9.57378 17.6584 9.57378 17.461V14.869C9.57378 14.7144 9.44845 14.5917 9.29645 14.5917H6.70445C6.52845 14.5917 6.38445 14.4477 6.38445 14.2717V13.6717C6.38445 13.4957 6.52845 13.3517 6.70445 13.3517H9.29378C9.44845 13.3517 9.57111 13.2264 9.57111 13.0744V11.9757C9.57111 11.821 9.44578 11.6984 9.29378 11.6984H6.70445C6.52845 11.6984 6.38445 11.5544 6.38445 11.3784V10.7677C6.38445 10.5917 6.52845 10.4477 6.70445 10.4477H8.57111C8.77645 10.4477 8.90711 10.2317 8.81645 10.0504L5.55245 3.64771C5.45645 3.45838 5.59245 3.23438 5.80578 3.23438H7.20311C7.38711 3.23438 7.55511 3.34104 7.63511 3.50904L10.3898 9.43704C10.4671 9.61038 10.7151 9.61038 10.7978 9.43704Z" fill="#EFEBE9"/>
<defs>
<linearGradient id="paint0_linear_498_18049" x1="16.9712" y1="0.0666667" x2="16.9712" y2="32.1093" gradientUnits="userSpaceOnUse">
<stop stop-color="#81C784"/>
<stop offset="0.4141" stop-color="#6EBE71"/>
<stop offset="1" stop-color="#4CAF50"/>
</linearGradient>
</defs>
</svg>
